<?xml version="1.0" standalone="no"?>
<!DOCTYPE svg PUBLIC "-//W3C//DTD SVG 20010904//EN"
 "http://www.w3.org/TR/2001/REC-SVG-20010904/DTD/svg10.dtd">
<svg version="1.0" xmlns="http://www.w3.org/2000/svg"
 width="512.000000pt" height="512.000000pt" viewBox="0 0 512.000000 512.000000"
 preserveAspectRatio="xMidYMid meet">
<metadata>
Created by potrace 1.16, written by Peter Selinger 2001-2019
</metadata>
<g transform="translate(0.000000,512.000000) scale(0.100000,-0.100000)"
fill="#000000" stroke="none">
<path d="M1545 4274 c-868 -289 -973 -327 -997 -354 l-28 -30 0 -851 0 -851
34 -34 c30 -30 40 -34 86 -34 46 0 56 4 86 34 l34 34 0 740 0 740 378 -125
c207 -69 379 -127 380 -129 2 -1 -14 -33 -36 -71 -110 -189 -162 -388 -162
-623 0 -267 63 -477 208 -695 82 -124 219 -261 335 -335 47 -30 86 -57 86 -60
0 -3 -52 -26 -117 -53 -130 -52 -292 -144 -410 -233 -212 -160 -462 -452 -462
-541 0 -76 47 -123 125 -123 60 0 82 16 147 110 237 340 635 589 1056 660 156
27 388 27 544 0 419 -71 821 -322 1055 -660 66 -94 88 -110 148 -110 78 0 125
47 125 123 0 93 -272 406 -489 561 -119 86 -285 177 -400 222 -56 21 -101 41
-100 44 0 3 39 30 86 60 166 106 350 320 431 500 42 95 79 213 98 315 24 135
16 386 -19 516 -32 121 -76 231 -128 321 -22 38 -39 71 -37 72 1 2 216 74 475
160 533 178 523 173 523 266 0 98 67 69 -1028 434 -669 223 -990 326 -1017
325 -24 0 -424 -129 -1010 -325z m1778 -180 c411 -137 747 -251 747 -254 0 -3
-340 -118 -755 -257 l-755 -251 -755 251 c-415 139 -755 254 -755 257 0 7
1503 509 1515 506 6 -2 346 -115 758 -252z m-1173 -889 c206 -69 391 -125 410
-125 19 0 204 56 410 125 206 69 376 121 379 117 4 -4 20 -28 37 -52 72 -103
132 -257 154 -393 18 -110 8 -321 -20 -417 -116 -403 -467 -696 -870 -728
-304 -25 -579 76 -791 287 -123 124 -211 273 -261 446 -20 70 -23 102 -23 250
0 192 16 273 81 414 25 54 112 201 119 201 0 0 169 -56 375 -125z"/>
</g>
</svg>
