<?xml version="1.0" standalone="no"?>
<!DOCTYPE svg PUBLIC "-//W3C//DTD SVG 20010904//EN"
 "http://www.w3.org/TR/2001/REC-SVG-20010904/DTD/svg10.dtd">
<svg version="1.0" xmlns="http://www.w3.org/2000/svg"
 width="512.000000pt" height="512.000000pt" viewBox="0 0 512.000000 512.000000"
 preserveAspectRatio="xMidYMid meet">
<metadata>
Created by potrace 1.16, written by Peter Selinger 2001-2019
</metadata>
<g transform="translate(0.000000,512.000000) scale(0.100000,-0.100000)"
fill="#000000" stroke="none">
<path d="M2408 5101 c-145 -47 -269 -174 -312 -320 -12 -40 -16 -99 -16 -221
0 -122 4 -181 16 -221 43 -148 168 -274 315 -320 82 -26 216 -26 298 0 147 46
272 172 315 320 22 77 22 365 0 442 -43 148 -168 274 -315 320 -81 25 -222 25
-301 0z m300 -186 c100 -54 148 -131 165 -266 23 -181 -17 -331 -108 -404 -75
-61 -101 -70 -205 -70 -79 0 -102 4 -137 23 -108 57 -158 135 -176 272 -13
109 1 247 32 307 61 120 157 176 296 170 66 -3 90 -8 133 -32z"/>
<path d="M2025 3943 c-139 -32 -262 -66 -293 -81 -66 -32 -145 -115 -180 -189
l-27 -58 -3 -345 -3 -346 31 -42 c93 -129 321 -242 595 -294 108 -20 149 -23
415 -23 263 0 308 3 411 22 277 53 506 166 599 295 l30 41 0 159 c0 145 -2
160 -20 178 -13 13 -33 20 -60 20 -71 0 -80 -19 -80 -163 l0 -123 -32 -33
c-129 -132 -369 -211 -701 -230 -448 -27 -827 61 -996 230 l-31 31 0 241 c0
272 8 343 45 399 46 69 86 87 322 140 119 26 224 48 233 48 8 0 37 -21 63 -48
l47 -47 -35 -275 c-19 -151 -35 -297 -35 -324 0 -50 0 -50 98 -148 94 -94 100
-98 142 -98 42 0 48 4 142 98 98 98 98 98 98 148 0 27 -16 173 -35 324 l-35
275 47 47 c26 27 55 48 63 48 9 0 114 -22 233 -48 236 -53 276 -71 322 -141
15 -22 30 -64 36 -102 13 -79 37 -109 89 -109 26 0 43 7 59 24 21 22 23 32 19
98 -7 131 -94 263 -211 321 -60 29 -525 137 -590 137 -36 0 -47 -8 -121 -80
-70 -68 -87 -80 -116 -80 -29 0 -46 12 -116 80 -80 79 -82 80 -130 79 -27 -1
-157 -26 -289 -56z m572 -530 l32 -258 -34 -35 -35 -35 -35 35 -34 35 32 258
c17 141 34 257 37 257 3 0 20 -116 37 -257z"/>
<path d="M888 2541 c-145 -47 -269 -174 -312 -320 -22 -77 -22 -365 0 -442 43
-148 168 -274 315 -320 82 -26 216 -26 298 0 147 46 272 172 315 320 22 77 22
365 0 442 -43 148 -168 274 -315 320 -81 25 -222 25 -301 0z m300 -186 c100
-54 148 -131 165 -266 23 -181 -17 -331 -108 -404 -75 -61 -101 -70 -205 -70
-79 0 -102 4 -137 23 -108 57 -158 135 -176 272 -13 109 1 247 32 307 61 120
157 176 296 170 66 -3 90 -8 133 -32z"/>
<path d="M3928 2541 c-145 -47 -269 -174 -312 -320 -12 -40 -16 -99 -16 -221
0 -122 4 -181 16 -221 43 -148 168 -274 315 -320 82 -26 216 -26 298 0 147 46
272 172 315 320 22 77 22 365 0 442 -43 148 -168 274 -315 320 -81 25 -222 25
-301 0z m300 -186 c100 -54 148 -131 165 -266 23 -181 -17 -331 -108 -404 -75
-61 -101 -70 -205 -70 -79 0 -102 4 -137 23 -108 57 -158 135 -176 272 -13
109 1 247 32 307 61 120 157 176 296 170 66 -3 90 -8 133 -32z"/>
<path d="M2500 2300 c-19 -19 -20 -33 -20 -217 l0 -197 -200 -201 c-196 -197
-200 -202 -200 -243 0 -56 26 -82 82 -82 41 0 46 4 220 177 l178 177 178 -177
c174 -173 179 -177 220 -177 56 0 82 26 82 82 0 41 -4 46 -200 243 l-200 201
0 197 c0 184 -1 198 -20 217 -13 13 -33 20 -60 20 -27 0 -47 -7 -60 -20z"/>
<path d="M505 1383 c-139 -32 -262 -66 -293 -81 -66 -32 -145 -115 -180 -189
l-27 -58 -3 -345 -3 -346 31 -42 c93 -129 321 -242 595 -294 108 -20 149 -23
415 -23 263 0 308 3 411 22 277 53 506 166 599 295 l30 41 0 159 c0 145 -2
160 -20 178 -27 27 -93 27 -120 0 -18 -18 -20 -33 -20 -144 l0 -123 -48 -45
c-155 -145 -434 -219 -832 -219 -390 0 -672 73 -826 214 l-54 49 0 242 c0 271
8 342 45 398 46 69 86 87 322 140 119 26 224 48 233 48 8 0 37 -21 63 -48 l47
-47 -35 -275 c-19 -151 -35 -297 -35 -324 0 -50 0 -50 98 -148 94 -94 100 -98
142 -98 42 0 48 4 142 98 98 98 98 98 98 148 0 27 -16 173 -35 324 l-35 275
47 47 c26 27 54 48 63 48 24 0 413 -88 446 -101 80 -30 130 -96 145 -191 13
-78 37 -108 89 -108 26 0 43 7 59 24 21 22 23 32 19 98 -7 131 -94 263 -211
321 -60 29 -525 137 -590 137 -36 0 -47 -8 -121 -80 -70 -68 -87 -80 -116 -80
-29 0 -46 12 -116 80 -80 79 -82 80 -130 79 -27 -1 -157 -26 -289 -56z m572
-530 l32 -258 -34 -35 -35 -35 -35 35 -34 35 32 258 c17 141 34 257 37 257 3
0 20 -116 37 -257z"/>
<path d="M3545 1383 c-139 -32 -262 -66 -293 -81 -66 -32 -145 -115 -180 -189
l-27 -58 -3 -345 -3 -346 31 -42 c93 -129 321 -242 595 -294 108 -20 149 -23
415 -23 263 0 308 3 411 22 277 53 506 166 599 295 l30 41 0 159 c0 145 -2
160 -20 178 -27 27 -93 27 -120 0 -18 -18 -20 -33 -20 -144 l0 -123 -48 -45
c-155 -145 -434 -219 -832 -219 -390 0 -672 73 -826 214 l-54 49 0 242 c0 271
8 342 45 398 46 69 86 87 322 140 119 26 224 48 233 48 8 0 37 -21 63 -48 l47
-47 -35 -275 c-19 -151 -35 -297 -35 -324 0 -50 0 -50 98 -148 94 -94 100 -98
142 -98 42 0 48 4 142 98 98 98 98 98 98 148 0 27 -16 173 -35 324 l-35 275
47 47 c26 27 54 48 63 48 24 0 413 -88 446 -101 80 -30 130 -96 145 -191 13
-78 37 -108 89 -108 26 0 43 7 59 24 21 22 23 32 19 98 -7 131 -94 263 -211
321 -60 29 -525 137 -590 137 -36 0 -47 -8 -121 -80 -70 -68 -87 -80 -116 -80
-29 0 -46 12 -116 80 -80 79 -82 80 -130 79 -27 -1 -157 -26 -289 -56z m572
-530 l32 -258 -34 -35 -35 -35 -35 35 -34 35 32 258 c17 141 34 257 37 257 3
0 20 -116 37 -257z"/>
</g>
</svg>
