<?xml version="1.0" standalone="no"?>
<!DOCTYPE svg PUBLIC "-//W3C//DTD SVG 20010904//EN"
 "http://www.w3.org/TR/2001/REC-SVG-20010904/DTD/svg10.dtd">
<svg version="1.0" xmlns="http://www.w3.org/2000/svg"
 width="512.000000pt" height="512.000000pt" viewBox="0 0 512.000000 512.000000"
 preserveAspectRatio="xMidYMid meet">
<metadata>
Created by potrace 1.16, written by Peter Selinger 2001-2019
</metadata>
<g transform="translate(0.000000,512.000000) scale(0.100000,-0.100000)"
fill="#000000" stroke="none">
<path d="M989 5097 c-175 -60 -306 -192 -359 -366 -20 -62 -20 -104 -20 -2171
0 -2067 0 -2109 20 -2171 53 -174 184 -306 359 -366 l66 -22 1505 0 1505 0 66
22 c176 60 307 193 360 367 19 64 19 96 17 1735 l-3 1670 -23 57 c-48 118 -88
161 -606 652 -544 514 -557 526 -628 562 -109 55 -78 54 -1178 54 l-1015 -1
-66 -22z m1963 -754 l3 -478 25 -50 c31 -64 101 -134 165 -165 l50 -25 508 -3
507 -3 -2 -1562 -3 -1562 -30 -54 c-30 -54 -61 -83 -125 -117 -34 -18 -88 -19
-1490 -19 l-1455 0 -50 27 c-59 31 -84 57 -116 118 l-24 45 0 2065 0 2065 24
45 c42 81 102 126 186 141 22 3 441 7 932 8 l892 1 3 -477z m751 -107 l329
-311 -349 -3 c-191 -1 -363 0 -381 3 -23 4 -36 14 -42 31 -6 14 -10 174 -10
366 l0 340 63 -58 c34 -32 210 -197 390 -368z"/>
<path d="M1346 3101 c-46 -31 -66 -69 -66 -131 0 -62 20 -100 66 -131 28 -18
69 -19 1184 -19 1115 0 1156 1 1184 19 46 31 66 69 66 131 0 62 -20 100 -66
131 -28 18 -69 19 -1184 19 -1115 0 -1156 -1 -1184 -19z"/>
<path d="M1346 2301 c-46 -31 -66 -69 -66 -131 0 -62 20 -100 66 -131 28 -18
69 -19 1184 -19 1115 0 1156 1 1184 19 46 31 66 69 66 131 0 62 -20 100 -66
131 -28 18 -69 19 -1184 19 -1115 0 -1156 -1 -1184 -19z"/>
<path d="M1346 1501 c-46 -31 -66 -69 -66 -131 0 -62 20 -100 66 -131 27 -18
54 -19 444 -19 397 0 416 1 448 20 45 28 72 76 72 130 0 54 -27 102 -72 130
-32 19 -51 20 -448 20 -390 0 -417 -1 -444 -19z"/>
</g>
</svg>
