<?xml version="1.0" standalone="no"?>
<!DOCTYPE svg PUBLIC "-//W3C//DTD SVG 20010904//EN"
 "http://www.w3.org/TR/2001/REC-SVG-20010904/DTD/svg10.dtd">
<svg version="1.0" xmlns="http://www.w3.org/2000/svg"
 width="512.000000pt" height="512.000000pt" viewBox="0 0 512.000000 512.000000"
 preserveAspectRatio="xMidYMid meet">
<metadata>
Created by potrace 1.16, written by Peter Selinger 2001-2019
</metadata>
<g transform="translate(0.000000,512.000000) scale(0.100000,-0.100000)"
fill="#000000" stroke="none">
<path d="M3880 4679 c-103 -14 -254 -67 -353 -125 -75 -44 -169 -136 -1103
-1069 -880 -879 -1025 -1028 -1051 -1080 -56 -110 -68 -160 -68 -285 0 -144
23 -226 96 -334 111 -167 281 -256 489 -256 110 0 190 19 285 68 63 32 129 95
703 666 349 347 643 644 654 659 90 124 -18 290 -169 262 -34 -6 -113 -81
-678 -645 -489 -488 -651 -644 -685 -659 -59 -27 -160 -28 -215 -2 -95 44
-160 151 -153 250 2 31 14 76 26 101 16 33 281 304 1009 1031 915 913 993 988
1059 1022 87 45 176 67 269 67 358 0 637 -331 571 -679 -9 -48 -31 -115 -52
-160 -36 -74 -62 -101 -1263 -1304 -674 -676 -1255 -1251 -1291 -1278 -82 -62
-202 -122 -305 -151 -107 -30 -342 -33 -450 -5 -170 45 -368 169 -470 295
-247 305 -283 691 -94 1030 40 70 126 160 1020 1057 1047 1050 1008 1008 996
1098 -6 47 -30 83 -78 115 -29 20 -44 23 -95 20 -50 -3 -68 -9 -100 -35 -78
-63 -1882 -1880 -1928 -1942 -103 -140 -166 -272 -214 -450 -24 -88 -26 -113
-27 -296 0 -223 12 -292 81 -463 258 -644 1006 -945 1646 -663 202 89 156 47
1511 1400 687 685 1268 1273 1292 1306 112 156 165 327 165 530 0 262 -91 479
-276 656 -86 81 -143 120 -248 170 -148 69 -343 99 -506 78z"/>
</g>
</svg>
