<?xml version="1.0" standalone="no"?>
<!DOCTYPE svg PUBLIC "-//W3C//DTD SVG 20010904//EN"
 "http://www.w3.org/TR/2001/REC-SVG-20010904/DTD/svg10.dtd">
<svg version="1.0" xmlns="http://www.w3.org/2000/svg"
 width="512.000000pt" height="512.000000pt" viewBox="0 0 512.000000 512.000000"
 preserveAspectRatio="xMidYMid meet">
<metadata>
Created by potrace 1.16, written by Peter Selinger 2001-2019
</metadata>
<g transform="translate(0.000000,512.000000) scale(0.100000,-0.100000)"
fill="#000000" stroke="none">
<path d="M2344 4954 c-259 -43 -496 -167 -690 -359 -248 -247 -375 -555 -375
-910 1 -413 181 -780 503 -1025 l76 -58 -71 -27 c-467 -180 -885 -572 -1106
-1035 -129 -272 -189 -513 -198 -805 -5 -143 -3 -181 11 -230 44 -153 167
-279 317 -326 58 -18 105 -19 932 -19 852 0 873 1 905 20 95 58 99 216 5 277
-25 17 -80 18 -878 23 -835 5 -851 5 -885 26 -19 11 -46 36 -59 55 -22 33 -23
38 -18 179 10 242 66 452 182 685 89 178 176 296 330 450 154 154 272 241 450
330 248 124 429 168 774 190 169 11 252 21 327 39 313 77 588 272 768 546 209
316 264 742 145 1105 -132 398 -449 710 -841 829 -183 56 -420 71 -604 40z
m463 -354 c269 -73 501 -269 619 -524 66 -143 79 -211 78 -401 0 -156 -2 -177
-28 -260 -116 -380 -451 -654 -835 -683 -458 -35 -861 242 -998 685 -25 81
-27 101 -27 263 0 163 2 181 28 265 97 317 343 561 654 650 159 46 352 48 509
5z"/>
<path d="M3672 2220 c-18 -11 -41 -34 -52 -52 -19 -31 -20 -51 -20 -340 l0
-308 -307 0 c-290 0 -310 -1 -341 -20 -48 -30 -72 -75 -72 -140 0 -65 24 -110
72 -140 31 -19 51 -20 341 -20 l307 0 0 -307 c0 -290 1 -310 20 -341 30 -48
75 -72 140 -72 65 0 110 24 140 72 19 31 20 51 20 341 l0 307 308 0 c289 0
309 1 340 20 48 30 72 75 72 140 0 65 -24 110 -72 140 -31 19 -51 20 -340 20
l-308 0 0 308 c0 289 -1 309 -20 340 -11 18 -34 41 -52 52 -45 27 -131 27
-176 0z"/>
</g>
</svg>
