<?xml version="1.0" standalone="no"?>
<!DOCTYPE svg PUBLIC "-//W3C//DTD SVG 20010904//EN"
 "http://www.w3.org/TR/2001/REC-SVG-20010904/DTD/svg10.dtd">
<svg version="1.0" xmlns="http://www.w3.org/2000/svg"
 width="512.000000pt" height="512.000000pt" viewBox="0 0 512.000000 512.000000"
 preserveAspectRatio="xMidYMid meet">
<metadata>
Created by potrace 1.16, written by Peter Selinger 2001-2019
</metadata>
<g transform="translate(0.000000,512.000000) scale(0.100000,-0.100000)"
fill="#000000" stroke="none">
<path d="M2260 5104 c-650 -100 -1199 -484 -1508 -1051 -302 -556 -331 -1224
-78 -1808 167 -385 452 -713 816 -938 161 -99 410 -202 589 -242 38 -9 81 -25
95 -36 23 -18 96 -137 96 -156 0 -4 -37 -18 -83 -31 -291 -81 -460 -279 -404
-473 54 -183 263 -314 577 -360 108 -15 400 -6 500 16 167 37 338 127 408 214
79 98 100 224 55 324 -30 64 -114 151 -193 197 -66 39 -226 100 -261 100 -10
0 -19 4 -19 10 0 17 69 136 90 155 11 10 76 33 144 51 637 169 1147 622 1390
1234 155 392 184 850 81 1261 -169 668 -676 1220 -1325 1442 -94 32 -210 62
-320 83 -121 23 -522 28 -650 8z m450 -198 c317 -17 674 -152 958 -364 493
-368 785 -1006 733 -1603 -50 -582 -335 -1076 -808 -1399 -184 -126 -356 -204
-585 -266 -203 -54 -234 -82 -359 -322 -46 -89 -86 -162 -89 -162 -3 0 -43 73
-89 162 -126 241 -159 271 -372 326 -947 248 -1543 1199 -1349 2154 148 724
728 1300 1460 1448 98 20 314 40 370 34 14 -2 72 -5 130 -8z m-280 -4334 c53
-103 75 -125 130 -125 55 0 77 22 131 125 l51 99 41 -6 c195 -34 376 -156 351
-239 -20 -67 -150 -149 -295 -187 -224 -58 -531 -34 -707 55 -70 36 -135 95
-146 133 -14 46 50 120 144 168 49 25 200 73 232 74 12 1 33 -30 68 -97z"/>
<path d="M2050 4439 c-56 -22 -60 -38 -60 -241 l0 -188 -273 0 -274 0 -61 -30
c-68 -35 -115 -82 -146 -149 -20 -44 -21 -60 -21 -461 0 -402 1 -417 22 -486
24 -74 92 -166 133 -179 19 -6 20 -18 20 -325 0 -295 2 -323 20 -373 29 -76
79 -130 158 -169 l67 -33 925 0 925 0 67 33 c79 39 129 93 158 169 18 50 20
78 20 373 0 307 1 319 20 325 41 13 109 105 133 179 21 69 22 84 22 486 l0
415 -28 57 c-30 61 -74 105 -140 140 -40 22 -54 23 -324 26 l-283 3 0 185 c0
205 -5 223 -62 243 -40 14 -982 14 -1018 0z m870 -314 l0 -115 -360 0 -360 0
0 115 0 115 360 0 360 0 0 -115z m731 -335 c46 -25 49 -47 49 -414 0 -380 -6
-433 -50 -478 l-28 -28 -236 0 -236 0 0 70 c0 106 -31 150 -105 150 -72 0
-105 -47 -105 -150 l0 -70 -380 0 -380 0 0 70 c0 38 -5 81 -12 95 -21 47 -85
67 -142 45 -38 -14 -56 -59 -56 -140 l0 -70 -236 0 -236 0 -28 28 c-44 45 -50
98 -50 478 0 364 3 387 47 413 25 14 2157 15 2184 1z m-1679 -1196 c4 -58 8
-70 32 -90 19 -17 39 -24 69 -24 71 1 107 44 107 129 l0 51 380 0 380 0 0 -51
c0 -85 36 -128 107 -129 30 0 50 7 69 24 24 20 28 32 32 90 l4 66 184 0 184 0
0 -280 c0 -314 -3 -330 -65 -356 -51 -21 -1739 -21 -1790 0 -62 26 -65 42 -65
356 l0 280 184 0 184 0 4 -66z"/>
</g>
</svg>
