<?xml version="1.0" standalone="no"?>
<!DOCTYPE svg PUBLIC "-//W3C//DTD SVG 20010904//EN"
 "http://www.w3.org/TR/2001/REC-SVG-20010904/DTD/svg10.dtd">
<svg version="1.0" xmlns="http://www.w3.org/2000/svg"
 width="512.000000pt" height="512.000000pt" viewBox="0 0 512.000000 512.000000"
 preserveAspectRatio="xMidYMid meet">
<metadata>
Created by potrace 1.16, written by Peter Selinger 2001-2019
</metadata>
<g transform="translate(0.000000,512.000000) scale(0.100000,-0.100000)"
fill="#000000" stroke="none">
<path d="M683 5043 c-31 -6 -53 -40 -53 -80 0 -42 151 -348 179 -363 33 -17
76 -12 99 13 39 41 30 82 -57 256 -71 141 -84 160 -112 170 -18 6 -32 10 -33
10 -1 -1 -11 -4 -23 -6z"/>
<path d="M1890 5044 c-14 -2 -56 -9 -95 -15 -316 -51 -604 -271 -753 -572 -74
-150 -103 -282 -103 -468 0 -247 59 -419 218 -630 96 -128 144 -218 177 -331
27 -92 31 -141 28 -285 l-2 -93 -64 0 c-76 0 -104 -18 -112 -70 -4 -27 -1 -42
16 -63 20 -25 27 -27 91 -27 l69 0 0 -90 c0 -83 2 -93 25 -115 l24 -25 566 0
c350 0 573 4 585 10 26 14 40 63 40 146 l0 74 83 0 c90 0 108 9 120 58 7 31
-10 80 -33 92 -10 6 -53 10 -96 10 l-77 0 6 138 c10 228 56 359 193 550 92
128 154 253 191 388 25 91 28 114 28 274 0 151 -3 187 -23 262 -53 199 -127
332 -262 469 -197 201 -428 304 -700 314 -63 2 -126 2 -140 -1z m325 -189 c33
-9 106 -38 162 -65 84 -41 117 -65 192 -135 190 -182 284 -394 284 -650 1
-211 -61 -386 -202 -577 -115 -156 -183 -321 -207 -505 l-7 -53 -108 0 -109 0
0 383 0 382 140 140 c153 153 163 173 119 229 l-20 26 -477 0 c-505 -1 -495 0
-521 -48 -23 -44 -5 -74 134 -212 l135 -135 0 -382 0 -383 -99 0 -98 0 -7 59
c-18 158 -107 362 -227 521 -83 110 -140 221 -170 335 -31 113 -31 316 0 430
89 331 360 588 687 649 100 19 314 14 399 -9z m-73 -1069 l-82 -84 0 -416 0
-416 -80 0 -79 0 -3 420 -3 420 -80 80 -80 80 245 0 244 0 -82 -84z m288
-1106 l0 -30 -450 0 -450 0 0 30 0 30 450 0 450 0 0 -30z m0 -220 l0 -30 -450
0 -450 0 0 30 0 30 450 0 450 0 0 -30z"/>
<path d="M3232 5033 c-21 -8 -182 -339 -182 -373 0 -61 74 -92 129 -54 27 19
181 325 181 361 0 36 -42 73 -82 72 -18 0 -39 -3 -46 -6z"/>
<path d="M423 4600 c-55 -23 -66 -95 -20 -138 25 -23 328 -122 374 -122 40 0
83 40 83 78 0 58 -28 77 -200 132 -182 58 -207 63 -237 50z"/>
<path d="M3330 4554 c-178 -58 -210 -78 -210 -135 0 -41 39 -79 82 -79 18 0
110 25 205 55 183 59 203 71 203 128 0 39 -49 87 -87 86 -15 -1 -102 -25 -193
-55z"/>
<path d="M3569 2498 c-9 -7 -44 -48 -79 -91 -74 -90 -174 -170 -244 -193 -38
-13 -67 -15 -134 -10 -79 7 -86 6 -108 -15 -16 -15 -24 -34 -24 -55 l0 -32
-47 14 c-38 12 -228 14 -1122 14 -971 0 -1079 -2 -1099 -16 -44 -31 -45 -55
-2 -161 74 -185 74 -292 -1 -454 -31 -69 -38 -92 -30 -111 18 -48 33 -53 210
-58 l166 -5 29 -75 c26 -64 30 -89 30 -170 1 -82 -3 -103 -25 -151 -26 -55
-27 -56 -76 -62 -119 -14 -240 -105 -296 -224 -30 -63 -32 -75 -32 -173 1 -94
3 -111 28 -162 58 -118 164 -201 290 -228 36 -7 384 -9 1120 -8 l1069 3 20 25
c26 32 21 68 -27 190 -33 82 -38 108 -42 195 -3 87 -1 107 19 155 l23 54 62
13 c155 31 284 145 318 281 l12 45 218 -394 c143 -256 234 -410 262 -440 93
-100 237 -144 376 -116 99 20 139 40 197 98 116 116 149 301 80 446 -59 124
-1022 1849 -1042 1866 -24 20 -77 23 -99 5z m518 -1088 c258 -470 475 -870
481 -889 63 -184 -161 -358 -332 -257 -31 18 -59 46 -80 79 -17 27 -236 420
-486 871 l-455 821 48 12 c26 7 56 17 66 22 16 9 47 -43 266 -435 137 -245
260 -454 273 -465 54 -42 132 -5 132 62 0 23 -68 155 -250 480 -137 246 -250
451 -250 455 0 15 104 114 111 106 4 -4 218 -392 476 -862z m-1149 525 c62
-34 105 -90 123 -159 23 -93 -28 -199 -123 -251 l-53 -30 -994 -3 c-856 -2
-993 -1 -988 12 7 18 24 83 32 119 l5 27 524 0 c499 0 525 1 547 19 18 14 24
29 24 61 0 32 -6 47 -24 61 -22 18 -48 19 -550 19 l-526 0 -21 80 -21 81 996
-3 996 -3 53 -30z m304 -609 c64 -19 110 -57 143 -118 51 -94 34 -198 -47
-275 -69 -67 -5 -63 -1098 -63 -558 0 -990 4 -990 9 0 5 7 28 15 51 8 23 15
53 15 66 l0 24 555 0 556 0 24 25 c32 31 34 86 5 115 -20 20 -33 20 -580 20
l-559 0 -11 43 c-6 23 -15 55 -20 71 -6 16 -10 31 -10 32 0 2 375 5 833 7 457
1 898 3 978 5 101 1 160 -2 191 -12z m-1201 -626 l956 0 -13 -52 c-8 -29 -14
-63 -14 -75 l0 -23 -552 0 c-422 0 -559 -3 -578 -13 -52 -26 -48 -121 6 -146
18 -8 189 -11 583 -11 l558 0 11 -47 c6 -27 14 -58 18 -71 l6 -22 -996 0
c-1091 0 -1027 -3 -1100 60 -109 96 -106 262 5 352 43 35 106 60 134 53 11 -3
450 -5 976 -5z"/>
</g>
</svg>
