<?xml version="1.0" standalone="no"?>
<!DOCTYPE svg PUBLIC "-//W3C//DTD SVG 20010904//EN"
 "http://www.w3.org/TR/2001/REC-SVG-20010904/DTD/svg10.dtd">
<svg version="1.0" xmlns="http://www.w3.org/2000/svg"
 width="512.000000pt" height="512.000000pt" viewBox="0 0 512.000000 512.000000"
 preserveAspectRatio="xMidYMid meet">
<metadata>
Created by potrace 1.16, written by Peter Selinger 2001-2019
</metadata>
<g transform="translate(0.000000,512.000000) scale(0.100000,-0.100000)"
fill="#000000" stroke="none">
<path d="M2365 5101 c-162 -41 -289 -115 -402 -235 -39 -40 -86 -100 -106
-132 -20 -35 -40 -58 -48 -56 -110 28 -165 34 -279 29 -104 -4 -141 -10 -220
-35 -214 -70 -382 -216 -480 -417 -55 -114 -77 -193 -86 -315 -6 -75 5 -197
22 -252 5 -16 -3 -18 -65 -18 -182 0 -326 -74 -408 -211 -61 -102 -64 -132
-61 -591 3 -401 4 -415 25 -468 46 -112 144 -210 253 -251 37 -14 89 -23 158
-26 77 -5 102 -9 98 -18 -2 -7 -10 -50 -17 -95 -22 -152 7 -333 74 -466 l34
-68 -43 -98 c-24 -54 -44 -112 -44 -128 0 -42 31 -70 79 -70 46 0 69 23 97 96
9 24 19 44 21 44 3 0 26 -17 52 -38 171 -141 335 -202 546 -202 61 0 136 7
170 15 33 8 67 14 75 15 9 0 30 -25 49 -56 44 -73 149 -185 228 -241 l63 -44
-14 -32 c-24 -58 -214 -483 -236 -531 -19 -39 -27 -46 -51 -46 -35 0 -24 -21
-196 365 -74 165 -144 310 -155 322 -12 13 -32 23 -46 23 -13 0 -177 -50 -364
-111 -224 -73 -347 -109 -363 -105 -40 10 -39 38 10 147 68 153 60 209 -31
209 -52 0 -55 -3 -121 -150 -59 -134 -65 -181 -28 -255 36 -75 86 -108 169
-113 55 -3 90 7 366 97 168 55 308 97 312 93 3 -4 63 -135 133 -292 70 -157
138 -300 152 -318 74 -99 261 -96 328 7 13 20 81 166 151 326 71 160 129 292
131 294 1 2 36 -4 77 -13 99 -24 273 -24 372 0 41 9 76 15 77 13 2 -2 61 -134
131 -294 70 -160 138 -306 151 -326 67 -103 253 -106 328 -7 14 18 82 161 152
318 70 157 130 288 133 292 4 4 144 -38 312 -93 275 -90 311 -99 366 -97 83 5
133 38 169 113 43 88 39 103 -142 510 l-160 360 34 69 c66 132 96 321 74 466
-6 41 -14 82 -17 91 -4 14 10 17 98 22 69 3 121 12 158 26 109 41 207 139 253
251 21 53 22 67 25 468 3 351 1 422 -13 475 -52 203 -224 327 -456 327 -57 0
-70 3 -66 14 16 41 29 188 23 260 -9 120 -31 200 -85 311 -83 170 -154 223
-216 160 -37 -36 -31 -68 24 -151 110 -164 146 -360 98 -539 l-13 -50 -176 -3
-176 -2 -58 82 c-209 299 -547 520 -917 600 -150 32 -447 32 -597 -1 -371 -82
-705 -300 -914 -599 l-58 -82 -176 2 -176 3 -13 50 c-36 138 -23 300 37 431
86 189 256 331 457 379 105 26 251 18 364 -20 120 -39 127 -36 186 77 78 151
204 267 353 326 83 32 135 42 240 42 105 0 157 -10 240 -42 149 -59 275 -175
353 -326 59 -113 67 -116 186 -76 78 26 98 29 216 28 114 0 140 -3 210 -27 99
-33 110 -33 140 -2 33 32 34 84 3 112 -71 66 -349 103 -515 69 -44 -9 -85 -16
-91 -16 -5 0 -24 25 -41 55 -67 119 -226 258 -366 320 -148 65 -375 85 -530
46z m385 -896 c211 -32 437 -125 600 -248 84 -64 213 -191 258 -254 l23 -33
-1071 0 -1071 0 33 46 c51 72 207 215 301 278 275 183 611 260 927 211z m1816
-722 c63 -34 97 -66 129 -125 l30 -53 0 -410 0 -410 -27 -50 c-31 -59 -67 -94
-128 -126 l-45 -24 -1965 0 -1965 0 -51 27 c-29 15 -68 46 -88 70 -63 73 -66
97 -66 512 0 222 4 386 10 408 25 89 128 188 209 201 14 2 901 4 1971 3 l1945
-1 41 -22z m-3229 -1435 c65 -100 277 -310 383 -380 168 -111 349 -188 543
-230 138 -30 435 -32 572 -5 202 41 393 121 565 235 108 72 311 272 379 375
l52 77 174 0 174 0 16 -52 c70 -235 -23 -518 -226 -684 -66 -54 -172 -107
-259 -129 -100 -26 -270 -17 -377 20 -111 38 -124 33 -182 -83 -35 -69 -62
-105 -130 -172 -135 -134 -275 -192 -461 -192 -186 0 -326 58 -461 192 -68 67
-95 103 -130 172 -58 116 -71 121 -182 83 -107 -37 -277 -46 -377 -20 -87 22
-193 75 -259 129 -203 166 -296 449 -226 684 l16 52 174 0 174 0 48 -72z
m2283 52 c-22 -41 -187 -204 -269 -266 -465 -349 -1119 -349 -1582 0 -82 62
-247 225 -269 266 -11 20 -2 20 1060 20 1062 0 1071 0 1060 -20z m673 -1091
c89 -201 136 -318 132 -330 -13 -40 -47 -33 -393 80 -187 61 -351 111 -364
111 -12 0 -31 -7 -41 -14 -10 -8 -80 -152 -156 -322 -179 -401 -165 -376 -203
-372 -30 3 -33 10 -135 238 -57 129 -117 265 -133 302 l-29 67 62 44 c79 56
185 168 228 241 19 31 40 56 49 56 8 -1 42 -7 75 -15 88 -22 262 -19 362 5
132 32 257 96 363 189 19 16 37 30 40 31 3 0 67 -140 143 -311z"/>
<path d="M1296 3289 c-49 -38 -38 -72 73 -230 l99 -141 -108 -153 c-131 -185
-133 -189 -125 -226 8 -36 39 -59 81 -59 39 0 60 22 168 178 42 62 80 112 84
112 4 -1 48 -60 97 -131 50 -72 99 -137 110 -145 33 -23 81 -18 104 12 37 47
28 71 -79 223 -55 79 -108 153 -116 166 -15 23 -13 28 74 152 110 158 115 167
107 204 -14 61 -92 80 -136 32 -14 -16 -56 -72 -94 -125 l-68 -98 -79 113
c-43 61 -86 118 -95 125 -25 18 -67 15 -97 -9z"/>
<path d="M2065 3285 l-25 -24 0 -366 0 -366 25 -24 c32 -33 83 -34 113 -2 20
21 22 34 22 144 l0 120 94 5 c81 4 102 9 148 35 163 92 188 316 48 436 -65 55
-112 67 -267 67 -129 0 -135 -1 -158 -25z m295 -150 c58 -30 75 -86 44 -146
-20 -39 -68 -59 -144 -59 l-60 0 0 110 0 110 65 0 c39 0 78 -6 95 -15z"/>
<path d="M3335 3285 l-25 -24 0 -369 0 -369 23 -21 c29 -27 77 -28 108 -3 22
18 24 28 29 136 l5 116 114 -130 c62 -71 120 -132 128 -135 55 -22 113 15 113
71 0 34 -11 50 -121 173 l-67 76 53 28 c124 65 171 210 109 334 -54 110 -127
142 -316 142 -124 0 -130 -1 -153 -25z m278 -146 c63 -32 75 -98 27 -144 -27
-26 -40 -30 -100 -33 l-70 -4 0 96 0 96 61 0 c33 0 70 -5 82 -11z"/>
<path d="M3966 3289 c-35 -28 -36 -80 -1 -114 21 -21 33 -25 89 -25 l65 0 3
-316 3 -316 24 -19 c32 -26 82 -25 109 4 22 23 22 29 22 335 l0 312 70 0 c62
0 74 3 95 25 16 15 25 36 25 55 0 19 -9 40 -25 55 -24 25 -24 25 -238 25 -202
0 -216 -1 -241 -21z"/>
<path d="M671 3274 c-20 -26 -21 -38 -21 -386 l0 -359 25 -24 c24 -25 27 -25
199 -25 l175 0 20 26 c28 36 27 79 -4 109 -23 24 -30 25 -140 25 l-115 0 0 85
0 85 105 0 c99 0 107 2 130 25 16 15 25 36 25 55 0 19 -9 40 -25 55 -23 23
-31 25 -130 25 l-105 0 0 85 0 85 99 0 c106 0 156 12 171 40 16 30 11 75 -10
98 -20 21 -29 22 -200 22 l-179 0 -20 -26z"/>
<path d="M2750 3280 c-19 -19 -20 -33 -20 -390 0 -367 0 -369 22 -390 20 -18
35 -20 193 -20 134 0 175 3 192 15 44 31 37 111 -13 134 -14 6 -72 11 -129 11
l-105 0 0 85 0 85 95 0 c52 0 105 5 119 11 36 17 52 69 32 107 -20 39 -30 42
-147 42 l-99 0 0 84 0 84 116 4 c112 3 117 4 140 31 29 34 31 66 3 101 l-20
26 -180 0 c-166 0 -180 -1 -199 -20z"/>
</g>
</svg>
