<?xml version="1.0" standalone="no"?>
<!DOCTYPE svg PUBLIC "-//W3C//DTD SVG 20010904//EN"
 "http://www.w3.org/TR/2001/REC-SVG-20010904/DTD/svg10.dtd">
<svg version="1.0" xmlns="http://www.w3.org/2000/svg"
 width="512.000000pt" height="512.000000pt" viewBox="0 0 512.000000 512.000000"
 preserveAspectRatio="xMidYMid meet">
<metadata>
Created by potrace 1.16, written by Peter Selinger 2001-2019
</metadata>
<g transform="translate(0.000000,512.000000) scale(0.100000,-0.100000)"
fill="#000000" stroke="none">
<path d="M80 4320 l0 -720 245 0 245 0 -30 -59 c-78 -155 -153 -382 -185 -563
l-17 -97 -44 -15 c-92 -31 -168 -105 -200 -193 -16 -45 -18 -163 -4 -214 23
-82 114 -174 202 -204 l46 -16 12 -67 c6 -37 22 -111 35 -165 14 -54 25 -100
25 -102 0 -3 -42 -26 -93 -51 -105 -52 -167 -107 -205 -179 -22 -43 -27 -65
-30 -162 -7 -181 45 -382 154 -593 78 -154 162 -268 289 -395 127 -127 241
-211 395 -289 211 -109 412 -161 593 -154 97 3 119 8 162 30 72 38 127 100
179 206 25 50 49 92 52 92 3 0 49 -11 102 -24 53 -14 127 -30 164 -36 65 -12
67 -13 78 -48 29 -92 110 -175 202 -208 52 -18 164 -18 216 0 92 33 173 116
201 207 l12 36 107 21 c297 58 576 172 822 337 l110 73 0 -112 c0 -128 13
-186 67 -288 82 -158 283 -288 445 -288 l48 0 0 84 0 83 -55 6 c-79 8 -157 47
-221 111 -97 98 -124 190 -124 436 0 175 13 260 50 337 36 73 110 144 190 182
48 23 68 26 160 26 99 0 110 -2 172 -33 77 -38 149 -111 184 -187 36 -78 44
-164 44 -493 0 -241 -3 -310 -14 -337 -16 -37 -48 -52 -92 -41 -50 13 -54 42
-54 423 0 388 -1 394 -71 460 -47 44 -98 63 -171 63 -74 0 -129 -23 -175 -71
-59 -62 -63 -85 -63 -331 0 -254 5 -274 78 -340 50 -46 100 -61 180 -56 l62 3
0 -75 c0 -87 20 -138 71 -187 47 -44 98 -63 171 -63 74 0 129 23 175 71 63 67
63 67 63 509 l0 401 -25 76 c-59 175 -183 299 -358 358 -42 14 -83 25 -91 25
-14 0 -12 9 10 52 78 154 157 394 190 575 l16 92 47 16 c87 29 165 107 196
195 18 52 19 172 1 223 -31 86 -118 169 -207 196 -36 12 -37 12 -53 99 -8 48
-18 102 -22 120 l-6 32 61 0 c102 0 182 49 222 135 18 38 19 81 19 825 0 744
-1 787 -19 825 -10 22 -34 54 -52 72 -67 64 -61 63 -569 63 -508 0 -502 1
-569 -63 -65 -62 -71 -88 -71 -315 l0 -203 -42 26 c-90 56 -328 165 -444 204
-66 22 -183 53 -259 68 l-138 29 -12 42 c-26 87 -119 176 -210 202 -66 18
-189 9 -244 -19 -66 -34 -127 -103 -152 -172 -14 -39 -27 -59 -38 -59 -9 0
-62 -11 -118 -23 l-103 -24 0 154 0 153 -960 0 -960 0 0 -720z m1605 508 c-26
-29 -156 -173 -288 -320 l-241 -268 -116 0 -115 0 -195 217 c-107 119 -237
263 -288 320 l-94 103 692 0 692 0 -47 -52z m941 31 c57 -27 88 -77 88 -141 0
-149 -206 -204 -284 -76 -49 81 -3 201 86 228 46 13 65 11 110 -11z m2198 7
c36 -15 56 -54 56 -112 l0 -34 -480 0 -480 0 0 34 c0 56 20 97 54 112 46 20
802 20 850 0z m-4302 -841 c-125 -83 -239 -160 -254 -169 l-28 -18 0 451 0
452 254 -283 255 -282 -227 -151z m1316 40 l-3 -225 -252 168 -252 168 252
280 252 279 3 -222 c1 -123 1 -324 0 -448z m431 510 c20 -55 101 -130 168
-155 77 -29 196 -25 264 8 57 28 124 94 146 145 17 37 18 38 58 32 240 -37
556 -161 773 -301 l82 -54 0 -475 c0 -524 -1 -516 63 -584 66 -69 76 -71 424
-71 l311 0 21 -87 c11 -49 23 -106 26 -128 6 -39 5 -41 -32 -57 -51 -23 -117
-90 -145 -147 -33 -67 -33 -215 0 -282 28 -57 94 -124 144 -147 37 -16 38 -18
32 -57 -24 -165 -99 -396 -189 -579 -44 -89 -65 -121 -84 -128 -14 -6 -62 -28
-106 -49 -153 -72 -270 -228 -298 -396 -12 -72 -12 -72 -77 -124 -156 -125
-377 -250 -574 -323 -95 -36 -287 -88 -372 -101 -39 -6 -42 -5 -48 21 -4 15
-35 55 -69 89 -78 78 -133 99 -245 93 -121 -5 -224 -70 -269 -169 -17 -38 -19
-39 -58 -33 -60 8 -279 64 -286 72 -3 4 -14 31 -23 61 -23 70 -64 131 -118
170 -23 17 -101 55 -172 83 l-131 53 -120 0 c-140 0 -195 -17 -294 -90 l-59
-44 -56 40 c-30 22 -73 65 -95 96 l-40 55 34 40 c76 90 109 197 103 335 -4 87
-10 111 -51 218 -26 65 -59 140 -75 164 -36 60 -112 116 -185 138 -41 12 -62
24 -67 38 -11 30 -57 223 -64 270 -6 39 -5 41 32 57 51 23 116 90 144 147 16
32 24 69 26 123 6 112 -15 167 -93 245 -34 34 -74 65 -89 69 -31 7 -31 1 -5
127 36 179 94 341 192 535 l41 82 618 0 618 0 0 479 0 480 98 21 c53 12 102
23 107 25 35 11 52 3 64 -30z m2611 -495 l0 -480 -480 0 -480 0 0 480 0 480
480 0 480 0 0 -480z m-3475 -160 l240 -160 -605 0 -605 0 240 160 240 160 125
0 125 0 240 -160z m3475 -514 c0 -58 -20 -97 -56 -112 -44 -18 -792 -21 -844
-3 -37 13 -60 57 -60 114 l0 35 480 0 480 0 0 -34z m-4402 -716 c130 -79 74
-280 -78 -280 -152 0 -208 201 -78 280 20 12 51 20 78 20 27 0 58 -8 78 -20z
m4320 0 c96 -59 96 -201 0 -260 -43 -26 -113 -26 -156 0 -130 79 -74 280 78
280 27 0 58 -8 78 -20z m-4180 -954 c50 -26 80 -70 127 -190 46 -114 47 -122
43 -200 -6 -101 -28 -147 -110 -225 l-60 -58 25 -62 c71 -176 193 -297 365
-361 l54 -21 73 69 c125 120 221 133 414 56 159 -63 201 -105 201 -202 0 -64
-75 -219 -123 -256 -68 -52 -150 -54 -329 -10 -247 60 -458 180 -646 367 -216
213 -347 462 -397 755 -30 171 0 233 146 307 99 49 164 58 217 31z m3902 -716
c31 -16 40 -67 40 -222 0 -168 -11 -213 -54 -224 -44 -11 -76 4 -92 41 -17 41
-20 318 -4 362 19 49 65 67 110 43z m-1882 -490 c130 -79 74 -280 -78 -280
-85 0 -150 65 -150 150 0 116 129 190 228 130z"/>
<path d="M2480 4000 l0 -240 80 0 80 0 0 240 0 240 -80 0 -80 0 0 -240z"/>
<path d="M2345 3583 c-204 -43 -364 -132 -520 -288 -124 -124 -187 -219 -241
-363 -48 -128 -64 -222 -64 -372 0 -285 91 -514 284 -717 136 -143 277 -230
473 -290 83 -25 100 -27 283 -27 183 0 200 2 283 27 196 60 337 147 473 290
193 203 284 432 284 717 0 206 -44 371 -146 542 -67 114 -238 285 -352 352
-97 58 -227 108 -334 130 -99 20 -326 20 -423 -1z m291 -185 c21 -18 52 -56
70 -84 30 -47 84 -166 84 -186 0 -4 -103 -8 -230 -8 -126 0 -230 4 -230 8 0
20 54 139 84 186 49 77 98 116 146 116 30 0 48 -8 76 -32z m-396 -33 c0 -3
-11 -27 -24 -53 -13 -26 -34 -80 -47 -119 l-23 -73 -130 0 -130 0 35 36 c57
59 151 130 229 173 73 40 90 46 90 36z m730 -36 c78 -43 172 -114 229 -173
l35 -36 -130 0 -130 0 -23 73 c-13 39 -34 93 -47 119 -37 73 -36 73 66 17z
m-865 -391 c-9 -38 -25 -200 -25 -250 l0 -48 -195 0 c-170 0 -195 2 -195 16 0
36 34 164 62 232 l30 72 164 0 164 0 -5 -22z m744 -55 c7 -43 15 -115 18 -160
l6 -83 -313 0 -313 0 6 90 c4 49 12 121 18 160 l12 70 277 0 278 0 11 -77z
m519 5 c28 -68 62 -196 62 -232 0 -14 -25 -16 -195 -16 l-195 0 0 48 c0 50
-16 212 -25 250 l-5 22 164 0 164 0 30 -72z m-1288 -455 c0 -51 16 -213 25
-250 l5 -23 -164 0 -164 0 -30 73 c-28 67 -62 195 -62 231 0 14 25 16 195 16
l195 0 0 -47z m787 -35 c-3 -46 -11 -118 -18 -160 l-11 -78 -278 0 -277 0 -12
70 c-6 39 -14 111 -18 160 l-6 90 313 0 313 0 -6 -82z m563 66 c0 -36 -34
-164 -62 -231 l-30 -73 -164 0 -164 0 5 23 c9 37 25 199 25 250 l0 47 195 0
c170 0 195 -2 195 -16z m-1261 -536 c13 -40 34 -95 48 -121 13 -27 22 -51 19
-54 -3 -3 -40 13 -82 36 -81 44 -175 114 -233 175 l-35 36 130 0 130 0 23 -72z
m621 64 c0 -20 -54 -139 -84 -186 -99 -154 -193 -154 -292 0 -30 47 -84 166
-84 186 0 4 104 8 230 8 127 0 230 -4 230 -8z m409 -28 c-58 -61 -152 -131
-233 -175 -42 -23 -79 -39 -82 -37 -2 3 9 34 25 69 16 35 37 90 47 122 l18 57
130 0 130 0 -35 -36z"/>
<path d="M880 2560 l0 -80 240 0 240 0 0 80 0 80 -240 0 -240 0 0 -80z"/>
<path d="M3760 2560 l0 -80 240 0 240 0 0 80 0 80 -240 0 -240 0 0 -80z"/>
<path d="M2480 1120 l0 -240 80 0 80 0 0 240 0 240 -80 0 -80 0 0 -240z"/>
</g>
</svg>
