<?xml version="1.0" standalone="no"?>
<!DOCTYPE svg PUBLIC "-//W3C//DTD SVG 20010904//EN"
 "http://www.w3.org/TR/2001/REC-SVG-20010904/DTD/svg10.dtd">
<svg version="1.0" xmlns="http://www.w3.org/2000/svg"
 width="512.000000pt" height="512.000000pt" viewBox="0 0 512.000000 512.000000"
 preserveAspectRatio="xMidYMid meet">
<metadata>
Created by potrace 1.16, written by Peter Selinger 2001-2019
</metadata>
<g transform="translate(0.000000,512.000000) scale(0.100000,-0.100000)"
fill="#000000" stroke="none">
<path d="M1253 5079 c-584 -60 -1069 -499 -1195 -1082 -30 -139 -32 -409 -4
-542 52 -248 161 -467 324 -651 38 -44 369 -398 735 -789 366 -390 665 -710
664 -711 -1 -1 -38 4 -82 12 -533 94 -1119 -105 -1617 -549 -43 -38 -78 -75
-78 -82 0 -17 116 -125 220 -206 274 -210 576 -355 875 -419 128 -28 393 -38
532 -20 325 40 616 167 874 381 l59 50 59 -50 c258 -214 549 -341 874 -381
139 -18 404 -8 532 20 299 64 601 209 875 419 104 81 220 189 220 206 0 29
-226 214 -395 324 -414 270 -882 381 -1300 307 -44 -8 -81 -13 -82 -12 -1 1
298 321 664 711 366 391 697 745 735 789 163 184 272 403 324 651 28 133 26
402 -4 542 -84 387 -323 715 -667 912 -277 158 -612 213 -955 155 -156 -26
-267 -68 -579 -224 l-301 -149 -302 149 c-310 155 -419 197 -577 225 -109 19
-314 26 -428 14z m367 -180 c153 -23 239 -57 593 -231 l347 -172 348 172 c439
217 527 244 792 243 156 0 275 -18 405 -62 289 -98 545 -321 683 -596 209
-413 158 -918 -130 -1276 -55 -68 -2089 -2245 -2098 -2245 -9 0 -2043 2176
-2097 2244 -369 459 -340 1129 67 1558 281 296 675 428 1090 365z m10 -3750
c95 -13 201 -40 314 -82 l88 -32 125 -132 125 -133 -173 0 -174 0 -232 155
c-128 85 -235 155 -238 155 -7 0 -99 -140 -94 -144 2 -2 54 -36 114 -76 61
-40 114 -77 120 -81 5 -5 -79 -9 -196 -9 l-206 0 -153 115 c-84 63 -154 115
-155 115 -5 0 -95 -130 -95 -138 0 -6 25 -29 57 -51 l56 -41 -156 0 -157 0 0
-85 0 -85 347 0 348 0 -93 -93 -92 -92 63 -63 62 -62 155 155 155 155 445 0
445 -1 -45 -40 c-156 -139 -432 -276 -660 -327 -242 -55 -535 -35 -795 53
-187 63 -509 245 -644 363 l-44 38 94 70 c140 104 229 158 384 234 318 155
584 201 905 159z m2183 10 c323 -28 655 -169 986 -417 l74 -56 -42 -37 c-131
-117 -457 -300 -646 -364 -261 -88 -553 -108 -795 -53 -228 51 -504 188 -660
327 l-45 40 445 1 445 0 155 -155 155 -155 62 62 63 63 -92 92 -93 93 348 0
347 0 0 85 0 85 -157 0 -156 0 56 41 c32 22 57 45 57 51 0 8 -90 138 -95 138
-1 0 -71 -52 -155 -115 l-153 -115 -206 0 c-117 0 -201 4 -195 9 5 4 59 41
119 81 61 40 112 74 114 76 5 4 -87 144 -94 144 -3 0 -110 -70 -238 -155
l-232 -155 -173 0 -174 0 123 131 c74 79 137 136 159 146 133 56 313 100 463
113 51 4 97 8 102 8 6 1 63 -3 128 -9z"/>
<path d="M3700 4678 l0 -85 71 -7 c438 -44 783 -388 816 -813 l6 -83 86 0 87
0 -8 104 c-38 506 -459 925 -970 962 l-88 7 0 -85z"/>
<path d="M2360 4175 c-633 -106 -1079 -685 -1020 -1320 52 -546 434 -976 971
-1092 117 -25 381 -25 498 0 750 162 1168 939 890 1657 -150 388 -523 687
-943 755 -109 18 -292 18 -396 0z m110 -663 l0 -499 -419 -241 c-230 -133
-425 -244 -433 -247 -10 -4 -18 1 -21 12 -3 10 -17 52 -32 93 -45 130 -58 219
-52 375 8 214 58 368 174 544 106 159 287 309 458 380 89 37 244 80 293 81
l32 0 0 -498z m332 474 c264 -67 487 -221 631 -437 116 -176 166 -330 174
-544 6 -156 -7 -245 -52 -375 -15 -41 -29 -83 -32 -93 -3 -11 -11 -16 -21 -12
-8 3 -203 114 -433 247 l-419 241 0 499 0 498 29 0 c16 0 71 -11 123 -24z
m193 -1373 c226 -130 414 -240 419 -244 15 -13 -100 -145 -190 -218 -94 -75
-243 -157 -344 -189 -114 -36 -182 -46 -320 -46 -194 0 -312 28 -481 116 -120
62 -250 166 -325 258 -31 39 -54 73 -51 76 3 3 196 115 428 250 251 144 430
242 439 238 8 -3 200 -111 425 -241z"/>
</g>
</svg>
