<?xml version="1.0" standalone="no"?>
<!DOCTYPE svg PUBLIC "-//W3C//DTD SVG 20010904//EN"
 "http://www.w3.org/TR/2001/REC-SVG-20010904/DTD/svg10.dtd">
<svg version="1.0" xmlns="http://www.w3.org/2000/svg"
 width="512.000000pt" height="512.000000pt" viewBox="0 0 512.000000 512.000000"
 preserveAspectRatio="xMidYMid meet">
<metadata>
Created by potrace 1.16, written by Peter Selinger 2001-2019
</metadata>
<g transform="translate(0.000000,512.000000) scale(0.100000,-0.100000)"
fill="#000000" stroke="none">
<path d="M2300 5105 c-628 -92 -1165 -487 -1435 -1057 -121 -255 -176 -510
-176 -817 0 -268 45 -489 154 -741 94 -218 226 -410 492 -715 66 -76 250 -296
408 -489 l288 -351 -38 -6 c-21 -4 -110 -12 -198 -19 -504 -37 -937 -128
-1124 -237 -57 -33 -119 -89 -137 -124 -18 -36 -18 -122 1 -158 8 -16 36 -48
62 -71 158 -139 536 -233 1178 -292 212 -20 303 -22 785 -22 560 -1 708 6
1070 50 546 66 888 186 967 338 20 38 20 114 -1 153 -41 81 -187 167 -375 222
-205 61 -558 117 -886 141 -88 7 -177 15 -197 19 l-37 6 266 325 c146 179 318
385 382 459 314 362 445 550 546 786 215 505 198 1092 -47 1579 -279 555 -805
934 -1419 1021 -126 18 -409 18 -529 0z m477 -175 c580 -77 1071 -433 1322
-961 223 -467 220 -1007 -8 -1469 -93 -187 -212 -352 -477 -656 -66 -77 -315
-377 -554 -669 -238 -291 -441 -535 -449 -542 -32 -25 -75 -15 -112 25 -20 20
-220 262 -445 537 -225 275 -463 562 -529 639 -313 361 -428 526 -524 750
-158 371 -176 795 -50 1186 114 354 349 665 664 879 210 143 446 235 704 276
105 16 351 19 458 5z m-527 -4262 c156 -195 203 -229 317 -229 111 0 176 48
323 240 l55 72 145 -6 c500 -20 1071 -119 1270 -220 90 -45 88 -66 -10 -115
-273 -138 -985 -230 -1780 -230 -747 0 -1370 73 -1725 201 -90 33 -153 77
-140 99 13 21 163 87 264 115 278 78 788 146 1136 153 l80 1 65 -81z"/>
<path d="M2427 4770 c-680 -64 -1222 -548 -1369 -1221 -19 -89 -22 -133 -22
-309 0 -176 3 -220 22 -310 89 -409 315 -744 656 -972 488 -326 1134 -342
1641 -40 231 138 441 359 566 596 125 238 179 455 179 726 0 397 -130 736
-398 1035 -311 349 -803 540 -1275 495z m398 -202 c561 -110 992 -558 1082
-1122 19 -123 13 -372 -12 -486 -90 -408 -359 -753 -731 -937 -342 -170 -725
-187 -1089 -48 -426 163 -743 542 -842 1005 -25 119 -25 401 0 520 158 742
860 1213 1592 1068z"/>
<path d="M2440 4439 c-150 -13 -288 -53 -430 -124 -126 -64 -263 -165 -289
-213 -37 -69 26 -148 102 -128 12 3 56 33 97 67 140 113 355 201 525 215 103
8 134 20 152 59 25 53 2 109 -52 123 -16 4 -64 5 -105 1z"/>
<path d="M2826 4369 c-58 -45 -21 -139 55 -139 72 0 106 84 54 135 -30 31 -73
32 -109 4z"/>
<path d="M1565 3725 c-27 -26 -33 -72 -14 -107 17 -32 71 -48 159 -48 l80 0 0
-295 0 -294 -34 -35 c-45 -45 -85 -53 -134 -29 -39 21 -63 58 -82 131 -9 35
-18 46 -43 57 -42 17 -83 9 -108 -24 -18 -22 -20 -36 -16 -88 6 -81 47 -155
113 -206 60 -46 109 -61 194 -60 117 1 211 61 262 168 l28 60 0 308 0 307 78
0 c108 0 149 13 169 55 18 38 12 76 -17 105 -19 19 -35 20 -315 20 l-296 0
-24 -25z"/>
<path d="M2448 3735 c-88 -32 -158 -100 -201 -193 -21 -44 -22 -61 -22 -302
l0 -255 33 -67 c38 -77 92 -130 170 -166 82 -37 194 -36 279 2 72 33 137 97
173 171 25 49 25 54 25 310 l0 260 -28 60 c-36 76 -110 147 -183 175 -65 24
-188 26 -246 5z m202 -187 c73 -50 75 -57 78 -281 2 -111 0 -217 -3 -235 -8
-45 -57 -97 -109 -117 -53 -20 -108 -9 -157 32 -54 46 -59 72 -59 288 0 204 6
242 48 289 44 49 147 61 202 24z"/>
<path d="M3070 3728 c-18 -13 -43 -36 -54 -51 -20 -28 -21 -41 -24 -425 -2
-282 1 -404 9 -424 6 -15 28 -43 49 -62 48 -43 87 -50 263 -44 115 3 139 7
187 29 97 46 164 138 177 247 7 60 -18 153 -54 201 -25 33 -25 34 -9 60 45 69
60 116 60 191 1 97 -28 164 -95 224 -74 66 -113 76 -309 76 -157 0 -169 -1
-200 -22z m374 -179 c29 -23 56 -68 56 -94 0 -32 -34 -88 -64 -106 -26 -16
-51 -19 -148 -19 l-118 0 0 120 0 120 124 0 c110 0 126 -2 150 -21z m-15 -417
c36 -19 71 -72 71 -107 0 -31 -36 -83 -72 -105 -28 -17 -51 -20 -145 -20
l-113 0 0 125 0 125 113 0 c90 0 119 -4 146 -18z"/>
<path d="M3245 2434 c-174 -141 -354 -219 -564 -245 -127 -15 -156 -33 -156
-98 0 -29 7 -47 23 -63 20 -20 32 -23 100 -21 244 6 555 136 730 303 35 34 42
47 42 78 -1 41 -13 63 -47 80 -40 22 -70 13 -128 -34z"/>
</g>
</svg>
