<?xml version="1.0" standalone="no"?>
<!DOCTYPE svg PUBLIC "-//W3C//DTD SVG 20010904//EN"
 "http://www.w3.org/TR/2001/REC-SVG-20010904/DTD/svg10.dtd">
<svg version="1.0" xmlns="http://www.w3.org/2000/svg"
 width="512.000000pt" height="512.000000pt" viewBox="0 0 512.000000 512.000000"
 preserveAspectRatio="xMidYMid meet">
<metadata>
Created by potrace 1.16, written by Peter Selinger 2001-2019
</metadata>
<g transform="translate(0.000000,512.000000) scale(0.100000,-0.100000)"
fill="#000000" stroke="none">
<path d="M989 4877 c-39 -30 -39 -32 -39 -856 l0 -801 -30 -28 c-27 -25 -646
-1085 -677 -1161 -21 -50 -18 -144 6 -195 32 -64 59 -85 276 -210 220 -127
268 -144 351 -126 49 11 118 51 133 77 7 13 101 -97 254 -294 6 -8 1 -28 -14
-60 -14 -28 -25 -73 -27 -108 -7 -117 83 -235 205 -268 42 -11 43 -12 43 -52
0 -24 11 -63 26 -93 47 -95 141 -152 250 -152 46 0 53 -3 58 -23 8 -34 72
-104 122 -133 50 -30 146 -42 204 -27 33 9 36 7 90 -47 68 -70 132 -95 220
-87 89 8 156 52 220 144 15 21 15 21 133 -48 131 -77 184 -94 259 -86 113 14
227 130 228 233 0 30 2 32 49 38 98 13 189 100 213 203 12 51 14 53 47 53 85
0 168 52 218 137 33 57 43 169 20 224 l-15 36 40 37 c79 75 112 210 73 301
l-14 35 81 41 82 41 35 -39 c67 -75 145 -102 235 -83 56 11 429 220 479 267
62 60 87 185 54 266 -32 75 -650 1134 -677 1159 l-30 28 0 801 c0 824 0 826
-39 856 -23 18 -3119 18 -3142 0z m3011 -887 l0 -730 -30 -6 c-50 -11 -441
-240 -478 -281 -36 -41 -66 -129 -60 -174 4 -26 1 -30 -31 -38 -88 -23 -174
-32 -300 -32 -138 0 -193 6 -379 41 -247 48 -405 11 -565 -130 l-38 -33 -218
78 -219 77 5 33 c8 48 -21 135 -59 178 -37 41 -428 270 -478 281 l-30 6 0 730
0 730 1440 0 1440 0 0 -730z m-2709 -1005 c194 -111 234 -143 225 -179 -7 -29
-623 -1096 -644 -1117 -38 -38 -52 -33 -253 82 -107 61 -200 118 -206 127 -7
9 -13 28 -13 42 0 32 608 1094 646 1128 14 12 33 22 43 22 9 0 100 -47 202
-105z m2783 83 c38 -34 646 -1095 646 -1127 0 -15 -6 -34 -12 -43 -7 -9 -100
-67 -207 -127 -201 -115 -215 -120 -253 -82 -21 21 -637 1088 -644 1117 -4 14
3 30 18 47 27 31 384 237 409 237 10 0 29 -10 43 -22z m-1339 -475 c119 -25
150 -27 360 -27 201 -1 241 2 320 21 50 12 93 18 97 15 11 -11 479 -824 476
-827 -2 -1 -52 -27 -111 -57 l-109 -56 -466 271 c-257 148 -492 282 -522 296
-108 49 -245 29 -432 -65 l-67 -34 -71 -139 c-46 -90 -83 -150 -105 -170 -38
-33 -133 -67 -148 -52 -6 6 -7 96 -2 227 l7 217 42 45 c73 80 298 283 344 309
105 62 188 67 387 26z m-933 -55 l178 -63 -90 -90 -90 -91 -10 -174 c-16 -297
-14 -380 13 -431 39 -73 116 -104 219 -88 152 25 232 93 329 283 l64 124 71
31 c94 40 157 54 197 43 38 -11 1032 -585 1065 -615 32 -30 30 -88 -5 -126
-51 -55 -60 -53 -270 69 -106 60 -204 110 -217 110 -62 0 -105 -84 -67 -132
11 -14 116 -81 232 -149 116 -67 220 -132 230 -143 34 -35 16 -121 -30 -146
-43 -22 -76 -9 -305 125 -178 104 -240 135 -267 135 -44 0 -67 -16 -78 -56
-17 -62 1 -80 190 -189 96 -55 184 -110 197 -122 35 -35 30 -87 -12 -129 -20
-20 -44 -34 -58 -34 -13 0 -98 43 -188 96 -259 151 -264 152 -314 113 -32 -25
-36 -85 -8 -117 9 -12 78 -56 152 -98 169 -96 180 -106 180 -157 0 -31 -7 -46
-34 -73 -20 -20 -44 -34 -58 -34 -12 0 -75 31 -139 68 -108 63 -115 69 -108
92 12 42 10 84 -7 141 -20 67 -100 151 -162 170 -37 11 -40 14 -31 36 17 45
10 135 -15 188 -36 79 -137 154 -207 155 -23 0 -27 5 -32 39 -11 83 -68 161
-150 202 -57 30 -159 37 -211 15 l-39 -16 -32 38 c-18 21 -57 51 -86 67 -47
26 -64 30 -129 30 -113 -1 -176 -42 -258 -172 -15 -24 -30 -42 -33 -40 -4 1
-65 75 -137 163 l-130 161 246 427 c135 234 251 426 256 426 6 0 91 -28 188
-62z m-61 -1104 c38 -37 44 -69 20 -110 -44 -75 -211 -302 -226 -308 -40 -15
-77 -6 -111 28 -39 39 -43 67 -15 111 52 86 205 292 224 302 30 18 76 8 108
-23z m382 -114 c47 -53 42 -65 -134 -316 -89 -126 -173 -241 -187 -256 -36
-39 -80 -38 -127 3 -61 54 -56 65 126 325 200 285 202 287 254 280 28 -3 48
-14 68 -36z m237 -247 c80 -55 74 -75 -90 -309 -77 -109 -150 -207 -161 -216
-58 -49 -175 24 -153 95 8 26 269 402 298 428 25 24 74 24 106 2z m196 -362
c39 -24 61 -73 46 -105 -19 -42 -131 -193 -147 -200 -66 -25 -157 45 -141 108
6 26 109 173 138 199 26 22 65 22 104 -2z"/>
<path d="M1755 4299 l-105 -102 -45 42 c-32 29 -53 41 -75 41 -44 0 -80 -39
-80 -86 0 -34 9 -46 83 -121 76 -76 87 -83 122 -83 37 0 47 8 182 143 137 137
143 145 143 183 0 53 -31 84 -84 84 -34 0 -47 -9 -141 -101z"/>
<path d="M2289 4257 c-46 -35 -50 -88 -10 -128 l29 -29 657 0 656 0 24 25 c36
35 35 96 -1 124 -26 21 -34 21 -683 21 -500 -1 -660 -4 -672 -13z"/>
<path d="M1761 3436 l-106 -105 -48 46 c-44 41 -52 45 -85 40 -46 -8 -72 -38
-72 -86 0 -32 9 -46 83 -119 76 -75 86 -82 122 -82 38 0 47 7 183 143 137 137
142 144 142 184 0 33 -5 46 -26 62 -53 41 -77 31 -193 -83z"/>
<path d="M2279 3391 c-16 -16 -29 -39 -29 -51 0 -29 26 -76 45 -84 9 -3 312
-6 674 -6 l658 0 21 23 c28 29 29 86 3 118 l-19 24 -662 3 -661 2 -30 -29z"/>
</g>
</svg>
