<?xml version="1.0" standalone="no"?>
<!DOCTYPE svg PUBLIC "-//W3C//DTD SVG 20010904//EN"
 "http://www.w3.org/TR/2001/REC-SVG-20010904/DTD/svg10.dtd">
<svg version="1.0" xmlns="http://www.w3.org/2000/svg"
 width="512.000000pt" height="512.000000pt" viewBox="0 0 512.000000 512.000000"
 preserveAspectRatio="xMidYMid meet">
<metadata>
Created by potrace 1.16, written by Peter Selinger 2001-2019
</metadata>
<g transform="translate(0.000000,512.000000) scale(0.100000,-0.100000)"
fill="#000000" stroke="none">
<path d="M2365 5071 c-28 -12 -62 -50 -74 -84 -6 -16 -11 -102 -11 -198 l0
-169 -1080 0 c-1174 0 -1122 3 -1148 -55 -17 -38 -17 -2462 0 -2500 26 -57 0
-55 852 -55 l784 0 -110 -330 -110 -330 -165 0 c-98 0 -172 -4 -185 -11 -26
-14 -48 -67 -41 -102 3 -15 19 -38 35 -52 28 -24 36 -25 159 -25 86 0 129 -4
129 -11 0 -6 -73 -230 -161 -497 -97 -290 -162 -502 -162 -525 0 -26 7 -46 22
-60 l22 -22 1440 0 1441 0 19 24 c12 14 19 39 19 63 0 26 -60 222 -160 525
-88 266 -160 488 -160 493 0 6 51 10 129 10 123 0 131 1 159 25 16 14 32 37
35 52 7 35 -15 88 -41 102 -13 7 -87 11 -185 11 l-165 0 -110 330 -110 330
784 0 c852 0 826 -2 852 55 17 38 17 2462 0 2500 -26 58 26 55 -1148 55
l-1080 0 0 170 c0 185 -6 216 -54 260 -27 25 -30 25 -214 27 -103 1 -196 -2
-207 -6z m285 -316 l0 -135 -90 0 -90 0 0 135 0 135 90 0 90 0 0 -135z m2240
-1440 l0 -1115 -2330 0 -2330 0 0 1115 0 1115 2330 0 2330 0 0 -1115z m-1556
-1624 c58 -176 106 -324 106 -330 0 -8 -257 -11 -880 -11 -582 0 -880 3 -880
10 0 6 47 154 105 330 l106 320 669 0 669 0 105 -319z m325 -984 c83 -249 151
-459 151 -465 0 -9 -292 -12 -1250 -12 -881 0 -1250 3 -1250 11 0 6 68 215
151 465 l150 454 949 0 949 0 150 -453z"/>
<path d="M3499 3909 c-360 -210 -665 -392 -679 -405 -34 -33 -34 -93 -1 -128
19 -20 34 -26 66 -26 36 0 121 47 699 384 362 212 666 392 677 402 27 24 26
93 -2 128 -16 21 -29 26 -63 26 -38 0 -115 -42 -697 -381z"/>
<path d="M4419 4154 l-24 -26 -3 -754 -2 -754 -776 -2 -776 -3 -24 -28 c-33
-39 -33 -99 1 -132 l24 -25 846 0 846 0 24 25 25 24 0 826 0 826 -25 24 c-35
36 -102 35 -136 -1z"/>
<path d="M585 3773 c-66 -16 -89 -109 -40 -158 l24 -25 846 0 846 0 24 25 c36
35 35 102 -1 136 l-26 24 -826 1 c-455 1 -836 0 -847 -3z"/>
<path d="M3908 3704 c-15 -8 -32 -23 -38 -34 -6 -12 -10 -168 -10 -430 l0
-412 29 -29 c38 -37 88 -39 128 -5 l28 24 3 408 c3 449 2 457 -54 480 -41 17
-52 17 -86 -2z"/>
<path d="M3443 3400 c-49 -20 -54 -50 -51 -326 l3 -256 28 -24 c40 -34 90 -32
128 5 l29 29 0 262 0 262 -29 29 c-30 30 -65 36 -108 19z"/>
<path d="M545 3355 c-19 -18 -25 -35 -25 -69 0 -37 5 -48 31 -70 l31 -26 833
0 833 0 31 26 c26 22 31 33 31 70 0 34 -6 51 -25 69 l-24 25 -846 0 -846 0
-24 -25z"/>
<path d="M2990 3253 c-8 -3 -25 -15 -37 -26 -22 -20 -23 -26 -23 -222 0 -188
1 -203 20 -223 45 -48 123 -39 153 18 16 31 17 58 15 217 -3 180 -3 183 -28
208 -26 25 -73 39 -100 28z"/>
<path d="M580 3003 c-63 -23 -83 -111 -35 -158 l24 -25 846 0 846 0 24 25 c36
35 35 102 -1 136 l-26 24 -831 2 c-458 1 -839 -1 -847 -4z"/>
</g>
</svg>
