<?xml version="1.0" standalone="no"?>
<!DOCTYPE svg PUBLIC "-//W3C//DTD SVG 20010904//EN"
 "http://www.w3.org/TR/2001/REC-SVG-20010904/DTD/svg10.dtd">
<svg version="1.0" xmlns="http://www.w3.org/2000/svg"
 width="512.000000pt" height="512.000000pt" viewBox="0 0 512.000000 512.000000"
 preserveAspectRatio="xMidYMid meet">
<metadata>
Created by potrace 1.16, written by Peter Selinger 2001-2019
</metadata>
<g transform="translate(0.000000,512.000000) scale(0.100000,-0.100000)"
fill="#000000" stroke="none">
<path d="M1859 5023 c-15 -2 -51 -18 -80 -36 -72 -44 -109 -112 -109 -203 0
-74 15 -116 59 -166 17 -19 28 -38 24 -42 -3 -3 -83 -6 -177 -6 -158 0 -174
-2 -211 -23 -27 -15 -47 -37 -63 -69 l-23 -46 8 -584 8 -585 29 -37 c48 -64
61 -66 378 -65 156 1 403 4 550 8 296 7 295 6 346 81 21 32 22 41 22 262 0
256 -5 283 -62 318 -22 13 -50 20 -85 20 -46 0 -57 -4 -97 -39 -54 -46 -76
-55 -121 -47 -101 19 -114 172 -18 212 47 20 80 11 137 -36 43 -36 54 -40 101
-40 43 0 59 5 86 27 58 49 61 70 53 320 -6 205 -9 227 -28 255 -48 71 -54 72
-303 78 l-225 5 22 20 c64 57 90 196 51 280 -45 99 -161 157 -272 138z m97
-139 c41 -19 64 -59 64 -108 0 -26 -10 -46 -39 -80 -51 -59 -61 -110 -32 -169
36 -73 49 -77 293 -77 117 0 218 -4 224 -8 7 -4 14 -78 19 -209 6 -183 5 -203
-9 -203 -9 0 -16 4 -16 10 0 16 -102 69 -148 76 -145 22 -272 -93 -272 -245 1
-207 227 -313 395 -186 25 19 47 35 50 35 3 0 5 -92 5 -204 0 -174 -2 -205
-15 -210 -9 -3 -243 -9 -520 -12 -374 -5 -508 -4 -518 4 -19 16 -34 1106 -16
1128 9 11 48 14 183 14 143 0 177 3 206 18 47 23 80 75 80 124 0 46 -11 70
-56 121 -55 60 -41 146 28 180 42 21 52 21 94 1z"/>
<path d="M2952 4351 c-197 -68 -217 -350 -32 -446 16 -9 51 -18 77 -21 27 -3
54 -8 62 -10 9 -3 -40 -57 -134 -147 -82 -78 -154 -156 -161 -174 -23 -54 -18
-113 15 -164 16 -24 91 -105 167 -180 150 -148 179 -165 250 -149 61 14 94 56
104 132 4 36 15 76 24 90 44 67 153 61 191 -12 20 -39 19 -69 -5 -108 -24 -39
-73 -62 -133 -62 -107 0 -168 -137 -100 -222 50 -62 288 -299 315 -314 39 -21
127 -18 163 5 46 30 758 730 777 765 21 39 23 108 3 149 -9 18 -199 217 -423
444 -381 386 -410 412 -448 418 -79 12 -111 -5 -247 -135 -69 -66 -127 -120
-130 -120 -2 0 -7 25 -10 55 -11 106 -87 193 -188 214 -65 14 -74 14 -137 -8z
m123 -125 c48 -20 75 -68 75 -133 0 -44 5 -58 31 -88 38 -43 89 -59 144 -44
31 9 70 40 166 135 70 68 131 124 137 124 20 0 787 -789 787 -810 0 -23 -720
-730 -744 -730 -15 0 -291 267 -291 281 0 4 23 10 52 13 131 18 212 97 225
221 11 102 -47 203 -141 246 -51 23 -143 25 -194 3 -78 -32 -138 -115 -149
-205 -3 -27 -8 -49 -12 -49 -14 0 -281 276 -281 290 0 9 67 83 149 164 102
101 154 159 161 182 31 94 -40 184 -145 184 -133 0 -171 163 -50 216 38 17 39
17 80 0z"/>
<path d="M204 3290 c-53 -12 -103 -49 -130 -97 -53 -88 -40 -132 282 -992 135
-359 265 -692 288 -740 87 -171 167 -260 376 -415 154 -113 228 -185 288 -276
l41 -63 -31 -16 c-18 -9 -45 -33 -62 -54 l-31 -39 -3 -236 c-3 -233 -3 -237
19 -254 20 -17 64 -18 614 -18 569 0 594 1 616 19 24 19 24 20 24 243 0 248
-2 257 -69 316 -31 27 -57 36 -125 45 -25 3 -51 139 -76 389 -19 187 -42 285
-90 377 -51 97 -117 174 -225 265 -226 187 -413 351 -526 457 -139 131 -199
169 -285 176 -62 6 -136 -14 -160 -43 -10 -13 -18 -4 -52 53 -53 92 -144 273
-241 483 -89 190 -124 249 -195 323 -74 78 -170 115 -247 97z m79 -133 c62
-26 134 -120 204 -266 120 -251 263 -535 309 -615 42 -72 47 -85 48 -151 2
-60 9 -85 40 -151 50 -105 96 -165 240 -313 170 -174 232 -224 265 -216 33 8
51 31 51 66 0 20 -20 46 -87 110 -275 263 -378 403 -378 512 0 43 4 52 37 83
69 62 114 45 277 -109 113 -106 327 -293 521 -454 147 -122 221 -226 255 -360
8 -32 22 -125 30 -208 14 -137 37 -295 52 -352 l5 -23 -331 0 -331 0 -34 68
c-66 130 -154 223 -346 365 -74 55 -162 128 -196 162 -69 70 -139 178 -183
280 -64 153 -510 1355 -531 1434 -27 103 -17 136 48 150 1 1 17 -5 35 -12z
m2059 -2595 c22 -21 23 -32 26 -182 l3 -160 -510 0 -511 0 0 163 c0 172 2 182
50 200 8 3 219 5 467 4 l452 -2 23 -23z"/>
<path d="M2120 549 c-62 -26 -100 -85 -100 -157 0 -94 86 -170 179 -158 150
20 193 207 69 299 -31 23 -111 32 -148 16z"/>
<path d="M4830 3291 c-82 -17 -167 -86 -241 -196 -18 -27 -70 -129 -115 -225
-97 -210 -188 -391 -241 -483 -34 -57 -42 -66 -52 -53 -24 29 -98 49 -160 43
-86 -7 -146 -45 -285 -176 -113 -106 -300 -270 -526 -457 -108 -91 -174 -168
-225 -265 -48 -92 -71 -190 -90 -377 -25 -250 -51 -386 -76 -389 -68 -9 -94
-18 -125 -45 -67 -59 -69 -68 -69 -316 0 -223 0 -224 24 -243 22 -18 47 -19
616 -19 550 0 594 1 614 18 22 17 22 21 19 254 l-3 236 -31 39 c-17 21 -44 45
-62 54 l-31 16 41 63 c60 91 134 163 288 276 209 155 289 244 376 415 48 96
518 1342 559 1484 15 50 29 116 32 147 5 49 2 63 -21 102 -43 73 -133 113
-216 97z m87 -143 c23 -19 24 -48 2 -130 -20 -78 -466 -1281 -530 -1433 -75
-175 -169 -286 -364 -430 -198 -145 -289 -239 -356 -367 l-40 -78 -331 0 -330
0 5 23 c15 56 38 215 52 353 18 181 34 245 80 333 51 97 98 146 294 309 191
159 303 258 451 397 142 134 191 151 258 91 33 -31 37 -40 37 -83 0 -109 -104
-249 -378 -512 -89 -85 -100 -108 -77 -151 14 -27 57 -34 89 -14 48 32 312
298 367 371 30 40 71 107 91 149 30 64 37 89 39 149 1 66 6 79 48 151 46 80
189 364 309 615 105 218 211 315 284 257z m-1168 -2582 c20 -18 21 -29 21
-183 l0 -163 -510 0 -510 0 0 144 c0 161 9 200 48 215 17 6 199 9 478 8 429
-2 453 -3 473 -21z"/>
<path d="M2875 546 c-16 -7 -43 -28 -59 -45 -24 -25 -31 -42 -34 -89 -5 -69
11 -108 61 -146 49 -38 111 -43 166 -14 62 32 84 66 89 135 3 48 0 64 -20 92
-12 19 -35 43 -50 54 -34 25 -113 32 -153 13z"/>
<path d="M1945 3034 c-86 -44 -95 -72 -95 -284 0 -93 -4 -170 -8 -170 -5 0
-17 9 -28 21 -63 70 -200 87 -287 36 -213 -125 -129 -446 116 -447 63 0 113
17 163 55 18 14 35 25 38 25 3 0 6 -77 6 -171 0 -155 2 -175 21 -208 41 -73
51 -76 269 -79 220 -3 241 2 273 71 30 63 19 115 -38 179 -56 61 -45 137 25
173 39 20 66 19 106 -5 37 -23 60 -76 50 -116 -4 -13 -23 -43 -44 -66 -35 -38
-37 -45 -37 -105 0 -62 2 -66 37 -99 l38 -34 193 0 c185 0 196 1 228 23 19 12
44 42 57 67 20 41 22 58 22 213 l0 169 35 -31 c20 -17 52 -38 72 -46 44 -19
143 -19 186 -2 139 59 192 245 103 366 -82 111 -243 132 -344 46 -22 -19 -42
-35 -45 -35 -3 0 -7 80 -9 178 -3 164 -5 180 -26 214 -13 21 -40 45 -66 57
-41 20 -57 21 -512 21 -406 0 -473 -2 -499 -16z m965 -133 c6 -11 10 -90 10
-186 0 -185 7 -211 63 -245 20 -12 50 -20 78 -20 40 0 54 6 95 40 26 21 60 42
75 45 39 9 95 -18 113 -54 26 -50 21 -88 -18 -127 -50 -50 -99 -48 -160 6 -57
49 -101 58 -161 36 -77 -30 -85 -53 -85 -259 0 -220 11 -207 -176 -207 -72 0
-133 3 -137 6 -3 4 7 23 23 43 81 100 78 226 -6 320 -149 165 -414 61 -414
-162 0 -67 16 -110 59 -159 17 -19 28 -38 24 -42 -11 -10 -273 -7 -294 4 -18
10 -19 23 -19 183 0 189 -8 220 -63 261 -37 27 -113 28 -147 3 -14 -10 -40
-29 -59 -42 -75 -55 -170 -10 -171 80 0 100 115 150 181 79 53 -57 136 -71
197 -34 54 33 62 67 62 258 0 117 4 172 12 180 9 9 125 12 460 12 432 0 448
-1 458 -19z"/>
</g>
</svg>
