<?xml version="1.0" standalone="no"?>
<!DOCTYPE svg PUBLIC "-//W3C//DTD SVG 20010904//EN"
 "http://www.w3.org/TR/2001/REC-SVG-20010904/DTD/svg10.dtd">
<svg version="1.0" xmlns="http://www.w3.org/2000/svg"
 width="512.000000pt" height="512.000000pt" viewBox="0 0 512.000000 512.000000"
 preserveAspectRatio="xMidYMid meet">
<metadata>
Created by potrace 1.16, written by Peter Selinger 2001-2019
</metadata>
<g transform="translate(0.000000,512.000000) scale(0.100000,-0.100000)"
fill="#000000" stroke="none">
<path d="M2325 5104 c-125 -20 -315 -68 -407 -103 -291 -113 -568 -332 -760
-602 -77 -107 -184 -316 -223 -434 -148 -442 -116 -906 89 -1290 23 -44 244
-396 489 -783 246 -386 447 -704 447 -707 0 -2 -15 -6 -32 -9 -197 -30 -413
-77 -455 -98 -49 -24 -48 -111 2 -138 26 -14 34 -13 190 24 61 14 173 35 249
46 114 17 142 19 152 8 7 -7 100 -152 208 -323 198 -315 231 -355 285 -355 57
0 82 31 290 359 111 176 207 324 212 327 5 3 60 -2 122 -11 394 -58 708 -168
837 -294 74 -72 84 -110 47 -173 -117 -201 -679 -365 -1320 -387 -626 -21
-1186 66 -1504 234 -104 55 -158 99 -190 153 -45 77 -11 142 124 233 42 29 78
61 84 75 20 54 -17 104 -77 104 -40 0 -163 -80 -222 -144 -109 -118 -119 -264
-27 -388 154 -208 631 -367 1262 -419 215 -18 735 -6 933 20 604 82 986 241
1091 456 35 73 34 170 -4 247 -91 186 -425 342 -901 423 -82 14 -151 27 -153
29 -2 2 197 320 443 707 246 387 467 740 490 784 140 263 202 565 176 863 -13
147 -50 332 -79 391 -31 62 -109 68 -142 10 -13 -24 -12 -38 17 -155 89 -362
56 -694 -97 -997 -48 -96 -1399 -2227 -1411 -2227 -6 0 -1286 2009 -1374 2155
-51 86 -111 235 -141 350 -101 390 -17 847 221 1200 232 344 578 576 997 667
87 19 132 22 307 22 226 0 307 -12 492 -74 308 -103 607 -333 787 -605 40 -60
80 -116 89 -122 44 -35 122 7 122 65 0 55 -129 241 -264 381 -240 248 -526
410 -861 487 -106 24 -144 28 -320 30 -138 2 -228 -2 -290 -12z"/>
<path d="M2369 4710 c-281 -45 -531 -171 -729 -370 -174 -173 -286 -372 -347
-617 -25 -99 -28 -124 -28 -303 0 -179 3 -204 28 -303 61 -245 173 -444 347
-617 172 -173 373 -286 615 -347 101 -25 125 -28 305 -28 179 0 204 3 303 28
246 62 444 173 617 347 174 173 285 371 348 617 25 99 27 124 27 303 0 179 -2
204 -27 303 -64 252 -176 449 -358 628 -173 170 -392 289 -637 344 -80 19
-381 28 -464 15z m383 -165 c546 -95 948 -572 948 -1125 0 -629 -511 -1140
-1140 -1140 -628 0 -1140 512 -1140 1140 0 550 399 1026 943 1125 98 18 287
18 389 0z"/>
<path d="M1875 3765 l-25 -24 0 -254 c0 -295 0 -295 -73 -253 -55 32 -81 33
-112 1 -54 -53 -23 -120 75 -164 102 -46 211 -3 255 101 12 31 15 86 15 303
l0 266 -25 24 c-15 16 -36 25 -55 25 -19 0 -40 -9 -55 -25z"/>
<path d="M2370 3775 c-65 -18 -148 -73 -185 -121 -14 -19 -38 -60 -53 -92 -38
-82 -38 -202 0 -284 36 -79 70 -120 131 -162 186 -127 440 -60 540 143 29 60
32 74 32 161 0 87 -3 101 -32 161 -80 161 -260 242 -433 194z m161 -156 c157
-47 200 -253 74 -356 -137 -114 -338 -20 -338 158 0 81 38 142 112 181 58 30
93 34 152 17z"/>
<path d="M2985 3765 l-25 -24 0 -321 0 -321 25 -24 c23 -24 29 -25 152 -25 70
0 144 5 164 10 52 15 99 49 133 98 54 77 46 214 -17 282 -21 23 -22 28 -11 55
19 43 16 124 -5 170 -23 51 -79 101 -128 114 -21 6 -89 11 -151 11 -107 0
-114 -1 -137 -25z m302 -427 c31 -29 30 -72 -2 -103 -21 -22 -33 -25 -95 -25
l-70 0 0 75 0 75 72 0 c60 0 76 -4 95 -22z"/>
</g>
</svg>
