<?xml version="1.0" standalone="no"?>
<!DOCTYPE svg PUBLIC "-//W3C//DTD SVG 20010904//EN"
 "http://www.w3.org/TR/2001/REC-SVG-20010904/DTD/svg10.dtd">
<svg version="1.0" xmlns="http://www.w3.org/2000/svg"
 width="512.000000pt" height="512.000000pt" viewBox="0 0 512.000000 512.000000"
 preserveAspectRatio="xMidYMid meet">
<metadata>
Created by potrace 1.16, written by Peter Selinger 2001-2019
</metadata>
<g transform="translate(0.000000,512.000000) scale(0.100000,-0.100000)"
fill="#000000" stroke="none">
<path d="M3075 5100 c-381 -67 -698 -231 -961 -496 -281 -282 -447 -621 -499
-1017 -44 -341 11 -683 161 -993 59 -121 159 -277 235 -365 l48 -55 -129 -129
-128 -128 -54 47 c-88 78 -193 95 -286 47 -21 -11 -335 -318 -723 -708 -788
-790 -734 -724 -734 -908 0 -99 3 -116 27 -168 35 -74 121 -160 195 -195 52
-24 69 -27 168 -27 184 0 118 -54 908 734 390 388 697 702 708 723 48 93 31
198 -47 286 l-47 54 128 128 129 129 55 -48 c88 -76 244 -176 365 -235 310
-150 652 -205 993 -161 594 78 1086 431 1357 973 120 240 176 487 176 772 0
483 -174 906 -514 1246 -276 275 -593 435 -988 498 -135 22 -410 20 -543 -4z
m610 -170 c208 -45 429 -141 602 -263 113 -80 300 -267 380 -380 122 -173 218
-394 263 -602 34 -154 39 -422 12 -581 -106 -620 -566 -1129 -1165 -1288 -160
-42 -232 -51 -427 -50 -152 0 -204 4 -290 23 -658 140 -1131 613 -1271 1271
-19 86 -23 138 -23 290 -1 112 4 214 12 260 94 531 410 954 892 1195 101 51
292 112 420 135 147 27 449 22 595 -10z m-2077 -3064 c33 -18 245 -232 261
-264 17 -32 6 -60 -42 -110 l-41 -42 -168 167 -168 167 38 39 c54 57 78 65
120 43z m-505 -1099 c-383 -384 -581 -575 -608 -588 -48 -22 -141 -25 -189 -5
-48 20 -107 75 -127 121 -23 50 -24 142 -4 193 11 26 191 212 588 609 l572
573 167 -167 168 -168 -567 -568z"/>
<path d="M3153 4789 c-171 -26 -357 -90 -499 -170 -257 -146 -455 -358 -584
-624 -66 -135 -89 -201 -122 -348 -32 -145 -32 -424 0 -574 27 -123 71 -252
122 -354 48 -95 155 -256 180 -269 32 -17 70 -11 95 15 39 38 32 70 -35 169
-102 150 -168 304 -207 486 -25 117 -24 371 1 488 61 286 206 535 416 717 238
207 529 315 844 315 263 0 492 -71 721 -224 54 -36 109 -66 121 -66 39 0 74
37 74 78 -1 46 -9 57 -90 114 -147 104 -348 191 -540 233 -89 20 -402 29 -497
14z"/>
<path d="M4371 4254 c-12 -15 -21 -36 -21 -48 0 -12 30 -67 66 -121 153 -229
224 -458 224 -721 0 -202 -40 -378 -125 -554 -181 -370 -500 -619 -905 -706
-119 -25 -372 -26 -490 -1 -182 39 -336 105 -486 207 -99 67 -131 74 -169 35
-26 -25 -32 -63 -15 -95 13 -25 174 -132 270 -180 392 -197 878 -198 1275 -3
402 198 677 550 777 994 20 90 23 131 23 299 0 150 -4 214 -18 280 -42 198
-128 399 -235 550 -57 81 -68 89 -114 90 -28 0 -41 -6 -57 -26z"/>
<path d="M2745 3815 l-25 -24 0 -308 c0 -300 -1 -310 -22 -353 -17 -33 -35
-51 -68 -67 -59 -30 -87 -29 -155 7 -72 38 -107 39 -134 4 -46 -59 -17 -113
87 -162 47 -22 71 -27 132 -26 116 1 204 47 263 138 53 80 57 113 57 454 0
298 -1 310 -21 336 -28 35 -80 36 -114 1z"/>
<path d="M3167 3820 c-67 -26 -112 -63 -152 -123 -49 -77 -57 -132 -53 -367 3
-197 4 -207 29 -261 121 -257 489 -244 590 21 17 44 19 79 19 270 0 199 -2
224 -21 277 -59 159 -254 245 -412 183z m201 -167 c14 -10 35 -32 46 -47 20
-26 21 -41 21 -245 l0 -218 -27 -35 c-73 -95 -216 -81 -267 26 -19 38 -21 61
-21 224 0 190 7 229 48 276 43 48 147 59 200 19z"/>
<path d="M3709 3821 l-24 -19 -3 -423 c-2 -291 1 -432 8 -450 18 -42 48 -49
203 -49 203 0 276 24 352 112 101 119 99 303 -5 421 l-40 45 20 43 c54 120 3
261 -114 315 -47 22 -64 24 -212 24 -144 0 -164 -2 -185 -19z m346 -166 c27
-26 32 -70 12 -96 -23 -30 -56 -39 -141 -39 l-86 0 0 80 0 80 95 0 c88 0 98
-2 120 -25z m32 -321 c94 -70 98 -191 7 -260 -35 -27 -44 -29 -146 -32 l-108
-4 0 162 0 162 109 -4 c92 -2 114 -6 138 -24z"/>
</g>
</svg>
