<?xml version="1.0" standalone="no"?>
<!DOCTYPE svg PUBLIC "-//W3C//DTD SVG 20010904//EN"
 "http://www.w3.org/TR/2001/REC-SVG-20010904/DTD/svg10.dtd">
<svg version="1.0" xmlns="http://www.w3.org/2000/svg"
 width="512.000000pt" height="512.000000pt" viewBox="0 0 512.000000 512.000000"
 preserveAspectRatio="xMidYMid meet">
<metadata>
Created by potrace 1.16, written by Peter Selinger 2001-2019
</metadata>
<g transform="translate(0.000000,512.000000) scale(0.100000,-0.100000)"
fill="#000000" stroke="none">
<path d="M1620 4940 c-18 -18 -20 -33 -20 -160 l0 -140 -60 0 c-105 0 -100 18
-100 -380 l0 -340 -620 0 c-607 0 -620 0 -640 -20 -20 -20 -20 -33 -20 -1400
l0 -1380 80 0 80 0 0 1320 0 1320 560 0 560 0 0 -960 0 -960 80 0 80 0 0 1320
0 1320 960 0 960 0 0 -1320 0 -1320 80 0 80 0 0 960 0 960 560 0 560 0 0
-1320 0 -1320 80 0 80 0 0 1380 c0 1367 0 1380 -20 1400 -20 20 -33 20 -640
20 l-620 0 0 340 c0 398 5 380 -100 380 l-60 0 0 140 c0 127 -2 142 -20 160
-20 20 -33 20 -940 20 -907 0 -920 0 -940 -20z m1740 -220 l0 -80 -800 0 -800
0 0 80 0 80 800 0 800 0 0 -80z"/>
<path d="M1840 4160 l0 -80 80 0 80 0 0 80 0 80 -80 0 -80 0 0 -80z"/>
<path d="M2160 4160 l0 -80 80 0 80 0 0 80 0 80 -80 0 -80 0 0 -80z"/>
<path d="M2480 4160 l0 -80 80 0 80 0 0 80 0 80 -80 0 -80 0 0 -80z"/>
<path d="M2800 4160 l0 -80 80 0 80 0 0 80 0 80 -80 0 -80 0 0 -80z"/>
<path d="M3120 4160 l0 -80 80 0 80 0 0 80 0 80 -80 0 -80 0 0 -80z"/>
<path d="M1840 3840 l0 -80 80 0 80 0 0 80 0 80 -80 0 -80 0 0 -80z"/>
<path d="M2160 3840 l0 -80 80 0 80 0 0 80 0 80 -80 0 -80 0 0 -80z"/>
<path d="M2480 3840 l0 -80 80 0 80 0 0 80 0 80 -80 0 -80 0 0 -80z"/>
<path d="M2800 3840 l0 -80 80 0 80 0 0 80 0 80 -80 0 -80 0 0 -80z"/>
<path d="M3120 3840 l0 -80 80 0 80 0 0 80 0 80 -80 0 -80 0 0 -80z"/>
<path d="M480 3520 l0 -80 80 0 80 0 0 80 0 80 -80 0 -80 0 0 -80z"/>
<path d="M800 3520 l0 -80 80 0 80 0 0 80 0 80 -80 0 -80 0 0 -80z"/>
<path d="M1120 3520 l0 -80 80 0 80 0 0 80 0 80 -80 0 -80 0 0 -80z"/>
<path d="M1840 3520 l0 -80 80 0 80 0 0 80 0 80 -80 0 -80 0 0 -80z"/>
<path d="M2160 3520 l0 -80 80 0 80 0 0 80 0 80 -80 0 -80 0 0 -80z"/>
<path d="M2480 3520 l0 -80 80 0 80 0 0 80 0 80 -80 0 -80 0 0 -80z"/>
<path d="M2800 3520 l0 -80 80 0 80 0 0 80 0 80 -80 0 -80 0 0 -80z"/>
<path d="M3120 3520 l0 -80 80 0 80 0 0 80 0 80 -80 0 -80 0 0 -80z"/>
<path d="M3840 3520 l0 -80 80 0 80 0 0 80 0 80 -80 0 -80 0 0 -80z"/>
<path d="M4160 3520 l0 -80 80 0 80 0 0 80 0 80 -80 0 -80 0 0 -80z"/>
<path d="M4480 3520 l0 -80 80 0 80 0 0 80 0 80 -80 0 -80 0 0 -80z"/>
<path d="M480 3200 l0 -80 80 0 80 0 0 80 0 80 -80 0 -80 0 0 -80z"/>
<path d="M800 3200 l0 -80 80 0 80 0 0 80 0 80 -80 0 -80 0 0 -80z"/>
<path d="M1120 3200 l0 -80 80 0 80 0 0 80 0 80 -80 0 -80 0 0 -80z"/>
<path d="M1840 3200 l0 -80 80 0 80 0 0 80 0 80 -80 0 -80 0 0 -80z"/>
<path d="M2160 3200 l0 -80 80 0 80 0 0 80 0 80 -80 0 -80 0 0 -80z"/>
<path d="M2480 3200 l0 -80 80 0 80 0 0 80 0 80 -80 0 -80 0 0 -80z"/>
<path d="M2800 3200 l0 -80 80 0 80 0 0 80 0 80 -80 0 -80 0 0 -80z"/>
<path d="M3120 3200 l0 -80 80 0 80 0 0 80 0 80 -80 0 -80 0 0 -80z"/>
<path d="M3840 3200 l0 -80 80 0 80 0 0 80 0 80 -80 0 -80 0 0 -80z"/>
<path d="M4160 3200 l0 -80 80 0 80 0 0 80 0 80 -80 0 -80 0 0 -80z"/>
<path d="M4480 3200 l0 -80 80 0 80 0 0 80 0 80 -80 0 -80 0 0 -80z"/>
<path d="M480 2880 l0 -80 80 0 80 0 0 80 0 80 -80 0 -80 0 0 -80z"/>
<path d="M800 2880 l0 -80 80 0 80 0 0 80 0 80 -80 0 -80 0 0 -80z"/>
<path d="M1120 2880 l0 -80 80 0 80 0 0 80 0 80 -80 0 -80 0 0 -80z"/>
<path d="M1840 2880 l0 -80 80 0 80 0 0 80 0 80 -80 0 -80 0 0 -80z"/>
<path d="M2160 2880 l0 -80 80 0 80 0 0 80 0 80 -80 0 -80 0 0 -80z"/>
<path d="M2480 2880 l0 -80 80 0 80 0 0 80 0 80 -80 0 -80 0 0 -80z"/>
<path d="M2800 2880 l0 -80 80 0 80 0 0 80 0 80 -80 0 -80 0 0 -80z"/>
<path d="M3120 2880 l0 -80 80 0 80 0 0 80 0 80 -80 0 -80 0 0 -80z"/>
<path d="M3840 2880 l0 -80 80 0 80 0 0 80 0 80 -80 0 -80 0 0 -80z"/>
<path d="M4160 2880 l0 -80 80 0 80 0 0 80 0 80 -80 0 -80 0 0 -80z"/>
<path d="M4480 2880 l0 -80 80 0 80 0 0 80 0 80 -80 0 -80 0 0 -80z"/>
<path d="M480 2560 l0 -80 80 0 80 0 0 80 0 80 -80 0 -80 0 0 -80z"/>
<path d="M800 2560 l0 -80 80 0 80 0 0 80 0 80 -80 0 -80 0 0 -80z"/>
<path d="M1120 2560 l0 -80 80 0 80 0 0 80 0 80 -80 0 -80 0 0 -80z"/>
<path d="M1840 2560 l0 -80 80 0 80 0 0 80 0 80 -80 0 -80 0 0 -80z"/>
<path d="M2160 2560 l0 -80 80 0 80 0 0 80 0 80 -80 0 -80 0 0 -80z"/>
<path d="M2480 2560 l0 -80 80 0 80 0 0 80 0 80 -80 0 -80 0 0 -80z"/>
<path d="M2800 2560 l0 -80 80 0 80 0 0 80 0 80 -80 0 -80 0 0 -80z"/>
<path d="M3120 2560 l0 -80 80 0 80 0 0 80 0 80 -80 0 -80 0 0 -80z"/>
<path d="M3840 2560 l0 -80 80 0 80 0 0 80 0 80 -80 0 -80 0 0 -80z"/>
<path d="M4160 2560 l0 -80 80 0 80 0 0 80 0 80 -80 0 -80 0 0 -80z"/>
<path d="M4480 2560 l0 -80 80 0 80 0 0 80 0 80 -80 0 -80 0 0 -80z"/>
<path d="M480 2240 l0 -80 80 0 80 0 0 80 0 80 -80 0 -80 0 0 -80z"/>
<path d="M800 2240 l0 -80 80 0 80 0 0 80 0 80 -80 0 -80 0 0 -80z"/>
<path d="M1120 2240 l0 -80 80 0 80 0 0 80 0 80 -80 0 -80 0 0 -80z"/>
<path d="M1840 2240 l0 -80 80 0 80 0 0 80 0 80 -80 0 -80 0 0 -80z"/>
<path d="M2160 2240 l0 -80 80 0 80 0 0 80 0 80 -80 0 -80 0 0 -80z"/>
<path d="M2480 2240 l0 -80 80 0 80 0 0 80 0 80 -80 0 -80 0 0 -80z"/>
<path d="M2800 2240 l0 -80 80 0 80 0 0 80 0 80 -80 0 -80 0 0 -80z"/>
<path d="M3120 2240 l0 -80 80 0 80 0 0 80 0 80 -80 0 -80 0 0 -80z"/>
<path d="M3840 2240 l0 -80 80 0 80 0 0 80 0 80 -80 0 -80 0 0 -80z"/>
<path d="M4160 2240 l0 -80 80 0 80 0 0 80 0 80 -80 0 -80 0 0 -80z"/>
<path d="M4480 2240 l0 -80 80 0 80 0 0 80 0 80 -80 0 -80 0 0 -80z"/>
<path d="M480 1920 l0 -80 80 0 80 0 0 80 0 80 -80 0 -80 0 0 -80z"/>
<path d="M800 1920 l0 -80 80 0 80 0 0 80 0 80 -80 0 -80 0 0 -80z"/>
<path d="M1120 1920 l0 -80 80 0 80 0 0 80 0 80 -80 0 -80 0 0 -80z"/>
<path d="M1840 1920 l0 -80 80 0 80 0 0 80 0 80 -80 0 -80 0 0 -80z"/>
<path d="M2160 1920 l0 -80 80 0 80 0 0 80 0 80 -80 0 -80 0 0 -80z"/>
<path d="M2480 1920 l0 -80 80 0 80 0 0 80 0 80 -80 0 -80 0 0 -80z"/>
<path d="M2800 1920 l0 -80 80 0 80 0 0 80 0 80 -80 0 -80 0 0 -80z"/>
<path d="M3120 1920 l0 -80 80 0 80 0 0 80 0 80 -80 0 -80 0 0 -80z"/>
<path d="M3840 1920 l0 -80 80 0 80 0 0 80 0 80 -80 0 -80 0 0 -80z"/>
<path d="M4160 1920 l0 -80 80 0 80 0 0 80 0 80 -80 0 -80 0 0 -80z"/>
<path d="M4480 1920 l0 -80 80 0 80 0 0 80 0 80 -80 0 -80 0 0 -80z"/>
<path d="M752 1659 c-71 -28 -144 -101 -171 -174 -18 -47 -21 -78 -21 -204 0
-106 4 -161 15 -191 8 -23 15 -44 15 -45 0 -1 -33 -5 -74 -7 -135 -9 -259 -95
-322 -223 l-29 -60 -3 -277 c-3 -268 -3 -277 17 -297 l21 -21 2360 0 2360 0
21 21 c20 20 20 29 17 297 l-3 277 -29 60 c-63 128 -187 214 -322 223 -41 2
-74 6 -74 7 0 1 7 22 15 45 11 30 15 85 15 191 0 126 -3 157 -21 204 -77 207
-369 264 -529 105 -75 -76 -90 -127 -90 -309 0 -107 4 -160 15 -191 8 -24 13
-45 11 -48 -6 -6 -286 -6 -292 0 -2 3 3 24 11 48 11 31 15 84 15 191 0 182
-15 233 -90 309 -124 123 -336 123 -460 0 -75 -76 -90 -127 -90 -309 0 -106 4
-161 15 -191 8 -23 15 -44 15 -46 0 -2 -49 -4 -110 -4 -60 0 -110 2 -110 4 0
2 7 23 15 46 11 30 15 85 15 191 0 126 -3 157 -21 204 -77 207 -369 264 -529
105 -75 -76 -90 -127 -90 -309 0 -106 4 -161 15 -191 8 -23 15 -44 15 -46 0
-2 -49 -4 -110 -4 -60 0 -110 2 -110 4 0 2 7 23 15 46 11 30 15 85 15 191 0
126 -3 157 -21 204 -77 207 -369 264 -529 105 -75 -76 -90 -127 -90 -309 0
-107 4 -160 15 -191 8 -24 13 -45 11 -48 -6 -6 -286 -6 -292 0 -2 3 3 24 11
48 11 31 15 84 15 191 0 182 -15 233 -90 309 -89 88 -235 116 -358 69z m208
-172 c62 -41 75 -77 75 -207 0 -98 -3 -120 -21 -150 -63 -107 -205 -107 -268
0 -18 30 -21 52 -21 150 0 98 3 120 21 150 46 78 144 105 214 57z m880 0 c62
-41 75 -77 75 -207 0 -98 -3 -120 -21 -150 -63 -107 -205 -107 -268 0 -18 30
-21 52 -21 150 0 98 3 120 21 150 46 78 144 105 214 57z m800 0 c62 -41 75
-77 75 -207 0 -98 -3 -120 -21 -150 -63 -107 -205 -107 -268 0 -18 30 -21 52
-21 150 0 98 3 120 21 150 46 78 144 105 214 57z m800 0 c62 -41 75 -77 75
-207 0 -98 -3 -120 -21 -150 -63 -107 -205 -107 -268 0 -18 30 -21 52 -21 150
0 98 3 120 21 150 46 78 144 105 214 57z m880 0 c62 -41 75 -77 75 -207 0 -98
-3 -120 -21 -150 -63 -107 -205 -107 -268 0 -18 30 -21 52 -21 150 0 98 3 120
21 150 46 78 144 105 214 57z m-3243 -669 l-32 -63 -3 -217 -3 -218 -200 0
-199 0 0 160 0 160 -80 0 -80 0 0 -160 0 -160 -81 0 -81 0 4 183 c5 201 13
234 71 295 71 74 102 80 444 81 l271 1 -31 -62z m800 0 l-32 -63 -3 -217 -3
-218 -160 0 -159 0 0 160 0 160 -80 0 -80 0 0 -160 0 -160 -81 0 -81 0 4 183
c5 201 13 234 71 295 69 72 105 79 404 81 l231 1 -31 -62z m1088 39 c54 -24
103 -73 128 -127 18 -39 22 -69 25 -227 l4 -183 -81 0 -81 0 0 160 0 160 -80
0 -80 0 0 -160 0 -160 -240 0 -240 0 0 160 0 160 -80 0 -80 0 0 -160 0 -160
-81 0 -81 0 4 183 c5 201 13 234 71 295 39 41 75 60 130 72 23 5 195 8 382 7
303 -2 344 -4 380 -20z m800 0 c51 -23 101 -70 128 -122 18 -35 21 -62 25
-227 l4 -188 -81 0 -81 0 0 160 0 160 -80 0 -80 0 0 -160 0 -160 -159 0 -160
0 -3 218 -3 217 -32 63 -32 64 257 -4 c219 -3 263 -6 297 -21z m890 -4 c55
-29 94 -70 119 -123 17 -39 21 -70 24 -227 l4 -183 -81 0 -81 0 0 160 0 160
-80 0 -80 0 0 -160 0 -160 -199 0 -200 0 -3 218 -3 217 -33 63 -33 64 303 -4
c287 -3 305 -4 343 -25z"/>
</g>
</svg>
