<?xml version="1.0" standalone="no"?>
<!DOCTYPE svg PUBLIC "-//W3C//DTD SVG 20010904//EN"
 "http://www.w3.org/TR/2001/REC-SVG-20010904/DTD/svg10.dtd">
<svg version="1.0" xmlns="http://www.w3.org/2000/svg"
 width="512.000000pt" height="512.000000pt" viewBox="0 0 512.000000 512.000000"
 preserveAspectRatio="xMidYMid meet">
<metadata>
Created by potrace 1.16, written by Peter Selinger 2001-2019
</metadata>
<g transform="translate(0.000000,512.000000) scale(0.100000,-0.100000)"
fill="#000000" stroke="none">
<path d="M1981 5094 c-20 -25 -21 -39 -21 -255 l0 -229 -145 0 c-142 0 -147
-1 -170 -25 l-25 -24 0 -401 0 -400 -79 0 -80 0 -3 231 -3 231 -28 24 c-23 20
-39 24 -88 24 l-59 0 0 149 0 150 -26 20 c-26 21 -36 21 -531 21 l-504 0 -24
-25 c-24 -23 -25 -28 -25 -170 l0 -145 -60 0 c-51 0 -65 -4 -85 -25 l-25 -24
0 -961 0 -960 90 0 90 0 0 895 0 895 550 0 550 0 0 -555 0 -555 90 0 90 0 0
300 0 300 250 0 250 0 0 -255 0 -255 90 0 90 0 0 935 0 935 420 0 420 0 0
-935 0 -935 90 0 90 0 0 255 0 255 250 0 250 0 0 -510 0 -510 90 0 90 0 0 765
0 765 550 0 550 0 0 -895 0 -895 90 0 90 0 0 960 0 961 -25 24 c-20 21 -34 25
-85 25 l-60 0 0 149 0 150 -26 20 c-26 21 -36 21 -529 21 -493 0 -503 0 -529
-21 l-26 -20 0 -150 0 -149 -59 0 c-49 0 -65 -4 -88 -24 l-28 -24 -3 -231 -3
-231 -80 0 -79 0 0 400 0 401 -25 24 c-23 24 -28 25 -170 25 l-145 0 0 229 c0
216 -1 230 -21 255 l-20 26 -559 0 -559 0 -20 -26z m-881 -744 l0 -80 -375 0
-375 0 0 80 0 80 375 0 375 0 0 -80z m860 -255 l0 -335 -80 0 -80 0 0 335 0
335 80 0 80 0 0 -335z m1360 0 l0 -335 -80 0 -80 0 0 335 0 335 80 0 80 0 0
-335z m1450 255 l0 -80 -375 0 -375 0 0 80 0 80 375 0 375 0 0 -80z"/>
<path d="M2300 4690 l0 -90 90 0 90 0 0 90 0 90 -90 0 -90 0 0 -90z"/>
<path d="M2640 4690 l0 -90 90 0 90 0 0 90 0 90 -90 0 -90 0 0 -90z"/>
<path d="M2300 4350 l0 -90 90 0 90 0 0 90 0 90 -90 0 -90 0 0 -90z"/>
<path d="M2640 4350 l0 -90 90 0 90 0 0 90 0 90 -90 0 -90 0 0 -90z"/>
<path d="M2300 4010 l0 -90 90 0 90 0 0 90 0 90 -90 0 -90 0 0 -90z"/>
<path d="M2640 4010 l0 -90 90 0 90 0 0 90 0 90 -90 0 -90 0 0 -90z"/>
<path d="M340 3840 l0 -90 385 0 385 0 0 90 0 90 -385 0 -385 0 0 -90z"/>
<path d="M4010 3840 l0 -90 175 0 175 0 0 90 0 90 -175 0 -175 0 0 -90z"/>
<path d="M4520 3840 l0 -90 175 0 175 0 0 90 0 90 -175 0 -175 0 0 -90z"/>
<path d="M2300 3670 l0 -90 90 0 90 0 0 90 0 90 -90 0 -90 0 0 -90z"/>
<path d="M2640 3670 l0 -90 90 0 90 0 0 90 0 90 -90 0 -90 0 0 -90z"/>
<path d="M340 3500 l0 -90 385 0 385 0 0 90 0 90 -385 0 -385 0 0 -90z"/>
<path d="M4010 3500 l0 -90 175 0 175 0 0 90 0 90 -175 0 -175 0 0 -90z"/>
<path d="M4520 3500 l0 -90 175 0 175 0 0 90 0 90 -175 0 -175 0 0 -90z"/>
<path d="M1620 3330 l0 -90 90 0 90 0 0 90 0 90 -90 0 -90 0 0 -90z"/>
<path d="M2300 3330 l0 -90 90 0 90 0 0 90 0 90 -90 0 -90 0 0 -90z"/>
<path d="M2640 3330 l0 -90 90 0 90 0 0 90 0 90 -90 0 -90 0 0 -90z"/>
<path d="M3320 3330 l0 -90 90 0 90 0 0 90 0 90 -90 0 -90 0 0 -90z"/>
<path d="M674 3065 c-82 -18 -137 -47 -201 -107 -113 -107 -136 -182 -131
-422 l3 -172 35 -71 35 -71 -54 -5 c-127 -13 -265 -117 -328 -245 l-28 -57 -3
-465 -3 -466 26 -24 c25 -24 34 -25 171 -28 l144 -3 0 -375 0 -374 -170 0
-170 0 0 -90 0 -90 2560 0 2560 0 0 90 0 90 -170 0 -170 0 0 374 0 375 144 3
c137 3 146 4 170 27 l26 24 0 447 c0 416 -1 451 -19 503 -51 148 -197 269
-343 284 l-53 5 35 71 35 71 3 172 c5 241 -18 315 -133 423 -198 187 -522 143
-662 -90 -48 -81 -63 -153 -63 -309 0 -150 14 -227 56 -297 l25 -43 -33 0
c-80 0 -201 -51 -274 -114 -57 -49 -100 -117 -174 -278 l-64 -136 -68 145
c-77 164 -110 216 -170 268 -62 54 -171 104 -244 111 l-61 7 23 41 c47 85 56
145 52 324 -3 164 -4 168 -35 235 -88 186 -280 284 -477 244 -139 -29 -247
-114 -309 -245 -31 -66 -32 -71 -35 -234 -4 -179 5 -239 52 -324 l23 -41 -61
-7 c-73 -7 -182 -57 -244 -111 -60 -52 -93 -104 -170 -268 l-68 -145 -64 136
c-74 161 -117 229 -174 278 -73 63 -194 114 -274 114 l-33 0 25 43 c14 23 32
69 40 102 22 80 22 309 1 390 -42 161 -175 284 -339 314 -73 13 -95 13 -172
-4z m203 -197 c54 -25 107 -87 127 -146 21 -61 22 -263 1 -321 -32 -90 -101
-153 -191 -171 -84 -18 -154 6 -221 75 -64 66 -73 96 -73 255 0 156 9 190 69
253 81 85 184 105 288 55z m1783 5 c50 -20 99 -70 126 -128 21 -45 24 -64 24
-185 0 -120 -3 -140 -24 -185 -42 -92 -128 -148 -226 -148 -98 0 -184 56 -226
148 -21 45 -24 65 -24 185 0 120 3 140 24 185 36 79 97 126 191 148 28 7 94
-3 135 -20z m1761 11 c41 -12 66 -28 106 -69 64 -66 73 -96 73 -255 0 -159 -9
-189 -73 -255 -41 -42 -64 -57 -109 -70 -128 -37 -257 33 -303 166 -20 57 -20
261 0 318 30 85 92 145 173 167 62 17 69 17 133 -2z m-3171 -880 c31 -17 70
-50 88 -75 28 -37 391 -789 392 -811 0 -5 -49 -8 -110 -8 l-110 0 -164 328
c-90 180 -171 334 -179 340 -8 7 -31 16 -51 19 -30 5 -40 1 -66 -25 l-30 -30
0 -781 0 -781 -80 0 -80 0 0 425 0 425 -90 0 -90 0 0 -425 0 -425 -80 0 -80 0
0 810 0 810 -90 0 -90 0 0 -345 0 -345 -80 0 -80 0 0 372 c0 356 1 373 21 415
24 50 95 115 141 131 22 7 173 10 443 9 l410 -2 55 -31z m1778 5 c34 -17 76
-48 95 -69 18 -21 77 -134 132 -250 l99 -211 -31 -67 c-17 -37 -41 -91 -54
-119 -13 -29 -27 -53 -30 -53 -3 0 -62 115 -130 256 -137 283 -157 310 -218
300 -21 -3 -45 -16 -58 -31 l-23 -26 0 -780 0 -779 -80 0 -80 0 0 380 0 380
-90 0 -90 0 0 -380 0 -380 -80 0 -80 0 0 816 c0 839 0 841 -39 871 -24 18 -86
16 -109 -4 -12 -10 -81 -153 -154 -319 l-133 -301 -24 51 c-13 28 -37 81 -54
118 l-31 67 99 211 c100 213 141 276 199 308 73 40 82 40 497 41 l406 1 61
-31z m1744 19 c51 -15 121 -77 147 -131 20 -42 21 -59 21 -415 l0 -372 -80 0
-80 0 0 385 0 385 -90 0 -90 0 0 -850 0 -850 -80 0 -80 0 0 425 0 425 -90 0
-90 0 0 -425 0 -425 -80 0 -80 0 0 825 0 826 -25 24 c-30 31 -96 34 -123 7
-10 -10 -91 -183 -181 -385 l-163 -367 -109 0 c-60 0 -109 3 -109 6 0 22 370
788 396 821 21 25 58 54 96 72 l61 31 395 0 c274 0 407 -4 434 -12z m-2642
-1258 l0 -590 -465 0 -465 0 0 568 1 567 92 -180 c66 -130 99 -183 117 -192
37 -19 459 -18 504 1 29 12 40 29 95 152 35 77 75 167 89 201 15 35 28 63 30
63 1 0 2 -265 2 -590z m1790 -5 l0 -585 -465 0 -465 0 1 568 0 567 90 -178
c82 -162 93 -180 125 -193 29 -12 80 -14 269 -12 204 3 235 5 252 20 10 10 57
103 103 208 46 104 85 190 87 190 2 0 3 -263 3 -585z"/>
<path d="M1620 2990 l0 -90 90 0 90 0 0 90 0 90 -90 0 -90 0 0 -90z"/>
<path d="M3320 2990 l0 -90 90 0 90 0 0 90 0 90 -90 0 -90 0 0 -90z"/>
<path d="M1620 2650 l0 -90 90 0 90 0 0 90 0 90 -90 0 -90 0 0 -90z"/>
<path d="M3320 2650 l0 -90 90 0 90 0 0 90 0 90 -90 0 -90 0 0 -90z"/>
<path d="M1620 2300 l0 -90 90 0 90 0 0 90 0 90 -90 0 -90 0 0 -90z"/>
<path d="M3320 2300 l0 -90 90 0 90 0 0 90 0 90 -90 0 -90 0 0 -90z"/>
</g>
</svg>
