<?xml version="1.0" standalone="no"?>
<!DOCTYPE svg PUBLIC "-//W3C//DTD SVG 20010904//EN"
 "http://www.w3.org/TR/2001/REC-SVG-20010904/DTD/svg10.dtd">
<svg version="1.0" xmlns="http://www.w3.org/2000/svg"
 width="512.000000pt" height="512.000000pt" viewBox="0 0 512.000000 512.000000"
 preserveAspectRatio="xMidYMid meet">
<metadata>
Created by potrace 1.16, written by Peter Selinger 2001-2019
</metadata>
<g transform="translate(0.000000,512.000000) scale(0.100000,-0.100000)"
fill="#000000" stroke="none">
<path d="M2380 4965 c-91 -36 -320 -127 -509 -202 -316 -125 -344 -138 -356
-165 -24 -58 9 -112 68 -112 18 1 245 85 504 188 l473 187 1092 -431 c601
-238 1144 -453 1206 -477 l112 -45 0 -54 0 -54 -2410 0 -2410 0 0 54 c0 34 5
56 13 59 6 3 275 109 597 237 322 127 593 238 602 247 44 40 6 133 -54 133
-32 0 -1266 -485 -1290 -508 -16 -13 -18 -35 -18 -172 0 -206 -2 -203 139
-208 l101 -4 0 -37 c0 -64 27 -136 68 -178 46 -47 91 -70 160 -79 l52 -7 0
-246 c0 -235 1 -248 20 -269 33 -35 84 -33 117 4 23 25 23 30 23 270 l0 244
1880 0 1880 0 0 -244 c0 -240 0 -245 23 -270 33 -37 84 -39 117 -4 19 21 20
34 20 269 l0 246 52 7 c69 9 114 32 160 79 41 42 68 114 68 178 l0 37 101 4
c141 5 139 2 139 208 0 137 -2 159 -17 172 -19 17 -2491 997 -2533 1004 -16 3
-86 -20 -190 -61z m2340 -1355 c0 -46 -25 -86 -61 -99 -45 -16 -4153 -16
-4198 0 -36 13 -61 53 -61 99 l0 30 2160 0 2160 0 0 -30z"/>
<path d="M2502 4609 c-68 -11 -118 -37 -169 -89 -61 -60 -87 -120 -91 -210 -7
-135 57 -246 174 -305 52 -26 70 -30 144 -30 74 0 92 4 144 30 117 59 181 170
174 305 -2 52 -10 89 -26 122 -27 55 -91 122 -142 148 -32 16 -56 22 -135 34
-11 2 -44 -1 -73 -5z m143 -180 c17 -10 41 -36 53 -57 41 -73 23 -157 -44
-208 -31 -24 -47 -29 -94 -29 -47 0 -63 5 -94 29 -67 50 -85 135 -44 207 46
83 141 107 223 58z"/>
<path d="M1267 3290 c-109 -19 -206 -99 -246 -203 -30 -81 -31 -237 -1 -267
30 -30 83 -30 114 0 16 15 21 39 26 112 7 102 15 123 60 162 45 38 101 49 220
44 178 -8 229 -58 230 -225 0 -59 4 -77 20 -93 30 -30 83 -30 115 1 18 17 20
32 19 123 -1 87 -5 111 -26 158 -47 102 -131 166 -243 187 -66 12 -216 13
-288 1z"/>
<path d="M2412 3289 c-144 -24 -252 -144 -260 -290 -4 -62 -2 -67 23 -87 60
-47 116 -15 134 76 9 45 20 68 47 96 45 46 65 51 204 51 139 0 159 -5 204 -51
27 -28 38 -51 47 -96 18 -91 74 -123 134 -76 25 20 27 25 23 87 -4 80 -33 144
-91 201 -53 54 -99 77 -178 90 -75 12 -212 11 -287 -1z"/>
<path d="M3550 3287 c-30 -7 -70 -21 -88 -31 -52 -27 -112 -93 -140 -154 -21
-47 -25 -71 -26 -158 -1 -91 1 -106 19 -123 32 -31 85 -31 115 -1 16 16 20 34
20 93 1 167 52 217 230 225 119 5 175 -6 220 -44 45 -39 53 -60 60 -162 5 -73
10 -97 26 -112 31 -30 84 -30 114 0 29 29 29 185 -1 267 -28 75 -113 162 -184
187 -66 23 -287 31 -365 13z"/>
<path d="M2488 2879 c-238 -26 -444 -193 -519 -420 -23 -71 -24 -85 -24 -334
0 -256 1 -261 26 -327 81 -208 252 -361 454 -403 207 -43 409 13 559 155 78
75 125 145 165 248 25 66 26 71 26 327 0 249 -1 263 -24 334 -51 154 -171 291
-316 361 -117 56 -220 73 -347 59z m221 -181 c119 -40 210 -123 267 -243 37
-77 56 -185 34 -185 -28 0 -98 51 -156 114 -80 87 -101 88 -187 11 -69 -62
-193 -127 -275 -144 -67 -14 -172 -13 -237 3 l-50 12 2 58 c3 72 51 179 111
247 122 137 316 187 491 127z m76 -477 c43 -42 142 -100 193 -113 l42 -10 0
-75 c0 -140 -49 -260 -142 -350 -90 -86 -193 -128 -318 -128 -125 0 -228 42
-318 128 -94 91 -142 210 -142 352 0 76 1 77 23 71 48 -15 211 -19 281 -6 110
19 287 98 327 146 16 19 19 18 54 -15z"/>
<path d="M1340 2670 c-203 -29 -363 -184 -401 -385 -15 -82 -6 -366 14 -425
84 -252 360 -387 613 -300 144 50 252 166 298 319 25 85 23 377 -4 463 -68
221 -290 361 -520 328z m197 -185 c83 -37 156 -127 178 -217 11 -44 -13 -35
-70 27 -32 34 -63 57 -81 61 -30 6 -36 3 -134 -73 -81 -62 -226 -94 -314 -70
-26 7 -28 10 -21 44 15 80 91 183 163 222 82 44 189 46 279 6z m149 -415 c33
-11 34 -13 34 -66 0 -142 -104 -269 -248 -304 -96 -23 -214 12 -287 85 -49 49
-88 135 -93 205 l-4 56 103 0 c127 1 229 29 317 89 l34 23 55 -39 c30 -21 70
-43 89 -49z"/>
<path d="M3650 2670 c-191 -28 -348 -164 -395 -345 -22 -84 -21 -371 1 -446
46 -153 154 -269 298 -319 253 -87 529 48 613 300 21 62 30 350 13 433 -17 89
-52 155 -119 229 -108 118 -255 171 -411 148z m172 -176 c89 -29 182 -136 203
-233 l7 -34 -31 22 c-17 13 -45 40 -62 61 -52 65 -94 63 -173 -8 -77 -69 -220
-112 -316 -94 -44 8 -45 9 -44 44 2 77 80 185 165 228 80 42 155 46 251 14z
m72 -368 c25 -19 66 -42 91 -52 l47 -18 -4 -60 c-16 -243 -275 -380 -480 -254
-87 54 -148 159 -148 256 l0 47 93 1 c50 0 117 6 147 13 55 14 148 56 185 85
11 8 21 16 22 16 2 0 23 -15 47 -34z"/>
<path d="M1140 1481 c-80 -26 -112 -45 -167 -98 -117 -114 -133 -175 -133
-513 0 -255 0 -257 23 -278 23 -22 27 -22 394 -22 l372 0 20 26 c36 45 20 105
-32 124 -18 6 -145 10 -324 10 l-294 0 3 208 c3 198 4 209 28 256 14 27 43 64
64 82 39 34 140 74 152 61 4 -4 -12 -73 -36 -155 -27 -92 -41 -158 -37 -173 4
-13 49 -67 101 -118 131 -130 133 -130 267 5 80 82 99 107 99 130 0 16 -18 90
-40 164 -22 74 -40 138 -40 143 0 13 37 7 84 -12 25 -11 72 -45 105 -75 67
-62 93 -68 135 -35 20 16 26 29 26 58 0 70 -109 170 -228 210 -55 19 -85 21
-274 20 -176 0 -223 -3 -268 -18z m301 -321 l31 -102 -33 -34 -33 -34 -33 32
-32 33 31 108 c17 59 33 106 35 104 2 -2 17 -50 34 -107z"/>
<path d="M3436 1479 c-74 -25 -132 -65 -185 -125 -51 -59 -57 -110 -15 -143
42 -33 68 -27 135 35 33 30 80 64 105 75 47 19 84 25 84 12 0 -5 -18 -69 -40
-143 -22 -74 -40 -148 -40 -164 0 -23 19 -48 99 -130 134 -135 136 -135 267
-5 52 51 97 105 101 118 4 15 -10 81 -37 173 -24 82 -40 151 -36 155 12 13
113 -27 152 -61 21 -18 50 -55 64 -82 24 -47 25 -58 28 -256 l3 -208 -294 0
c-179 0 -306 -4 -324 -10 -52 -19 -68 -79 -32 -124 l20 -26 373 0 373 0 22 24
c22 24 22 25 19 302 -3 260 -5 283 -26 334 -48 120 -148 213 -270 250 -55 17
-93 20 -276 20 -186 -1 -218 -3 -270 -21z m313 -319 l30 -105 -32 -33 -33 -32
-33 34 -33 34 27 88 c14 49 29 97 32 107 2 10 6 17 8 15 2 -2 17 -50 34 -108z"/>
<path d="M2230 1294 c-188 -49 -337 -196 -397 -389 -16 -53 -18 -99 -18 -413
l0 -354 28 -24 28 -24 689 0 689 0 28 24 28 24 0 354 c0 314 -2 360 -18 413
-60 196 -210 341 -402 390 -83 21 -574 21 -655 -1z m160 -152 c0 -5 -27 -101
-60 -213 -33 -112 -60 -219 -60 -238 0 -30 14 -48 128 -162 169 -171 155 -171
324 0 114 114 128 132 128 162 0 19 -27 126 -60 238 -33 112 -60 209 -60 214
0 20 119 -1 185 -32 119 -55 204 -169 225 -301 5 -36 10 -176 10 -312 l0 -248
-590 0 -590 0 0 248 c0 136 5 276 10 312 25 155 132 277 285 326 46 15 125 18
125 6z m235 -223 l58 -200 -61 -62 -62 -62 -62 62 -61 62 58 200 c33 111 62
201 65 201 3 0 32 -90 65 -201z"/>
</g>
</svg>
