<?xml version="1.0" standalone="no"?>
<!DOCTYPE svg PUBLIC "-//W3C//DTD SVG 20010904//EN"
 "http://www.w3.org/TR/2001/REC-SVG-20010904/DTD/svg10.dtd">
<svg version="1.0" xmlns="http://www.w3.org/2000/svg"
 width="512.000000pt" height="512.000000pt" viewBox="0 0 512.000000 512.000000"
 preserveAspectRatio="xMidYMid meet">
<metadata>
Created by potrace 1.16, written by Peter Selinger 2001-2019
</metadata>
<g transform="translate(0.000000,512.000000) scale(0.100000,-0.100000)"
fill="#000000" stroke="none">
<path d="M392 3980 c-48 -30 -72 -75 -72 -140 0 -65 24 -110 72 -140 32 -20
53 -20 1208 -20 1155 0 1176 0 1208 20 48 30 72 75 72 140 0 65 -24 110 -72
140 -32 20 -53 20 -1208 20 -1155 0 -1176 0 -1208 -20z"/>
<path d="M4594 3210 c-18 -6 -47 -27 -65 -47 -19 -21 -324 -392 -678 -825
-354 -434 -647 -788 -651 -788 -4 0 -159 183 -345 406 -186 224 -353 415 -369
425 -43 26 -130 25 -174 -1 -48 -29 -72 -75 -72 -138 0 -29 5 -63 11 -74 26
-48 850 -1025 874 -1036 34 -16 117 -15 151 0 17 8 319 370 764 913 405 495
744 911 753 925 11 16 17 44 17 81 0 61 -22 105 -70 141 -30 22 -103 31 -146
18z"/>
<path d="M392 3180 c-48 -30 -72 -75 -72 -140 0 -65 24 -110 72 -140 32 -20
53 -20 1208 -20 1155 0 1176 0 1208 20 48 30 72 75 72 140 0 65 -24 110 -72
140 -32 20 -53 20 -1208 20 -1155 0 -1176 0 -1208 -20z"/>
<path d="M392 2380 c-48 -30 -72 -75 -72 -140 0 -65 24 -110 72 -140 32 -19
52 -20 648 -20 596 0 616 1 648 20 48 30 72 75 72 140 0 65 -24 110 -72 140
-32 19 -52 20 -648 20 -596 0 -616 -1 -648 -20z"/>
</g>
</svg>
