<?xml version="1.0" standalone="no"?>
<!DOCTYPE svg PUBLIC "-//W3C//DTD SVG 20010904//EN"
 "http://www.w3.org/TR/2001/REC-SVG-20010904/DTD/svg10.dtd">
<svg version="1.0" xmlns="http://www.w3.org/2000/svg"
 width="512.000000pt" height="512.000000pt" viewBox="0 0 512.000000 512.000000"
 preserveAspectRatio="xMidYMid meet">
<metadata>
Created by potrace 1.16, written by Peter Selinger 2001-2019
</metadata>
<g transform="translate(0.000000,512.000000) scale(0.100000,-0.100000)"
fill="#000000" stroke="none">
<path d="M1831 4587 c-48 -19 -108 -72 -134 -120 -21 -40 -22 -56 -25 -279
l-3 -238 -49 0 c-92 0 -225 -56 -304 -129 -46 -42 -105 -139 -126 -209 -19
-61 -20 -94 -20 -698 0 -621 0 -634 20 -654 28 -28 90 -27 116 1 18 20 19 50
24 658 5 629 5 637 27 684 31 67 110 141 178 166 55 21 68 21 1025 21 957 0
970 0 1025 -21 68 -25 147 -100 178 -166 18 -41 22 -72 27 -204 4 -136 8 -160
24 -178 26 -28 88 -29 116 -1 18 18 20 33 20 174 0 179 -15 244 -78 342 -82
126 -235 214 -373 214 l-48 0 -3 238 c-3 222 -4 240 -25 278 -98 183 -358 174
-441 -16 -12 -27 -17 -87 -20 -267 l-4 -233 -79 0 -78 0 -3 243 -3 244 -30 49
c-19 30 -49 60 -79 79 -44 27 -58 30 -126 30 -68 0 -82 -3 -126 -30 -30 -19
-60 -49 -79 -79 l-30 -49 -3 -244 -3 -243 -78 0 -79 0 -4 233 c-4 250 -8 270
-63 335 -15 18 -46 42 -68 54 -50 25 -149 33 -196 15z m121 -158 c40 -22 48
-66 48 -279 l0 -200 -85 0 -85 0 0 216 0 216 29 29 c31 31 59 36 93 18z m641
-1 c45 -23 46 -33 47 -260 l0 -218 -80 0 -80 0 0 218 c1 226 2 235 45 260 26
15 41 15 68 0z m668 -17 l29 -29 0 -216 0 -216 -85 0 -85 0 0 200 c0 150 4
209 14 234 26 62 80 73 127 27z"/>
<path d="M2156 3536 c-54 -20 -106 -65 -133 -116 -21 -39 -23 -57 -23 -176 0
-131 0 -133 26 -153 35 -27 67 -26 100 3 26 22 28 28 33 139 5 93 10 120 24
134 16 17 46 18 378 18 l361 0 19 -24 c18 -22 19 -43 19 -372 l0 -349 -400 0
-400 0 0 73 c0 87 -14 143 -40 157 -31 16 -78 12 -100 -10 -20 -20 -20 -30
-18 -579 l3 -559 30 -43 c17 -24 53 -57 80 -74 l48 -30 397 0 397 0 48 30 c27
17 63 50 80 74 l30 43 0 838 0 838 -30 43 c-17 24 -53 57 -80 74 l-48 30 -381
2 c-306 2 -389 0 -420 -11z m804 -1405 c0 -329 -1 -350 -19 -372 l-19 -24
-362 0 -362 0 -19 24 c-18 22 -19 43 -19 372 l0 349 400 0 400 0 0 -349z"/>
<path d="M348 3392 c-75 -47 -213 -252 -269 -397 -66 -170 -73 -211 -73 -435
0 -177 3 -215 21 -280 51 -185 126 -332 233 -462 92 -111 137 -132 185 -83 42
41 34 82 -29 153 -105 117 -175 243 -222 397 -26 85 -28 101 -28 275 0 174 2
190 28 275 47 154 117 280 222 397 63 71 71 112 29 153 -28 29 -60 32 -97 7z"/>
<path d="M4675 3385 c-42 -41 -34 -82 29 -153 105 -117 175 -243 222 -397 26
-85 28 -101 28 -275 0 -173 -2 -191 -27 -274 -48 -154 -119 -282 -223 -398
-63 -71 -71 -112 -29 -153 43 -44 85 -31 156 50 134 152 217 314 266 517 27
111 24 434 -4 538 -51 184 -126 332 -233 462 -92 111 -137 132 -185 83z"/>
<path d="M545 3105 c-173 -186 -246 -493 -180 -755 33 -126 148 -326 217 -374
32 -23 91 -21 113 4 35 38 25 79 -37 154 -68 82 -112 168 -138 272 -51 198 0
413 138 580 42 52 56 76 56 101 0 46 -28 73 -78 73 -36 0 -46 -6 -91 -55z"/>
<path d="M4425 3140 c-33 -36 -24 -81 27 -141 65 -77 102 -142 134 -234 25
-71 28 -94 28 -205 0 -111 -3 -134 -28 -205 -32 -92 -69 -157 -134 -234 -51
-60 -60 -105 -27 -141 22 -24 81 -27 112 -5 56 39 157 197 194 301 79 227 59
485 -53 683 -38 69 -111 165 -141 186 -31 22 -90 19 -112 -5z"/>
<path d="M3853 3002 c-13 -2 -32 -15 -43 -29 -20 -25 -20 -39 -20 -704 0 -665
0 -679 -21 -734 -28 -76 -108 -156 -184 -184 -55 -21 -65 -21 -1025 -21 -957
0 -970 0 -1025 21 -68 25 -147 99 -178 166 -20 43 -22 69 -27 264 -4 195 -7
219 -24 238 -26 28 -88 29 -116 1 -19 -19 -20 -33 -20 -234 0 -184 3 -223 20
-277 20 -67 64 -144 109 -193 70 -77 222 -146 321 -146 l49 0 3 -237 c3 -223
4 -241 25 -279 98 -183 358 -174 441 16 12 27 17 87 20 267 l4 233 79 0 78 0
3 -243 3 -244 30 -49 c19 -30 49 -60 79 -79 44 -27 58 -30 126 -30 68 0 82 3
126 30 30 19 60 49 79 79 l30 49 3 244 3 243 78 0 79 0 4 -232 c3 -181 8 -241
20 -268 66 -151 256 -197 378 -93 80 69 85 86 88 356 l3 237 49 0 c92 0 225
56 304 129 46 42 105 139 126 209 19 61 20 94 20 756 0 592 -2 695 -15 713
-15 22 -45 31 -82 25z m-1853 -2032 c0 -150 -4 -209 -14 -235 -26 -61 -80 -72
-127 -26 l-29 29 0 216 0 216 85 0 85 0 0 -200z m640 -17 c-1 -230 -2 -238
-48 -262 -30 -16 -65 -7 -92 21 -19 20 -20 35 -20 240 l0 218 80 0 80 0 0
-217z m650 1 l0 -216 -29 -29 c-47 -46 -101 -35 -127 26 -10 26 -14 85 -14
235 l0 200 85 0 85 0 0 -216z"/>
<path d="M804 2876 c-54 -56 -99 -151 -114 -239 -24 -135 24 -298 114 -393 51
-53 92 -59 131 -19 34 33 33 76 -4 117 -112 129 -115 298 -7 426 43 53 47 92
11 127 -39 40 -80 34 -131 -19z"/>
<path d="M4185 2895 c-34 -33 -33 -76 4 -117 69 -79 100 -182 81 -271 -12 -62
-40 -118 -81 -165 -18 -20 -29 -44 -29 -63 0 -41 39 -79 81 -79 70 0 168 149
189 288 22 138 -24 294 -114 388 -51 53 -92 59 -131 19z"/>
</g>
</svg>
