<?xml version="1.0" standalone="no"?>
<!DOCTYPE svg PUBLIC "-//W3C//DTD SVG 20010904//EN"
 "http://www.w3.org/TR/2001/REC-SVG-20010904/DTD/svg10.dtd">
<svg version="1.0" xmlns="http://www.w3.org/2000/svg"
 width="512.000000pt" height="512.000000pt" viewBox="0 0 512.000000 512.000000"
 preserveAspectRatio="xMidYMid meet">
<metadata>
Created by potrace 1.16, written by Peter Selinger 2001-2019
</metadata>
<g transform="translate(0.000000,512.000000) scale(0.100000,-0.100000)"
fill="#000000" stroke="none">
<path d="M322 4847 c-21 -22 -22 -33 -22 -175 l0 -152 -124 0 c-110 0 -126 -2
-150 -21 -33 -26 -37 -88 -6 -119 18 -18 33 -20 150 -20 l130 0 0 -49 0 -49
-129 -4 c-110 -3 -132 -6 -150 -22 -21 -19 -21 -25 -21 -463 0 -430 1 -444 20
-463 18 -18 33 -20 150 -20 l130 0 0 -49 0 -49 -129 -3 c-153 -5 -171 -14
-171 -85 0 -66 18 -74 172 -74 l128 0 0 -55 0 -55 -130 0 c-117 0 -132 -2
-150 -20 -19 -19 -20 -33 -20 -463 0 -417 1 -445 18 -460 15 -14 42 -17 150
-17 l132 0 0 -833 0 -834 23 -21 23 -22 1906 0 c1847 0 1906 1 1929 19 34 27
32 86 -5 117 l-27 24 -1845 0 -1844 0 0 2150 0 2150 106 0 c104 0 106 0 136
30 25 26 29 36 24 63 -12 62 -29 67 -215 67 -162 0 -168 -1 -189 -23z m-22
-1072 l0 -325 -75 0 -75 0 0 325 0 325 75 0 75 0 0 -325z m0 -1340 l0 -325
-75 0 -75 0 0 325 0 325 75 0 75 0 0 -325z"/>
<path d="M942 4847 c-27 -29 -28 -77 -3 -108 l19 -24 2006 -3 2006 -2 0 -2150
0 -2150 -259 0 c-246 0 -260 -1 -285 -21 -33 -26 -37 -88 -6 -119 19 -19 33
-20 340 -20 307 0 321 1 340 20 20 20 20 33 20 2290 0 2257 0 2270 -20 2290
-20 20 -33 20 -2078 20 l-2059 0 -21 -23z"/>
<path d="M894 4558 c-22 -10 -44 -47 -44 -73 0 -11 -12 -15 -40 -15 -52 0 -86
-17 -99 -49 -8 -18 -11 -306 -9 -959 l3 -934 24 -19 c15 -13 39 -19 71 -19 45
0 48 -2 53 -30 9 -42 41 -70 80 -70 41 0 77 35 77 73 0 26 2 27 49 27 38 0 56
6 78 24 l28 24 0 942 0 942 -28 24 c-22 18 -40 24 -78 24 -48 0 -49 1 -49 29
0 53 -63 85 -116 59z m116 -1078 l0 -830 -75 0 -75 0 0 830 0 830 75 0 75 0 0
-830z"/>
<path d="M1485 4545 c-14 -13 -25 -36 -25 -50 0 -23 -3 -25 -50 -25 -41 0 -56
-5 -75 -25 l-25 -24 0 -941 0 -941 25 -24 c19 -20 34 -25 75 -25 47 0 50 -2
50 -25 0 -36 42 -75 80 -75 38 0 80 39 80 75 0 23 3 25 50 25 41 0 56 5 75 25
l25 24 0 941 0 941 -25 24 c-19 20 -34 25 -75 25 -47 0 -50 2 -50 25 0 36 -42
75 -80 75 -19 0 -40 -9 -55 -25z m125 -1065 l0 -830 -70 0 -70 0 0 830 0 830
70 0 70 0 0 -830z"/>
<path d="M2312 4551 c-67 -23 -133 -86 -163 -155 -17 -41 -21 -64 -17 -127 7
-115 60 -193 163 -240 46 -21 161 -24 212 -6 141 52 216 212 168 358 -25 75
-103 152 -175 173 -69 21 -122 20 -188 -3z m149 -156 c35 -18 69 -70 69 -103
0 -66 -58 -122 -124 -122 -98 0 -152 116 -89 190 42 51 90 62 144 35z"/>
<path d="M3375 4545 c-22 -21 -25 -33 -25 -98 l0 -75 -79 -3 c-109 -5 -121
-17 -121 -119 l0 -77 -81 -5 c-95 -6 -121 -23 -121 -82 0 -62 21 -76 119 -76
l83 0 0 -54 0 -54 -80 -4 c-96 -4 -122 -22 -122 -84 0 -58 26 -74 123 -74 l79
0 0 -54 0 -54 -80 -4 c-63 -2 -84 -7 -99 -23 -31 -32 -31 -85 -1 -115 17 -17
33 -20 100 -20 l80 0 0 -55 0 -55 -74 0 c-64 0 -79 -3 -100 -22 -36 -33 -39
-85 -6 -118 17 -17 33 -20 100 -20 l80 0 0 -80 c0 -67 3 -83 20 -100 17 -17
33 -20 100 -20 l80 0 0 -78 c0 -52 5 -84 15 -99 31 -44 111 -37 134 13 6 14
11 56 11 94 l0 70 55 0 55 0 0 -78 c0 -52 5 -84 15 -99 31 -44 111 -37 134 13
6 14 11 56 11 94 l0 70 55 0 55 0 0 -79 c0 -90 14 -117 67 -127 27 -5 37 -1
63 24 28 29 30 35 30 106 l0 76 55 0 55 0 0 -79 c0 -90 14 -117 67 -127 27 -5
37 -1 63 24 28 29 30 35 30 106 l0 76 79 0 c74 0 81 2 100 26 17 22 21 41 21
100 l0 74 78 0 c69 0 81 3 100 23 27 29 28 77 3 108 -17 21 -30 24 -100 27
l-81 4 0 54 0 54 78 0 c69 0 81 3 100 23 22 23 28 60 16 92 -11 28 -60 45
-129 45 l-65 0 0 55 0 55 78 0 c69 0 81 3 100 23 23 25 28 66 12 97 -13 25
-62 40 -131 40 l-59 0 0 55 0 55 80 0 c69 0 82 3 100 22 21 23 26 68 10 98
-13 25 -62 40 -131 40 l-59 0 0 65 c0 111 -24 135 -135 135 l-65 0 0 65 c0 69
-17 118 -45 129 -30 11 -62 6 -89 -15 -24 -19 -26 -26 -26 -100 l0 -79 -55 0
-55 0 0 65 c0 69 -17 118 -45 129 -30 11 -62 6 -89 -15 -24 -19 -26 -26 -26
-100 l0 -79 -54 0 -54 0 -4 81 c-3 70 -6 83 -27 100 -32 27 -77 24 -106 -6
-22 -21 -25 -33 -25 -100 l0 -75 -55 0 -55 0 0 75 c0 67 -3 79 -25 100 -15 16
-36 25 -55 25 -19 0 -40 -9 -55 -25z m985 -865 l0 -530 -525 0 -525 0 0 530 0
530 525 0 525 0 0 -530z"/>
<path d="M3472 4037 c-22 -23 -22 -28 -22 -354 0 -319 1 -331 21 -357 l20 -26
340 0 c322 0 340 1 358 19 11 11 23 35 26 53 3 18 5 171 3 339 -3 285 -4 308
-22 328 -19 21 -26 21 -361 21 l-342 0 -21 -23z m588 -357 l0 -220 -225 0
-225 0 0 220 0 220 225 0 225 0 0 -220z"/>
<path d="M2315 3887 c-121 -47 -186 -142 -184 -271 1 -107 50 -192 138 -240
200 -108 434 40 418 264 -7 106 -69 195 -167 239 -51 23 -155 27 -205 8z m169
-178 c80 -69 43 -192 -62 -206 -69 -9 -132 46 -132 117 0 104 116 158 194 89z"/>
<path d="M2353 3230 c-135 -27 -222 -135 -223 -275 0 -87 29 -154 90 -208 60
-55 102 -71 190 -71 62 0 84 5 126 27 166 85 203 298 79 445 -52 62 -172 100
-262 82z m125 -178 c109 -70 25 -250 -99 -213 -82 25 -113 112 -66 182 37 56
107 69 165 31z"/>
<path d="M3395 2505 l-25 -24 0 -271 c0 -158 4 -279 10 -290 25 -47 116 -43
139 6 7 17 11 113 11 290 l0 265 -25 24 c-15 16 -36 25 -55 25 -19 0 -40 -9
-55 -25z"/>
<path d="M3672 2520 c-12 -5 -27 -21 -32 -35 -6 -15 -10 -139 -10 -283 0 -279
2 -292 56 -312 29 -11 81 5 94 30 6 11 10 132 10 290 l0 271 -25 24 c-25 26
-54 30 -93 15z"/>
<path d="M3923 2506 l-28 -24 0 -276 c0 -272 0 -276 22 -298 28 -28 84 -29
113 -3 19 17 20 29 20 301 l0 283 -26 20 c-35 28 -67 26 -101 -3z"/>
<path d="M4186 2509 l-26 -20 0 -279 c0 -252 2 -280 18 -300 27 -34 88 -32
118 4 24 27 24 28 24 286 0 275 -4 299 -47 319 -35 16 -57 14 -87 -10z"/>
<path d="M2166 2469 l-26 -20 0 -239 c0 -219 1 -240 19 -261 l19 -24 491 0
490 0 23 23 c23 22 23 26 23 258 l0 236 -28 24 -28 24 -478 0 c-469 0 -479 0
-505 -21z m884 -264 l0 -125 -375 0 -375 0 0 125 0 125 375 0 375 0 0 -125z"/>
<path d="M754 2200 c-28 -11 -54 -48 -54 -76 0 -12 9 -33 21 -48 19 -24 26
-26 100 -26 66 0 82 3 99 20 21 21 26 69 10 100 -18 34 -122 52 -176 30z"/>
<path d="M1124 2196 c-48 -22 -61 -89 -24 -126 18 -18 33 -20 138 -20 136 0
154 9 154 76 0 63 -25 78 -139 81 -69 2 -107 -1 -129 -11z"/>
<path d="M1584 2200 c-28 -11 -54 -48 -54 -76 0 -12 9 -33 21 -48 19 -24 26
-26 99 -26 69 0 82 3 100 22 21 23 26 68 10 98 -18 34 -122 52 -176 30z"/>
<path d="M721 1914 c-24 -30 -26 -52 -10 -88 16 -35 58 -49 130 -44 71 5 99
28 99 82 0 56 -33 76 -122 76 -71 0 -78 -2 -97 -26z"/>
<path d="M1102 1917 c-27 -29 -28 -77 -3 -108 18 -22 28 -24 125 -27 117 -4
148 6 166 53 11 30 -5 82 -30 95 -10 6 -68 10 -128 10 -101 0 -110 -2 -130
-23z"/>
<path d="M1551 1914 c-24 -30 -26 -52 -10 -88 16 -35 58 -49 130 -44 71 5 99
28 99 82 0 56 -33 76 -122 76 -71 0 -78 -2 -97 -26z"/>
<path d="M729 1601 l-24 -19 0 -497 0 -497 24 -19 c21 -17 42 -19 247 -19 244
0 267 4 284 53 14 41 14 925 0 963 -20 52 -27 53 -276 54 -214 0 -234 -2 -255
-19z m381 -516 l0 -375 -125 0 -125 0 0 375 0 375 125 0 125 0 0 -375z"/>
<path d="M1455 1595 l-25 -24 0 -486 0 -486 25 -24 24 -25 229 0 c217 0 231 1
256 21 l26 20 0 494 0 494 -26 20 c-25 20 -39 21 -256 21 l-229 0 -24 -25z
m375 -510 l0 -375 -120 0 -120 0 0 375 0 375 120 0 120 0 0 -375z"/>
<path d="M2565 1595 c-20 -19 -25 -34 -25 -75 l0 -50 -75 0 c-67 0 -79 -3
-100 -25 -33 -32 -34 -83 -2 -113 20 -19 35 -22 100 -22 l77 0 0 -49 c0 -34 6
-56 21 -75 l20 -26 949 0 949 0 20 26 c15 19 21 41 21 75 l0 49 79 0 c74 0 81
2 100 26 28 36 27 79 -4 109 -21 22 -33 25 -100 25 l-75 0 0 50 c0 41 -5 56
-25 75 l-24 25 -941 0 -941 0 -24 -25z m1795 -205 l0 -70 -830 0 -830 0 0 70
0 70 830 0 830 0 0 -70z"/>
<path d="M2561 984 c-15 -19 -21 -41 -21 -75 l0 -49 -78 0 c-69 0 -81 -3 -100
-23 -27 -29 -28 -77 -3 -108 17 -21 30 -24 100 -27 l81 -4 0 -50 c0 -39 5 -54
25 -73 l24 -25 941 0 941 0 24 25 c20 19 25 34 25 73 l0 50 81 4 c70 3 83 6
100 27 26 32 25 82 -4 109 -20 19 -35 22 -100 22 l-77 0 0 49 c0 34 -6 56 -21
75 l-20 26 -949 0 -949 0 -20 -26z m1799 -204 l0 -70 -830 0 -830 0 0 70 0 70
830 0 830 0 0 -70z"/>
</g>
</svg>
