<?xml version="1.0" standalone="no"?>
<!DOCTYPE svg PUBLIC "-//W3C//DTD SVG 20010904//EN"
 "http://www.w3.org/TR/2001/REC-SVG-20010904/DTD/svg10.dtd">
<svg version="1.0" xmlns="http://www.w3.org/2000/svg"
 width="512.000000pt" height="512.000000pt" 
 preserveAspectRatio="xMidYMid meet">
<metadata>
Created by potrace 1.16, written by Peter Selinger 2001-2019
</metadata>
<g transform="translate(0.000000,512.000000) scale(0.100000,-0.100000)"
fill="#000000" stroke="none">
<path d="M2442 5095 c-29 -15 -64 -41 -77 -59 -58 -76 -55 -12 -55 -1166 l0
-1060 -1073 -2 -1074 -3 -49 -30 c-30 -19 -60 -49 -79 -79 -27 -45 -30 -57
-30 -136 0 -79 3 -91 30 -136 19 -30 49 -60 79 -79 l49 -30 1074 -3 1073 -2 2
-1073 3 -1074 30 -49 c19 -30 49 -60 79 -79 45 -27 57 -30 136 -30 79 0 91 3
136 30 30 19 60 49 79 79 l30 49 3 1074 2 1073 1073 2 1074 3 49 30 c30 19 60
49 79 79 27 45 30 57 30 136 0 79 -3 91 -30 136 -19 30 -49 60 -79 79 l-49 30
-1074 3 -1073 2 -2 1073 -3 1074 -30 49 c-46 74 -109 108 -204 112 -66 3 -83
0 -129 -23z"/>
</g>
</svg>
