<?xml version="1.0" standalone="no"?>
<!DOCTYPE svg PUBLIC "-//W3C//DTD SVG 20010904//EN"
 "http://www.w3.org/TR/2001/REC-SVG-20010904/DTD/svg10.dtd">
<svg version="1.0" xmlns="http://www.w3.org/2000/svg"
 width="512.000000pt" height="512.000000pt" viewBox="0 0 512.000000 512.000000"
 preserveAspectRatio="xMidYMid meet">
<metadata>
Created by potrace 1.16, written by Peter Selinger 2001-2019
</metadata>
<g transform="translate(0.000000,512.000000) scale(0.100000,-0.100000)"
fill="#000000" stroke="none">
<path d="M340 4577 c-126 -43 -221 -118 -279 -222 -65 -115 -61 7 -61 -1795 0
-1467 2 -1642 16 -1690 48 -161 175 -285 343 -334 49 -14 265 -16 2201 -16
1936 0 2152 2 2201 16 168 49 295 173 343 334 14 48 16 223 16 1690 0 1467 -2
1642 -16 1690 -48 161 -175 285 -343 334 -49 14 -265 16 -2205 16 l-2151 -1
-65 -22z m4405 -221 c62 -28 116 -87 141 -152 18 -47 19 -103 19 -1644 0
-1541 -1 -1597 -19 -1644 -25 -65 -79 -124 -141 -152 l-50 -24 -2135 0 -2135
0 -50 24 c-62 28 -116 87 -141 152 -18 47 -19 103 -19 1644 0 1541 1 1597 19
1644 25 65 79 124 141 152 l50 24 2135 0 2135 0 50 -24z"/>
<path d="M1355 3566 c-375 -59 -674 -331 -777 -706 -21 -77 -23 -106 -23 -300
0 -194 2 -223 23 -300 128 -470 559 -764 1041 -711 246 26 454 130 606 301 35
40 45 58 45 86 0 66 -45 114 -106 114 -37 0 -61 -15 -141 -90 -81 -75 -187
-136 -303 -171 -61 -19 -98 -24 -200 -24 -152 0 -203 12 -339 77 -88 42 -116
62 -186 131 -93 93 -154 189 -193 304 -25 74 -26 88 -26 283 0 195 1 209 26
283 39 115 100 211 193 304 70 69 98 89 186 131 136 65 187 77 339 77 102 0
139 -5 200 -24 116 -35 222 -96 303 -171 80 -75 104 -90 141 -90 61 0 106 48
106 114 0 28 -10 46 -45 86 -209 235 -538 347 -870 296z"/>
<path d="M2913 3028 c-17 -4 -41 -21 -52 -37 -19 -26 -21 -44 -21 -175 l0
-146 -137 0 c-166 0 -200 -11 -222 -75 -12 -35 -11 -45 2 -78 24 -56 59 -67
222 -67 l135 0 0 -147 c0 -138 2 -150 23 -176 42 -52 120 -52 168 -1 23 24 24
33 27 174 l4 149 150 3 150 3 29 33 c40 45 40 99 0 144 l-29 33 -150 3 -150 3
-4 149 c-3 145 -4 150 -28 175 -32 32 -76 44 -117 33z"/>
<path d="M4063 3028 c-17 -4 -41 -20 -52 -34 -19 -24 -21 -40 -21 -175 l0
-149 -137 0 c-166 0 -200 -11 -222 -75 -12 -35 -11 -45 2 -78 24 -56 59 -67
222 -67 l135 0 0 -149 c0 -141 1 -151 23 -176 45 -52 129 -48 171 8 19 25 21
45 24 172 l4 144 150 3 150 3 29 33 c40 45 40 99 0 144 l-29 33 -151 3 -151 3
0 122 c0 132 -10 185 -39 211 -26 24 -71 34 -108 24z"/>
<path d="M2095 1128 c-50 -44 -49 -127 1 -167 21 -16 41 -21 91 -21 58 0 68 3
94 29 24 24 29 38 29 76 0 38 -5 52 -29 76 -27 26 -36 29 -95 29 -53 0 -70 -4
-91 -22z"/>
<path d="M2598 1123 c-48 -51 -48 -110 -1 -157 l26 -26 1008 0 1009 0 32 28
c27 25 31 36 31 77 0 41 -4 52 -31 77 l-32 28 -1008 0 -1008 0 -26 -27z"/>
</g>
</svg>
