<?xml version="1.0" standalone="no"?>
<!DOCTYPE svg PUBLIC "-//W3C//DTD SVG 20010904//EN"
 "http://www.w3.org/TR/2001/REC-SVG-20010904/DTD/svg10.dtd">
<svg version="1.0" xmlns="http://www.w3.org/2000/svg"
 width="512.000000pt" height="512.000000pt" viewBox="0 0 512.000000 512.000000"
 preserveAspectRatio="xMidYMid meet">
<metadata>
Created by potrace 1.16, written by Peter Selinger 2001-2019
</metadata>
<g transform="translate(0.000000,512.000000) scale(0.100000,-0.100000)"
fill="#000000" stroke="none">
<path d="M240 5107 c-19 -6 -58 -34 -86 -62 -81 -78 -84 -95 -84 -485 0 -316
1 -328 21 -354 24 -30 81 -36 115 -12 18 14 19 33 24 359 l5 345 24 26 c14 14
41 30 60 36 49 14 3713 14 3762 0 19 -6 46 -22 60 -36 l24 -26 3 -956 2 -956
22 -23 c30 -32 81 -31 113 2 l25 24 0 949 c0 1087 5 1021 -83 1107 -32 31 -68
55 -93 63 -57 17 -3861 16 -3914 -1z"/>
<path d="M410 4650 c-19 -19 -20 -33 -20 -328 0 -353 0 -352 74 -352 66 0 79
21 84 136 l4 94 42 0 c151 0 260 102 258 240 -1 96 -42 163 -125 205 -46 23
-62 25 -174 25 -110 0 -125 -2 -143 -20z m252 -154 c27 -20 38 -59 24 -87 -15
-31 -51 -49 -98 -49 l-38 0 0 75 0 75 48 0 c26 0 55 -6 64 -14z"/>
<path d="M949 4651 l-24 -19 -3 -304 c-3 -297 -2 -305 18 -331 17 -21 30 -27
61 -27 63 0 79 24 79 118 l1 77 37 -40 c20 -23 60 -67 88 -98 47 -51 56 -57
92 -57 32 0 45 6 61 26 38 48 28 72 -74 190 -37 43 -46 58 -35 62 8 3 36 26
61 51 112 111 80 285 -66 352 -60 28 -263 27 -296 0z"/>
<path d="M1639 4647 c-144 -61 -221 -174 -221 -327 0 -109 29 -179 103 -251
80 -79 143 -102 264 -97 73 4 100 9 143 32 70 36 128 95 161 165 22 48 26 69
26 151 0 114 -18 163 -91 240 -68 73 -137 103 -243 107 -73 3 -95 0 -142 -20z
m238 -174 c82 -66 105 -159 60 -244 -48 -90 -163 -127 -253 -81 -140 71 -142
266 -4 340 64 34 144 28 197 -15z"/>
<path d="M2342 4647 c-21 -23 -22 -31 -22 -254 0 -127 -3 -238 -6 -247 -8 -20
-33 -20 -58 -1 -52 40 -126 0 -126 -66 0 -60 73 -109 162 -109 67 0 114 24
153 79 l30 43 3 264 3 264 -25 25 c-33 33 -84 34 -114 2z"/>
<path d="M2623 4660 c-12 -5 -26 -18 -32 -29 -7 -13 -11 -126 -11 -318 0 -376
-19 -343 195 -343 l154 0 20 26 c27 34 27 64 0 98 -19 25 -25 26 -115 26 l-94
0 0 60 0 60 85 0 c74 0 87 3 105 22 21 23 26 68 10 98 -14 26 -63 40 -136 40
l-64 0 0 55 0 55 90 0 c83 0 93 2 115 25 39 38 27 102 -22 124 -28 13 -268 14
-300 1z"/>
<path d="M3238 4657 c-158 -59 -244 -183 -242 -349 1 -65 6 -87 33 -142 62
-126 174 -196 315 -196 94 0 154 21 210 74 36 33 46 49 46 75 0 68 -92 109
-136 60 -89 -99 -268 -44 -304 92 -42 153 129 291 270 219 56 -29 104 -26 129
6 65 82 -31 165 -198 171 -55 2 -99 -2 -123 -10z"/>
<path d="M3655 4645 c-27 -26 -31 -51 -14 -88 14 -31 48 -47 99 -47 l40 0 0
-244 c0 -231 1 -245 21 -270 26 -33 88 -37 119 -6 19 19 20 33 20 270 l0 250
49 0 c67 0 101 27 101 81 0 26 -7 46 -20 59 -19 19 -33 20 -205 20 -184 0
-186 0 -210 -25z"/>
<path d="M124 3980 c-12 -5 -29 -19 -38 -32 -15 -20 -16 -182 -16 -1786 0
-1968 -4 -1846 69 -1959 49 -76 109 -128 190 -167 l66 -31 927 -3 c919 -2 928
-2 948 18 24 24 26 76 4 108 l-15 22 -705 0 -704 0 25 39 c55 83 68 135 74
303 6 148 7 158 30 182 14 14 41 30 60 36 56 15 3726 12 3771 -3 20 -7 44 -27
58 -47 23 -33 24 -41 20 -165 -4 -116 -7 -135 -30 -180 -33 -63 -79 -108 -143
-137 l-50 -23 -1071 -3 c-1060 -3 -1072 -3 -1090 -23 -23 -26 -23 -82 1 -109
l18 -20 1101 2 1101 3 66 31 c125 59 215 168 243 294 21 93 21 288 0 361 -20
67 -97 148 -160 167 -28 8 -123 12 -293 12 l-251 0 0 53 0 52 64 1 c54 0 73 6
113 30 40 25 59 48 116 145 50 85 69 129 73 165 12 99 -30 176 -127 232 l-50
29 0 118 0 118 50 29 c97 56 139 133 127 232 -4 36 -23 80 -73 165 -57 97 -76
120 -116 145 -40 24 -59 30 -112 30 l-64 1 -3 147 c-3 164 -7 174 -70 185 -30
4 -41 1 -62 -20 -26 -26 -26 -27 -26 -187 0 -89 -3 -160 -7 -158 -5 2 -43 21
-85 43 l-78 39 0 74 c0 86 -20 134 -77 181 -51 42 -116 54 -260 49 -108 -4
-124 -7 -166 -31 -69 -40 -99 -99 -105 -199 l-5 -80 -36 -15 c-20 -8 -65 -33
-100 -56 l-64 -41 -56 31 c-69 38 -124 48 -183 33 -68 -17 -109 -58 -179 -177
-58 -98 -64 -114 -67 -175 -6 -98 20 -147 108 -204 l67 -43 0 -118 0 -118 -60
-35 c-36 -21 -70 -51 -86 -74 -23 -34 -26 -50 -26 -120 0 -80 0 -82 58 -181
68 -117 118 -168 184 -184 60 -16 115 -6 185 32 l56 31 64 -42 c34 -22 80 -48
101 -57 31 -13 37 -20 37 -45 l0 -30 -1191 0 c-914 0 -1201 -3 -1233 -12 -25
-8 -61 -32 -93 -63 -68 -66 -83 -117 -83 -280 0 -146 -14 -195 -76 -264 -135
-150 -373 -111 -461 76 -17 36 -18 135 -23 1833 -3 987 -6 1796 -8 1798 -3 4
-70 32 -74 31 -2 0 -13 -4 -24 -9z m3694 -1386 c20 -14 22 -23 22 -107 0 -53
6 -102 13 -117 13 -26 21 -31 127 -78 36 -16 92 -50 124 -76 78 -60 102 -60
206 0 54 31 86 43 100 39 20 -6 130 -189 130 -217 0 -20 -16 -33 -108 -88 -85
-50 -95 -69 -81 -141 11 -58 11 -184 0 -232 -16 -66 -3 -87 81 -137 93 -56
108 -68 108 -89 0 -27 -106 -204 -128 -214 -16 -8 -38 0 -101 37 -103 59 -132
60 -197 6 -27 -23 -83 -57 -124 -76 -41 -20 -86 -41 -100 -48 -35 -17 -50 -52
-50 -123 l0 -63 -145 0 -145 0 0 69 c0 38 -3 77 -6 86 -4 9 -50 36 -103 61
-53 25 -121 65 -153 89 -73 58 -96 58 -204 -1 -67 -37 -87 -43 -103 -35 -24
13 -121 178 -121 206 0 30 9 38 85 82 109 64 110 66 97 176 -9 69 -9 115 0
184 13 110 12 112 -97 176 -76 44 -85 52 -85 82 0 28 97 193 121 206 16 8 36
2 103 -35 108 -59 131 -59 204 -1 32 24 100 64 153 89 53 25 99 52 103 61 3 9
6 59 6 110 0 89 1 95 26 114 23 18 41 21 123 21 71 0 102 -4 119 -16z m352
-1654 l0 -70 -85 0 -85 0 0 28 c0 24 10 32 78 68 42 23 80 42 85 43 4 0 7 -30
7 -69z"/>
<path d="M3600 2076 c-200 -55 -325 -246 -290 -444 66 -382 578 -453 743 -104
29 61 32 75 32 167 0 92 -3 106 -32 167 -81 172 -274 263 -453 214z m169 -161
c138 -48 199 -195 135 -323 -94 -189 -368 -164 -429 40 -8 28 -15 57 -15 63 0
6 7 35 15 63 39 129 172 200 294 157z"/>
<path d="M575 3800 c-26 -29 -25 -85 3 -113 l23 -22 1599 0 1599 0 23 22 c28
28 29 84 3 113 l-18 20 -1607 0 -1607 0 -18 -20z"/>
<path d="M660 3480 c-103 -19 -174 -70 -217 -158 l-28 -57 0 -405 c0 -404 0
-405 24 -457 13 -29 44 -72 70 -96 86 -81 55 -78 842 -75 l694 3 53 30 c59 32
91 66 125 129 21 40 22 51 25 440 3 352 1 405 -14 453 -22 70 -80 135 -152
170 l-57 28 -660 2 c-363 0 -680 -2 -705 -7z m1367 -176 c62 -45 63 -53 63
-447 0 -397 -2 -410 -64 -448 -30 -18 -59 -19 -703 -17 l-672 3 -30 29 c-17
17 -36 46 -41 65 -13 48 -13 685 0 733 6 20 18 46 28 58 40 49 50 50 744 47
636 -2 647 -2 675 -23z"/>
<path d="M1390 3180 c-19 -19 -20 -33 -20 -345 0 -312 1 -326 20 -345 19 -19
33 -20 290 -20 257 0 271 1 290 20 19 19 20 33 20 345 0 312 -1 326 -20 345
-19 19 -33 20 -290 20 -257 0 -271 -1 -290 -20z m440 -345 l0 -205 -150 0
-150 0 0 205 0 205 150 0 150 0 0 -205z"/>
<path d="M714 2918 c-38 -18 -44 -51 -44 -227 0 -155 2 -170 21 -195 l20 -26
270 0 270 0 24 25 c25 24 25 27 25 194 0 181 -6 211 -47 230 -31 14 -509 14
-539 -1z m426 -218 l0 -70 -155 0 -155 0 0 70 0 70 155 0 155 0 0 -70z"/>
<path d="M2474 3186 c-50 -22 -61 -87 -21 -124 l23 -22 731 0 c686 0 732 1
753 18 31 25 32 85 2 115 l-23 22 -717 2 c-586 2 -723 0 -748 -11z"/>
<path d="M2473 2900 c-47 -19 -58 -92 -20 -128 23 -22 25 -22 484 -22 512 0
496 -2 509 67 5 27 1 37 -24 63 l-30 30 -449 -1 c-246 0 -458 -4 -470 -9z"/>
<path d="M453 2038 c-34 -16 -48 -69 -29 -106 8 -16 23 -32 31 -36 9 -3 482
-6 1051 -6 l1035 0 24 25 c16 15 25 36 25 55 0 19 -9 40 -25 55 l-24 25 -1033
-1 c-713 0 -1040 -4 -1055 -11z"/>
<path d="M453 1748 c-34 -16 -48 -69 -29 -106 8 -16 23 -32 31 -36 9 -3 511
-6 1116 -6 l1100 0 24 25 c33 32 33 78 0 110 l-24 25 -1098 -1 c-759 0 -1105
-4 -1120 -11z"/>
<path d="M447 1458 c-40 -31 -40 -103 1 -134 14 -11 219 -13 1055 -14 l1038 0
24 25 c16 15 25 36 25 55 0 19 -9 40 -25 55 l-24 25 -1039 0 c-815 0 -1042 -3
-1055 -12z"/>
<path d="M439 1151 c-34 -28 -32 -86 5 -118 l28 -24 515 3 515 3 19 24 c26 32
25 82 -4 109 l-23 22 -516 0 c-489 0 -517 -1 -539 -19z"/>
</g>
</svg>
