<?xml version="1.0" standalone="no"?>
<!DOCTYPE svg PUBLIC "-//W3C//DTD SVG 20010904//EN"
 "http://www.w3.org/TR/2001/REC-SVG-20010904/DTD/svg10.dtd">
<svg version="1.0" xmlns="http://www.w3.org/2000/svg"
 width="512.000000pt" height="512.000000pt" viewBox="0 0 512.000000 512.000000"
 preserveAspectRatio="xMidYMid meet">
<metadata>
Created by potrace 1.16, written by Peter Selinger 2001-2019
</metadata>
<g transform="translate(0.000000,512.000000) scale(0.100000,-0.100000)"
fill="#000000" stroke="none">
<path d="M809 4836 c-86 -31 -154 -92 -192 -175 l-22 -46 -3 -1137 -2 -1138
-73 0 c-112 -1 -214 -17 -274 -44 -76 -36 -167 -125 -206 -205 l-32 -66 0
-505 0 -505 32 -66 c40 -82 130 -170 209 -205 31 -14 89 -29 128 -34 97 -13
4278 -12 4375 0 41 5 98 21 128 34 76 36 167 125 206 205 l32 66 0 505 0 505
-32 66 c-39 80 -130 169 -206 205 -79 36 -167 43 -504 44 l-303 0 0 1110 c0
935 2 1115 14 1138 52 101 182 109 243 15 17 -26 18 -86 23 -1054 5 -992 6
-1028 24 -1048 19 -21 75 -29 111 -15 46 18 45 0 45 1072 0 981 -1 1012 -20
1074 -24 79 -76 142 -151 183 -69 37 -180 46 -257 21 -65 -22 -145 -93 -180
-160 l-27 -51 -3 -1206 c-2 -1178 -2 -1207 17 -1230 l19 -24 409 -5 c455 -6
450 -5 527 -78 77 -74 76 -62 76 -562 0 -410 -2 -448 -19 -485 -23 -51 -96
-118 -147 -136 -58 -21 -4370 -21 -4428 0 -51 18 -124 85 -147 136 -17 37 -19
75 -19 485 0 500 -1 488 76 562 83 79 -64 72 1642 78 1509 5 1524 5 1538 25
38 52 23 118 -32 141 -28 12 -252 14 -1334 14 l-1300 0 2 1118 3 1117 23 33
c62 86 182 80 235 -13 9 -15 13 -295 17 -1048 l5 -1029 24 -19 c34 -28 96 -25
127 6 l24 24 -2 1048 -3 1048 -27 51 c-34 65 -115 138 -175 158 -56 19 -164
20 -214 2z"/>
<path d="M2383 4126 c-148 -28 -273 -81 -398 -167 -105 -73 -157 -129 -157
-172 0 -46 15 -72 51 -87 43 -17 73 -7 133 47 326 289 803 283 1119 -14 50
-47 95 -53 137 -18 26 22 32 34 32 68 0 37 -6 47 -56 94 -114 108 -267 191
-432 235 -100 26 -326 33 -429 14z"/>
<path d="M2416 3675 c-123 -34 -260 -130 -272 -189 -7 -38 15 -90 41 -100 42
-16 82 -5 135 35 80 61 133 82 222 87 100 6 172 -17 255 -80 50 -38 70 -48
101 -48 62 0 102 56 82 116 -20 59 -157 148 -275 179 -72 18 -221 18 -289 0z"/>
<path d="M2495 3284 c-71 -37 -101 -92 -92 -171 5 -49 27 -85 71 -117 39 -30
143 -30 183 0 35 25 73 98 73 139 0 17 -10 51 -22 75 -39 76 -141 112 -213 74z"/>
<path d="M744 1598 c-58 -28 -56 -130 3 -157 14 -6 82 -11 163 -11 132 0 140
1 167 24 39 34 39 98 0 132 -27 23 -34 24 -170 23 -78 0 -152 -5 -163 -11z"/>
<path d="M1329 1581 c-20 -20 -29 -39 -29 -61 0 -22 9 -41 29 -61 l29 -29 337
0 336 0 24 25 c19 18 25 35 25 65 0 30 -6 47 -25 65 l-24 25 -336 0 -337 0
-29 -29z"/>
<path d="M624 440 c-63 -25 -71 -114 -15 -157 23 -18 679 -18 702 0 44 34 50
93 15 134 l-24 28 -329 2 c-180 1 -338 -2 -349 -7z"/>
<path d="M3824 440 c-63 -25 -71 -114 -15 -157 23 -18 679 -18 702 0 44 34 50
93 15 134 l-24 28 -329 2 c-180 1 -338 -2 -349 -7z"/>
</g>
</svg>
