<?xml version="1.0" standalone="no"?>
<!DOCTYPE svg PUBLIC "-//W3C//DTD SVG 20010904//EN"
 "http://www.w3.org/TR/2001/REC-SVG-20010904/DTD/svg10.dtd">
<svg version="1.0" xmlns="http://www.w3.org/2000/svg"
 width="512.000000pt" height="512.000000pt" viewBox="0 0 512.000000 512.000000"
 preserveAspectRatio="xMidYMid meet">
<metadata>
Created by potrace 1.16, written by Peter Selinger 2001-2019
</metadata>
<g transform="translate(0.000000,512.000000) scale(0.100000,-0.100000)"
fill="#000000" stroke="none">
<path d="M1749 4800 c-266 -25 -528 -120 -754 -273 -118 -80 -322 -284 -402
-402 -277 -409 -350 -895 -207 -1375 14 -47 56 -148 94 -225 227 -462 665
-784 1170 -860 139 -22 373 -19 513 5 128 22 274 66 382 115 l72 33 709 -709
c804 -804 756 -764 909 -764 126 0 154 17 342 207 184 186 198 210 198 333 0
153 40 105 -764 909 l-709 709 33 71 c94 209 136 408 136 657 0 162 -10 245
-47 392 -148 594 -657 1061 -1264 1160 -121 20 -301 28 -411 17z m377 -345
c432 -83 798 -397 948 -813 93 -260 93 -574 0 -834 -125 -348 -416 -639 -762
-762 -179 -64 -430 -88 -608 -58 -176 29 -361 103 -510 202 -100 67 -266 232
-331 330 -149 222 -217 444 -217 705 0 214 38 372 134 565 85 170 242 351 400
462 164 115 390 200 595 222 72 7 268 -3 351 -19z m1767 -3227 l-108 -108
-441 441 -440 440 105 108 106 107 442 -440 443 -441 -107 -107z m450 -236
l107 -107 -108 -108 -107 -107 -110 110 -110 110 105 105 c58 58 107 105 110
105 3 0 54 -48 113 -108z"/>
<path d="M1113 2799 c-57 -28 -86 -76 -86 -144 0 -67 19 -98 120 -196 182
-176 393 -273 649 -299 123 -13 165 -4 211 40 61 60 67 151 16 218 -33 44 -69
58 -169 66 -112 9 -184 29 -292 82 -76 37 -111 62 -192 140 -124 119 -170 136
-257 93z"/>
</g>
</svg>
