<?xml version="1.0" standalone="no"?>
<!DOCTYPE svg PUBLIC "-//W3C//DTD SVG 20010904//EN"
 "http://www.w3.org/TR/2001/REC-SVG-20010904/DTD/svg10.dtd">
<svg version="1.0" xmlns="http://www.w3.org/2000/svg"
 width="512.000000pt" height="512.000000pt" viewBox="0 0 512.000000 512.000000"
 preserveAspectRatio="xMidYMid meet">
<metadata>
Created by potrace 1.16, written by Peter Selinger 2001-2019
</metadata>
<g transform="translate(0.000000,512.000000) scale(0.100000,-0.100000)"
fill="#000000" stroke="none">
<path d="M2265 5106 c-108 -34 -209 -109 -264 -194 -48 -76 -71 -155 -78 -269
l-6 -102 -36 -12 c-20 -6 -89 -33 -154 -61 l-117 -50 -69 64 c-163 151 -369
186 -556 94 -60 -30 -96 -61 -242 -208 -144 -145 -177 -184 -202 -238 -88
-187 -52 -390 97 -551 l64 -70 -35 -77 c-19 -42 -47 -111 -62 -153 l-27 -76
-101 -6 c-214 -12 -353 -102 -439 -283 l-33 -69 0 -285 0 -285 33 -69 c86
-181 225 -271 439 -283 l101 -6 27 -76 c15 -42 43 -111 62 -153 l35 -77 -64
-70 c-113 -122 -161 -263 -139 -409 21 -139 50 -185 244 -380 194 -195 250
-232 383 -252 156 -24 297 25 426 148 l57 54 118 -50 c65 -28 134 -55 154 -61
l36 -12 6 -102 c12 -214 101 -353 283 -439 l69 -33 285 0 285 0 69 33 c181 85
271 225 283 438 l6 101 76 28 c42 15 111 43 154 63 l77 35 58 -55 c129 -123
271 -172 428 -148 131 20 188 58 381 252 144 145 177 184 202 238 87 187 52
391 -97 551 l-64 69 50 117 c28 65 56 134 63 154 l12 36 101 6 c213 12 353
102 438 283 l33 69 0 285 0 285 -33 69 c-85 181 -225 271 -438 283 l-101 6
-12 36 c-7 20 -35 89 -63 154 l-50 117 64 69 c151 163 186 369 94 556 -30 60
-61 96 -208 242 -145 144 -184 177 -238 202 -187 88 -390 52 -551 -97 l-70
-64 -77 34 c-42 20 -112 48 -154 64 l-78 29 0 60 c0 191 -73 342 -210 436
-104 71 -146 79 -433 78 -174 0 -264 -4 -292 -13z m528 -310 c22 -11 51 -37
65 -59 26 -39 27 -48 32 -206 7 -226 1 -218 215 -286 66 -21 181 -70 255 -107
128 -65 138 -69 192 -65 l57 3 115 112 c129 125 162 142 239 122 35 -10 67
-37 189 -158 121 -122 148 -154 158 -189 20 -77 3 -110 -122 -239 l-112 -115
-3 -57 c-4 -54 0 -64 65 -192 37 -74 86 -189 107 -255 68 -214 60 -208 286
-215 158 -5 167 -6 206 -32 71 -47 78 -75 78 -298 0 -223 -7 -251 -78 -298
-39 -26 -48 -27 -206 -32 -226 -7 -218 -1 -286 -215 -21 -66 -70 -181 -107
-255 -65 -128 -69 -138 -65 -192 l3 -57 112 -115 c125 -129 142 -162 122 -238
-10 -36 -37 -68 -158 -190 -122 -121 -154 -148 -189 -158 -77 -20 -110 -3
-239 122 l-115 112 -57 3 c-54 4 -64 0 -192 -65 -74 -37 -189 -86 -255 -107
-214 -68 -208 -60 -215 -286 -5 -158 -6 -167 -32 -206 -47 -71 -75 -78 -298
-78 -223 0 -251 7 -298 78 -26 39 -27 48 -32 206 -7 226 -1 218 -215 286 -66
21 -181 70 -255 107 -128 65 -138 69 -192 65 l-57 -3 -115 -112 c-129 -125
-162 -142 -239 -122 -35 10 -67 37 -189 158 -121 122 -148 154 -158 190 -20
76 -3 109 122 238 l112 115 3 57 c4 54 0 64 -65 192 -37 74 -86 189 -107 255
-68 214 -60 208 -286 215 -158 5 -167 6 -206 32 -71 47 -78 75 -78 298 0 223
7 251 78 298 39 26 48 27 206 32 226 7 218 1 286 215 21 66 70 181 107 255 65
128 69 138 65 192 l-3 57 -112 115 c-125 129 -142 162 -122 239 10 35 37 67
158 189 164 164 192 180 271 158 33 -9 66 -35 157 -122 114 -110 115 -111 169
-116 52 -4 62 0 197 67 79 39 199 89 267 111 69 22 135 47 146 54 44 29 55 74
55 218 0 157 9 197 55 243 47 47 90 54 295 52 148 -2 181 -5 213 -21z"/>
<path d="M2412 3669 c-153 -20 -356 -96 -478 -180 -87 -59 -181 -147 -249
-231 -79 -99 -175 -286 -205 -403 -49 -190 -49 -402 0 -590 24 -89 100 -258
151 -331 198 -289 514 -468 864 -490 358 -23 711 134 940 418 79 99 175 286
205 403 49 190 49 400 0 590 -30 117 -126 304 -205 403 -113 140 -232 233
-398 312 -194 93 -411 127 -625 99z m343 -325 c291 -78 504 -289 587 -582 32
-110 31 -295 0 -406 -81 -283 -295 -497 -579 -578 -111 -32 -295 -32 -407 0
-286 82 -496 292 -578 578 -29 103 -31 295 -4 394 91 331 345 559 681 614 56
8 239 -3 300 -20z"/>
</g>
</svg>
