<?xml version="1.0" standalone="no"?>
<!DOCTYPE svg PUBLIC "-//W3C//DTD SVG 20010904//EN"
 "http://www.w3.org/TR/2001/REC-SVG-20010904/DTD/svg10.dtd">
<svg version="1.0" xmlns="http://www.w3.org/2000/svg"
 width="512.000000pt" height="511.000000pt" viewBox="0 0 512.000000 511.000000"
 preserveAspectRatio="xMidYMid meet">
<metadata>
Created by potrace 1.16, written by Peter Selinger 2001-2019
</metadata>
<g transform="translate(0.000000,511.000000) scale(0.100000,-0.100000)"
fill="#000000" stroke="none">
<path d="M332 4999 c-123 -24 -231 -108 -289 -227 l-38 -76 -3 -1677 c-2
-1677 -2 -1678 19 -1733 44 -118 134 -212 246 -257 l58 -24 668 -3 667 -3 0
-22 c0 -21 -74 -580 -85 -644 l-6 -31 -128 -4 c-144 -3 -160 -10 -181 -74 -10
-28 -8 -40 7 -71 10 -21 29 -43 43 -50 34 -17 2460 -19 2493 -2 76 39 76 149
0 188 -12 6 -73 11 -140 11 l-118 0 -44 328 c-23 180 -45 337 -48 349 l-5 22
674 3 673 3 58 24 c112 45 202 139 246 257 21 55 21 56 19 1733 l-3 1677 -38
76 c-60 122 -165 203 -297 228 -66 12 -4385 12 -4448 -1z m1474 -221 c-3 -13
-6 -39 -6 -59 0 -34 -3 -38 -44 -53 l-44 -17 -56 39 c-128 90 -296 74 -405
-38 l-39 -40 -308 0 c-185 0 -324 -4 -347 -11 -49 -13 -105 -63 -128 -114 -18
-38 -19 -99 -19 -1180 0 -1081 1 -1142 19 -1180 23 -51 79 -101 128 -114 51
-15 328 -14 356 0 37 19 57 52 57 94 0 42 -20 75 -57 94 -13 6 -77 11 -157 11
l-136 0 0 1095 0 1095 273 0 272 0 17 -58 c10 -32 32 -74 52 -98 l34 -40 -18
-41 c-18 -40 -38 -52 -90 -53 -39 0 -123 -44 -165 -85 -118 -118 -118 -322 0
-440 42 -41 126 -85 165 -85 52 -1 72 -13 90 -53 l18 -41 -33 -39 c-49 -57
-68 -123 -63 -216 5 -87 28 -141 83 -196 108 -107 275 -121 401 -33 l56 39 44
-17 c41 -16 44 -19 44 -55 0 -97 78 -212 178 -260 67 -33 186 -33 257 -1 100
46 166 137 181 250 8 64 32 77 72 39 35 -32 78 -53 126 -62 43 -9 55 -28 33
-53 -29 -32 -49 -96 -49 -157 0 -207 218 -322 394 -209 33 21 38 22 52 8 9 -8
16 -25 16 -37 1 -57 66 -144 135 -180 28 -15 -34 -16 -758 -17 -849 0 -830 1
-858 -51 -14 -27 -14 -81 0 -108 29 -54 -49 -51 1513 -51 1429 0 1443 1 1488
21 60 27 79 45 106 104 l24 50 0 1130 c0 1115 -1 1131 -21 1175 -27 60 -45 79
-104 106 l-50 24 -765 0 -766 0 -43 44 c-62 63 -127 89 -221 89 -84 0 -154
-24 -202 -70 l-27 -26 -46 17 c-38 15 -45 22 -45 44 0 15 -4 42 -9 60 l-10 32
1161 0 c852 0 1171 -3 1199 -12 53 -15 113 -69 135 -120 18 -41 19 -101 22
-1450 l2 -1408 -2360 0 -2360 0 2 1408 3 1407 21 46 c23 50 74 97 126 116 24
8 224 12 747 12 l713 1 -6 -22z m374 -13 c21 -21 25 -37 30 -112 3 -49 11 -98
18 -110 6 -12 33 -29 59 -39 27 -9 88 -35 136 -56 111 -50 138 -47 211 22 66
63 96 74 141 56 85 -36 85 -108 0 -196 -30 -32 -55 -67 -56 -77 -3 -40 4 -70
26 -113 12 -25 32 -75 44 -112 33 -101 52 -115 161 -120 104 -5 136 -22 119
-65 -5 -13 -9 -35 -9 -48 0 -39 -28 -47 -69 -20 -136 87 -316 35 -377 -110
-32 -76 -15 -204 33 -257 22 -25 10 -44 -33 -53 -87 -16 -172 -88 -195 -164
-11 -37 -17 -43 -68 -61 -101 -37 -112 -43 -124 -64 -6 -11 -14 -60 -17 -108
-5 -73 -10 -91 -29 -112 -32 -34 -72 -41 -114 -21 -45 21 -55 45 -59 137 -4
104 -20 124 -129 164 -46 16 -103 40 -126 52 -69 36 -107 26 -177 -47 -47 -48
-92 -66 -129 -52 -42 16 -67 51 -67 93 0 33 8 47 49 91 84 90 88 112 37 226
-18 42 -41 97 -50 122 -26 71 -44 83 -145 90 -114 8 -153 35 -153 104 0 69 39
96 153 104 101 7 119 19 145 90 9 25 32 80 50 122 51 114 47 136 -37 226 -41
44 -49 58 -49 91 0 42 25 77 67 93 37 14 82 -4 129 -52 70 -73 108 -83 177
-47 23 12 80 36 126 52 107 40 124 60 129 159 4 91 16 121 55 141 40 21 84 13
117 -19z m2320 -1460 l0 -1095 -557 0 c-469 1 -553 3 -528 14 73 32 145 129
145 197 0 38 24 42 66 14 218 -148 487 96 364 330 -35 66 -37 85 -12 85 36 0
109 31 146 62 108 89 115 271 13 376 -30 31 -119 72 -157 72 -27 0 -25 15 10
84 121 238 -145 480 -364 331 -42 -28 -66 -24 -66 14 0 43 -45 125 -86 159
-51 42 -124 66 -182 59 -43 -5 -50 -2 -90 33 -44 39 -101 63 -178 75 -37 6
-43 11 -57 46 l-16 40 34 45 c19 25 42 70 51 100 l15 54 725 0 724 0 0 -1095z
m-1162 483 c7 -7 12 -34 12 -60 0 -68 22 -115 62 -132 18 -8 64 -28 102 -45
102 -46 136 -42 208 27 34 32 40 34 63 24 36 -17 32 -48 -15 -98 -64 -69 -64
-82 1 -238 39 -95 66 -116 150 -116 59 0 79 -11 79 -45 0 -34 -20 -45 -80 -45
-83 0 -110 -21 -149 -116 -65 -156 -65 -169 -1 -238 47 -50 51 -81 15 -98 -23
-10 -29 -8 -63 24 -72 69 -106 73 -208 27 -38 -17 -84 -37 -102 -45 -40 -17
-62 -64 -62 -132 0 -50 -12 -72 -41 -72 -29 0 -49 40 -49 98 0 69 -19 96 -83
121 -29 10 -72 29 -97 40 -75 34 -113 29 -170 -25 -52 -49 -74 -53 -97 -18
-13 20 -11 25 27 69 69 80 70 91 7 245 -21 50 -44 91 -58 100 -12 8 -52 17
-87 20 -51 4 -68 9 -78 25 -12 18 -11 24 2 43 13 18 25 22 72 22 85 0 107 18
149 120 63 154 62 165 -7 245 -38 44 -40 49 -27 69 23 34 42 30 96 -18 60 -53
97 -59 171 -25 25 11 68 30 97 40 64 25 83 52 83 121 0 79 41 123 78 86z
m1580 -2295 c-4 -68 -12 -124 -23 -151 -21 -51 -80 -104 -134 -120 -55 -17
-4347 -17 -4402 0 -54 16 -113 69 -134 120 -11 27 -19 83 -23 151 l-5 107
2363 0 2363 0 -5 -107z m-1678 -500 c0 -5 20 -156 45 -338 25 -181 45 -336 45
-342 0 -10 -161 -13 -773 -13 l-773 0 47 348 c26 191 48 348 48 350 2 6 1361
1 1361 -5z"/>
<path d="M1221 2196 c-58 -32 -69 -119 -22 -167 86 -85 225 26 161 129 -31 49
-89 66 -139 38z"/>
<path d="M1967 4156 c-319 -134 -313 -585 10 -706 47 -18 75 -21 148 -18 109
4 179 33 252 106 181 182 128 495 -105 609 -48 24 -71 28 -152 31 -82 2 -103
-1 -153 -22z m222 -207 c116 -65 115 -224 -2 -290 -48 -27 -133 -23 -175 8
-38 28 -72 91 -72 136 0 41 27 102 57 129 46 42 134 50 192 17z"/>
<path d="M3225 3397 c-62 -21 -97 -42 -137 -84 -112 -116 -110 -309 5 -421 63
-61 126 -87 217 -87 125 0 214 55 270 167 76 153 8 341 -149 411 -56 25 -153
31 -206 14z m125 -212 c69 -36 68 -125 -1 -161 -61 -31 -131 12 -131 81 0 38
22 71 57 86 30 12 43 11 75 -6z"/>
<path d="M2488 1481 c-87 -78 8 -217 114 -167 98 47 66 196 -41 196 -31 0 -49
-7 -73 -29z"/>
</g>
</svg>
