<?xml version="1.0" standalone="no"?>
<!DOCTYPE svg PUBLIC "-//W3C//DTD SVG 20010904//EN"
 "http://www.w3.org/TR/2001/REC-SVG-20010904/DTD/svg10.dtd">
<svg version="1.0" xmlns="http://www.w3.org/2000/svg"
 width="512.000000pt" height="512.000000pt" viewBox="0 0 512.000000 512.000000"
 preserveAspectRatio="xMidYMid meet">
<metadata>
Created by potrace 1.16, written by Peter Selinger 2001-2019
</metadata>
<g transform="translate(0.000000,512.000000) scale(0.100000,-0.100000)"
fill="#000000" stroke="none">
<path d="M2335 4009 c-653 -53 -1267 -340 -1727 -806 -140 -142 -226 -244
-317 -378 -111 -163 -131 -204 -131 -266 0 -50 6 -64 61 -154 210 -341 545
-677 888 -889 329 -203 708 -339 1101 -392 172 -24 528 -24 700 0 393 54 773
189 1100 391 344 214 679 549 889 890 55 90 61 104 61 154 0 62 -20 103 -131
266 -91 134 -177 236 -317 378 -570 577 -1368 872 -2177 806z m550 -343 c425
-62 813 -226 1160 -490 167 -127 393 -367 515 -546 51 -75 53 -68 -68 -229
-394 -525 -971 -859 -1647 -953 -117 -16 -455 -16 -570 0 -585 83 -1068 326
-1463 736 -102 106 -274 325 -287 365 -19 62 330 460 550 627 359 273 774 445
1195 493 52 6 111 13 130 15 69 8 387 -4 485 -18z"/>
<path d="M2360 3546 c-305 -64 -564 -264 -700 -540 -79 -160 -95 -237 -95
-446 0 -209 16 -286 95 -446 142 -287 420 -494 733 -544 110 -18 330 -8 432
19 308 83 582 339 685 641 68 201 68 459 0 660 -103 302 -376 557 -685 641
-102 27 -364 36 -465 15z m357 -332 c233 -51 442 -260 497 -494 20 -83 20
-237 1 -319 -32 -134 -126 -279 -237 -367 -341 -268 -832 -155 -1024 236 -19
37 -40 96 -49 131 -19 82 -19 236 0 317 20 84 75 195 130 262 168 206 420 293
682 234z"/>
</g>
</svg>
