<svg xmlns="http://www.w3.org/2000/svg">
    <symbol id="group" viewBox="0 0 512.000000 512.000000">
        <g transform="translate(0.000000,512.000000) scale(0.100000,-0.100000)">
            <path d="M2344 4954 c-259 -43 -496 -167 -690 -359 -248 -247 -375 -555 -375
            -910 1 -413 181 -780 503 -1025 l76 -58 -71 -27 c-467 -180 -885 -572 -1106
            -1035 -129 -272 -189 -513 -198 -805 -5 -143 -3 -181 11 -230 44 -153 167
            -279 317 -326 58 -18 105 -19 932 -19 852 0 873 1 905 20 95 58 99 216 5 277
            -25 17 -80 18 -878 23 -835 5 -851 5 -885 26 -19 11 -46 36 -59 55 -22 33 -23
            38 -18 179 10 242 66 452 182 685 89 178 176 296 330 450 154 154 272 241 450
            330 248 124 429 168 774 190 169 11 252 21 327 39 313 77 588 272 768 546 209
            316 264 742 145 1105 -132 398 -449 710 -841 829 -183 56 -420 71 -604 40z
            m463 -354 c269 -73 501 -269 619 -524 66 -143 79 -211 78 -401 0 -156 -2 -177
            -28 -260 -116 -380 -451 -654 -835 -683 -458 -35 -861 242 -998 685 -25 81
            -27 101 -27 263 0 163 2 181 28 265 97 317 343 561 654 650 159 46 352 48 509
            5z"/>
            <path d="M3672 2220 c-18 -11 -41 -34 -52 -52 -19 -31 -20 -51 -20 -340 l0
            -308 -307 0 c-290 0 -310 -1 -341 -20 -48 -30 -72 -75 -72 -140 0 -65 24 -110
            72 -140 31 -19 51 -20 341 -20 l307 0 0 -307 c0 -290 1 -310 20 -341 30 -48
            75 -72 140 -72 65 0 110 24 140 72 19 31 20 51 20 341 l0 307 308 0 c289 0
            309 1 340 20 48 30 72 75 72 140 0 65 -24 110 -72 140 -31 19 -51 20 -340 20
            l-308 0 0 308 c0 289 -1 309 -20 340 -11 18 -34 41 -52 52 -45 27 -131 27
            -176 0z"/>
        </g>
    </symbol>

    <symbol id="add-employer" viewBox="0 0 512.000000 512.000000">
        <g transform="translate(0.000000,512.000000) scale(0.100000,-0.100000)">
            <path d="M1750 5025 c-132 -29 -235 -80 -361 -176 -44 -33 -96 -66 -117 -73
            -139 -49 -250 -154 -302 -285 -58 -149 -48 -277 35 -449 30 -63 55 -115 55
            -118 0 -2 -19 -4 -42 -4 -82 -1 -169 -62 -202 -142 -20 -48 -20 -148 0 -196
            38 -92 119 -141 232 -142 l72 0 0 -58 c0 -85 33 -204 86 -310 54 -107 159
            -227 256 -293 l58 -40 0 -93 0 -93 -497 -83 c-274 -45 -525 -91 -558 -101
            -175 -54 -324 -208 -370 -384 -13 -51 -15 -184 -15 -962 0 -890 0 -903 20
            -923 20 -20 33 -20 2427 -20 2385 0 2408 0 2441 20 18 11 41 34 52 52 19 32
            20 52 20 888 0 836 -1 856 -20 888 -11 18 -34 41 -52 52 -31 19 -51 20 -300
            20 l-268 0 0 153 c0 171 -10 206 -71 264 -67 64 -61 63 -569 63 -492 0 -503
            -1 -556 -51 -21 -20 -21 -19 -452 52 l-432 72 0 93 0 93 58 40 c67 46 166 146
            211 214 75 111 131 277 131 389 l0 58 73 0 c153 1 247 93 247 242 -1 135 -98
            238 -225 238 -25 0 -45 2 -45 4 0 2 13 32 29 67 48 108 64 194 58 316 -5 125
            -28 207 -84 302 -46 79 -130 166 -203 213 -70 45 -335 165 -420 190 -87 27
            -308 34 -400 13z m325 -170 c33 -9 135 -50 227 -91 141 -64 177 -85 231 -134
            68 -63 120 -147 143 -234 19 -70 17 -189 -5 -256 l-17 -55 -57 111 c-31 61
            -63 114 -72 118 -47 18 -81 6 -175 -64 -165 -121 -270 -160 -430 -160 -159 0
            -266 40 -430 160 -96 71 -135 84 -178 61 -9 -5 -42 -59 -72 -120 -30 -61 -57
            -111 -61 -111 -11 0 -59 117 -70 172 -21 106 33 239 126 310 70 53 130 71 223
            66 121 -6 210 -56 292 -166 l25 -33 68 46 c37 25 67 48 67 51 0 16 -67 99
            -115 141 -52 47 -103 77 -170 103 l-30 12 49 25 c115 59 306 80 431 48z m-510
            -856 c117 -57 214 -79 355 -79 181 0 347 52 477 151 l53 39 56 -112 57 -113
            -6 -270 c-4 -208 -9 -284 -22 -330 -145 -525 -818 -648 -1132 -207 -100 139
            -123 252 -123 605 l0 207 55 110 55 111 48 -36 c25 -20 83 -54 127 -76z m-445
            -319 l0 -80 -35 0 c-54 0 -103 24 -111 54 -16 64 26 105 109 106 l37 0 0 -80z
            m1705 66 c37 -16 52 -48 41 -92 -8 -30 -57 -54 -111 -54 l-35 0 0 80 0 80 35
            0 c20 0 51 -6 70 -14z m-1065 -1095 c89 -20 293 -12 383 15 15 5 17 -3 17 -68
            l0 -73 -120 -120 -120 -120 -120 120 -120 120 0 73 c0 65 2 73 18 68 9 -3 37
            -10 62 -15z m-147 -309 l47 -48 -30 -89 c-44 -130 -42 -140 42 -267 l71 -109
            -71 -180 c-40 -99 -72 -194 -72 -212 0 -31 218 -994 241 -1065 12 -37 35 -52
            79 -52 44 0 67 15 79 52 23 71 241 1034 241 1065 0 18 -32 113 -72 212 l-71
            180 71 109 c84 127 86 137 42 267 l-30 90 47 46 48 47 423 -70 422 -71 0 -124
            0 -123 -267 0 c-250 0 -270 -1 -301 -20 -18 -11 -41 -34 -52 -52 -19 -32 -20
            -52 -20 -860 l0 -828 -720 0 -720 0 0 680 0 680 -80 0 -80 0 0 -680 0 -680
            -320 0 -320 0 0 783 c1 430 5 812 9 849 12 89 56 181 117 241 89 88 100 91
            672 188 285 48 519 87 522 88 3 1 27 -21 53 -47z m2571 -36 c45 -19 56 -55 56
            -193 l0 -113 -251 2 -251 3 -20 50 c-36 93 -133 208 -213 253 -32 18 635 17
            679 -2z m-806 -125 c23 -11 58 -36 78 -54 39 -33 94 -103 94 -119 0 -4 -61 -8
            -135 -8 l-135 0 0 109 0 110 28 -8 c15 -5 46 -18 70 -30z m-1537 -66 c31 -28
            47 -35 79 -35 32 0 48 7 79 35 21 19 41 35 44 35 3 0 8 -14 12 -31 6 -26 -1
            -43 -49 -115 -50 -74 -60 -84 -86 -84 -26 0 -36 10 -86 84 -48 72 -55 89 -49
            115 4 17 9 31 12 31 3 0 23 -16 44 -35z m3039 -382 c-1 -218 -30 -314 -124
            -409 -106 -106 -182 -124 -528 -124 l-228 0 0 140 c0 192 16 180 -240 180
            -256 0 -240 12 -240 -180 l0 -140 -227 0 c-347 0 -423 18 -529 124 -94 95
            -123 191 -124 409 l0 107 1120 0 1120 0 0 -107z m-2874 -138 l64 -160 -72
            -317 c-40 -175 -75 -318 -78 -318 -3 0 -38 143 -78 318 l-72 317 56 140 c31
            77 60 150 65 163 6 16 16 22 30 20 17 -2 33 -34 85 -163z m1834 -430 c0 -218
            -8 -259 -54 -271 -44 -11 -76 4 -92 41 -10 26 -14 83 -14 230 l0 195 80 0 80
            0 0 -195z m-1063 -64 c115 -58 140 -61 455 -61 l288 0 0 -72 c1 -154 93 -248
            242 -248 74 0 129 23 175 71 46 49 63 97 63 179 l0 70 288 0 c236 0 298 3 343
            16 76 23 163 68 209 110 l40 36 0 -321 0 -321 -1120 0 -1120 0 0 321 0 321 40
            -36 c22 -19 65 -49 97 -65z m2103 -781 l0 -80 -1120 0 -1120 0 0 80 0 80 1120
            0 1120 0 0 -80z"/>
        </g>
    </symbol>

    <symbol id="list-employer" viewBox="0 0 512.000000 512.000000">
        <g transform="translate(0.000000,512.000000) scale(0.100000,-0.100000)">
            <path d="M2380 4965 c-91 -36 -320 -127 -509 -202 -316 -125 -344 -138 -356
            -165 -24 -58 9 -112 68 -112 18 1 245 85 504 188 l473 187 1092 -431 c601
            -238 1144 -453 1206 -477 l112 -45 0 -54 0 -54 -2410 0 -2410 0 0 54 c0 34 5
            56 13 59 6 3 275 109 597 237 322 127 593 238 602 247 44 40 6 133 -54 133
            -32 0 -1266 -485 -1290 -508 -16 -13 -18 -35 -18 -172 0 -206 -2 -203 139
            -208 l101 -4 0 -37 c0 -64 27 -136 68 -178 46 -47 91 -70 160 -79 l52 -7 0
            -246 c0 -235 1 -248 20 -269 33 -35 84 -33 117 4 23 25 23 30 23 270 l0 244
            1880 0 1880 0 0 -244 c0 -240 0 -245 23 -270 33 -37 84 -39 117 -4 19 21 20
            34 20 269 l0 246 52 7 c69 9 114 32 160 79 41 42 68 114 68 178 l0 37 101 4
            c141 5 139 2 139 208 0 137 -2 159 -17 172 -19 17 -2491 997 -2533 1004 -16 3
            -86 -20 -190 -61z m2340 -1355 c0 -46 -25 -86 -61 -99 -45 -16 -4153 -16
            -4198 0 -36 13 -61 53 -61 99 l0 30 2160 0 2160 0 0 -30z"/>
            <path d="M2502 4609 c-68 -11 -118 -37 -169 -89 -61 -60 -87 -120 -91 -210 -7
            -135 57 -246 174 -305 52 -26 70 -30 144 -30 74 0 92 4 144 30 117 59 181 170
            174 305 -2 52 -10 89 -26 122 -27 55 -91 122 -142 148 -32 16 -56 22 -135 34
            -11 2 -44 -1 -73 -5z m143 -180 c17 -10 41 -36 53 -57 41 -73 23 -157 -44
            -208 -31 -24 -47 -29 -94 -29 -47 0 -63 5 -94 29 -67 50 -85 135 -44 207 46
            83 141 107 223 58z"/>
            <path d="M1267 3290 c-109 -19 -206 -99 -246 -203 -30 -81 -31 -237 -1 -267
            30 -30 83 -30 114 0 16 15 21 39 26 112 7 102 15 123 60 162 45 38 101 49 220
            44 178 -8 229 -58 230 -225 0 -59 4 -77 20 -93 30 -30 83 -30 115 1 18 17 20
            32 19 123 -1 87 -5 111 -26 158 -47 102 -131 166 -243 187 -66 12 -216 13
            -288 1z"/>
            <path d="M2412 3289 c-144 -24 -252 -144 -260 -290 -4 -62 -2 -67 23 -87 60
            -47 116 -15 134 76 9 45 20 68 47 96 45 46 65 51 204 51 139 0 159 -5 204 -51
            27 -28 38 -51 47 -96 18 -91 74 -123 134 -76 25 20 27 25 23 87 -4 80 -33 144
            -91 201 -53 54 -99 77 -178 90 -75 12 -212 11 -287 -1z"/>
            <path d="M3550 3287 c-30 -7 -70 -21 -88 -31 -52 -27 -112 -93 -140 -154 -21
            -47 -25 -71 -26 -158 -1 -91 1 -106 19 -123 32 -31 85 -31 115 -1 16 16 20 34
            20 93 1 167 52 217 230 225 119 5 175 -6 220 -44 45 -39 53 -60 60 -162 5 -73
            10 -97 26 -112 31 -30 84 -30 114 0 29 29 29 185 -1 267 -28 75 -113 162 -184
            187 -66 23 -287 31 -365 13z"/>
            <path d="M2488 2879 c-238 -26 -444 -193 -519 -420 -23 -71 -24 -85 -24 -334
            0 -256 1 -261 26 -327 81 -208 252 -361 454 -403 207 -43 409 13 559 155 78
            75 125 145 165 248 25 66 26 71 26 327 0 249 -1 263 -24 334 -51 154 -171 291
            -316 361 -117 56 -220 73 -347 59z m221 -181 c119 -40 210 -123 267 -243 37
            -77 56 -185 34 -185 -28 0 -98 51 -156 114 -80 87 -101 88 -187 11 -69 -62
            -193 -127 -275 -144 -67 -14 -172 -13 -237 3 l-50 12 2 58 c3 72 51 179 111
            247 122 137 316 187 491 127z m76 -477 c43 -42 142 -100 193 -113 l42 -10 0
            -75 c0 -140 -49 -260 -142 -350 -90 -86 -193 -128 -318 -128 -125 0 -228 42
            -318 128 -94 91 -142 210 -142 352 0 76 1 77 23 71 48 -15 211 -19 281 -6 110
            19 287 98 327 146 16 19 19 18 54 -15z"/>
            <path d="M1340 2670 c-203 -29 -363 -184 -401 -385 -15 -82 -6 -366 14 -425
            84 -252 360 -387 613 -300 144 50 252 166 298 319 25 85 23 377 -4 463 -68
            221 -290 361 -520 328z m197 -185 c83 -37 156 -127 178 -217 11 -44 -13 -35
            -70 27 -32 34 -63 57 -81 61 -30 6 -36 3 -134 -73 -81 -62 -226 -94 -314 -70
            -26 7 -28 10 -21 44 15 80 91 183 163 222 82 44 189 46 279 6z m149 -415 c33
            -11 34 -13 34 -66 0 -142 -104 -269 -248 -304 -96 -23 -214 12 -287 85 -49 49
            -88 135 -93 205 l-4 56 103 0 c127 1 229 29 317 89 l34 23 55 -39 c30 -21 70
            -43 89 -49z"/>
            <path d="M3650 2670 c-191 -28 -348 -164 -395 -345 -22 -84 -21 -371 1 -446
            46 -153 154 -269 298 -319 253 -87 529 48 613 300 21 62 30 350 13 433 -17 89
            -52 155 -119 229 -108 118 -255 171 -411 148z m172 -176 c89 -29 182 -136 203
            -233 l7 -34 -31 22 c-17 13 -45 40 -62 61 -52 65 -94 63 -173 -8 -77 -69 -220
            -112 -316 -94 -44 8 -45 9 -44 44 2 77 80 185 165 228 80 42 155 46 251 14z
            m72 -368 c25 -19 66 -42 91 -52 l47 -18 -4 -60 c-16 -243 -275 -380 -480 -254
            -87 54 -148 159 -148 256 l0 47 93 1 c50 0 117 6 147 13 55 14 148 56 185 85
            11 8 21 16 22 16 2 0 23 -15 47 -34z"/>
            <path d="M1140 1481 c-80 -26 -112 -45 -167 -98 -117 -114 -133 -175 -133
            -513 0 -255 0 -257 23 -278 23 -22 27 -22 394 -22 l372 0 20 26 c36 45 20 105
            -32 124 -18 6 -145 10 -324 10 l-294 0 3 208 c3 198 4 209 28 256 14 27 43 64
            64 82 39 34 140 74 152 61 4 -4 -12 -73 -36 -155 -27 -92 -41 -158 -37 -173 4
            -13 49 -67 101 -118 131 -130 133 -130 267 5 80 82 99 107 99 130 0 16 -18 90
            -40 164 -22 74 -40 138 -40 143 0 13 37 7 84 -12 25 -11 72 -45 105 -75 67
            -62 93 -68 135 -35 20 16 26 29 26 58 0 70 -109 170 -228 210 -55 19 -85 21
            -274 20 -176 0 -223 -3 -268 -18z m301 -321 l31 -102 -33 -34 -33 -34 -33 32
            -32 33 31 108 c17 59 33 106 35 104 2 -2 17 -50 34 -107z"/>
            <path d="M3436 1479 c-74 -25 -132 -65 -185 -125 -51 -59 -57 -110 -15 -143
            42 -33 68 -27 135 35 33 30 80 64 105 75 47 19 84 25 84 12 0 -5 -18 -69 -40
            -143 -22 -74 -40 -148 -40 -164 0 -23 19 -48 99 -130 134 -135 136 -135 267
            -5 52 51 97 105 101 118 4 15 -10 81 -37 173 -24 82 -40 151 -36 155 12 13
            113 -27 152 -61 21 -18 50 -55 64 -82 24 -47 25 -58 28 -256 l3 -208 -294 0
            c-179 0 -306 -4 -324 -10 -52 -19 -68 -79 -32 -124 l20 -26 373 0 373 0 22 24
            c22 24 22 25 19 302 -3 260 -5 283 -26 334 -48 120 -148 213 -270 250 -55 17
            -93 20 -276 20 -186 -1 -218 -3 -270 -21z m313 -319 l30 -105 -32 -33 -33 -32
            -33 34 -33 34 27 88 c14 49 29 97 32 107 2 10 6 17 8 15 2 -2 17 -50 34 -108z"/>
            <path d="M2230 1294 c-188 -49 -337 -196 -397 -389 -16 -53 -18 -99 -18 -413
            l0 -354 28 -24 28 -24 689 0 689 0 28 24 28 24 0 354 c0 314 -2 360 -18 413
            -60 196 -210 341 -402 390 -83 21 -574 21 -655 -1z m160 -152 c0 -5 -27 -101
            -60 -213 -33 -112 -60 -219 -60 -238 0 -30 14 -48 128 -162 169 -171 155 -171
            324 0 114 114 128 132 128 162 0 19 -27 126 -60 238 -33 112 -60 209 -60 214
            0 20 119 -1 185 -32 119 -55 204 -169 225 -301 5 -36 10 -176 10 -312 l0 -248
            -590 0 -590 0 0 248 c0 136 5 276 10 312 25 155 132 277 285 326 46 15 125 18
            125 6z m235 -223 l58 -200 -61 -62 -62 -62 -62 62 -61 62 58 200 c33 111 62
            201 65 201 3 0 32 -90 65 -201z"/>
        </g>
    </symbol>

    <symbol id="list-student" viewBox="0 0 512.000000 512.000000">
        <g transform="translate(0.000000,512.000000) scale(0.100000,-0.100000)">
            <path d="M1620 4940 c-18 -18 -20 -33 -20 -160 l0 -140 -60 0 c-105 0 -100 18
            -100 -380 l0 -340 -620 0 c-607 0 -620 0 -640 -20 -20 -20 -20 -33 -20 -1400
            l0 -1380 80 0 80 0 0 1320 0 1320 560 0 560 0 0 -960 0 -960 80 0 80 0 0 1320
            0 1320 960 0 960 0 0 -1320 0 -1320 80 0 80 0 0 960 0 960 560 0 560 0 0
            -1320 0 -1320 80 0 80 0 0 1380 c0 1367 0 1380 -20 1400 -20 20 -33 20 -640
            20 l-620 0 0 340 c0 398 5 380 -100 380 l-60 0 0 140 c0 127 -2 142 -20 160
            -20 20 -33 20 -940 20 -907 0 -920 0 -940 -20z m1740 -220 l0 -80 -800 0 -800
            0 0 80 0 80 800 0 800 0 0 -80z"/>
            <path d="M1840 4160 l0 -80 80 0 80 0 0 80 0 80 -80 0 -80 0 0 -80z"/>
            <path d="M2160 4160 l0 -80 80 0 80 0 0 80 0 80 -80 0 -80 0 0 -80z"/>
            <path d="M2480 4160 l0 -80 80 0 80 0 0 80 0 80 -80 0 -80 0 0 -80z"/>
            <path d="M2800 4160 l0 -80 80 0 80 0 0 80 0 80 -80 0 -80 0 0 -80z"/>
            <path d="M3120 4160 l0 -80 80 0 80 0 0 80 0 80 -80 0 -80 0 0 -80z"/>
            <path d="M1840 3840 l0 -80 80 0 80 0 0 80 0 80 -80 0 -80 0 0 -80z"/>
            <path d="M2160 3840 l0 -80 80 0 80 0 0 80 0 80 -80 0 -80 0 0 -80z"/>
            <path d="M2480 3840 l0 -80 80 0 80 0 0 80 0 80 -80 0 -80 0 0 -80z"/>
            <path d="M2800 3840 l0 -80 80 0 80 0 0 80 0 80 -80 0 -80 0 0 -80z"/>
            <path d="M3120 3840 l0 -80 80 0 80 0 0 80 0 80 -80 0 -80 0 0 -80z"/>
            <path d="M480 3520 l0 -80 80 0 80 0 0 80 0 80 -80 0 -80 0 0 -80z"/>
            <path d="M800 3520 l0 -80 80 0 80 0 0 80 0 80 -80 0 -80 0 0 -80z"/>
            <path d="M1120 3520 l0 -80 80 0 80 0 0 80 0 80 -80 0 -80 0 0 -80z"/>
            <path d="M1840 3520 l0 -80 80 0 80 0 0 80 0 80 -80 0 -80 0 0 -80z"/>
            <path d="M2160 3520 l0 -80 80 0 80 0 0 80 0 80 -80 0 -80 0 0 -80z"/>
            <path d="M2480 3520 l0 -80 80 0 80 0 0 80 0 80 -80 0 -80 0 0 -80z"/>
            <path d="M2800 3520 l0 -80 80 0 80 0 0 80 0 80 -80 0 -80 0 0 -80z"/>
            <path d="M3120 3520 l0 -80 80 0 80 0 0 80 0 80 -80 0 -80 0 0 -80z"/>
            <path d="M3840 3520 l0 -80 80 0 80 0 0 80 0 80 -80 0 -80 0 0 -80z"/>
            <path d="M4160 3520 l0 -80 80 0 80 0 0 80 0 80 -80 0 -80 0 0 -80z"/>
            <path d="M4480 3520 l0 -80 80 0 80 0 0 80 0 80 -80 0 -80 0 0 -80z"/>
            <path d="M480 3200 l0 -80 80 0 80 0 0 80 0 80 -80 0 -80 0 0 -80z"/>
            <path d="M800 3200 l0 -80 80 0 80 0 0 80 0 80 -80 0 -80 0 0 -80z"/>
            <path d="M1120 3200 l0 -80 80 0 80 0 0 80 0 80 -80 0 -80 0 0 -80z"/>
            <path d="M1840 3200 l0 -80 80 0 80 0 0 80 0 80 -80 0 -80 0 0 -80z"/>
            <path d="M2160 3200 l0 -80 80 0 80 0 0 80 0 80 -80 0 -80 0 0 -80z"/>
            <path d="M2480 3200 l0 -80 80 0 80 0 0 80 0 80 -80 0 -80 0 0 -80z"/>
            <path d="M2800 3200 l0 -80 80 0 80 0 0 80 0 80 -80 0 -80 0 0 -80z"/>
            <path d="M3120 3200 l0 -80 80 0 80 0 0 80 0 80 -80 0 -80 0 0 -80z"/>
            <path d="M3840 3200 l0 -80 80 0 80 0 0 80 0 80 -80 0 -80 0 0 -80z"/>
            <path d="M4160 3200 l0 -80 80 0 80 0 0 80 0 80 -80 0 -80 0 0 -80z"/>
            <path d="M4480 3200 l0 -80 80 0 80 0 0 80 0 80 -80 0 -80 0 0 -80z"/>
            <path d="M480 2880 l0 -80 80 0 80 0 0 80 0 80 -80 0 -80 0 0 -80z"/>
            <path d="M800 2880 l0 -80 80 0 80 0 0 80 0 80 -80 0 -80 0 0 -80z"/>
            <path d="M1120 2880 l0 -80 80 0 80 0 0 80 0 80 -80 0 -80 0 0 -80z"/>
            <path d="M1840 2880 l0 -80 80 0 80 0 0 80 0 80 -80 0 -80 0 0 -80z"/>
            <path d="M2160 2880 l0 -80 80 0 80 0 0 80 0 80 -80 0 -80 0 0 -80z"/>
            <path d="M2480 2880 l0 -80 80 0 80 0 0 80 0 80 -80 0 -80 0 0 -80z"/>
            <path d="M2800 2880 l0 -80 80 0 80 0 0 80 0 80 -80 0 -80 0 0 -80z"/>
            <path d="M3120 2880 l0 -80 80 0 80 0 0 80 0 80 -80 0 -80 0 0 -80z"/>
            <path d="M3840 2880 l0 -80 80 0 80 0 0 80 0 80 -80 0 -80 0 0 -80z"/>
            <path d="M4160 2880 l0 -80 80 0 80 0 0 80 0 80 -80 0 -80 0 0 -80z"/>
            <path d="M4480 2880 l0 -80 80 0 80 0 0 80 0 80 -80 0 -80 0 0 -80z"/>
            <path d="M480 2560 l0 -80 80 0 80 0 0 80 0 80 -80 0 -80 0 0 -80z"/>
            <path d="M800 2560 l0 -80 80 0 80 0 0 80 0 80 -80 0 -80 0 0 -80z"/>
            <path d="M1120 2560 l0 -80 80 0 80 0 0 80 0 80 -80 0 -80 0 0 -80z"/>
            <path d="M1840 2560 l0 -80 80 0 80 0 0 80 0 80 -80 0 -80 0 0 -80z"/>
            <path d="M2160 2560 l0 -80 80 0 80 0 0 80 0 80 -80 0 -80 0 0 -80z"/>
            <path d="M2480 2560 l0 -80 80 0 80 0 0 80 0 80 -80 0 -80 0 0 -80z"/>
            <path d="M2800 2560 l0 -80 80 0 80 0 0 80 0 80 -80 0 -80 0 0 -80z"/>
            <path d="M3120 2560 l0 -80 80 0 80 0 0 80 0 80 -80 0 -80 0 0 -80z"/>
            <path d="M3840 2560 l0 -80 80 0 80 0 0 80 0 80 -80 0 -80 0 0 -80z"/>
            <path d="M4160 2560 l0 -80 80 0 80 0 0 80 0 80 -80 0 -80 0 0 -80z"/>
            <path d="M4480 2560 l0 -80 80 0 80 0 0 80 0 80 -80 0 -80 0 0 -80z"/>
            <path d="M480 2240 l0 -80 80 0 80 0 0 80 0 80 -80 0 -80 0 0 -80z"/>
            <path d="M800 2240 l0 -80 80 0 80 0 0 80 0 80 -80 0 -80 0 0 -80z"/>
            <path d="M1120 2240 l0 -80 80 0 80 0 0 80 0 80 -80 0 -80 0 0 -80z"/>
            <path d="M1840 2240 l0 -80 80 0 80 0 0 80 0 80 -80 0 -80 0 0 -80z"/>
            <path d="M2160 2240 l0 -80 80 0 80 0 0 80 0 80 -80 0 -80 0 0 -80z"/>
            <path d="M2480 2240 l0 -80 80 0 80 0 0 80 0 80 -80 0 -80 0 0 -80z"/>
            <path d="M2800 2240 l0 -80 80 0 80 0 0 80 0 80 -80 0 -80 0 0 -80z"/>
            <path d="M3120 2240 l0 -80 80 0 80 0 0 80 0 80 -80 0 -80 0 0 -80z"/>
            <path d="M3840 2240 l0 -80 80 0 80 0 0 80 0 80 -80 0 -80 0 0 -80z"/>
            <path d="M4160 2240 l0 -80 80 0 80 0 0 80 0 80 -80 0 -80 0 0 -80z"/>
            <path d="M4480 2240 l0 -80 80 0 80 0 0 80 0 80 -80 0 -80 0 0 -80z"/>
            <path d="M480 1920 l0 -80 80 0 80 0 0 80 0 80 -80 0 -80 0 0 -80z"/>
            <path d="M800 1920 l0 -80 80 0 80 0 0 80 0 80 -80 0 -80 0 0 -80z"/>
            <path d="M1120 1920 l0 -80 80 0 80 0 0 80 0 80 -80 0 -80 0 0 -80z"/>
            <path d="M1840 1920 l0 -80 80 0 80 0 0 80 0 80 -80 0 -80 0 0 -80z"/>
            <path d="M2160 1920 l0 -80 80 0 80 0 0 80 0 80 -80 0 -80 0 0 -80z"/>
            <path d="M2480 1920 l0 -80 80 0 80 0 0 80 0 80 -80 0 -80 0 0 -80z"/>
            <path d="M2800 1920 l0 -80 80 0 80 0 0 80 0 80 -80 0 -80 0 0 -80z"/>
            <path d="M3120 1920 l0 -80 80 0 80 0 0 80 0 80 -80 0 -80 0 0 -80z"/>
            <path d="M3840 1920 l0 -80 80 0 80 0 0 80 0 80 -80 0 -80 0 0 -80z"/>
            <path d="M4160 1920 l0 -80 80 0 80 0 0 80 0 80 -80 0 -80 0 0 -80z"/>
            <path d="M4480 1920 l0 -80 80 0 80 0 0 80 0 80 -80 0 -80 0 0 -80z"/>
            <path d="M752 1659 c-71 -28 -144 -101 -171 -174 -18 -47 -21 -78 -21 -204 0
            -106 4 -161 15 -191 8 -23 15 -44 15 -45 0 -1 -33 -5 -74 -7 -135 -9 -259 -95
            -322 -223 l-29 -60 -3 -277 c-3 -268 -3 -277 17 -297 l21 -21 2360 0 2360 0
            21 21 c20 20 20 29 17 297 l-3 277 -29 60 c-63 128 -187 214 -322 223 -41 2
            -74 6 -74 7 0 1 7 22 15 45 11 30 15 85 15 191 0 126 -3 157 -21 204 -77 207
            -369 264 -529 105 -75 -76 -90 -127 -90 -309 0 -107 4 -160 15 -191 8 -24 13
            -45 11 -48 -6 -6 -286 -6 -292 0 -2 3 3 24 11 48 11 31 15 84 15 191 0 182
            -15 233 -90 309 -124 123 -336 123 -460 0 -75 -76 -90 -127 -90 -309 0 -106 4
            -161 15 -191 8 -23 15 -44 15 -46 0 -2 -49 -4 -110 -4 -60 0 -110 2 -110 4 0
            2 7 23 15 46 11 30 15 85 15 191 0 126 -3 157 -21 204 -77 207 -369 264 -529
            105 -75 -76 -90 -127 -90 -309 0 -106 4 -161 15 -191 8 -23 15 -44 15 -46 0
            -2 -49 -4 -110 -4 -60 0 -110 2 -110 4 0 2 7 23 15 46 11 30 15 85 15 191 0
            126 -3 157 -21 204 -77 207 -369 264 -529 105 -75 -76 -90 -127 -90 -309 0
            -107 4 -160 15 -191 8 -24 13 -45 11 -48 -6 -6 -286 -6 -292 0 -2 3 3 24 11
            48 11 31 15 84 15 191 0 182 -15 233 -90 309 -89 88 -235 116 -358 69z m208
            -172 c62 -41 75 -77 75 -207 0 -98 -3 -120 -21 -150 -63 -107 -205 -107 -268
            0 -18 30 -21 52 -21 150 0 98 3 120 21 150 46 78 144 105 214 57z m880 0 c62
            -41 75 -77 75 -207 0 -98 -3 -120 -21 -150 -63 -107 -205 -107 -268 0 -18 30
            -21 52 -21 150 0 98 3 120 21 150 46 78 144 105 214 57z m800 0 c62 -41 75
            -77 75 -207 0 -98 -3 -120 -21 -150 -63 -107 -205 -107 -268 0 -18 30 -21 52
            -21 150 0 98 3 120 21 150 46 78 144 105 214 57z m800 0 c62 -41 75 -77 75
            -207 0 -98 -3 -120 -21 -150 -63 -107 -205 -107 -268 0 -18 30 -21 52 -21 150
            0 98 3 120 21 150 46 78 144 105 214 57z m880 0 c62 -41 75 -77 75 -207 0 -98
            -3 -120 -21 -150 -63 -107 -205 -107 -268 0 -18 30 -21 52 -21 150 0 98 3 120
            21 150 46 78 144 105 214 57z m-3243 -669 l-32 -63 -3 -217 -3 -218 -200 0
            -199 0 0 160 0 160 -80 0 -80 0 0 -160 0 -160 -81 0 -81 0 4 183 c5 201 13
            234 71 295 71 74 102 80 444 81 l271 1 -31 -62z m800 0 l-32 -63 -3 -217 -3
            -218 -160 0 -159 0 0 160 0 160 -80 0 -80 0 0 -160 0 -160 -81 0 -81 0 4 183
            c5 201 13 234 71 295 69 72 105 79 404 81 l231 1 -31 -62z m1088 39 c54 -24
            103 -73 128 -127 18 -39 22 -69 25 -227 l4 -183 -81 0 -81 0 0 160 0 160 -80
            0 -80 0 0 -160 0 -160 -240 0 -240 0 0 160 0 160 -80 0 -80 0 0 -160 0 -160
            -81 0 -81 0 4 183 c5 201 13 234 71 295 39 41 75 60 130 72 23 5 195 8 382 7
            303 -2 344 -4 380 -20z m800 0 c51 -23 101 -70 128 -122 18 -35 21 -62 25
            -227 l4 -188 -81 0 -81 0 0 160 0 160 -80 0 -80 0 0 -160 0 -160 -159 0 -160
            0 -3 218 -3 217 -32 63 -32 64 257 -4 c219 -3 263 -6 297 -21z m890 -4 c55
            -29 94 -70 119 -123 17 -39 21 -70 24 -227 l4 -183 -81 0 -81 0 0 160 0 160
            -80 0 -80 0 0 -160 0 -160 -199 0 -200 0 -3 218 -3 217 -33 63 -33 64 303 -4
            c287 -3 305 -4 343 -25z"/>
        </g>
    </symbol>

    <symbol id="add-organization" viewBox="0 0 512.000000 512.000000">
        <g transform="translate(0.000000,512.000000) scale(0.100000,-0.100000)">
            <path d="M2408 5101 c-145 -47 -269 -174 -312 -320 -12 -40 -16 -99 -16 -221
            0 -122 4 -181 16 -221 43 -148 168 -274 315 -320 82 -26 216 -26 298 0 147 46
            272 172 315 320 22 77 22 365 0 442 -43 148 -168 274 -315 320 -81 25 -222 25
            -301 0z m300 -186 c100 -54 148 -131 165 -266 23 -181 -17 -331 -108 -404 -75
            -61 -101 -70 -205 -70 -79 0 -102 4 -137 23 -108 57 -158 135 -176 272 -13
            109 1 247 32 307 61 120 157 176 296 170 66 -3 90 -8 133 -32z"/>
            <path d="M2025 3943 c-139 -32 -262 -66 -293 -81 -66 -32 -145 -115 -180 -189
            l-27 -58 -3 -345 -3 -346 31 -42 c93 -129 321 -242 595 -294 108 -20 149 -23
            415 -23 263 0 308 3 411 22 277 53 506 166 599 295 l30 41 0 159 c0 145 -2
            160 -20 178 -13 13 -33 20 -60 20 -71 0 -80 -19 -80 -163 l0 -123 -32 -33
            c-129 -132 -369 -211 -701 -230 -448 -27 -827 61 -996 230 l-31 31 0 241 c0
            272 8 343 45 399 46 69 86 87 322 140 119 26 224 48 233 48 8 0 37 -21 63 -48
            l47 -47 -35 -275 c-19 -151 -35 -297 -35 -324 0 -50 0 -50 98 -148 94 -94 100
            -98 142 -98 42 0 48 4 142 98 98 98 98 98 98 148 0 27 -16 173 -35 324 l-35
            275 47 47 c26 27 55 48 63 48 9 0 114 -22 233 -48 236 -53 276 -71 322 -141
            15 -22 30 -64 36 -102 13 -79 37 -109 89 -109 26 0 43 7 59 24 21 22 23 32 19
            98 -7 131 -94 263 -211 321 -60 29 -525 137 -590 137 -36 0 -47 -8 -121 -80
            -70 -68 -87 -80 -116 -80 -29 0 -46 12 -116 80 -80 79 -82 80 -130 79 -27 -1
            -157 -26 -289 -56z m572 -530 l32 -258 -34 -35 -35 -35 -35 35 -34 35 32 258
            c17 141 34 257 37 257 3 0 20 -116 37 -257z"/>
            <path d="M888 2541 c-145 -47 -269 -174 -312 -320 -22 -77 -22 -365 0 -442 43
            -148 168 -274 315 -320 82 -26 216 -26 298 0 147 46 272 172 315 320 22 77 22
            365 0 442 -43 148 -168 274 -315 320 -81 25 -222 25 -301 0z m300 -186 c100
            -54 148 -131 165 -266 23 -181 -17 -331 -108 -404 -75 -61 -101 -70 -205 -70
            -79 0 -102 4 -137 23 -108 57 -158 135 -176 272 -13 109 1 247 32 307 61 120
            157 176 296 170 66 -3 90 -8 133 -32z"/>
            <path d="M3928 2541 c-145 -47 -269 -174 -312 -320 -12 -40 -16 -99 -16 -221
            0 -122 4 -181 16 -221 43 -148 168 -274 315 -320 82 -26 216 -26 298 0 147 46
            272 172 315 320 22 77 22 365 0 442 -43 148 -168 274 -315 320 -81 25 -222 25
            -301 0z m300 -186 c100 -54 148 -131 165 -266 23 -181 -17 -331 -108 -404 -75
            -61 -101 -70 -205 -70 -79 0 -102 4 -137 23 -108 57 -158 135 -176 272 -13
            109 1 247 32 307 61 120 157 176 296 170 66 -3 90 -8 133 -32z"/>
            <path d="M2500 2300 c-19 -19 -20 -33 -20 -217 l0 -197 -200 -201 c-196 -197
            -200 -202 -200 -243 0 -56 26 -82 82 -82 41 0 46 4 220 177 l178 177 178 -177
            c174 -173 179 -177 220 -177 56 0 82 26 82 82 0 41 -4 46 -200 243 l-200 201
            0 197 c0 184 -1 198 -20 217 -13 13 -33 20 -60 20 -27 0 -47 -7 -60 -20z"/>
            <path d="M505 1383 c-139 -32 -262 -66 -293 -81 -66 -32 -145 -115 -180 -189
            l-27 -58 -3 -345 -3 -346 31 -42 c93 -129 321 -242 595 -294 108 -20 149 -23
            415 -23 263 0 308 3 411 22 277 53 506 166 599 295 l30 41 0 159 c0 145 -2
            160 -20 178 -27 27 -93 27 -120 0 -18 -18 -20 -33 -20 -144 l0 -123 -48 -45
            c-155 -145 -434 -219 -832 -219 -390 0 -672 73 -826 214 l-54 49 0 242 c0 271
            8 342 45 398 46 69 86 87 322 140 119 26 224 48 233 48 8 0 37 -21 63 -48 l47
            -47 -35 -275 c-19 -151 -35 -297 -35 -324 0 -50 0 -50 98 -148 94 -94 100 -98
            142 -98 42 0 48 4 142 98 98 98 98 98 98 148 0 27 -16 173 -35 324 l-35 275
            47 47 c26 27 54 48 63 48 24 0 413 -88 446 -101 80 -30 130 -96 145 -191 13
            -78 37 -108 89 -108 26 0 43 7 59 24 21 22 23 32 19 98 -7 131 -94 263 -211
            321 -60 29 -525 137 -590 137 -36 0 -47 -8 -121 -80 -70 -68 -87 -80 -116 -80
            -29 0 -46 12 -116 80 -80 79 -82 80 -130 79 -27 -1 -157 -26 -289 -56z m572
            -530 l32 -258 -34 -35 -35 -35 -35 35 -34 35 32 258 c17 141 34 257 37 257 3
            0 20 -116 37 -257z"/>
            <path d="M3545 1383 c-139 -32 -262 -66 -293 -81 -66 -32 -145 -115 -180 -189
            l-27 -58 -3 -345 -3 -346 31 -42 c93 -129 321 -242 595 -294 108 -20 149 -23
            415 -23 263 0 308 3 411 22 277 53 506 166 599 295 l30 41 0 159 c0 145 -2
            160 -20 178 -27 27 -93 27 -120 0 -18 -18 -20 -33 -20 -144 l0 -123 -48 -45
            c-155 -145 -434 -219 -832 -219 -390 0 -672 73 -826 214 l-54 49 0 242 c0 271
            8 342 45 398 46 69 86 87 322 140 119 26 224 48 233 48 8 0 37 -21 63 -48 l47
            -47 -35 -275 c-19 -151 -35 -297 -35 -324 0 -50 0 -50 98 -148 94 -94 100 -98
            142 -98 42 0 48 4 142 98 98 98 98 98 98 148 0 27 -16 173 -35 324 l-35 275
            47 47 c26 27 54 48 63 48 24 0 413 -88 446 -101 80 -30 130 -96 145 -191 13
            -78 37 -108 89 -108 26 0 43 7 59 24 21 22 23 32 19 98 -7 131 -94 263 -211
            321 -60 29 -525 137 -590 137 -36 0 -47 -8 -121 -80 -70 -68 -87 -80 -116 -80
            -29 0 -46 12 -116 80 -80 79 -82 80 -130 79 -27 -1 -157 -26 -289 -56z m572
            -530 l32 -258 -34 -35 -35 -35 -35 35 -34 35 32 258 c17 141 34 257 37 257 3
            0 20 -116 37 -257z"/>
        </g>
    </symbol>

    <symbol id="add-student" viewBox="0 0 512.000000 512.000000">
        <g transform="translate(0.000000,512.000000) scale(0.100000,-0.100000)">
            <path d="M1545 4274 c-868 -289 -973 -327 -997 -354 l-28 -30 0 -851 0 -851
            34 -34 c30 -30 40 -34 86 -34 46 0 56 4 86 34 l34 34 0 740 0 740 378 -125
            c207 -69 379 -127 380 -129 2 -1 -14 -33 -36 -71 -110 -189 -162 -388 -162
            -623 0 -267 63 -477 208 -695 82 -124 219 -261 335 -335 47 -30 86 -57 86 -60
            0 -3 -52 -26 -117 -53 -130 -52 -292 -144 -410 -233 -212 -160 -462 -452 -462
            -541 0 -76 47 -123 125 -123 60 0 82 16 147 110 237 340 635 589 1056 660 156
            27 388 27 544 0 419 -71 821 -322 1055 -660 66 -94 88 -110 148 -110 78 0 125
            47 125 123 0 93 -272 406 -489 561 -119 86 -285 177 -400 222 -56 21 -101 41
            -100 44 0 3 39 30 86 60 166 106 350 320 431 500 42 95 79 213 98 315 24 135
            16 386 -19 516 -32 121 -76 231 -128 321 -22 38 -39 71 -37 72 1 2 216 74 475
            160 533 178 523 173 523 266 0 98 67 69 -1028 434 -669 223 -990 326 -1017
            325 -24 0 -424 -129 -1010 -325z m1778 -180 c411 -137 747 -251 747 -254 0 -3
            -340 -118 -755 -257 l-755 -251 -755 251 c-415 139 -755 254 -755 257 0 7
            1503 509 1515 506 6 -2 346 -115 758 -252z m-1173 -889 c206 -69 391 -125 410
            -125 19 0 204 56 410 125 206 69 376 121 379 117 4 -4 20 -28 37 -52 72 -103
            132 -257 154 -393 18 -110 8 -321 -20 -417 -116 -403 -467 -696 -870 -728
            -304 -25 -579 76 -791 287 -123 124 -211 273 -261 446 -20 70 -23 102 -23 250
            0 192 16 273 81 414 25 54 112 201 119 201 0 0 169 -56 375 -125z"/>
        </g>
    </symbol>

    <symbol  id="list-organization" viewBox="0 0 512.000000 511.000000">
        <g transform="translate(0.000000,511.000000) scale(0.100000,-0.100000)">
            <path d="M1981 5094 c-20 -25 -21 -39 -21 -255 l0 -229 -145 0 c-142 0 -147
            -1 -170 -25 l-25 -24 0 -401 0 -400 -79 0 -80 0 -3 231 -3 231 -28 24 c-23 20
            -39 24 -88 24 l-59 0 0 149 0 150 -26 20 c-26 21 -36 21 -531 21 l-504 0 -24
            -25 c-24 -23 -25 -28 -25 -170 l0 -145 -60 0 c-51 0 -65 -4 -85 -25 l-25 -24
            0 -961 0 -960 90 0 90 0 0 895 0 895 550 0 550 0 0 -555 0 -555 90 0 90 0 0
            300 0 300 250 0 250 0 0 -255 0 -255 90 0 90 0 0 935 0 935 420 0 420 0 0
            -935 0 -935 90 0 90 0 0 255 0 255 250 0 250 0 0 -510 0 -510 90 0 90 0 0 765
            0 765 550 0 550 0 0 -895 0 -895 90 0 90 0 0 960 0 961 -25 24 c-20 21 -34 25
            -85 25 l-60 0 0 149 0 150 -26 20 c-26 21 -36 21 -529 21 -493 0 -503 0 -529
            -21 l-26 -20 0 -150 0 -149 -59 0 c-49 0 -65 -4 -88 -24 l-28 -24 -3 -231 -3
            -231 -80 0 -79 0 0 400 0 401 -25 24 c-23 24 -28 25 -170 25 l-145 0 0 229 c0
            216 -1 230 -21 255 l-20 26 -559 0 -559 0 -20 -26z m-881 -744 l0 -80 -375 0
            -375 0 0 80 0 80 375 0 375 0 0 -80z m860 -255 l0 -335 -80 0 -80 0 0 335 0
            335 80 0 80 0 0 -335z m1360 0 l0 -335 -80 0 -80 0 0 335 0 335 80 0 80 0 0
            -335z m1450 255 l0 -80 -375 0 -375 0 0 80 0 80 375 0 375 0 0 -80z"/>
            <path d="M2300 4690 l0 -90 90 0 90 0 0 90 0 90 -90 0 -90 0 0 -90z"/>
            <path d="M2640 4690 l0 -90 90 0 90 0 0 90 0 90 -90 0 -90 0 0 -90z"/>
            <path d="M2300 4350 l0 -90 90 0 90 0 0 90 0 90 -90 0 -90 0 0 -90z"/>
            <path d="M2640 4350 l0 -90 90 0 90 0 0 90 0 90 -90 0 -90 0 0 -90z"/>
            <path d="M2300 4010 l0 -90 90 0 90 0 0 90 0 90 -90 0 -90 0 0 -90z"/>
            <path d="M2640 4010 l0 -90 90 0 90 0 0 90 0 90 -90 0 -90 0 0 -90z"/>
            <path d="M340 3840 l0 -90 385 0 385 0 0 90 0 90 -385 0 -385 0 0 -90z"/>
            <path d="M4010 3840 l0 -90 175 0 175 0 0 90 0 90 -175 0 -175 0 0 -90z"/>
            <path d="M4520 3840 l0 -90 175 0 175 0 0 90 0 90 -175 0 -175 0 0 -90z"/>
            <path d="M2300 3670 l0 -90 90 0 90 0 0 90 0 90 -90 0 -90 0 0 -90z"/>
            <path d="M2640 3670 l0 -90 90 0 90 0 0 90 0 90 -90 0 -90 0 0 -90z"/>
            <path d="M340 3500 l0 -90 385 0 385 0 0 90 0 90 -385 0 -385 0 0 -90z"/>
            <path d="M4010 3500 l0 -90 175 0 175 0 0 90 0 90 -175 0 -175 0 0 -90z"/>
            <path d="M4520 3500 l0 -90 175 0 175 0 0 90 0 90 -175 0 -175 0 0 -90z"/>
            <path d="M1620 3330 l0 -90 90 0 90 0 0 90 0 90 -90 0 -90 0 0 -90z"/>
            <path d="M2300 3330 l0 -90 90 0 90 0 0 90 0 90 -90 0 -90 0 0 -90z"/>
            <path d="M2640 3330 l0 -90 90 0 90 0 0 90 0 90 -90 0 -90 0 0 -90z"/>
            <path d="M3320 3330 l0 -90 90 0 90 0 0 90 0 90 -90 0 -90 0 0 -90z"/>
            <path d="M674 3065 c-82 -18 -137 -47 -201 -107 -113 -107 -136 -182 -131
            -422 l3 -172 35 -71 35 -71 -54 -5 c-127 -13 -265 -117 -328 -245 l-28 -57 -3
            -465 -3 -466 26 -24 c25 -24 34 -25 171 -28 l144 -3 0 -375 0 -374 -170 0
            -170 0 0 -90 0 -90 2560 0 2560 0 0 90 0 90 -170 0 -170 0 0 374 0 375 144 3
            c137 3 146 4 170 27 l26 24 0 447 c0 416 -1 451 -19 503 -51 148 -197 269
            -343 284 l-53 5 35 71 35 71 3 172 c5 241 -18 315 -133 423 -198 187 -522 143
            -662 -90 -48 -81 -63 -153 -63 -309 0 -150 14 -227 56 -297 l25 -43 -33 0
            c-80 0 -201 -51 -274 -114 -57 -49 -100 -117 -174 -278 l-64 -136 -68 145
            c-77 164 -110 216 -170 268 -62 54 -171 104 -244 111 l-61 7 23 41 c47 85 56
            145 52 324 -3 164 -4 168 -35 235 -88 186 -280 284 -477 244 -139 -29 -247
            -114 -309 -245 -31 -66 -32 -71 -35 -234 -4 -179 5 -239 52 -324 l23 -41 -61
            -7 c-73 -7 -182 -57 -244 -111 -60 -52 -93 -104 -170 -268 l-68 -145 -64 136
            c-74 161 -117 229 -174 278 -73 63 -194 114 -274 114 l-33 0 25 43 c14 23 32
            69 40 102 22 80 22 309 1 390 -42 161 -175 284 -339 314 -73 13 -95 13 -172
            -4z m203 -197 c54 -25 107 -87 127 -146 21 -61 22 -263 1 -321 -32 -90 -101
            -153 -191 -171 -84 -18 -154 6 -221 75 -64 66 -73 96 -73 255 0 156 9 190 69
            253 81 85 184 105 288 55z m1783 5 c50 -20 99 -70 126 -128 21 -45 24 -64 24
            -185 0 -120 -3 -140 -24 -185 -42 -92 -128 -148 -226 -148 -98 0 -184 56 -226
            148 -21 45 -24 65 -24 185 0 120 3 140 24 185 36 79 97 126 191 148 28 7 94
            -3 135 -20z m1761 11 c41 -12 66 -28 106 -69 64 -66 73 -96 73 -255 0 -159 -9
            -189 -73 -255 -41 -42 -64 -57 -109 -70 -128 -37 -257 33 -303 166 -20 57 -20
            261 0 318 30 85 92 145 173 167 62 17 69 17 133 -2z m-3171 -880 c31 -17 70
            -50 88 -75 28 -37 391 -789 392 -811 0 -5 -49 -8 -110 -8 l-110 0 -164 328
            c-90 180 -171 334 -179 340 -8 7 -31 16 -51 19 -30 5 -40 1 -66 -25 l-30 -30
            0 -781 0 -781 -80 0 -80 0 0 425 0 425 -90 0 -90 0 0 -425 0 -425 -80 0 -80 0
            0 810 0 810 -90 0 -90 0 0 -345 0 -345 -80 0 -80 0 0 372 c0 356 1 373 21 415
            24 50 95 115 141 131 22 7 173 10 443 9 l410 -2 55 -31z m1778 5 c34 -17 76
            -48 95 -69 18 -21 77 -134 132 -250 l99 -211 -31 -67 c-17 -37 -41 -91 -54
            -119 -13 -29 -27 -53 -30 -53 -3 0 -62 115 -130 256 -137 283 -157 310 -218
            300 -21 -3 -45 -16 -58 -31 l-23 -26 0 -780 0 -779 -80 0 -80 0 0 380 0 380
            -90 0 -90 0 0 -380 0 -380 -80 0 -80 0 0 816 c0 839 0 841 -39 871 -24 18 -86
            16 -109 -4 -12 -10 -81 -153 -154 -319 l-133 -301 -24 51 c-13 28 -37 81 -54
            118 l-31 67 99 211 c100 213 141 276 199 308 73 40 82 40 497 41 l406 1 61
            -31z m1744 19 c51 -15 121 -77 147 -131 20 -42 21 -59 21 -415 l0 -372 -80 0
            -80 0 0 385 0 385 -90 0 -90 0 0 -850 0 -850 -80 0 -80 0 0 425 0 425 -90 0
            -90 0 0 -425 0 -425 -80 0 -80 0 0 825 0 826 -25 24 c-30 31 -96 34 -123 7
            -10 -10 -91 -183 -181 -385 l-163 -367 -109 0 c-60 0 -109 3 -109 6 0 22 370
            788 396 821 21 25 58 54 96 72 l61 31 395 0 c274 0 407 -4 434 -12z m-2642
            -1258 l0 -590 -465 0 -465 0 0 568 1 567 92 -180 c66 -130 99 -183 117 -192
            37 -19 459 -18 504 1 29 12 40 29 95 152 35 77 75 167 89 201 15 35 28 63 30
            63 1 0 2 -265 2 -590z m1790 -5 l0 -585 -465 0 -465 0 1 568 0 567 90 -178
            c82 -162 93 -180 125 -193 29 -12 80 -14 269 -12 204 3 235 5 252 20 10 10 57
            103 103 208 46 104 85 190 87 190 2 0 3 -263 3 -585z"/>
            <path d="M1620 2990 l0 -90 90 0 90 0 0 90 0 90 -90 0 -90 0 0 -90z"/>
            <path d="M3320 2990 l0 -90 90 0 90 0 0 90 0 90 -90 0 -90 0 0 -90z"/>
            <path d="M1620 2650 l0 -90 90 0 90 0 0 90 0 90 -90 0 -90 0 0 -90z"/>
            <path d="M3320 2650 l0 -90 90 0 90 0 0 90 0 90 -90 0 -90 0 0 -90z"/>
            <path d="M1620 2300 l0 -90 90 0 90 0 0 90 0 90 -90 0 -90 0 0 -90z"/>
            <path d="M3320 2300 l0 -90 90 0 90 0 0 90 0 90 -90 0 -90 0 0 -90z"/>
        </g>
    </symbol>
</svg>