<svg xmlns="http://www.w3.org/2000/svg">
    <symbol id="plus" viewBox="0 0 512.000000 512.000000">
        <g transform="translate(0.000000,512.000000) scale(0.100000,-0.100000)">
            <path  
            d="M2442 5095 c-29 -15 -64 -41 -77 -59 -58 -76 -55 -12 -55 -1166 l0
            -1060 -1073 -2 -1074 -3 -49 -30 c-30 -19 -60 -49 -79 -79 -27 -45 -30 -57
            -30 -136 0 -79 3 -91 30 -136 19 -30 49 -60 79 -79 l49 -30 1074 -3 1073 -2 2
            -1073 3 -1074 30 -49 c19 -30 49 -60 79 -79 45 -27 57 -30 136 -30 79 0 91 3
            136 30 30 19 60 49 79 79 l30 49 3 1074 2 1073 1073 2 1074 3 49 30 c30 19 60
            49 79 79 27 45 30 57 30 136 0 79 -3 91 -30 136 -19 30 -49 60 -79 79 l-49 30
            -1074 3 -1073 2 -2 1073 -3 1074 -30 49 c-46 74 -109 108 -204 112 -66 3 -83
            0 -129 -23z"/>
        </g>
    </symbol>

    <symbol id="arrow" viewBox="0 0 512.000000 512.000000">
        <g transform="translate(0.000000,512.000000) scale(0.100000,-0.100000)">
            <path d="M1724 4046 c-45 -20 -99 -80 -112 -125 -23 -77 -9 -164 36 -215 9
            -10 311 -271 670 -578 358 -308 652 -562 651 -566 0 -4 -300 -263 -667 -577
            -726 -621 -712 -606 -712 -710 0 -69 38 -144 92 -181 50 -35 152 -45 209 -21
            20 8 384 312 810 676 850 727 829 706 829 815 0 105 23 82 -810 798 -421 362
            -783 666 -806 678 -47 24 -142 27 -190 6z"/>
        </g>
    </symbol>
    <symbol id="arrow-down" viewBox="0 0 512.000000 512.000000">
        <g transform="translate(0.000000,512.000000) scale(0.100000,-0.100000)" fill="#1E5DD1">
            <path d="M385 4069 c-65 -15 -94 -35 -219 -158 -141 -139 -166 -181 -166 -286
            0 -138 -79 -50 1228 -1357 1291 -1292 1214 -1222 1337 -1221 121 1 59 -56
            1335 1225 641 644 1176 1189 1190 1212 22 36 25 52 25 136 0 85 -3 100 -27
            140 -14 25 -80 97 -145 161 -139 137 -171 153 -285 147 -42 -2 -90 -12 -113
            -22 -28 -13 -342 -320 -1013 -990 l-972 -971 -973 972 c-773 773 -981 976
            -1017 992 -56 24 -133 32 -185 20z"/>
        </g>
    </symbol>
    <symbol id="arrow-up" viewBox="0 0 512.000000 512.000000" fill="#292929">
        <g transform="translate(0.000000,512.000000) scale(0.100000,-0.100000)">
            <path d="M2487 4060 c-21 -6 -52 -17 -70 -26 -18 -9 -557 -541 -1199 -1183
            -1297 -1295 -1218 -1208 -1218 -1346 0 -105 25 -147 166 -287 138 -136 182
            -161 284 -161 128 0 67 -55 1138 1016 l972 972 978 -976 c1083 -1082 1007
            -1015 1142 -1013 100 1 143 26 275 156 137 136 165 185 165 293 0 53 -6 82
            -24 120 -19 40 -250 275 -1202 1226 -770 768 -1192 1182 -1216 1193 -45 20
            -141 28 -191 16z"/>
        </g>
    </symbol>

    <!-- <symbol id="arrow-down" viewBox="0 0 512.000000 512.000000">
        <g transform="translate(0.000000,512.000000) scale(0.100000,-0.100000)">
            <path d="M245 4007 c-90 -30 -171 -102 -216 -192 -21 -43 -24 -64 -24 -155 0
            -96 2 -110 28 -160 24 -45 242 -268 1165 -1192 944 -945 1147 -1143 1197
            -1170 57 -31 65 -33 165 -33 100 0 108 2 165 33 51 27 252 224 1201 1175 905
            906 1145 1152 1165 1192 21 43 24 64 24 155 0 96 -3 110 -29 162 -35 69 -93
            127 -166 165 -50 25 -65 28 -155 28 -175 0 -75 87 -1207 -1044 l-998 -996
            -997 996 c-1121 1118 -1032 1041 -1193 1046 -50 1 -101 -3 -125 -10z"/>
        </g>
    </symbol> -->

    <symbol id="show" viewBox="0 0 512.000000 512.000000">
        <g transform="translate(0.000000,512.000000) scale(0.100000,-0.100000)">
            <path d="M2335 4009 c-653 -53 -1267 -340 -1727 -806 -140 -142 -226 -244
            -317 -378 -111 -163 -131 -204 -131 -266 0 -50 6 -64 61 -154 210 -341 545
            -677 888 -889 329 -203 708 -339 1101 -392 172 -24 528 -24 700 0 393 54 773
            189 1100 391 344 214 679 549 889 890 55 90 61 104 61 154 0 62 -20 103 -131
            266 -91 134 -177 236 -317 378 -570 577 -1368 872 -2177 806z m550 -343 c425
            -62 813 -226 1160 -490 167 -127 393 -367 515 -546 51 -75 53 -68 -68 -229
            -394 -525 -971 -859 -1647 -953 -117 -16 -455 -16 -570 0 -585 83 -1068 326
            -1463 736 -102 106 -274 325 -287 365 -19 62 330 460 550 627 359 273 774 445
            1195 493 52 6 111 13 130 15 69 8 387 -4 485 -18z"/>
            <path d="M2360 3546 c-305 -64 -564 -264 -700 -540 -79 -160 -95 -237 -95
            -446 0 -209 16 -286 95 -446 142 -287 420 -494 733 -544 110 -18 330 -8 432
            19 308 83 582 339 685 641 68 201 68 459 0 660 -103 302 -376 557 -685 641
            -102 27 -364 36 -465 15z m357 -332 c233 -51 442 -260 497 -494 20 -83 20
            -237 1 -319 -32 -134 -126 -279 -237 -367 -341 -268 -832 -155 -1024 236 -19
            37 -40 96 -49 131 -19 82 -19 236 0 317 20 84 75 195 130 262 168 206 420 293
            682 234z"/>
        </g>
    </symbol>

    <symbol id="bin" viewBox="0 0 512.000000 512.000000">
        <g transform="translate(0.000000,512.000000) scale(0.100000,-0.100000)">
            <path d="M1813 5100 c-134 -48 -237 -152 -284 -288 -15 -42 -19 -83 -19 -174
            l0 -118 -418 0 c-389 0 -423 -1 -475 -19 -104 -36 -189 -105 -251 -204 -82
            -132 -74 -348 19 -485 41 -60 131 -135 190 -158 l40 -15 134 -1613 c73 -888
            137 -1636 142 -1662 29 -159 158 -301 318 -350 69 -21 2633 -21 2702 0 73 22
            122 51 183 106 62 58 120 161 135 243 5 27 69 775 142 1662 l134 1614 40 15
            c59 23 149 98 190 158 93 137 101 353 19 485 -62 99 -147 168 -251 204 -52 18
            -86 19 -475 19 l-418 0 0 118 c0 91 -4 132 -19 174 -47 138 -151 242 -288 289
            -54 18 -88 19 -747 18 -647 0 -694 -2 -743 -19z m1415 -305 c56 -34 74 -75 80
            -181 l5 -94 -753 0 -753 0 5 94 c7 127 37 176 123 197 17 4 307 7 645 6 596
            -2 616 -3 648 -22z m1202 -602 c46 -28 70 -71 70 -123 0 -52 -24 -95 -70 -123
            l-35 -22 -1835 0 c-1817 0 -1835 0 -1868 20 -114 69 -88 234 42 266 17 4 848
            6 1846 6 l1815 -2 35 -22z m-240 -580 c0 -5 -59 -723 -131 -1598 -104 -1260
            -134 -1597 -147 -1624 -21 -43 -56 -69 -108 -81 -52 -12 -2436 -12 -2488 0
            -52 12 -87 38 -108 81 -13 27 -43 364 -147 1624 -72 875 -131 1593 -131 1598
            0 4 734 7 1630 7 897 0 1630 -3 1630 -7z"/>
            <path d="M1576 3301 c-52 -34 -66 -68 -66 -156 0 -44 34 -612 74 -1262 81
            -1298 72 -1220 142 -1264 45 -27 128 -26 170 3 51 35 64 66 64 155 0 43 -34
            610 -74 1261 -72 1160 -74 1183 -97 1216 -13 19 -35 41 -50 50 -38 23 -126 21
            -163 -3z"/>
            <path d="M2476 3301 c-15 -10 -37 -32 -47 -47 -18 -28 -19 -72 -19 -1294 0
            -1222 1 -1266 19 -1294 31 -46 69 -66 131 -66 62 0 100 20 131 66 18 28 19 72
            19 1294 0 1222 -1 1266 -19 1294 -31 46 -69 66 -131 66 -37 0 -64 -6 -84 -19z"/>
            <path d="M3376 3301 c-70 -46 -61 37 -142 -1264 -40 -650 -74 -1218 -74 -1262
            0 -88 14 -122 66 -156 39 -26 126 -26 168 0 70 44 61 -34 142 1264 40 650 74
            1218 74 1262 0 88 -14 122 -66 156 -40 26 -129 26 -168 0z"/>
        </g>
    </symbol>

    <symbol id="edit" viewBox="0 0 512.000000 512.000000">
        <g transform="translate(0.000000,512.000000) scale(0.100000,-0.100000)">
            <path d="M4325 5100 c-98 -11 -199 -51 -280 -113 -57 -43 -2322 -2306 -2345
            -2342 -23 -38 -321 -1106 -322 -1156 -1 -75 56 -132 131 -131 49 1 1119 299
            1156 322 17 11 546 536 1177 1167 830 831 1157 1166 1187 1212 67 105 83 160
            89 296 4 110 2 126 -23 200 -14 44 -44 107 -65 140 -47 72 -255 279 -325 322
            -104 65 -249 97 -380 83z m200 -289 c34 -15 84 -57 167 -139 141 -142 163
            -180 163 -292 0 -103 -28 -161 -133 -270 l-81 -85 -298 297 -298 298 45 46
            c129 132 214 177 320 171 38 -2 86 -13 115 -26z m-1002 -1903 l-928 -928 -297
            297 -298 298 927 927 928 928 297 -297 298 -298 -927 -927z m-1193 -1049 c0
            -6 -622 -180 -627 -176 -1 2 37 145 85 320 l87 317 228 -228 c125 -125 227
            -229 227 -233z"/>
            <path d="M500 4594 c-227 -48 -427 -242 -485 -469 -13 -52 -15 -280 -15 -1820
            0 -1748 0 -1761 21 -1835 57 -208 229 -381 444 -447 57 -17 144 -18 1965 -18
            l1905 0 80 28 c102 36 179 83 250 153 97 96 163 222 184 354 7 40 11 294 11
            665 0 581 -1 601 -20 633 -42 69 -120 90 -181 49 -71 -47 -69 -23 -69 -696 0
            -674 1 -659 -69 -762 -21 -29 -62 -70 -92 -91 -106 -74 52 -68 -2021 -66
            l-1863 3 -62 29 c-82 37 -161 120 -194 201 l-24 60 -3 1705 c-2 1246 0 1721 8
            1765 24 121 97 215 210 269 l65 31 630 5 c595 5 632 6 661 24 89 54 84 185 -9
            229 -32 15 -95 17 -649 16 -484 0 -627 -4 -678 -15z"/>
        </g>
    </symbol>

    <symbol id="hide" viewBox="0 0 512.000000 512.000000">
        <g transform="translate(0.000000,512.000000) scale(0.100000,-0.100000)">
            <path d="M4235 4461 c-16 -10 -146 -136 -288 -278 l-258 -259 -121 48 c-218
            88 -440 143 -689 174 -189 23 -581 15 -759 -15 -378 -65 -702 -188 -1024 -388
            -380 -236 -726 -571 -985 -953 -101 -149 -111 -169 -111 -230 0 -59 10 -80
            101 -216 237 -353 590 -704 930 -924 46 -30 86 -56 89 -57 2 -2 -100 -108
            -227 -236 -127 -128 -236 -242 -242 -254 -6 -12 -11 -46 -11 -75 0 -97 61
            -158 158 -158 29 0 65 6 80 14 33 18 3575 3562 3591 3593 6 12 11 46 11 75 0
            63 -24 109 -72 138 -44 27 -132 27 -173 1z m-1350 -651 c158 -22 328 -63 459
            -111 l88 -32 -158 -158 c-147 -147 -160 -158 -179 -145 -105 68 -225 117 -345
            141 -117 24 -343 17 -449 -14 -330 -96 -577 -345 -673 -677 -31 -108 -33 -380
            -4 -489 24 -89 73 -205 114 -270 l31 -50 -199 -199 -199 -200 -93 59 c-331
            209 -660 520 -878 832 l-43 62 35 53 c79 119 210 272 367 429 173 172 284 264
            459 380 507 336 1083 470 1667 389z m-142 -646 c47 -15 127 -51 127 -57 0 -1
            -193 -195 -430 -432 l-429 -429 -25 54 c-39 85 -56 166 -56 265 0 202 88 377
            255 503 157 118 376 156 558 96z"/>
            <path d="M4132 3467 c-61 -62 -112 -117 -111 -122 0 -6 39 -39 86 -75 176
            -133 483 -458 620 -657 l36 -53 -46 -68 c-127 -186 -407 -483 -597 -636 -470
            -375 -992 -566 -1550 -567 -184 0 -289 9 -455 41 l-100 20 -127 -127 c-110
            -110 -145 -153 -123 -153 3 0 58 -13 123 -30 251 -63 349 -74 667 -75 324 0
            419 10 665 71 700 172 1345 639 1789 1294 101 149 111 169 111 230 0 61 -10
            81 -111 230 -180 266 -409 516 -655 716 -50 41 -95 74 -100 74 -5 0 -60 -51
            -122 -113z"/>
            <path d="M3336 2671 l-140 -140 -17 -85 c-52 -259 -248 -455 -505 -505 l-84
            -16 -141 -141 c-78 -78 -139 -146 -136 -151 4 -6 40 -16 81 -23 108 -18 329
            -8 425 20 327 94 576 343 672 671 39 135 35 492 -6 506 -6 2 -73 -60 -149
            -136z"/>
        </g>
    </symbol>

    <symbol id="search" viewBox="0 0 512.000000 512.000000">
        <g transform="translate(0.000000,512.000000) scale(0.100000,-0.100000)">
            <path d="M1749 4800 c-266 -25 -528 -120 -754 -273 -118 -80 -322 -284 -402
            -402 -277 -409 -350 -895 -207 -1375 14 -47 56 -148 94 -225 227 -462 665
            -784 1170 -860 139 -22 373 -19 513 5 128 22 274 66 382 115 l72 33 709 -709
            c804 -804 756 -764 909 -764 126 0 154 17 342 207 184 186 198 210 198 333 0
            153 40 105 -764 909 l-709 709 33 71 c94 209 136 408 136 657 0 162 -10 245
            -47 392 -148 594 -657 1061 -1264 1160 -121 20 -301 28 -411 17z m377 -345
            c432 -83 798 -397 948 -813 93 -260 93 -574 0 -834 -125 -348 -416 -639 -762
            -762 -179 -64 -430 -88 -608 -58 -176 29 -361 103 -510 202 -100 67 -266 232
            -331 330 -149 222 -217 444 -217 705 0 214 38 372 134 565 85 170 242 351 400
            462 164 115 390 200 595 222 72 7 268 -3 351 -19z m1767 -3227 l-108 -108
            -441 441 -440 440 105 108 106 107 442 -440 443 -441 -107 -107z m450 -236
            l107 -107 -108 -108 -107 -107 -110 110 -110 110 105 105 c58 58 107 105 110
            105 3 0 54 -48 113 -108z"/>
            <path d="M1113 2799 c-57 -28 -86 -76 -86 -144 0 -67 19 -98 120 -196 182
            -176 393 -273 649 -299 123 -13 165 -4 211 40 61 60 67 151 16 218 -33 44 -69
            58 -169 66 -112 9 -184 29 -292 82 -76 37 -111 62 -192 140 -124 119 -170 136
            -257 93z"/>
        </g>
    </symbol>

    <symbol id="list" viewBox="0 0 512.000000 512.000000">
        <g transform="translate(0.000000,512.000000) scale(0.100000,-0.100000)">
            <path d="M392 3980 c-48 -30 -72 -75 -72 -140 0 -65 24 -110 72 -140 32 -20
            53 -20 1208 -20 1155 0 1176 0 1208 20 48 30 72 75 72 140 0 65 -24 110 -72
            140 -32 20 -53 20 -1208 20 -1155 0 -1176 0 -1208 -20z"/>
            <path d="M4594 3210 c-18 -6 -47 -27 -65 -47 -19 -21 -324 -392 -678 -825
            -354 -434 -647 -788 -651 -788 -4 0 -159 183 -345 406 -186 224 -353 415 -369
            425 -43 26 -130 25 -174 -1 -48 -29 -72 -75 -72 -138 0 -29 5 -63 11 -74 26
            -48 850 -1025 874 -1036 34 -16 117 -15 151 0 17 8 319 370 764 913 405 495
            744 911 753 925 11 16 17 44 17 81 0 61 -22 105 -70 141 -30 22 -103 31 -146
            18z"/>
            <path d="M392 3180 c-48 -30 -72 -75 -72 -140 0 -65 24 -110 72 -140 32 -20
            53 -20 1208 -20 1155 0 1176 0 1208 20 48 30 72 75 72 140 0 65 -24 110 -72
            140 -32 20 -53 20 -1208 20 -1155 0 -1176 0 -1208 -20z"/>
            <path d="M392 2380 c-48 -30 -72 -75 -72 -140 0 -65 24 -110 72 -140 32 -19
            52 -20 648 -20 596 0 616 1 648 20 48 30 72 75 72 140 0 65 -24 110 -72 140
            -32 19 -52 20 -648 20 -596 0 -616 -1 -648 -20z"/>
        </g>
    </symbol>

    <symbol id="settings" viewBox="0 0 512.000000 512.000000">
        <g transform="translate(0.000000,512.000000) scale(0.100000,-0.100000)">
            <path d="M2265 5106 c-108 -34 -209 -109 -264 -194 -48 -76 -71 -155 -78 -269
            l-6 -102 -36 -12 c-20 -6 -89 -33 -154 -61 l-117 -50 -69 64 c-163 151 -369
            186 -556 94 -60 -30 -96 -61 -242 -208 -144 -145 -177 -184 -202 -238 -88
            -187 -52 -390 97 -551 l64 -70 -35 -77 c-19 -42 -47 -111 -62 -153 l-27 -76
            -101 -6 c-214 -12 -353 -102 -439 -283 l-33 -69 0 -285 0 -285 33 -69 c86
            -181 225 -271 439 -283 l101 -6 27 -76 c15 -42 43 -111 62 -153 l35 -77 -64
            -70 c-113 -122 -161 -263 -139 -409 21 -139 50 -185 244 -380 194 -195 250
            -232 383 -252 156 -24 297 25 426 148 l57 54 118 -50 c65 -28 134 -55 154 -61
            l36 -12 6 -102 c12 -214 101 -353 283 -439 l69 -33 285 0 285 0 69 33 c181 85
            271 225 283 438 l6 101 76 28 c42 15 111 43 154 63 l77 35 58 -55 c129 -123
            271 -172 428 -148 131 20 188 58 381 252 144 145 177 184 202 238 87 187 52
            391 -97 551 l-64 69 50 117 c28 65 56 134 63 154 l12 36 101 6 c213 12 353
            102 438 283 l33 69 0 285 0 285 -33 69 c-85 181 -225 271 -438 283 l-101 6
            -12 36 c-7 20 -35 89 -63 154 l-50 117 64 69 c151 163 186 369 94 556 -30 60
            -61 96 -208 242 -145 144 -184 177 -238 202 -187 88 -390 52 -551 -97 l-70
            -64 -77 34 c-42 20 -112 48 -154 64 l-78 29 0 60 c0 191 -73 342 -210 436
            -104 71 -146 79 -433 78 -174 0 -264 -4 -292 -13z m528 -310 c22 -11 51 -37
            65 -59 26 -39 27 -48 32 -206 7 -226 1 -218 215 -286 66 -21 181 -70 255 -107
            128 -65 138 -69 192 -65 l57 3 115 112 c129 125 162 142 239 122 35 -10 67
            -37 189 -158 121 -122 148 -154 158 -189 20 -77 3 -110 -122 -239 l-112 -115
            -3 -57 c-4 -54 0 -64 65 -192 37 -74 86 -189 107 -255 68 -214 60 -208 286
            -215 158 -5 167 -6 206 -32 71 -47 78 -75 78 -298 0 -223 -7 -251 -78 -298
            -39 -26 -48 -27 -206 -32 -226 -7 -218 -1 -286 -215 -21 -66 -70 -181 -107
            -255 -65 -128 -69 -138 -65 -192 l3 -57 112 -115 c125 -129 142 -162 122 -238
            -10 -36 -37 -68 -158 -190 -122 -121 -154 -148 -189 -158 -77 -20 -110 -3
            -239 122 l-115 112 -57 3 c-54 4 -64 0 -192 -65 -74 -37 -189 -86 -255 -107
            -214 -68 -208 -60 -215 -286 -5 -158 -6 -167 -32 -206 -47 -71 -75 -78 -298
            -78 -223 0 -251 7 -298 78 -26 39 -27 48 -32 206 -7 226 -1 218 -215 286 -66
            21 -181 70 -255 107 -128 65 -138 69 -192 65 l-57 -3 -115 -112 c-129 -125
            -162 -142 -239 -122 -35 10 -67 37 -189 158 -121 122 -148 154 -158 190 -20
            76 -3 109 122 238 l112 115 3 57 c4 54 0 64 -65 192 -37 74 -86 189 -107 255
            -68 214 -60 208 -286 215 -158 5 -167 6 -206 32 -71 47 -78 75 -78 298 0 223
            7 251 78 298 39 26 48 27 206 32 226 7 218 1 286 215 21 66 70 181 107 255 65
            128 69 138 65 192 l-3 57 -112 115 c-125 129 -142 162 -122 239 10 35 37 67
            158 189 164 164 192 180 271 158 33 -9 66 -35 157 -122 114 -110 115 -111 169
            -116 52 -4 62 0 197 67 79 39 199 89 267 111 69 22 135 47 146 54 44 29 55 74
            55 218 0 157 9 197 55 243 47 47 90 54 295 52 148 -2 181 -5 213 -21z"/>
            <path d="M2412 3669 c-153 -20 -356 -96 -478 -180 -87 -59 -181 -147 -249
            -231 -79 -99 -175 -286 -205 -403 -49 -190 -49 -402 0 -590 24 -89 100 -258
            151 -331 198 -289 514 -468 864 -490 358 -23 711 134 940 418 79 99 175 286
            205 403 49 190 49 400 0 590 -30 117 -126 304 -205 403 -113 140 -232 233
            -398 312 -194 93 -411 127 -625 99z m343 -325 c291 -78 504 -289 587 -582 32
            -110 31 -295 0 -406 -81 -283 -295 -497 -579 -578 -111 -32 -295 -32 -407 0
            -286 82 -496 292 -578 578 -29 103 -31 295 -4 394 91 331 345 559 681 614 56
            8 239 -3 300 -20z"/>
        </g>
    </symbol>

    <symbol id="file" viewBox="0 0 512.000000 512.000000">
        <g transform="rotate(-10) translate(0.000000,512.000000) scale(0.100000,-0.100000)">
            <path d="M3880 4679 c-103 -14 -254 -67 -353 -125 -75 -44 -169 -136 -1103
            -1069 -880 -879 -1025 -1028 -1051 -1080 -56 -110 -68 -160 -68 -285 0 -144
            23 -226 96 -334 111 -167 281 -256 489 -256 110 0 190 19 285 68 63 32 129 95
            703 666 349 347 643 644 654 659 90 124 -18 290 -169 262 -34 -6 -113 -81
            -678 -645 -489 -488 -651 -644 -685 -659 -59 -27 -160 -28 -215 -2 -95 44
            -160 151 -153 250 2 31 14 76 26 101 16 33 281 304 1009 1031 915 913 993 988
            1059 1022 87 45 176 67 269 67 358 0 637 -331 571 -679 -9 -48 -31 -115 -52
            -160 -36 -74 -62 -101 -1263 -1304 -674 -676 -1255 -1251 -1291 -1278 -82 -62
            -202 -122 -305 -151 -107 -30 -342 -33 -450 -5 -170 45 -368 169 -470 295
            -247 305 -283 691 -94 1030 40 70 126 160 1020 1057 1047 1050 1008 1008 996
            1098 -6 47 -30 83 -78 115 -29 20 -44 23 -95 20 -50 -3 -68 -9 -100 -35 -78
            -63 -1882 -1880 -1928 -1942 -103 -140 -166 -272 -214 -450 -24 -88 -26 -113
            -27 -296 0 -223 12 -292 81 -463 258 -644 1006 -945 1646 -663 202 89 156 47
            1511 1400 687 685 1268 1273 1292 1306 112 156 165 327 165 530 0 262 -91 479
            -276 656 -86 81 -143 120 -248 170 -148 69 -343 99 -506 78z"/>
        </g>
    </symbol>

    <symbol id="document" viewBox="0 0 512.000000 512.000000">
        <g transform="translate(0.000000,512.000000) scale(0.100000,-0.100000)">
            <path d="M989 5097 c-175 -60 -306 -192 -359 -366 -20 -62 -20 -104 -20 -2171
            0 -2067 0 -2109 20 -2171 53 -174 184 -306 359 -366 l66 -22 1505 0 1505 0 66
            22 c176 60 307 193 360 367 19 64 19 96 17 1735 l-3 1670 -23 57 c-48 118 -88
            161 -606 652 -544 514 -557 526 -628 562 -109 55 -78 54 -1178 54 l-1015 -1
            -66 -22z m1963 -754 l3 -478 25 -50 c31 -64 101 -134 165 -165 l50 -25 508 -3
            507 -3 -2 -1562 -3 -1562 -30 -54 c-30 -54 -61 -83 -125 -117 -34 -18 -88 -19
            -1490 -19 l-1455 0 -50 27 c-59 31 -84 57 -116 118 l-24 45 0 2065 0 2065 24
            45 c42 81 102 126 186 141 22 3 441 7 932 8 l892 1 3 -477z m751 -107 l329
            -311 -349 -3 c-191 -1 -363 0 -381 3 -23 4 -36 14 -42 31 -6 14 -10 174 -10
            366 l0 340 63 -58 c34 -32 210 -197 390 -368z"/>
            <path d="M1346 3101 c-46 -31 -66 -69 -66 -131 0 -62 20 -100 66 -131 28 -18
            69 -19 1184 -19 1115 0 1156 1 1184 19 46 31 66 69 66 131 0 62 -20 100 -66
            131 -28 18 -69 19 -1184 19 -1115 0 -1156 -1 -1184 -19z"/>
            <path d="M1346 2301 c-46 -31 -66 -69 -66 -131 0 -62 20 -100 66 -131 28 -18
            69 -19 1184 -19 1115 0 1156 1 1184 19 46 31 66 69 66 131 0 62 -20 100 -66
            131 -28 18 -69 19 -1184 19 -1115 0 -1156 -1 -1184 -19z"/>
            <path d="M1346 1501 c-46 -31 -66 -69 -66 -131 0 -62 20 -100 66 -131 27 -18
            54 -19 444 -19 397 0 416 1 448 20 45 28 72 76 72 130 0 54 -27 102 -72 130
            -32 19 -51 20 -448 20 -390 0 -417 -1 -444 -19z"/>
        </g>
    </symbol>

    <symbol id="tick" viewBox="0 0 512.000000 512.000000">
        <g transform="translate(0.000000,512.000000) scale(0.100000,-0.100000)" fill="#1E5DD1">
            <path d="M4855 4415 c-22 -8 -42 -15 -45 -15 -2 0 -728 -723 -1612 -1607
            l-1608 -1608 -637 637 c-444 443 -649 642 -675 653 -100 41 -231 -12 -267
            -108 -16 -41 -13 -122 4 -165 19 -45 1408 -1440 1470 -1477 56 -32 97 -39 158
            -25 52 12 62 22 1745 1704 969 968 1702 1707 1713 1728 12 24 19 57 19 93 0
            94 -50 165 -134 190 -61 18 -80 18 -131 0z"/>
        </g>
    </symbol>

    <symbol id="next" viewBox="0 0 512.000000 512.000000">
        <g transform="translate(0.000000,512.000000) scale(0.100000,-0.100000)">
            <path d="M3125 4255 c-58 -20 -121 -93 -134 -155 -12 -56 -6 -99 20 -150 10
            -19 272 -289 583 -600 l566 -565 -1897 -5 -1898 -5 -45 -25 c-24 -14 -58 -45
            -75 -68 -27 -40 -30 -51 -30 -122 0 -71 3 -82 30 -122 17 -23 51 -54 75 -68
            l45 -25 1898 -5 1897 -5 -571 -570 c-385 -385 -577 -583 -590 -610 -49 -104
            -3 -231 103 -286 46 -23 134 -25 186 -4 51 22 1574 1543 1602 1601 26 53 26
            135 0 188 -13 28 -274 295 -797 817 -674 672 -784 777 -819 787 -54 15 -99 14
            -149 -3z"/>
        </g>
    </symbol>

    <symbol id="back" viewBox="0 0 512.000000 512.000000">
        <g transform="translate(0.000000,512.000000) scale(0.100000,-0.100000)">
            <path d="M1825 4250 c-58 -29 -1579 -1552 -1600 -1602 -19 -48 -19 -128 0
            -176 11 -26 247 -268 783 -806 807 -808 815 -816 902 -816 67 0 113 20 161 70
            71 72 84 161 38 250 -10 19 -272 289 -583 600 l-566 565 1897 5 1898 5 45 25
            c24 14 58 45 75 68 27 40 30 51 30 122 0 71 -3 82 -30 122 -17 23 -51 54 -75
            68 l-45 25 -1898 5 -1897 5 571 570 c385 385 577 583 590 610 49 104 3 231
            -103 286 -50 26 -140 25 -193 -1z"/>
        </g>
    </symbol>

</svg>
