<svg xmlns="http://www.w3.org/2000/svg">
    <symbol id="web" viewBox="0 0 512.000000 512.000000">
        <g transform="translate(0.000000,512.000000) scale(0.100000,-0.100000)">
            <path d="M1495 5021 c-22 -10 -54 -34 -72 -52 -64 -68 -63 -60 -63 -583 l0
            -475 -102 -54 -103 -54 -92 48 c-50 27 -98 49 -105 49 -17 0 -538 -521 -538
            -538 0 -7 22 -55 49 -105 l49 -92 -48 -84 c-53 -92 -137 -297 -165 -404 l-18
            -68 -104 -31 -103 -32 0 -386 0 -386 103 -32 104 -31 18 -68 c28 -107 112
            -312 165 -404 l48 -84 -49 -93 c-27 -51 -49 -98 -49 -105 0 -18 522 -537 540
            -537 8 1 55 23 103 49 l89 49 86 -49 c101 -56 271 -125 390 -159 l83 -24 31
            -103 32 -103 386 0 386 0 32 103 31 104 68 18 c107 28 312 112 404 165 l84 48
            93 -49 c51 -27 98 -49 105 -49 16 0 537 522 537 538 0 7 -22 55 -49 105 l-49
            92 48 83 c58 101 124 262 160 392 l27 95 79 57 79 57 335 1 c373 0 381 2 447
            71 68 72 63 -40 63 1531 0 1365 -1 1425 -19 1463 -10 22 -34 54 -52 72 -72 68
            65 63 -1771 63 -1599 0 -1665 -1 -1703 -19z m3329 -155 c50 -21 56 -51 56
            -272 l0 -194 -1680 0 -1680 0 0 194 c0 218 7 251 54 272 47 20 3201 21 3250 0z
            m56 -1700 c0 -775 -3 -1082 -11 -1106 -23 -64 80 -60 -1669 -60 -1749 0 -1646
            -4 -1669 60 -8 24 -11 331 -11 1106 l0 1074 1680 0 1680 0 0 -1074z m-3520
            472 l0 -83 -93 -62 c-350 -234 -584 -580 -679 -1005 -20 -91 -23 -129 -23
            -328 0 -246 8 -303 67 -490 180 -566 669 -991 1259 -1091 106 -18 152 -20 314
            -17 161 4 208 9 309 32 405 93 752 329 975 663 100 148 205 394 236 551 l7 32
            78 0 78 0 -28 -110 c-49 -185 -110 -324 -236 -538 l-19 -32 45 -85 45 -85
            -182 -182 -182 -182 -85 45 -86 44 -32 -19 c-216 -128 -361 -190 -543 -236
            l-110 -28 -29 -96 -30 -96 -256 0 -256 0 -30 96 -29 96 -110 28 c-178 45 -319
            104 -481 201 -45 27 -87 49 -94 49 -7 0 -48 -19 -91 -42 l-79 -43 -182 182
            -182 182 45 85 44 86 -19 32 c-128 216 -190 361 -236 543 l-28 110 -96 29 -96
            30 0 256 0 256 96 30 96 29 28 110 c46 182 108 326 236 543 l19 32 -45 85 -45
            85 183 183 182 182 79 -42 c43 -24 85 -43 92 -43 8 1 55 25 104 55 50 30 91
            54 93 55 1 0 2 -37 2 -82z m0 -483 l0 -195 -196 0 -195 0 60 78 c72 92 160
            181 256 256 39 30 71 55 73 56 1 0 2 -88 2 -195z m0 -635 l0 -280 -315 0 -315
            0 0 28 c0 98 52 310 108 444 l37 88 243 0 242 0 0 -280z m0 -472 c0 -18 9 -51
            19 -74 19 -43 91 -111 126 -120 19 -5 22 -17 33 -122 7 -64 15 -138 19 -164
            l6 -48 -341 0 -342 0 -19 38 c-53 104 -112 317 -126 455 l-7 67 316 0 316 0 0
            -32z m1260 -227 c0 -25 -28 -248 -35 -278 l-5 -23 -420 0 -420 0 -5 23 c-7 30
            -35 253 -35 278 0 19 11 19 460 19 449 0 460 0 460 -19z m918 -53 c-11 -40
            -36 -112 -56 -160 l-35 -88 -345 0 -345 0 6 48 c3 26 11 98 18 160 l12 112
            383 0 382 0 -20 -72z m-1928 -465 c34 -157 130 -402 194 -495 31 -46 25 -47
            -80 -12 -116 37 -271 114 -376 186 -102 69 -258 218 -332 316 l-47 62 314 0
            314 0 13 -57z m919 -13 c-34 -122 -59 -192 -109 -296 -113 -234 -235 -316
            -348 -234 -106 77 -210 272 -281 530 l-20 70 389 0 389 0 -20 -70z m789 23
            c-58 -83 -226 -249 -321 -317 -110 -78 -258 -153 -383 -195 -122 -41 -130 -41
            -98 7 64 93 160 338 194 495 l13 57 314 0 314 0 -33 -47z"/>
            <path d="M1680 4640 l0 -80 80 0 80 0 0 80 0 80 -80 0 -80 0 0 -80z"/>
            <path d="M2000 4640 l0 -80 80 0 80 0 0 80 0 80 -80 0 -80 0 0 -80z"/>
            <path d="M2320 4640 l0 -80 80 0 80 0 0 80 0 80 -80 0 -80 0 0 -80z"/>
            <path d="M1680 3120 l0 -960 1520 0 1520 0 0 960 0 960 -1520 0 -1520 0 0
            -960z m2880 0 l0 -800 -1360 0 -1360 0 0 800 0 800 1360 0 1360 0 0 -800z"/>
            <path d="M2385 3470 l-350 -350 352 -352 353 -353 62 63 63 62 -290 290 -290
            290 290 290 290 290 -60 60 c-33 33 -62 60 -65 60 -3 0 -163 -158 -355 -350z"/>
            <path d="M3595 3760 l-60 -60 290 -290 290 -290 -290 -290 -290 -290 63 -62
            62 -63 353 353 352 352 -350 350 c-192 192 -352 350 -355 350 -3 0 -32 -27
            -65 -60z"/>
            <path d="M3275 3768 c-8 -23 -315 -1257 -315 -1267 0 -9 115 -41 147 -41 16 0
            40 88 176 633 87 347 157 637 157 643 0 6 -33 18 -72 27 -87 20 -87 20 -93 5z"/>
        </g>
    </symbol>

    <symbol id="programmer" viewBox="0 0 512.000000 512.000000">
        <g transform="translate(0.000000,512.000000) scale(0.100000,-0.100000)">
            <path d="M340 4577 c-126 -43 -221 -118 -279 -222 -65 -115 -61 7 -61 -1795 0
            -1467 2 -1642 16 -1690 48 -161 175 -285 343 -334 49 -14 265 -16 2201 -16
            1936 0 2152 2 2201 16 168 49 295 173 343 334 14 48 16 223 16 1690 0 1467 -2
            1642 -16 1690 -48 161 -175 285 -343 334 -49 14 -265 16 -2205 16 l-2151 -1
            -65 -22z m4405 -221 c62 -28 116 -87 141 -152 18 -47 19 -103 19 -1644 0
            -1541 -1 -1597 -19 -1644 -25 -65 -79 -124 -141 -152 l-50 -24 -2135 0 -2135
            0 -50 24 c-62 28 -116 87 -141 152 -18 47 -19 103 -19 1644 0 1541 1 1597 19
            1644 25 65 79 124 141 152 l50 24 2135 0 2135 0 50 -24z"/>
            <path d="M1355 3566 c-375 -59 -674 -331 -777 -706 -21 -77 -23 -106 -23 -300
            0 -194 2 -223 23 -300 128 -470 559 -764 1041 -711 246 26 454 130 606 301 35
            40 45 58 45 86 0 66 -45 114 -106 114 -37 0 -61 -15 -141 -90 -81 -75 -187
            -136 -303 -171 -61 -19 -98 -24 -200 -24 -152 0 -203 12 -339 77 -88 42 -116
            62 -186 131 -93 93 -154 189 -193 304 -25 74 -26 88 -26 283 0 195 1 209 26
            283 39 115 100 211 193 304 70 69 98 89 186 131 136 65 187 77 339 77 102 0
            139 -5 200 -24 116 -35 222 -96 303 -171 80 -75 104 -90 141 -90 61 0 106 48
            106 114 0 28 -10 46 -45 86 -209 235 -538 347 -870 296z"/>
            <path d="M2913 3028 c-17 -4 -41 -21 -52 -37 -19 -26 -21 -44 -21 -175 l0
            -146 -137 0 c-166 0 -200 -11 -222 -75 -12 -35 -11 -45 2 -78 24 -56 59 -67
            222 -67 l135 0 0 -147 c0 -138 2 -150 23 -176 42 -52 120 -52 168 -1 23 24 24
            33 27 174 l4 149 150 3 150 3 29 33 c40 45 40 99 0 144 l-29 33 -150 3 -150 3
            -4 149 c-3 145 -4 150 -28 175 -32 32 -76 44 -117 33z"/>
            <path d="M4063 3028 c-17 -4 -41 -20 -52 -34 -19 -24 -21 -40 -21 -175 l0
            -149 -137 0 c-166 0 -200 -11 -222 -75 -12 -35 -11 -45 2 -78 24 -56 59 -67
            222 -67 l135 0 0 -149 c0 -141 1 -151 23 -176 45 -52 129 -48 171 8 19 25 21
            45 24 172 l4 144 150 3 150 3 29 33 c40 45 40 99 0 144 l-29 33 -151 3 -151 3
            0 122 c0 132 -10 185 -39 211 -26 24 -71 34 -108 24z"/>
            <path d="M2095 1128 c-50 -44 -49 -127 1 -167 21 -16 41 -21 91 -21 58 0 68 3
            94 29 24 24 29 38 29 76 0 38 -5 52 -29 76 -27 26 -36 29 -95 29 -53 0 -70 -4
            -91 -22z"/>
            <path d="M2598 1123 c-48 -51 -48 -110 -1 -157 l26 -26 1008 0 1009 0 32 28
            c27 25 31 36 31 77 0 41 -4 52 -31 77 l-32 28 -1008 0 -1008 0 -26 -27z"/>
        </g>
    </symbol>

    <symbol id="magnetic" viewBox="0 0 512.000000 512.000000">
        <g transform="translate(0.000000,512.000000) scale(0.100000,-0.100000)">
            <path d="M1831 4587 c-48 -19 -108 -72 -134 -120 -21 -40 -22 -56 -25 -279
            l-3 -238 -49 0 c-92 0 -225 -56 -304 -129 -46 -42 -105 -139 -126 -209 -19
            -61 -20 -94 -20 -698 0 -621 0 -634 20 -654 28 -28 90 -27 116 1 18 20 19 50
            24 658 5 629 5 637 27 684 31 67 110 141 178 166 55 21 68 21 1025 21 957 0
            970 0 1025 -21 68 -25 147 -100 178 -166 18 -41 22 -72 27 -204 4 -136 8 -160
            24 -178 26 -28 88 -29 116 -1 18 18 20 33 20 174 0 179 -15 244 -78 342 -82
            126 -235 214 -373 214 l-48 0 -3 238 c-3 222 -4 240 -25 278 -98 183 -358 174
            -441 -16 -12 -27 -17 -87 -20 -267 l-4 -233 -79 0 -78 0 -3 243 -3 244 -30 49
            c-19 30 -49 60 -79 79 -44 27 -58 30 -126 30 -68 0 -82 -3 -126 -30 -30 -19
            -60 -49 -79 -79 l-30 -49 -3 -244 -3 -243 -78 0 -79 0 -4 233 c-4 250 -8 270
            -63 335 -15 18 -46 42 -68 54 -50 25 -149 33 -196 15z m121 -158 c40 -22 48
            -66 48 -279 l0 -200 -85 0 -85 0 0 216 0 216 29 29 c31 31 59 36 93 18z m641
            -1 c45 -23 46 -33 47 -260 l0 -218 -80 0 -80 0 0 218 c1 226 2 235 45 260 26
            15 41 15 68 0z m668 -17 l29 -29 0 -216 0 -216 -85 0 -85 0 0 200 c0 150 4
            209 14 234 26 62 80 73 127 27z"/>
            <path d="M2156 3536 c-54 -20 -106 -65 -133 -116 -21 -39 -23 -57 -23 -176 0
            -131 0 -133 26 -153 35 -27 67 -26 100 3 26 22 28 28 33 139 5 93 10 120 24
            134 16 17 46 18 378 18 l361 0 19 -24 c18 -22 19 -43 19 -372 l0 -349 -400 0
            -400 0 0 73 c0 87 -14 143 -40 157 -31 16 -78 12 -100 -10 -20 -20 -20 -30
            -18 -579 l3 -559 30 -43 c17 -24 53 -57 80 -74 l48 -30 397 0 397 0 48 30 c27
            17 63 50 80 74 l30 43 0 838 0 838 -30 43 c-17 24 -53 57 -80 74 l-48 30 -381
            2 c-306 2 -389 0 -420 -11z m804 -1405 c0 -329 -1 -350 -19 -372 l-19 -24
            -362 0 -362 0 -19 24 c-18 22 -19 43 -19 372 l0 349 400 0 400 0 0 -349z"/>
            <path d="M348 3392 c-75 -47 -213 -252 -269 -397 -66 -170 -73 -211 -73 -435
            0 -177 3 -215 21 -280 51 -185 126 -332 233 -462 92 -111 137 -132 185 -83 42
            41 34 82 -29 153 -105 117 -175 243 -222 397 -26 85 -28 101 -28 275 0 174 2
            190 28 275 47 154 117 280 222 397 63 71 71 112 29 153 -28 29 -60 32 -97 7z"/>
            <path d="M4675 3385 c-42 -41 -34 -82 29 -153 105 -117 175 -243 222 -397 26
            -85 28 -101 28 -275 0 -173 -2 -191 -27 -274 -48 -154 -119 -282 -223 -398
            -63 -71 -71 -112 -29 -153 43 -44 85 -31 156 50 134 152 217 314 266 517 27
            111 24 434 -4 538 -51 184 -126 332 -233 462 -92 111 -137 132 -185 83z"/>
            <path d="M545 3105 c-173 -186 -246 -493 -180 -755 33 -126 148 -326 217 -374
            32 -23 91 -21 113 4 35 38 25 79 -37 154 -68 82 -112 168 -138 272 -51 198 0
            413 138 580 42 52 56 76 56 101 0 46 -28 73 -78 73 -36 0 -46 -6 -91 -55z"/>
            <path d="M4425 3140 c-33 -36 -24 -81 27 -141 65 -77 102 -142 134 -234 25
            -71 28 -94 28 -205 0 -111 -3 -134 -28 -205 -32 -92 -69 -157 -134 -234 -51
            -60 -60 -105 -27 -141 22 -24 81 -27 112 -5 56 39 157 197 194 301 79 227 59
            485 -53 683 -38 69 -111 165 -141 186 -31 22 -90 19 -112 -5z"/>
            <path d="M3853 3002 c-13 -2 -32 -15 -43 -29 -20 -25 -20 -39 -20 -704 0 -665
            0 -679 -21 -734 -28 -76 -108 -156 -184 -184 -55 -21 -65 -21 -1025 -21 -957
            0 -970 0 -1025 21 -68 25 -147 99 -178 166 -20 43 -22 69 -27 264 -4 195 -7
            219 -24 238 -26 28 -88 29 -116 1 -19 -19 -20 -33 -20 -234 0 -184 3 -223 20
            -277 20 -67 64 -144 109 -193 70 -77 222 -146 321 -146 l49 0 3 -237 c3 -223
            4 -241 25 -279 98 -183 358 -174 441 16 12 27 17 87 20 267 l4 233 79 0 78 0
            3 -243 3 -244 30 -49 c19 -30 49 -60 79 -79 44 -27 58 -30 126 -30 68 0 82 3
            126 30 30 19 60 49 79 79 l30 49 3 244 3 243 78 0 79 0 4 -232 c3 -181 8 -241
            20 -268 66 -151 256 -197 378 -93 80 69 85 86 88 356 l3 237 49 0 c92 0 225
            56 304 129 46 42 105 139 126 209 19 61 20 94 20 756 0 592 -2 695 -15 713
            -15 22 -45 31 -82 25z m-1853 -2032 c0 -150 -4 -209 -14 -235 -26 -61 -80 -72
            -127 -26 l-29 29 0 216 0 216 85 0 85 0 0 -200z m640 -17 c-1 -230 -2 -238
            -48 -262 -30 -16 -65 -7 -92 21 -19 20 -20 35 -20 240 l0 218 80 0 80 0 0
            -217z m650 1 l0 -216 -29 -29 c-47 -46 -101 -35 -127 26 -10 26 -14 85 -14
            235 l0 200 85 0 85 0 0 -216z"/>
            <path d="M804 2876 c-54 -56 -99 -151 -114 -239 -24 -135 24 -298 114 -393 51
            -53 92 -59 131 -19 34 33 33 76 -4 117 -112 129 -115 298 -7 426 43 53 47 92
            11 127 -39 40 -80 34 -131 -19z"/>
            <path d="M4185 2895 c-34 -33 -33 -76 4 -117 69 -79 100 -182 81 -271 -12 -62
            -40 -118 -81 -165 -18 -20 -29 -44 -29 -63 0 -41 39 -79 81 -79 70 0 168 149
            189 288 22 138 -24 294 -114 388 -51 53 -92 59 -131 19z"/>
        </g>
    </symbol>

    <symbol id="microchip" viewBox="0 0 512.000000 512.000000">
        <g transform="translate(0.000000,512.000000) scale(0.100000,-0.100000)">
            <path d="M1785 5056 c-37 -16 -92 -77 -101 -112 -4 -14 -4 -49 -2 -79 5 -62
            39 -115 88 -137 l30 -13 1 -145 0 -145 192 -140 192 -141 3 -377 2 -377 -95 0
            -95 0 -1 213 0 212 -178 143 -178 142 -154 0 -154 1 -26 42 c-35 59 -83 80
            -164 75 -106 -7 -165 -71 -165 -180 0 -105 72 -178 178 -178 29 0 66 7 81 14
            30 16 91 80 91 96 0 6 56 10 138 10 l137 0 138 -111 137 -111 0 -188 0 -187
            -31 -7 c-45 -9 -87 -42 -109 -87 l-20 -39 -398 0 -397 0 -217 217 -217 217 6
            57 c5 47 2 66 -17 104 -33 67 -86 100 -164 100 -112 0 -181 -69 -181 -181 0
            -49 5 -68 27 -101 45 -68 141 -100 214 -73 27 11 35 4 259 -220 l230 -230 428
            0 427 0 0 -135 0 -135 -277 0 -278 1 -26 43 c-67 110 -234 113 -305 7 -96
            -145 34 -327 202 -282 43 11 101 61 115 98 l9 23 280 0 280 0 0 -145 0 -145
            -402 -2 -403 -3 -140 -192 -140 -192 -112 -1 -112 0 -15 29 c-34 65 -123 109
            -195 96 -174 -31 -207 -266 -49 -346 83 -43 192 -9 238 73 l21 38 143 0 143 0
            139 190 139 189 373 1 372 0 0 -95 0 -95 -207 0 -208 0 -143 -177 -142 -176 0
            -153 0 -153 -30 -16 c-17 -9 -44 -34 -60 -57 -40 -55 -42 -140 -5 -204 58 -99
            207 -113 287 -28 52 56 64 144 28 214 -19 37 -67 80 -89 80 -7 0 -11 45 -11
            139 l0 139 113 140 112 141 178 0 177 1 0 -104 c0 -58 5 -117 11 -133 14 -37
            54 -79 90 -93 l29 -12 0 -397 0 -396 -217 -217 c-185 -183 -221 -215 -238
            -208 -55 23 -131 7 -178 -38 -43 -40 -57 -75 -57 -137 0 -84 35 -137 112 -170
            112 -46 236 29 246 150 2 30 0 67 -6 83 -10 29 -6 34 219 258 l229 229 0 417
            0 418 135 0 135 0 0 -268 0 -269 -37 -24 c-106 -69 -119 -195 -29 -285 33 -33
            51 -44 90 -49 118 -18 216 63 216 180 0 74 -50 151 -111 170 -18 6 -19 19 -19
            276 l0 269 150 0 150 0 0 -393 0 -393 190 -140 190 -139 0 -115 0 -115 -30
            -13 c-49 -22 -83 -75 -88 -137 -6 -71 2 -97 40 -141 76 -87 200 -87 276 0 38
            44 46 70 40 141 -5 62 -39 115 -88 137 l-30 13 0 145 -1 145 -192 140 -192
            140 -3 363 -2 362 95 0 95 0 1 -197 0 -198 178 -142 178 -143 154 0 154 0 23
            -40 c33 -58 88 -83 167 -78 106 7 165 71 165 180 0 105 -72 178 -178 178 -29
            0 -66 -7 -81 -14 -30 -16 -91 -80 -91 -96 0 -6 -56 -10 -138 -10 l-137 0 -138
            111 -137 111 0 168 0 168 114 3 c110 4 116 5 153 35 52 42 73 87 73 157 l0 57
            403 0 402 0 217 -217 c171 -171 215 -221 208 -233 -16 -24 -11 -92 9 -135 63
            -141 268 -141 332 -1 35 76 14 164 -50 219 -41 34 -68 41 -146 35 l-63 -6
            -228 229 -229 229 -427 0 -428 0 0 130 0 130 278 0 279 0 24 -37 c39 -60 82
            -83 154 -83 48 0 70 5 96 23 89 60 114 173 56 257 -40 60 -70 75 -151 75 -64
            0 -77 -3 -109 -28 -20 -15 -44 -41 -52 -58 l-16 -29 -279 0 -280 0 0 145 0
            145 403 0 403 0 139 190 139 190 118 0 c79 0 118 -4 118 -11 0 -22 43 -70 80
            -89 46 -23 116 -26 163 -6 44 18 95 78 103 121 24 128 -57 228 -182 227 -73
            -1 -128 -33 -160 -94 l-15 -28 -142 0 -142 -1 -141 -192 -140 -192 -372 -3
            -372 -2 0 95 0 95 207 2 207 3 142 175 143 175 1 158 c0 94 4 157 10 157 16 0
            80 61 96 91 17 33 19 116 3 156 -25 67 -88 106 -171 106 -45 0 -65 -5 -97 -26
            -72 -48 -101 -149 -67 -230 13 -32 78 -97 96 -97 6 0 10 -55 10 -136 l0 -137
            -112 -138 -112 -139 -177 0 -177 0 -4 59 c-3 45 -11 68 -32 95 -40 53 -75 67
            -182 73 l-94 6 0 406 0 406 218 217 c184 183 220 215 237 208 55 -23 131 -7
            178 38 43 40 57 75 57 137 0 84 -35 137 -112 170 -112 46 -236 -29 -246 -150
            -2 -30 0 -67 6 -83 10 -29 6 -34 -219 -258 l-229 -229 0 -432 0 -433 -135 0
            -135 0 0 285 0 284 29 15 c64 34 110 123 96 189 -18 84 -78 142 -157 153 -80
            11 -152 -26 -188 -97 -46 -89 -5 -214 81 -249 l29 -12 0 -284 0 -284 -150 0
            -150 0 0 408 0 409 -190 139 -190 139 0 115 0 115 30 13 c49 22 83 75 88 137
            2 30 2 65 -2 79 -9 36 -65 96 -103 112 -41 17 -109 17 -148 0z m1484 -1813
            c21 -26 21 -29 19 -710 -3 -665 -4 -685 -22 -699 -29 -21 -1383 -21 -1412 0
            -18 14 -19 34 -22 699 -2 681 -2 684 19 710 l20 27 689 0 689 0 20 -27z"/>
            <path d="M2020 2545 l0 -535 540 0 540 0 0 535 0 535 -540 0 -540 0 0 -535z
            m960 0 l0 -425 -420 0 -420 0 0 425 0 425 420 0 420 0 0 -425z"/>
        </g>
    </symbol>

    <symbol id="motherboard" viewBox="0 0 512.000000 512.000000">
        <g transform="translate(0.000000,512.000000) scale(0.100000,-0.100000)">
            <path d="M322 4847 c-21 -22 -22 -33 -22 -175 l0 -152 -124 0 c-110 0 -126 -2
            -150 -21 -33 -26 -37 -88 -6 -119 18 -18 33 -20 150 -20 l130 0 0 -49 0 -49
            -129 -4 c-110 -3 -132 -6 -150 -22 -21 -19 -21 -25 -21 -463 0 -430 1 -444 20
            -463 18 -18 33 -20 150 -20 l130 0 0 -49 0 -49 -129 -3 c-153 -5 -171 -14
            -171 -85 0 -66 18 -74 172 -74 l128 0 0 -55 0 -55 -130 0 c-117 0 -132 -2
            -150 -20 -19 -19 -20 -33 -20 -463 0 -417 1 -445 18 -460 15 -14 42 -17 150
            -17 l132 0 0 -833 0 -834 23 -21 23 -22 1906 0 c1847 0 1906 1 1929 19 34 27
            32 86 -5 117 l-27 24 -1845 0 -1844 0 0 2150 0 2150 106 0 c104 0 106 0 136
            30 25 26 29 36 24 63 -12 62 -29 67 -215 67 -162 0 -168 -1 -189 -23z m-22
            -1072 l0 -325 -75 0 -75 0 0 325 0 325 75 0 75 0 0 -325z m0 -1340 l0 -325
            -75 0 -75 0 0 325 0 325 75 0 75 0 0 -325z"/>
            <path d="M942 4847 c-27 -29 -28 -77 -3 -108 l19 -24 2006 -3 2006 -2 0 -2150
            0 -2150 -259 0 c-246 0 -260 -1 -285 -21 -33 -26 -37 -88 -6 -119 19 -19 33
            -20 340 -20 307 0 321 1 340 20 20 20 20 33 20 2290 0 2257 0 2270 -20 2290
            -20 20 -33 20 -2078 20 l-2059 0 -21 -23z"/>
            <path d="M894 4558 c-22 -10 -44 -47 -44 -73 0 -11 -12 -15 -40 -15 -52 0 -86
            -17 -99 -49 -8 -18 -11 -306 -9 -959 l3 -934 24 -19 c15 -13 39 -19 71 -19 45
            0 48 -2 53 -30 9 -42 41 -70 80 -70 41 0 77 35 77 73 0 26 2 27 49 27 38 0 56
            6 78 24 l28 24 0 942 0 942 -28 24 c-22 18 -40 24 -78 24 -48 0 -49 1 -49 29
            0 53 -63 85 -116 59z m116 -1078 l0 -830 -75 0 -75 0 0 830 0 830 75 0 75 0 0
            -830z"/>
            <path d="M1485 4545 c-14 -13 -25 -36 -25 -50 0 -23 -3 -25 -50 -25 -41 0 -56
            -5 -75 -25 l-25 -24 0 -941 0 -941 25 -24 c19 -20 34 -25 75 -25 47 0 50 -2
            50 -25 0 -36 42 -75 80 -75 38 0 80 39 80 75 0 23 3 25 50 25 41 0 56 5 75 25
            l25 24 0 941 0 941 -25 24 c-19 20 -34 25 -75 25 -47 0 -50 2 -50 25 0 36 -42
            75 -80 75 -19 0 -40 -9 -55 -25z m125 -1065 l0 -830 -70 0 -70 0 0 830 0 830
            70 0 70 0 0 -830z"/>
            <path d="M2312 4551 c-67 -23 -133 -86 -163 -155 -17 -41 -21 -64 -17 -127 7
            -115 60 -193 163 -240 46 -21 161 -24 212 -6 141 52 216 212 168 358 -25 75
            -103 152 -175 173 -69 21 -122 20 -188 -3z m149 -156 c35 -18 69 -70 69 -103
            0 -66 -58 -122 -124 -122 -98 0 -152 116 -89 190 42 51 90 62 144 35z"/>
            <path d="M3375 4545 c-22 -21 -25 -33 -25 -98 l0 -75 -79 -3 c-109 -5 -121
            -17 -121 -119 l0 -77 -81 -5 c-95 -6 -121 -23 -121 -82 0 -62 21 -76 119 -76
            l83 0 0 -54 0 -54 -80 -4 c-96 -4 -122 -22 -122 -84 0 -58 26 -74 123 -74 l79
            0 0 -54 0 -54 -80 -4 c-63 -2 -84 -7 -99 -23 -31 -32 -31 -85 -1 -115 17 -17
            33 -20 100 -20 l80 0 0 -55 0 -55 -74 0 c-64 0 -79 -3 -100 -22 -36 -33 -39
            -85 -6 -118 17 -17 33 -20 100 -20 l80 0 0 -80 c0 -67 3 -83 20 -100 17 -17
            33 -20 100 -20 l80 0 0 -78 c0 -52 5 -84 15 -99 31 -44 111 -37 134 13 6 14
            11 56 11 94 l0 70 55 0 55 0 0 -78 c0 -52 5 -84 15 -99 31 -44 111 -37 134 13
            6 14 11 56 11 94 l0 70 55 0 55 0 0 -79 c0 -90 14 -117 67 -127 27 -5 37 -1
            63 24 28 29 30 35 30 106 l0 76 55 0 55 0 0 -79 c0 -90 14 -117 67 -127 27 -5
            37 -1 63 24 28 29 30 35 30 106 l0 76 79 0 c74 0 81 2 100 26 17 22 21 41 21
            100 l0 74 78 0 c69 0 81 3 100 23 27 29 28 77 3 108 -17 21 -30 24 -100 27
            l-81 4 0 54 0 54 78 0 c69 0 81 3 100 23 22 23 28 60 16 92 -11 28 -60 45
            -129 45 l-65 0 0 55 0 55 78 0 c69 0 81 3 100 23 23 25 28 66 12 97 -13 25
            -62 40 -131 40 l-59 0 0 55 0 55 80 0 c69 0 82 3 100 22 21 23 26 68 10 98
            -13 25 -62 40 -131 40 l-59 0 0 65 c0 111 -24 135 -135 135 l-65 0 0 65 c0 69
            -17 118 -45 129 -30 11 -62 6 -89 -15 -24 -19 -26 -26 -26 -100 l0 -79 -55 0
            -55 0 0 65 c0 69 -17 118 -45 129 -30 11 -62 6 -89 -15 -24 -19 -26 -26 -26
            -100 l0 -79 -54 0 -54 0 -4 81 c-3 70 -6 83 -27 100 -32 27 -77 24 -106 -6
            -22 -21 -25 -33 -25 -100 l0 -75 -55 0 -55 0 0 75 c0 67 -3 79 -25 100 -15 16
            -36 25 -55 25 -19 0 -40 -9 -55 -25z m985 -865 l0 -530 -525 0 -525 0 0 530 0
            530 525 0 525 0 0 -530z"/>
            <path d="M3472 4037 c-22 -23 -22 -28 -22 -354 0 -319 1 -331 21 -357 l20 -26
            340 0 c322 0 340 1 358 19 11 11 23 35 26 53 3 18 5 171 3 339 -3 285 -4 308
            -22 328 -19 21 -26 21 -361 21 l-342 0 -21 -23z m588 -357 l0 -220 -225 0
            -225 0 0 220 0 220 225 0 225 0 0 -220z"/>
            <path d="M2315 3887 c-121 -47 -186 -142 -184 -271 1 -107 50 -192 138 -240
            200 -108 434 40 418 264 -7 106 -69 195 -167 239 -51 23 -155 27 -205 8z m169
            -178 c80 -69 43 -192 -62 -206 -69 -9 -132 46 -132 117 0 104 116 158 194 89z"/>
            <path d="M2353 3230 c-135 -27 -222 -135 -223 -275 0 -87 29 -154 90 -208 60
            -55 102 -71 190 -71 62 0 84 5 126 27 166 85 203 298 79 445 -52 62 -172 100
            -262 82z m125 -178 c109 -70 25 -250 -99 -213 -82 25 -113 112 -66 182 37 56
            107 69 165 31z"/>
            <path d="M3395 2505 l-25 -24 0 -271 c0 -158 4 -279 10 -290 25 -47 116 -43
            139 6 7 17 11 113 11 290 l0 265 -25 24 c-15 16 -36 25 -55 25 -19 0 -40 -9
            -55 -25z"/>
            <path d="M3672 2520 c-12 -5 -27 -21 -32 -35 -6 -15 -10 -139 -10 -283 0 -279
            2 -292 56 -312 29 -11 81 5 94 30 6 11 10 132 10 290 l0 271 -25 24 c-25 26
            -54 30 -93 15z"/>
            <path d="M3923 2506 l-28 -24 0 -276 c0 -272 0 -276 22 -298 28 -28 84 -29
            113 -3 19 17 20 29 20 301 l0 283 -26 20 c-35 28 -67 26 -101 -3z"/>
            <path d="M4186 2509 l-26 -20 0 -279 c0 -252 2 -280 18 -300 27 -34 88 -32
            118 4 24 27 24 28 24 286 0 275 -4 299 -47 319 -35 16 -57 14 -87 -10z"/>
            <path d="M2166 2469 l-26 -20 0 -239 c0 -219 1 -240 19 -261 l19 -24 491 0
            490 0 23 23 c23 22 23 26 23 258 l0 236 -28 24 -28 24 -478 0 c-469 0 -479 0
            -505 -21z m884 -264 l0 -125 -375 0 -375 0 0 125 0 125 375 0 375 0 0 -125z"/>
            <path d="M754 2200 c-28 -11 -54 -48 -54 -76 0 -12 9 -33 21 -48 19 -24 26
            -26 100 -26 66 0 82 3 99 20 21 21 26 69 10 100 -18 34 -122 52 -176 30z"/>
            <path d="M1124 2196 c-48 -22 -61 -89 -24 -126 18 -18 33 -20 138 -20 136 0
            154 9 154 76 0 63 -25 78 -139 81 -69 2 -107 -1 -129 -11z"/>
            <path d="M1584 2200 c-28 -11 -54 -48 -54 -76 0 -12 9 -33 21 -48 19 -24 26
            -26 99 -26 69 0 82 3 100 22 21 23 26 68 10 98 -18 34 -122 52 -176 30z"/>
            <path d="M721 1914 c-24 -30 -26 -52 -10 -88 16 -35 58 -49 130 -44 71 5 99
            28 99 82 0 56 -33 76 -122 76 -71 0 -78 -2 -97 -26z"/>
            <path d="M1102 1917 c-27 -29 -28 -77 -3 -108 18 -22 28 -24 125 -27 117 -4
            148 6 166 53 11 30 -5 82 -30 95 -10 6 -68 10 -128 10 -101 0 -110 -2 -130
            -23z"/>
            <path d="M1551 1914 c-24 -30 -26 -52 -10 -88 16 -35 58 -49 130 -44 71 5 99
            28 99 82 0 56 -33 76 -122 76 -71 0 -78 -2 -97 -26z"/>
            <path d="M729 1601 l-24 -19 0 -497 0 -497 24 -19 c21 -17 42 -19 247 -19 244
            0 267 4 284 53 14 41 14 925 0 963 -20 52 -27 53 -276 54 -214 0 -234 -2 -255
            -19z m381 -516 l0 -375 -125 0 -125 0 0 375 0 375 125 0 125 0 0 -375z"/>
            <path d="M1455 1595 l-25 -24 0 -486 0 -486 25 -24 24 -25 229 0 c217 0 231 1
            256 21 l26 20 0 494 0 494 -26 20 c-25 20 -39 21 -256 21 l-229 0 -24 -25z
            m375 -510 l0 -375 -120 0 -120 0 0 375 0 375 120 0 120 0 0 -375z"/>
            <path d="M2565 1595 c-20 -19 -25 -34 -25 -75 l0 -50 -75 0 c-67 0 -79 -3
            -100 -25 -33 -32 -34 -83 -2 -113 20 -19 35 -22 100 -22 l77 0 0 -49 c0 -34 6
            -56 21 -75 l20 -26 949 0 949 0 20 26 c15 19 21 41 21 75 l0 49 79 0 c74 0 81
            2 100 26 28 36 27 79 -4 109 -21 22 -33 25 -100 25 l-75 0 0 50 c0 41 -5 56
            -25 75 l-24 25 -941 0 -941 0 -24 -25z m1795 -205 l0 -70 -830 0 -830 0 0 70
            0 70 830 0 830 0 0 -70z"/>
            <path d="M2561 984 c-15 -19 -21 -41 -21 -75 l0 -49 -78 0 c-69 0 -81 -3 -100
            -23 -27 -29 -28 -77 -3 -108 17 -21 30 -24 100 -27 l81 -4 0 -50 c0 -39 5 -54
            25 -73 l24 -25 941 0 941 0 24 25 c20 19 25 34 25 73 l0 50 81 4 c70 3 83 6
            100 27 26 32 25 82 -4 109 -20 19 -35 22 -100 22 l-77 0 0 49 c0 34 -6 56 -21
            75 l-20 26 -949 0 -949 0 -20 -26z m1799 -204 l0 -70 -830 0 -830 0 0 70 0 70
            830 0 830 0 0 -70z"/>
        </g>
    </symbol>

    <symbol id="router" viewBox="0 0 512.000000 512.000000">
        <g transform="translate(0.000000,512.000000) scale(0.100000,-0.100000)">
            <path d="M809 4836 c-86 -31 -154 -92 -192 -175 l-22 -46 -3 -1137 -2 -1138
            -73 0 c-112 -1 -214 -17 -274 -44 -76 -36 -167 -125 -206 -205 l-32 -66 0
            -505 0 -505 32 -66 c40 -82 130 -170 209 -205 31 -14 89 -29 128 -34 97 -13
            4278 -12 4375 0 41 5 98 21 128 34 76 36 167 125 206 205 l32 66 0 505 0 505
            -32 66 c-39 80 -130 169 -206 205 -79 36 -167 43 -504 44 l-303 0 0 1110 c0
            935 2 1115 14 1138 52 101 182 109 243 15 17 -26 18 -86 23 -1054 5 -992 6
            -1028 24 -1048 19 -21 75 -29 111 -15 46 18 45 0 45 1072 0 981 -1 1012 -20
            1074 -24 79 -76 142 -151 183 -69 37 -180 46 -257 21 -65 -22 -145 -93 -180
            -160 l-27 -51 -3 -1206 c-2 -1178 -2 -1207 17 -1230 l19 -24 409 -5 c455 -6
            450 -5 527 -78 77 -74 76 -62 76 -562 0 -410 -2 -448 -19 -485 -23 -51 -96
            -118 -147 -136 -58 -21 -4370 -21 -4428 0 -51 18 -124 85 -147 136 -17 37 -19
            75 -19 485 0 500 -1 488 76 562 83 79 -64 72 1642 78 1509 5 1524 5 1538 25
            38 52 23 118 -32 141 -28 12 -252 14 -1334 14 l-1300 0 2 1118 3 1117 23 33
            c62 86 182 80 235 -13 9 -15 13 -295 17 -1048 l5 -1029 24 -19 c34 -28 96 -25
            127 6 l24 24 -2 1048 -3 1048 -27 51 c-34 65 -115 138 -175 158 -56 19 -164
            20 -214 2z"/>
            <path d="M2383 4126 c-148 -28 -273 -81 -398 -167 -105 -73 -157 -129 -157
            -172 0 -46 15 -72 51 -87 43 -17 73 -7 133 47 326 289 803 283 1119 -14 50
            -47 95 -53 137 -18 26 22 32 34 32 68 0 37 -6 47 -56 94 -114 108 -267 191
            -432 235 -100 26 -326 33 -429 14z"/>
            <path d="M2416 3675 c-123 -34 -260 -130 -272 -189 -7 -38 15 -90 41 -100 42
            -16 82 -5 135 35 80 61 133 82 222 87 100 6 172 -17 255 -80 50 -38 70 -48
            101 -48 62 0 102 56 82 116 -20 59 -157 148 -275 179 -72 18 -221 18 -289 0z"/>
            <path d="M2495 3284 c-71 -37 -101 -92 -92 -171 5 -49 27 -85 71 -117 39 -30
            143 -30 183 0 35 25 73 98 73 139 0 17 -10 51 -22 75 -39 76 -141 112 -213 74z"/>
            <path d="M744 1598 c-58 -28 -56 -130 3 -157 14 -6 82 -11 163 -11 132 0 140
            1 167 24 39 34 39 98 0 132 -27 23 -34 24 -170 23 -78 0 -152 -5 -163 -11z"/>
            <path d="M1329 1581 c-20 -20 -29 -39 -29 -61 0 -22 9 -41 29 -61 l29 -29 337
            0 336 0 24 25 c19 18 25 35 25 65 0 30 -6 47 -25 65 l-24 25 -336 0 -337 0
            -29 -29z"/>
            <path d="M624 440 c-63 -25 -71 -114 -15 -157 23 -18 679 -18 702 0 44 34 50
            93 15 134 l-24 28 -329 2 c-180 1 -338 -2 -349 -7z"/>
            <path d="M3824 440 c-63 -25 -71 -114 -15 -157 23 -18 679 -18 702 0 44 34 50
            93 15 134 l-24 28 -329 2 c-180 1 -338 -2 -349 -7z"/>
        </g>
    </symbol>

    <symbol  id="settings" viewBox="0 0 512.000000 511.000000">
        <g transform="translate(0.000000,511.000000) scale(0.100000,-0.100000)">
            <path d="M332 4999 c-123 -24 -231 -108 -289 -227 l-38 -76 -3 -1677 c-2
            -1677 -2 -1678 19 -1733 44 -118 134 -212 246 -257 l58 -24 668 -3 667 -3 0
            -22 c0 -21 -74 -580 -85 -644 l-6 -31 -128 -4 c-144 -3 -160 -10 -181 -74 -10
            -28 -8 -40 7 -71 10 -21 29 -43 43 -50 34 -17 2460 -19 2493 -2 76 39 76 149
            0 188 -12 6 -73 11 -140 11 l-118 0 -44 328 c-23 180 -45 337 -48 349 l-5 22
            674 3 673 3 58 24 c112 45 202 139 246 257 21 55 21 56 19 1733 l-3 1677 -38
            76 c-60 122 -165 203 -297 228 -66 12 -4385 12 -4448 -1z m1474 -221 c-3 -13
            -6 -39 -6 -59 0 -34 -3 -38 -44 -53 l-44 -17 -56 39 c-128 90 -296 74 -405
            -38 l-39 -40 -308 0 c-185 0 -324 -4 -347 -11 -49 -13 -105 -63 -128 -114 -18
            -38 -19 -99 -19 -1180 0 -1081 1 -1142 19 -1180 23 -51 79 -101 128 -114 51
            -15 328 -14 356 0 37 19 57 52 57 94 0 42 -20 75 -57 94 -13 6 -77 11 -157 11
            l-136 0 0 1095 0 1095 273 0 272 0 17 -58 c10 -32 32 -74 52 -98 l34 -40 -18
            -41 c-18 -40 -38 -52 -90 -53 -39 0 -123 -44 -165 -85 -118 -118 -118 -322 0
            -440 42 -41 126 -85 165 -85 52 -1 72 -13 90 -53 l18 -41 -33 -39 c-49 -57
            -68 -123 -63 -216 5 -87 28 -141 83 -196 108 -107 275 -121 401 -33 l56 39 44
            -17 c41 -16 44 -19 44 -55 0 -97 78 -212 178 -260 67 -33 186 -33 257 -1 100
            46 166 137 181 250 8 64 32 77 72 39 35 -32 78 -53 126 -62 43 -9 55 -28 33
            -53 -29 -32 -49 -96 -49 -157 0 -207 218 -322 394 -209 33 21 38 22 52 8 9 -8
            16 -25 16 -37 1 -57 66 -144 135 -180 28 -15 -34 -16 -758 -17 -849 0 -830 1
            -858 -51 -14 -27 -14 -81 0 -108 29 -54 -49 -51 1513 -51 1429 0 1443 1 1488
            21 60 27 79 45 106 104 l24 50 0 1130 c0 1115 -1 1131 -21 1175 -27 60 -45 79
            -104 106 l-50 24 -765 0 -766 0 -43 44 c-62 63 -127 89 -221 89 -84 0 -154
            -24 -202 -70 l-27 -26 -46 17 c-38 15 -45 22 -45 44 0 15 -4 42 -9 60 l-10 32
            1161 0 c852 0 1171 -3 1199 -12 53 -15 113 -69 135 -120 18 -41 19 -101 22
            -1450 l2 -1408 -2360 0 -2360 0 2 1408 3 1407 21 46 c23 50 74 97 126 116 24
            8 224 12 747 12 l713 1 -6 -22z m374 -13 c21 -21 25 -37 30 -112 3 -49 11 -98
            18 -110 6 -12 33 -29 59 -39 27 -9 88 -35 136 -56 111 -50 138 -47 211 22 66
            63 96 74 141 56 85 -36 85 -108 0 -196 -30 -32 -55 -67 -56 -77 -3 -40 4 -70
            26 -113 12 -25 32 -75 44 -112 33 -101 52 -115 161 -120 104 -5 136 -22 119
            -65 -5 -13 -9 -35 -9 -48 0 -39 -28 -47 -69 -20 -136 87 -316 35 -377 -110
            -32 -76 -15 -204 33 -257 22 -25 10 -44 -33 -53 -87 -16 -172 -88 -195 -164
            -11 -37 -17 -43 -68 -61 -101 -37 -112 -43 -124 -64 -6 -11 -14 -60 -17 -108
            -5 -73 -10 -91 -29 -112 -32 -34 -72 -41 -114 -21 -45 21 -55 45 -59 137 -4
            104 -20 124 -129 164 -46 16 -103 40 -126 52 -69 36 -107 26 -177 -47 -47 -48
            -92 -66 -129 -52 -42 16 -67 51 -67 93 0 33 8 47 49 91 84 90 88 112 37 226
            -18 42 -41 97 -50 122 -26 71 -44 83 -145 90 -114 8 -153 35 -153 104 0 69 39
            96 153 104 101 7 119 19 145 90 9 25 32 80 50 122 51 114 47 136 -37 226 -41
            44 -49 58 -49 91 0 42 25 77 67 93 37 14 82 -4 129 -52 70 -73 108 -83 177
            -47 23 12 80 36 126 52 107 40 124 60 129 159 4 91 16 121 55 141 40 21 84 13
            117 -19z m2320 -1460 l0 -1095 -557 0 c-469 1 -553 3 -528 14 73 32 145 129
            145 197 0 38 24 42 66 14 218 -148 487 96 364 330 -35 66 -37 85 -12 85 36 0
            109 31 146 62 108 89 115 271 13 376 -30 31 -119 72 -157 72 -27 0 -25 15 10
            84 121 238 -145 480 -364 331 -42 -28 -66 -24 -66 14 0 43 -45 125 -86 159
            -51 42 -124 66 -182 59 -43 -5 -50 -2 -90 33 -44 39 -101 63 -178 75 -37 6
            -43 11 -57 46 l-16 40 34 45 c19 25 42 70 51 100 l15 54 725 0 724 0 0 -1095z
            m-1162 483 c7 -7 12 -34 12 -60 0 -68 22 -115 62 -132 18 -8 64 -28 102 -45
            102 -46 136 -42 208 27 34 32 40 34 63 24 36 -17 32 -48 -15 -98 -64 -69 -64
            -82 1 -238 39 -95 66 -116 150 -116 59 0 79 -11 79 -45 0 -34 -20 -45 -80 -45
            -83 0 -110 -21 -149 -116 -65 -156 -65 -169 -1 -238 47 -50 51 -81 15 -98 -23
            -10 -29 -8 -63 24 -72 69 -106 73 -208 27 -38 -17 -84 -37 -102 -45 -40 -17
            -62 -64 -62 -132 0 -50 -12 -72 -41 -72 -29 0 -49 40 -49 98 0 69 -19 96 -83
            121 -29 10 -72 29 -97 40 -75 34 -113 29 -170 -25 -52 -49 -74 -53 -97 -18
            -13 20 -11 25 27 69 69 80 70 91 7 245 -21 50 -44 91 -58 100 -12 8 -52 17
            -87 20 -51 4 -68 9 -78 25 -12 18 -11 24 2 43 13 18 25 22 72 22 85 0 107 18
            149 120 63 154 62 165 -7 245 -38 44 -40 49 -27 69 23 34 42 30 96 -18 60 -53
            97 -59 171 -25 25 11 68 30 97 40 64 25 83 52 83 121 0 79 41 123 78 86z
            m1580 -2295 c-4 -68 -12 -124 -23 -151 -21 -51 -80 -104 -134 -120 -55 -17
            -4347 -17 -4402 0 -54 16 -113 69 -134 120 -11 27 -19 83 -23 151 l-5 107
            2363 0 2363 0 -5 -107z m-1678 -500 c0 -5 20 -156 45 -338 25 -181 45 -336 45
            -342 0 -10 -161 -13 -773 -13 l-773 0 47 348 c26 191 48 348 48 350 2 6 1361
            1 1361 -5z"/>
            <path d="M1221 2196 c-58 -32 -69 -119 -22 -167 86 -85 225 26 161 129 -31 49
            -89 66 -139 38z"/>
            <path d="M1967 4156 c-319 -134 -313 -585 10 -706 47 -18 75 -21 148 -18 109
            4 179 33 252 106 181 182 128 495 -105 609 -48 24 -71 28 -152 31 -82 2 -103
            -1 -153 -22z m222 -207 c116 -65 115 -224 -2 -290 -48 -27 -133 -23 -175 8
            -38 28 -72 91 -72 136 0 41 27 102 57 129 46 42 134 50 192 17z"/>
            <path d="M3225 3397 c-62 -21 -97 -42 -137 -84 -112 -116 -110 -309 5 -421 63
            -61 126 -87 217 -87 125 0 214 55 270 167 76 153 8 341 -149 411 -56 25 -153
            31 -206 14z m125 -212 c69 -36 68 -125 -1 -161 -61 -31 -131 12 -131 81 0 38
            22 71 57 86 30 12 43 11 75 -6z"/>
            <path d="M2488 1481 c-87 -78 8 -217 114 -167 98 47 66 196 -41 196 -31 0 -49
            -7 -73 -29z"/>
        </g>
    </symbol>
</svg>