<svg xmlns="http://www.w3.org/2000/svg">
    <symbol id="arrow-down" viewBox="0 0 512.000000 512.000000">
        <g transform="translate(0.000000,512.000000) scale(0.100000,-0.100000)">
            <path d="M245 4007 c-90 -30 -171 -102 -216 -192 -21 -43 -24 -64 -24 -155 0
            -96 2 -110 28 -160 24 -45 242 -268 1165 -1192 944 -945 1147 -1143 1197
            -1170 57 -31 65 -33 165 -33 100 0 108 2 165 33 51 27 252 224 1201 1175 905
            906 1145 1152 1165 1192 21 43 24 64 24 155 0 96 -3 110 -29 162 -35 69 -93
            127 -166 165 -50 25 -65 28 -155 28 -175 0 -75 87 -1207 -1044 l-998 -996
            -997 996 c-1121 1118 -1032 1041 -1193 1046 -50 1 -101 -3 -125 -10z"/>
        </g>
    </symbol>

    <symbol id="item11" viewBox="0 0 512.000000 512.000000">
        <g transform="translate(0.000000,512.000000) scale(0.100000,-0.100000)">
            <path d="M1859 5023 c-15 -2 -51 -18 -80 -36 -72 -44 -109 -112 -109 -203 0
            -74 15 -116 59 -166 17 -19 28 -38 24 -42 -3 -3 -83 -6 -177 -6 -158 0 -174
            -2 -211 -23 -27 -15 -47 -37 -63 -69 l-23 -46 8 -584 8 -585 29 -37 c48 -64
            61 -66 378 -65 156 1 403 4 550 8 296 7 295 6 346 81 21 32 22 41 22 262 0
            256 -5 283 -62 318 -22 13 -50 20 -85 20 -46 0 -57 -4 -97 -39 -54 -46 -76
            -55 -121 -47 -101 19 -114 172 -18 212 47 20 80 11 137 -36 43 -36 54 -40 101
            -40 43 0 59 5 86 27 58 49 61 70 53 320 -6 205 -9 227 -28 255 -48 71 -54 72
            -303 78 l-225 5 22 20 c64 57 90 196 51 280 -45 99 -161 157 -272 138z m97
            -139 c41 -19 64 -59 64 -108 0 -26 -10 -46 -39 -80 -51 -59 -61 -110 -32 -169
            36 -73 49 -77 293 -77 117 0 218 -4 224 -8 7 -4 14 -78 19 -209 6 -183 5 -203
            -9 -203 -9 0 -16 4 -16 10 0 16 -102 69 -148 76 -145 22 -272 -93 -272 -245 1
            -207 227 -313 395 -186 25 19 47 35 50 35 3 0 5 -92 5 -204 0 -174 -2 -205
            -15 -210 -9 -3 -243 -9 -520 -12 -374 -5 -508 -4 -518 4 -19 16 -34 1106 -16
            1128 9 11 48 14 183 14 143 0 177 3 206 18 47 23 80 75 80 124 0 46 -11 70
            -56 121 -55 60 -41 146 28 180 42 21 52 21 94 1z"/>
            <path d="M2952 4351 c-197 -68 -217 -350 -32 -446 16 -9 51 -18 77 -21 27 -3
            54 -8 62 -10 9 -3 -40 -57 -134 -147 -82 -78 -154 -156 -161 -174 -23 -54 -18
            -113 15 -164 16 -24 91 -105 167 -180 150 -148 179 -165 250 -149 61 14 94 56
            104 132 4 36 15 76 24 90 44 67 153 61 191 -12 20 -39 19 -69 -5 -108 -24 -39
            -73 -62 -133 -62 -107 0 -168 -137 -100 -222 50 -62 288 -299 315 -314 39 -21
            127 -18 163 5 46 30 758 730 777 765 21 39 23 108 3 149 -9 18 -199 217 -423
            444 -381 386 -410 412 -448 418 -79 12 -111 -5 -247 -135 -69 -66 -127 -120
            -130 -120 -2 0 -7 25 -10 55 -11 106 -87 193 -188 214 -65 14 -74 14 -137 -8z
            m123 -125 c48 -20 75 -68 75 -133 0 -44 5 -58 31 -88 38 -43 89 -59 144 -44
            31 9 70 40 166 135 70 68 131 124 137 124 20 0 787 -789 787 -810 0 -23 -720
            -730 -744 -730 -15 0 -291 267 -291 281 0 4 23 10 52 13 131 18 212 97 225
            221 11 102 -47 203 -141 246 -51 23 -143 25 -194 3 -78 -32 -138 -115 -149
            -205 -3 -27 -8 -49 -12 -49 -14 0 -281 276 -281 290 0 9 67 83 149 164 102
            101 154 159 161 182 31 94 -40 184 -145 184 -133 0 -171 163 -50 216 38 17 39
            17 80 0z"/>
            <path d="M204 3290 c-53 -12 -103 -49 -130 -97 -53 -88 -40 -132 282 -992 135
            -359 265 -692 288 -740 87 -171 167 -260 376 -415 154 -113 228 -185 288 -276
            l41 -63 -31 -16 c-18 -9 -45 -33 -62 -54 l-31 -39 -3 -236 c-3 -233 -3 -237
            19 -254 20 -17 64 -18 614 -18 569 0 594 1 616 19 24 19 24 20 24 243 0 248
            -2 257 -69 316 -31 27 -57 36 -125 45 -25 3 -51 139 -76 389 -19 187 -42 285
            -90 377 -51 97 -117 174 -225 265 -226 187 -413 351 -526 457 -139 131 -199
            169 -285 176 -62 6 -136 -14 -160 -43 -10 -13 -18 -4 -52 53 -53 92 -144 273
            -241 483 -89 190 -124 249 -195 323 -74 78 -170 115 -247 97z m79 -133 c62
            -26 134 -120 204 -266 120 -251 263 -535 309 -615 42 -72 47 -85 48 -151 2
            -60 9 -85 40 -151 50 -105 96 -165 240 -313 170 -174 232 -224 265 -216 33 8
            51 31 51 66 0 20 -20 46 -87 110 -275 263 -378 403 -378 512 0 43 4 52 37 83
            69 62 114 45 277 -109 113 -106 327 -293 521 -454 147 -122 221 -226 255 -360
            8 -32 22 -125 30 -208 14 -137 37 -295 52 -352 l5 -23 -331 0 -331 0 -34 68
            c-66 130 -154 223 -346 365 -74 55 -162 128 -196 162 -69 70 -139 178 -183
            280 -64 153 -510 1355 -531 1434 -27 103 -17 136 48 150 1 1 17 -5 35 -12z
            m2059 -2595 c22 -21 23 -32 26 -182 l3 -160 -510 0 -511 0 0 163 c0 172 2 182
            50 200 8 3 219 5 467 4 l452 -2 23 -23z"/>
            <path d="M2120 549 c-62 -26 -100 -85 -100 -157 0 -94 86 -170 179 -158 150
            20 193 207 69 299 -31 23 -111 32 -148 16z"/>
            <path d="M4830 3291 c-82 -17 -167 -86 -241 -196 -18 -27 -70 -129 -115 -225
            -97 -210 -188 -391 -241 -483 -34 -57 -42 -66 -52 -53 -24 29 -98 49 -160 43
            -86 -7 -146 -45 -285 -176 -113 -106 -300 -270 -526 -457 -108 -91 -174 -168
            -225 -265 -48 -92 -71 -190 -90 -377 -25 -250 -51 -386 -76 -389 -68 -9 -94
            -18 -125 -45 -67 -59 -69 -68 -69 -316 0 -223 0 -224 24 -243 22 -18 47 -19
            616 -19 550 0 594 1 614 18 22 17 22 21 19 254 l-3 236 -31 39 c-17 21 -44 45
            -62 54 l-31 16 41 63 c60 91 134 163 288 276 209 155 289 244 376 415 48 96
            518 1342 559 1484 15 50 29 116 32 147 5 49 2 63 -21 102 -43 73 -133 113
            -216 97z m87 -143 c23 -19 24 -48 2 -130 -20 -78 -466 -1281 -530 -1433 -75
            -175 -169 -286 -364 -430 -198 -145 -289 -239 -356 -367 l-40 -78 -331 0 -330
            0 5 23 c15 56 38 215 52 353 18 181 34 245 80 333 51 97 98 146 294 309 191
            159 303 258 451 397 142 134 191 151 258 91 33 -31 37 -40 37 -83 0 -109 -104
            -249 -378 -512 -89 -85 -100 -108 -77 -151 14 -27 57 -34 89 -14 48 32 312
            298 367 371 30 40 71 107 91 149 30 64 37 89 39 149 1 66 6 79 48 151 46 80
            189 364 309 615 105 218 211 315 284 257z m-1168 -2582 c20 -18 21 -29 21
            -183 l0 -163 -510 0 -510 0 0 144 c0 161 9 200 48 215 17 6 199 9 478 8 429
            -2 453 -3 473 -21z"/>
            <path d="M2875 546 c-16 -7 -43 -28 -59 -45 -24 -25 -31 -42 -34 -89 -5 -69
            11 -108 61 -146 49 -38 111 -43 166 -14 62 32 84 66 89 135 3 48 0 64 -20 92
            -12 19 -35 43 -50 54 -34 25 -113 32 -153 13z"/>
            <path d="M1945 3034 c-86 -44 -95 -72 -95 -284 0 -93 -4 -170 -8 -170 -5 0
            -17 9 -28 21 -63 70 -200 87 -287 36 -213 -125 -129 -446 116 -447 63 0 113
            17 163 55 18 14 35 25 38 25 3 0 6 -77 6 -171 0 -155 2 -175 21 -208 41 -73
            51 -76 269 -79 220 -3 241 2 273 71 30 63 19 115 -38 179 -56 61 -45 137 25
            173 39 20 66 19 106 -5 37 -23 60 -76 50 -116 -4 -13 -23 -43 -44 -66 -35 -38
            -37 -45 -37 -105 0 -62 2 -66 37 -99 l38 -34 193 0 c185 0 196 1 228 23 19 12
            44 42 57 67 20 41 22 58 22 213 l0 169 35 -31 c20 -17 52 -38 72 -46 44 -19
            143 -19 186 -2 139 59 192 245 103 366 -82 111 -243 132 -344 46 -22 -19 -42
            -35 -45 -35 -3 0 -7 80 -9 178 -3 164 -5 180 -26 214 -13 21 -40 45 -66 57
            -41 20 -57 21 -512 21 -406 0 -473 -2 -499 -16z m965 -133 c6 -11 10 -90 10
            -186 0 -185 7 -211 63 -245 20 -12 50 -20 78 -20 40 0 54 6 95 40 26 21 60 42
            75 45 39 9 95 -18 113 -54 26 -50 21 -88 -18 -127 -50 -50 -99 -48 -160 6 -57
            49 -101 58 -161 36 -77 -30 -85 -53 -85 -259 0 -220 11 -207 -176 -207 -72 0
            -133 3 -137 6 -3 4 7 23 23 43 81 100 78 226 -6 320 -149 165 -414 61 -414
            -162 0 -67 16 -110 59 -159 17 -19 28 -38 24 -42 -11 -10 -273 -7 -294 4 -18
            10 -19 23 -19 183 0 189 -8 220 -63 261 -37 27 -113 28 -147 3 -14 -10 -40
            -29 -59 -42 -75 -55 -170 -10 -171 80 0 100 115 150 181 79 53 -57 136 -71
            197 -34 54 33 62 67 62 258 0 117 4 172 12 180 9 9 125 12 460 12 432 0 448
            -1 458 -19z"/>
        </g>
    </symbol>

    <symbol id="item10" viewBox="0 0 512.000000 512.000000">
        <g transform="translate(0.000000,512.000000) scale(0.100000,-0.100000)">
            <path d="M989 4877 c-39 -30 -39 -32 -39 -856 l0 -801 -30 -28 c-27 -25 -646
            -1085 -677 -1161 -21 -50 -18 -144 6 -195 32 -64 59 -85 276 -210 220 -127
            268 -144 351 -126 49 11 118 51 133 77 7 13 101 -97 254 -294 6 -8 1 -28 -14
            -60 -14 -28 -25 -73 -27 -108 -7 -117 83 -235 205 -268 42 -11 43 -12 43 -52
            0 -24 11 -63 26 -93 47 -95 141 -152 250 -152 46 0 53 -3 58 -23 8 -34 72
            -104 122 -133 50 -30 146 -42 204 -27 33 9 36 7 90 -47 68 -70 132 -95 220
            -87 89 8 156 52 220 144 15 21 15 21 133 -48 131 -77 184 -94 259 -86 113 14
            227 130 228 233 0 30 2 32 49 38 98 13 189 100 213 203 12 51 14 53 47 53 85
            0 168 52 218 137 33 57 43 169 20 224 l-15 36 40 37 c79 75 112 210 73 301
            l-14 35 81 41 82 41 35 -39 c67 -75 145 -102 235 -83 56 11 429 220 479 267
            62 60 87 185 54 266 -32 75 -650 1134 -677 1159 l-30 28 0 801 c0 824 0 826
            -39 856 -23 18 -3119 18 -3142 0z m3011 -887 l0 -730 -30 -6 c-50 -11 -441
            -240 -478 -281 -36 -41 -66 -129 -60 -174 4 -26 1 -30 -31 -38 -88 -23 -174
            -32 -300 -32 -138 0 -193 6 -379 41 -247 48 -405 11 -565 -130 l-38 -33 -218
            78 -219 77 5 33 c8 48 -21 135 -59 178 -37 41 -428 270 -478 281 l-30 6 0 730
            0 730 1440 0 1440 0 0 -730z m-2709 -1005 c194 -111 234 -143 225 -179 -7 -29
            -623 -1096 -644 -1117 -38 -38 -52 -33 -253 82 -107 61 -200 118 -206 127 -7
            9 -13 28 -13 42 0 32 608 1094 646 1128 14 12 33 22 43 22 9 0 100 -47 202
            -105z m2783 83 c38 -34 646 -1095 646 -1127 0 -15 -6 -34 -12 -43 -7 -9 -100
            -67 -207 -127 -201 -115 -215 -120 -253 -82 -21 21 -637 1088 -644 1117 -4 14
            3 30 18 47 27 31 384 237 409 237 10 0 29 -10 43 -22z m-1339 -475 c119 -25
            150 -27 360 -27 201 -1 241 2 320 21 50 12 93 18 97 15 11 -11 479 -824 476
            -827 -2 -1 -52 -27 -111 -57 l-109 -56 -466 271 c-257 148 -492 282 -522 296
            -108 49 -245 29 -432 -65 l-67 -34 -71 -139 c-46 -90 -83 -150 -105 -170 -38
            -33 -133 -67 -148 -52 -6 6 -7 96 -2 227 l7 217 42 45 c73 80 298 283 344 309
            105 62 188 67 387 26z m-933 -55 l178 -63 -90 -90 -90 -91 -10 -174 c-16 -297
            -14 -380 13 -431 39 -73 116 -104 219 -88 152 25 232 93 329 283 l64 124 71
            31 c94 40 157 54 197 43 38 -11 1032 -585 1065 -615 32 -30 30 -88 -5 -126
            -51 -55 -60 -53 -270 69 -106 60 -204 110 -217 110 -62 0 -105 -84 -67 -132
            11 -14 116 -81 232 -149 116 -67 220 -132 230 -143 34 -35 16 -121 -30 -146
            -43 -22 -76 -9 -305 125 -178 104 -240 135 -267 135 -44 0 -67 -16 -78 -56
            -17 -62 1 -80 190 -189 96 -55 184 -110 197 -122 35 -35 30 -87 -12 -129 -20
            -20 -44 -34 -58 -34 -13 0 -98 43 -188 96 -259 151 -264 152 -314 113 -32 -25
            -36 -85 -8 -117 9 -12 78 -56 152 -98 169 -96 180 -106 180 -157 0 -31 -7 -46
            -34 -73 -20 -20 -44 -34 -58 -34 -12 0 -75 31 -139 68 -108 63 -115 69 -108
            92 12 42 10 84 -7 141 -20 67 -100 151 -162 170 -37 11 -40 14 -31 36 17 45
            10 135 -15 188 -36 79 -137 154 -207 155 -23 0 -27 5 -32 39 -11 83 -68 161
            -150 202 -57 30 -159 37 -211 15 l-39 -16 -32 38 c-18 21 -57 51 -86 67 -47
            26 -64 30 -129 30 -113 -1 -176 -42 -258 -172 -15 -24 -30 -42 -33 -40 -4 1
            -65 75 -137 163 l-130 161 246 427 c135 234 251 426 256 426 6 0 91 -28 188
            -62z m-61 -1104 c38 -37 44 -69 20 -110 -44 -75 -211 -302 -226 -308 -40 -15
            -77 -6 -111 28 -39 39 -43 67 -15 111 52 86 205 292 224 302 30 18 76 8 108
            -23z m382 -114 c47 -53 42 -65 -134 -316 -89 -126 -173 -241 -187 -256 -36
            -39 -80 -38 -127 3 -61 54 -56 65 126 325 200 285 202 287 254 280 28 -3 48
            -14 68 -36z m237 -247 c80 -55 74 -75 -90 -309 -77 -109 -150 -207 -161 -216
            -58 -49 -175 24 -153 95 8 26 269 402 298 428 25 24 74 24 106 2z m196 -362
            c39 -24 61 -73 46 -105 -19 -42 -131 -193 -147 -200 -66 -25 -157 45 -141 108
            6 26 109 173 138 199 26 22 65 22 104 -2z"/>
            <path d="M1755 4299 l-105 -102 -45 42 c-32 29 -53 41 -75 41 -44 0 -80 -39
            -80 -86 0 -34 9 -46 83 -121 76 -76 87 -83 122 -83 37 0 47 8 182 143 137 137
            143 145 143 183 0 53 -31 84 -84 84 -34 0 -47 -9 -141 -101z"/>
            <path d="M2289 4257 c-46 -35 -50 -88 -10 -128 l29 -29 657 0 656 0 24 25 c36
            35 35 96 -1 124 -26 21 -34 21 -683 21 -500 -1 -660 -4 -672 -13z"/>
            <path d="M1761 3436 l-106 -105 -48 46 c-44 41 -52 45 -85 40 -46 -8 -72 -38
            -72 -86 0 -32 9 -46 83 -119 76 -75 86 -82 122 -82 38 0 47 7 183 143 137 137
            142 144 142 184 0 33 -5 46 -26 62 -53 41 -77 31 -193 -83z"/>
            <path d="M2279 3391 c-16 -16 -29 -39 -29 -51 0 -29 26 -76 45 -84 9 -3 312
            -6 674 -6 l658 0 21 23 c28 29 29 86 3 118 l-19 24 -662 3 -661 2 -30 -29z"/>
        </g>
    </symbol>

    <symbol id="item9" viewBox="0 0 512.000000 512.000000">
        <g transform="translate(0.000000,512.000000) scale(0.100000,-0.100000)">
            <path d="M1253 5079 c-584 -60 -1069 -499 -1195 -1082 -30 -139 -32 -409 -4
            -542 52 -248 161 -467 324 -651 38 -44 369 -398 735 -789 366 -390 665 -710
            664 -711 -1 -1 -38 4 -82 12 -533 94 -1119 -105 -1617 -549 -43 -38 -78 -75
            -78 -82 0 -17 116 -125 220 -206 274 -210 576 -355 875 -419 128 -28 393 -38
            532 -20 325 40 616 167 874 381 l59 50 59 -50 c258 -214 549 -341 874 -381
            139 -18 404 -8 532 20 299 64 601 209 875 419 104 81 220 189 220 206 0 29
            -226 214 -395 324 -414 270 -882 381 -1300 307 -44 -8 -81 -13 -82 -12 -1 1
            298 321 664 711 366 391 697 745 735 789 163 184 272 403 324 651 28 133 26
            402 -4 542 -84 387 -323 715 -667 912 -277 158 -612 213 -955 155 -156 -26
            -267 -68 -579 -224 l-301 -149 -302 149 c-310 155 -419 197 -577 225 -109 19
            -314 26 -428 14z m367 -180 c153 -23 239 -57 593 -231 l347 -172 348 172 c439
            217 527 244 792 243 156 0 275 -18 405 -62 289 -98 545 -321 683 -596 209
            -413 158 -918 -130 -1276 -55 -68 -2089 -2245 -2098 -2245 -9 0 -2043 2176
            -2097 2244 -369 459 -340 1129 67 1558 281 296 675 428 1090 365z m10 -3750
            c95 -13 201 -40 314 -82 l88 -32 125 -132 125 -133 -173 0 -174 0 -232 155
            c-128 85 -235 155 -238 155 -7 0 -99 -140 -94 -144 2 -2 54 -36 114 -76 61
            -40 114 -77 120 -81 5 -5 -79 -9 -196 -9 l-206 0 -153 115 c-84 63 -154 115
            -155 115 -5 0 -95 -130 -95 -138 0 -6 25 -29 57 -51 l56 -41 -156 0 -157 0 0
            -85 0 -85 347 0 348 0 -93 -93 -92 -92 63 -63 62 -62 155 155 155 155 445 0
            445 -1 -45 -40 c-156 -139 -432 -276 -660 -327 -242 -55 -535 -35 -795 53
            -187 63 -509 245 -644 363 l-44 38 94 70 c140 104 229 158 384 234 318 155
            584 201 905 159z m2183 10 c323 -28 655 -169 986 -417 l74 -56 -42 -37 c-131
            -117 -457 -300 -646 -364 -261 -88 -553 -108 -795 -53 -228 51 -504 188 -660
            327 l-45 40 445 1 445 0 155 -155 155 -155 62 62 63 63 -92 92 -93 93 348 0
            347 0 0 85 0 85 -157 0 -156 0 56 41 c32 22 57 45 57 51 0 8 -90 138 -95 138
            -1 0 -71 -52 -155 -115 l-153 -115 -206 0 c-117 0 -201 4 -195 9 5 4 59 41
            119 81 61 40 112 74 114 76 5 4 -87 144 -94 144 -3 0 -110 -70 -238 -155
            l-232 -155 -173 0 -174 0 123 131 c74 79 137 136 159 146 133 56 313 100 463
            113 51 4 97 8 102 8 6 1 63 -3 128 -9z"/>
            <path d="M3700 4678 l0 -85 71 -7 c438 -44 783 -388 816 -813 l6 -83 86 0 87
            0 -8 104 c-38 506 -459 925 -970 962 l-88 7 0 -85z"/>
            <path d="M2360 4175 c-633 -106 -1079 -685 -1020 -1320 52 -546 434 -976 971
            -1092 117 -25 381 -25 498 0 750 162 1168 939 890 1657 -150 388 -523 687
            -943 755 -109 18 -292 18 -396 0z m110 -663 l0 -499 -419 -241 c-230 -133
            -425 -244 -433 -247 -10 -4 -18 1 -21 12 -3 10 -17 52 -32 93 -45 130 -58 219
            -52 375 8 214 58 368 174 544 106 159 287 309 458 380 89 37 244 80 293 81
            l32 0 0 -498z m332 474 c264 -67 487 -221 631 -437 116 -176 166 -330 174
            -544 6 -156 -7 -245 -52 -375 -15 -41 -29 -83 -32 -93 -3 -11 -11 -16 -21 -12
            -8 3 -203 114 -433 247 l-419 241 0 499 0 498 29 0 c16 0 71 -11 123 -24z
            m193 -1373 c226 -130 414 -240 419 -244 15 -13 -100 -145 -190 -218 -94 -75
            -243 -157 -344 -189 -114 -36 -182 -46 -320 -46 -194 0 -312 28 -481 116 -120
            62 -250 166 -325 258 -31 39 -54 73 -51 76 3 3 196 115 428 250 251 144 430
            242 439 238 8 -3 200 -111 425 -241z"/>
        </g>
    </symbol>

    <symbol id="item8" viewBox="0 0 512.000000 512.000000">
        <g transform="translate(0.000000,512.000000) scale(0.100000,-0.100000)">
            <path d="M2365 5101 c-162 -41 -289 -115 -402 -235 -39 -40 -86 -100 -106
            -132 -20 -35 -40 -58 -48 -56 -110 28 -165 34 -279 29 -104 -4 -141 -10 -220
            -35 -214 -70 -382 -216 -480 -417 -55 -114 -77 -193 -86 -315 -6 -75 5 -197
            22 -252 5 -16 -3 -18 -65 -18 -182 0 -326 -74 -408 -211 -61 -102 -64 -132
            -61 -591 3 -401 4 -415 25 -468 46 -112 144 -210 253 -251 37 -14 89 -23 158
            -26 77 -5 102 -9 98 -18 -2 -7 -10 -50 -17 -95 -22 -152 7 -333 74 -466 l34
            -68 -43 -98 c-24 -54 -44 -112 -44 -128 0 -42 31 -70 79 -70 46 0 69 23 97 96
            9 24 19 44 21 44 3 0 26 -17 52 -38 171 -141 335 -202 546 -202 61 0 136 7
            170 15 33 8 67 14 75 15 9 0 30 -25 49 -56 44 -73 149 -185 228 -241 l63 -44
            -14 -32 c-24 -58 -214 -483 -236 -531 -19 -39 -27 -46 -51 -46 -35 0 -24 -21
            -196 365 -74 165 -144 310 -155 322 -12 13 -32 23 -46 23 -13 0 -177 -50 -364
            -111 -224 -73 -347 -109 -363 -105 -40 10 -39 38 10 147 68 153 60 209 -31
            209 -52 0 -55 -3 -121 -150 -59 -134 -65 -181 -28 -255 36 -75 86 -108 169
            -113 55 -3 90 7 366 97 168 55 308 97 312 93 3 -4 63 -135 133 -292 70 -157
            138 -300 152 -318 74 -99 261 -96 328 7 13 20 81 166 151 326 71 160 129 292
            131 294 1 2 36 -4 77 -13 99 -24 273 -24 372 0 41 9 76 15 77 13 2 -2 61 -134
            131 -294 70 -160 138 -306 151 -326 67 -103 253 -106 328 -7 14 18 82 161 152
            318 70 157 130 288 133 292 4 4 144 -38 312 -93 275 -90 311 -99 366 -97 83 5
            133 38 169 113 43 88 39 103 -142 510 l-160 360 34 69 c66 132 96 321 74 466
            -6 41 -14 82 -17 91 -4 14 10 17 98 22 69 3 121 12 158 26 109 41 207 139 253
            251 21 53 22 67 25 468 3 351 1 422 -13 475 -52 203 -224 327 -456 327 -57 0
            -70 3 -66 14 16 41 29 188 23 260 -9 120 -31 200 -85 311 -83 170 -154 223
            -216 160 -37 -36 -31 -68 24 -151 110 -164 146 -360 98 -539 l-13 -50 -176 -3
            -176 -2 -58 82 c-209 299 -547 520 -917 600 -150 32 -447 32 -597 -1 -371 -82
            -705 -300 -914 -599 l-58 -82 -176 2 -176 3 -13 50 c-36 138 -23 300 37 431
            86 189 256 331 457 379 105 26 251 18 364 -20 120 -39 127 -36 186 77 78 151
            204 267 353 326 83 32 135 42 240 42 105 0 157 -10 240 -42 149 -59 275 -175
            353 -326 59 -113 67 -116 186 -76 78 26 98 29 216 28 114 0 140 -3 210 -27 99
            -33 110 -33 140 -2 33 32 34 84 3 112 -71 66 -349 103 -515 69 -44 -9 -85 -16
            -91 -16 -5 0 -24 25 -41 55 -67 119 -226 258 -366 320 -148 65 -375 85 -530
            46z m385 -896 c211 -32 437 -125 600 -248 84 -64 213 -191 258 -254 l23 -33
            -1071 0 -1071 0 33 46 c51 72 207 215 301 278 275 183 611 260 927 211z m1816
            -722 c63 -34 97 -66 129 -125 l30 -53 0 -410 0 -410 -27 -50 c-31 -59 -67 -94
            -128 -126 l-45 -24 -1965 0 -1965 0 -51 27 c-29 15 -68 46 -88 70 -63 73 -66
            97 -66 512 0 222 4 386 10 408 25 89 128 188 209 201 14 2 901 4 1971 3 l1945
            -1 41 -22z m-3229 -1435 c65 -100 277 -310 383 -380 168 -111 349 -188 543
            -230 138 -30 435 -32 572 -5 202 41 393 121 565 235 108 72 311 272 379 375
            l52 77 174 0 174 0 16 -52 c70 -235 -23 -518 -226 -684 -66 -54 -172 -107
            -259 -129 -100 -26 -270 -17 -377 20 -111 38 -124 33 -182 -83 -35 -69 -62
            -105 -130 -172 -135 -134 -275 -192 -461 -192 -186 0 -326 58 -461 192 -68 67
            -95 103 -130 172 -58 116 -71 121 -182 83 -107 -37 -277 -46 -377 -20 -87 22
            -193 75 -259 129 -203 166 -296 449 -226 684 l16 52 174 0 174 0 48 -72z
            m2283 52 c-22 -41 -187 -204 -269 -266 -465 -349 -1119 -349 -1582 0 -82 62
            -247 225 -269 266 -11 20 -2 20 1060 20 1062 0 1071 0 1060 -20z m673 -1091
            c89 -201 136 -318 132 -330 -13 -40 -47 -33 -393 80 -187 61 -351 111 -364
            111 -12 0 -31 -7 -41 -14 -10 -8 -80 -152 -156 -322 -179 -401 -165 -376 -203
            -372 -30 3 -33 10 -135 238 -57 129 -117 265 -133 302 l-29 67 62 44 c79 56
            185 168 228 241 19 31 40 56 49 56 8 -1 42 -7 75 -15 88 -22 262 -19 362 5
            132 32 257 96 363 189 19 16 37 30 40 31 3 0 67 -140 143 -311z"/>
            <path d="M1296 3289 c-49 -38 -38 -72 73 -230 l99 -141 -108 -153 c-131 -185
            -133 -189 -125 -226 8 -36 39 -59 81 -59 39 0 60 22 168 178 42 62 80 112 84
            112 4 -1 48 -60 97 -131 50 -72 99 -137 110 -145 33 -23 81 -18 104 12 37 47
            28 71 -79 223 -55 79 -108 153 -116 166 -15 23 -13 28 74 152 110 158 115 167
            107 204 -14 61 -92 80 -136 32 -14 -16 -56 -72 -94 -125 l-68 -98 -79 113
            c-43 61 -86 118 -95 125 -25 18 -67 15 -97 -9z"/>
            <path d="M2065 3285 l-25 -24 0 -366 0 -366 25 -24 c32 -33 83 -34 113 -2 20
            21 22 34 22 144 l0 120 94 5 c81 4 102 9 148 35 163 92 188 316 48 436 -65 55
            -112 67 -267 67 -129 0 -135 -1 -158 -25z m295 -150 c58 -30 75 -86 44 -146
            -20 -39 -68 -59 -144 -59 l-60 0 0 110 0 110 65 0 c39 0 78 -6 95 -15z"/>
            <path d="M3335 3285 l-25 -24 0 -369 0 -369 23 -21 c29 -27 77 -28 108 -3 22
            18 24 28 29 136 l5 116 114 -130 c62 -71 120 -132 128 -135 55 -22 113 15 113
            71 0 34 -11 50 -121 173 l-67 76 53 28 c124 65 171 210 109 334 -54 110 -127
            142 -316 142 -124 0 -130 -1 -153 -25z m278 -146 c63 -32 75 -98 27 -144 -27
            -26 -40 -30 -100 -33 l-70 -4 0 96 0 96 61 0 c33 0 70 -5 82 -11z"/>
            <path d="M3966 3289 c-35 -28 -36 -80 -1 -114 21 -21 33 -25 89 -25 l65 0 3
            -316 3 -316 24 -19 c32 -26 82 -25 109 4 22 23 22 29 22 335 l0 312 70 0 c62
            0 74 3 95 25 16 15 25 36 25 55 0 19 -9 40 -25 55 -24 25 -24 25 -238 25 -202
            0 -216 -1 -241 -21z"/>
            <path d="M671 3274 c-20 -26 -21 -38 -21 -386 l0 -359 25 -24 c24 -25 27 -25
            199 -25 l175 0 20 26 c28 36 27 79 -4 109 -23 24 -30 25 -140 25 l-115 0 0 85
            0 85 105 0 c99 0 107 2 130 25 16 15 25 36 25 55 0 19 -9 40 -25 55 -23 23
            -31 25 -130 25 l-105 0 0 85 0 85 99 0 c106 0 156 12 171 40 16 30 11 75 -10
            98 -20 21 -29 22 -200 22 l-179 0 -20 -26z"/>
            <path d="M2750 3280 c-19 -19 -20 -33 -20 -390 0 -367 0 -369 22 -390 20 -18
            35 -20 193 -20 134 0 175 3 192 15 44 31 37 111 -13 134 -14 6 -72 11 -129 11
            l-105 0 0 85 0 85 95 0 c52 0 105 5 119 11 36 17 52 69 32 107 -20 39 -30 42
            -147 42 l-99 0 0 84 0 84 116 4 c112 3 117 4 140 31 29 34 31 66 3 101 l-20
            26 -180 0 c-166 0 -180 -1 -199 -20z"/>
        </g>
    </symbol>

    <symbol id="item7" viewBox="0 0 512.000000 512.000000">
        <g transform="translate(0.000000,512.000000) scale(0.100000,-0.100000)">
            <path d="M683 5043 c-31 -6 -53 -40 -53 -80 0 -42 151 -348 179 -363 33 -17
            76 -12 99 13 39 41 30 82 -57 256 -71 141 -84 160 -112 170 -18 6 -32 10 -33
            10 -1 -1 -11 -4 -23 -6z"/>
            <path d="M1890 5044 c-14 -2 -56 -9 -95 -15 -316 -51 -604 -271 -753 -572 -74
            -150 -103 -282 -103 -468 0 -247 59 -419 218 -630 96 -128 144 -218 177 -331
            27 -92 31 -141 28 -285 l-2 -93 -64 0 c-76 0 -104 -18 -112 -70 -4 -27 -1 -42
            16 -63 20 -25 27 -27 91 -27 l69 0 0 -90 c0 -83 2 -93 25 -115 l24 -25 566 0
            c350 0 573 4 585 10 26 14 40 63 40 146 l0 74 83 0 c90 0 108 9 120 58 7 31
            -10 80 -33 92 -10 6 -53 10 -96 10 l-77 0 6 138 c10 228 56 359 193 550 92
            128 154 253 191 388 25 91 28 114 28 274 0 151 -3 187 -23 262 -53 199 -127
            332 -262 469 -197 201 -428 304 -700 314 -63 2 -126 2 -140 -1z m325 -189 c33
            -9 106 -38 162 -65 84 -41 117 -65 192 -135 190 -182 284 -394 284 -650 1
            -211 -61 -386 -202 -577 -115 -156 -183 -321 -207 -505 l-7 -53 -108 0 -109 0
            0 383 0 382 140 140 c153 153 163 173 119 229 l-20 26 -477 0 c-505 -1 -495 0
            -521 -48 -23 -44 -5 -74 134 -212 l135 -135 0 -382 0 -383 -99 0 -98 0 -7 59
            c-18 158 -107 362 -227 521 -83 110 -140 221 -170 335 -31 113 -31 316 0 430
            89 331 360 588 687 649 100 19 314 14 399 -9z m-73 -1069 l-82 -84 0 -416 0
            -416 -80 0 -79 0 -3 420 -3 420 -80 80 -80 80 245 0 244 0 -82 -84z m288
            -1106 l0 -30 -450 0 -450 0 0 30 0 30 450 0 450 0 0 -30z m0 -220 l0 -30 -450
            0 -450 0 0 30 0 30 450 0 450 0 0 -30z"/>
            <path d="M3232 5033 c-21 -8 -182 -339 -182 -373 0 -61 74 -92 129 -54 27 19
            181 325 181 361 0 36 -42 73 -82 72 -18 0 -39 -3 -46 -6z"/>
            <path d="M423 4600 c-55 -23 -66 -95 -20 -138 25 -23 328 -122 374 -122 40 0
            83 40 83 78 0 58 -28 77 -200 132 -182 58 -207 63 -237 50z"/>
            <path d="M3330 4554 c-178 -58 -210 -78 -210 -135 0 -41 39 -79 82 -79 18 0
            110 25 205 55 183 59 203 71 203 128 0 39 -49 87 -87 86 -15 -1 -102 -25 -193
            -55z"/>
            <path d="M3569 2498 c-9 -7 -44 -48 -79 -91 -74 -90 -174 -170 -244 -193 -38
            -13 -67 -15 -134 -10 -79 7 -86 6 -108 -15 -16 -15 -24 -34 -24 -55 l0 -32
            -47 14 c-38 12 -228 14 -1122 14 -971 0 -1079 -2 -1099 -16 -44 -31 -45 -55
            -2 -161 74 -185 74 -292 -1 -454 -31 -69 -38 -92 -30 -111 18 -48 33 -53 210
            -58 l166 -5 29 -75 c26 -64 30 -89 30 -170 1 -82 -3 -103 -25 -151 -26 -55
            -27 -56 -76 -62 -119 -14 -240 -105 -296 -224 -30 -63 -32 -75 -32 -173 1 -94
            3 -111 28 -162 58 -118 164 -201 290 -228 36 -7 384 -9 1120 -8 l1069 3 20 25
            c26 32 21 68 -27 190 -33 82 -38 108 -42 195 -3 87 -1 107 19 155 l23 54 62
            13 c155 31 284 145 318 281 l12 45 218 -394 c143 -256 234 -410 262 -440 93
            -100 237 -144 376 -116 99 20 139 40 197 98 116 116 149 301 80 446 -59 124
            -1022 1849 -1042 1866 -24 20 -77 23 -99 5z m518 -1088 c258 -470 475 -870
            481 -889 63 -184 -161 -358 -332 -257 -31 18 -59 46 -80 79 -17 27 -236 420
            -486 871 l-455 821 48 12 c26 7 56 17 66 22 16 9 47 -43 266 -435 137 -245
            260 -454 273 -465 54 -42 132 -5 132 62 0 23 -68 155 -250 480 -137 246 -250
            451 -250 455 0 15 104 114 111 106 4 -4 218 -392 476 -862z m-1149 525 c62
            -34 105 -90 123 -159 23 -93 -28 -199 -123 -251 l-53 -30 -994 -3 c-856 -2
            -993 -1 -988 12 7 18 24 83 32 119 l5 27 524 0 c499 0 525 1 547 19 18 14 24
            29 24 61 0 32 -6 47 -24 61 -22 18 -48 19 -550 19 l-526 0 -21 80 -21 81 996
            -3 996 -3 53 -30z m304 -609 c64 -19 110 -57 143 -118 51 -94 34 -198 -47
            -275 -69 -67 -5 -63 -1098 -63 -558 0 -990 4 -990 9 0 5 7 28 15 51 8 23 15
            53 15 66 l0 24 555 0 556 0 24 25 c32 31 34 86 5 115 -20 20 -33 20 -580 20
            l-559 0 -11 43 c-6 23 -15 55 -20 71 -6 16 -10 31 -10 32 0 2 375 5 833 7 457
            1 898 3 978 5 101 1 160 -2 191 -12z m-1201 -626 l956 0 -13 -52 c-8 -29 -14
            -63 -14 -75 l0 -23 -552 0 c-422 0 -559 -3 -578 -13 -52 -26 -48 -121 6 -146
            18 -8 189 -11 583 -11 l558 0 11 -47 c6 -27 14 -58 18 -71 l6 -22 -996 0
            c-1091 0 -1027 -3 -1100 60 -109 96 -106 262 5 352 43 35 106 60 134 53 11 -3
            450 -5 976 -5z"/>
        </g>
    </symbol>

    <symbol id="item6" viewBox="0 0 512.000000 512.000000">
        <g transform="translate(0.000000,512.000000) scale(0.100000,-0.100000)">
            <path d="M2442 5055 c-95 -21 -1586 -811 -1648 -874 -62 -62 -87 -134 -82
            -231 3 -41 8 -82 12 -91 7 -15 -6 -17 -121 -21 -115 -3 -134 -6 -190 -32 -103
            -47 -178 -141 -202 -254 -8 -38 -11 -444 -11 -1407 l0 -1355 -74 0 c-59 0 -78
            -4 -100 -21 -26 -20 -26 -21 -26 -168 0 -96 5 -163 14 -192 55 -180 204 -316
            380 -348 84 -15 4248 -15 4332 0 176 32 325 168 380 348 9 29 14 96 14 192 0
            147 0 148 -26 168 -22 17 -41 21 -100 21 l-74 0 0 1355 c0 963 -3 1369 -11
            1407 -24 113 -99 207 -202 254 -56 26 -75 29 -190 32 -115 4 -128 6 -121 21 4
            9 9 50 12 91 3 59 -1 87 -17 131 -40 105 -58 117 -623 417 -304 160 -526 272
            -542 272 -60 0 -98 -82 -58 -128 9 -11 239 -138 511 -282 272 -144 501 -266
            510 -272 72 -45 80 -172 15 -229 -15 -13 -949 -513 -975 -522 -3 -1 -143 156
            -312 348 -218 248 -316 353 -336 359 -58 17 -113 -36 -98 -95 3 -13 137 -172
            296 -354 160 -181 290 -333 291 -337 0 -9 -355 -195 -407 -213 -56 -19 -150
            -19 -205 0 -37 12 -1465 763 -1526 801 -82 53 -81 192 2 243 107 66 1496 793
            1538 806 104 30 166 16 351 -80 68 -36 136 -65 151 -65 32 0 76 40 76 70 0 52
            -25 74 -182 152 -197 100 -277 115 -426 83z m-1373 -1467 l176 -93 -327 -5
            c-297 -5 -329 -7 -345 -23 -17 -17 -18 -80 -18 -1233 l0 -1216 24 -19 c21 -17
            42 -19 253 -19 l229 0 26 26 c21 21 24 32 20 62 -11 65 -17 67 -217 70 l-180
            3 0 1095 0 1094 328 0 329 0 6 -192 c7 -222 20 -287 79 -406 51 -104 152 -214
            251 -276 125 -77 351 -150 558 -180 286 -42 522 -28 847 51 19 5 22 1 22 -27
            0 -23 -27 -80 -90 -189 -55 -96 -92 -172 -96 -198 -15 -95 40 -199 130 -245
            59 -31 203 -31 262 -1 91 48 144 149 130 246 -4 27 -38 98 -91 191 -84 147
            -85 149 -85 218 l0 69 36 15 c134 56 276 191 342 326 59 119 72 184 79 406 l6
            192 329 0 328 0 0 -1095 0 -1095 -1555 0 -1556 0 -24 -25 c-32 -31 -33 -80 -3
            -112 l21 -23 1613 0 c1572 0 1612 0 1635 19 l24 19 0 1216 c0 1153 -1 1216
            -18 1233 -16 16 -48 18 -345 23 l-327 5 176 93 176 92 184 0 c157 0 190 -3
            225 -19 51 -23 99 -81 113 -137 8 -30 11 -452 11 -1388 l0 -1346 -2200 0
            -2200 0 0 1348 c0 1488 -3 1416 62 1479 59 57 84 62 287 63 l184 0 176 -92z
            m883 -468 c254 -134 438 -225 474 -235 75 -19 194 -19 269 1 54 13 145 58 363
            176 l72 40 0 -300 0 -300 -82 -22 c-120 -33 -277 -58 -408 -66 -257 -15 -605
            53 -812 157 -81 41 -185 145 -226 224 -54 109 -63 155 -69 358 -3 103 -3 187
            -1 187 3 0 192 -99 420 -220z m1635 33 c-6 -203 -15 -249 -69 -358 -32 -63
            -138 -176 -195 -208 l-33 -18 0 308 0 308 143 77 c78 42 146 77 151 77 5 1 6
            -79 3 -186z m-328 -1173 c28 -49 51 -96 51 -104 0 -8 -11 -28 -24 -43 -21 -25
            -31 -28 -81 -28 -50 0 -60 3 -82 29 -17 20 -23 36 -19 52 5 19 96 184 102 184
            1 0 25 -40 53 -90z m-1309 -1396 c27 -97 125 -192 231 -225 54 -17 94 -19 379
            -19 285 0 325 2 379 19 106 33 204 128 231 225 l13 46 893 0 894 0 0 -32 c-1
            -190 -92 -325 -250 -372 -48 -14 -267 -16 -2160 -16 -1893 0 -2112 2 -2160 16
            -94 28 -166 87 -210 173 -19 39 -40 139 -40 199 l0 32 894 0 893 0 13 -46z
            m1060 36 c0 -20 -66 -84 -105 -101 -36 -17 -71 -19 -345 -19 -274 0 -309 2
            -345 19 -39 17 -105 81 -105 101 0 6 167 10 450 10 283 0 450 -4 450 -10z"/>
            <path d="M950 1780 c-26 -26 -26 -80 -1 -111 l19 -24 509 -3 c279 -2 523 0
            541 3 66 12 92 77 51 129 l-20 26 -540 0 c-526 0 -539 0 -559 -20z"/>
            <path d="M956 1469 c-35 -27 -36 -86 -3 -117 l23 -22 780 0 c855 0 815 -3 829
            59 8 38 -16 86 -47 95 -13 3 -368 6 -789 6 -760 0 -767 0 -793 -21z"/>
        </g>
    </symbol>

    <symbol id="item5" viewBox="0 0 512.000000 512.000000">
        <g transform="translate(0.000000,512.000000) scale(0.100000,-0.100000)">
            <path d="M2365 5071 c-28 -12 -62 -50 -74 -84 -6 -16 -11 -102 -11 -198 l0
            -169 -1080 0 c-1174 0 -1122 3 -1148 -55 -17 -38 -17 -2462 0 -2500 26 -57 0
            -55 852 -55 l784 0 -110 -330 -110 -330 -165 0 c-98 0 -172 -4 -185 -11 -26
            -14 -48 -67 -41 -102 3 -15 19 -38 35 -52 28 -24 36 -25 159 -25 86 0 129 -4
            129 -11 0 -6 -73 -230 -161 -497 -97 -290 -162 -502 -162 -525 0 -26 7 -46 22
            -60 l22 -22 1440 0 1441 0 19 24 c12 14 19 39 19 63 0 26 -60 222 -160 525
            -88 266 -160 488 -160 493 0 6 51 10 129 10 123 0 131 1 159 25 16 14 32 37
            35 52 7 35 -15 88 -41 102 -13 7 -87 11 -185 11 l-165 0 -110 330 -110 330
            784 0 c852 0 826 -2 852 55 17 38 17 2462 0 2500 -26 58 26 55 -1148 55
            l-1080 0 0 170 c0 185 -6 216 -54 260 -27 25 -30 25 -214 27 -103 1 -196 -2
            -207 -6z m285 -316 l0 -135 -90 0 -90 0 0 135 0 135 90 0 90 0 0 -135z m2240
            -1440 l0 -1115 -2330 0 -2330 0 0 1115 0 1115 2330 0 2330 0 0 -1115z m-1556
            -1624 c58 -176 106 -324 106 -330 0 -8 -257 -11 -880 -11 -582 0 -880 3 -880
            10 0 6 47 154 105 330 l106 320 669 0 669 0 105 -319z m325 -984 c83 -249 151
            -459 151 -465 0 -9 -292 -12 -1250 -12 -881 0 -1250 3 -1250 11 0 6 68 215
            151 465 l150 454 949 0 949 0 150 -453z"/>
            <path d="M3499 3909 c-360 -210 -665 -392 -679 -405 -34 -33 -34 -93 -1 -128
            19 -20 34 -26 66 -26 36 0 121 47 699 384 362 212 666 392 677 402 27 24 26
            93 -2 128 -16 21 -29 26 -63 26 -38 0 -115 -42 -697 -381z"/>
            <path d="M4419 4154 l-24 -26 -3 -754 -2 -754 -776 -2 -776 -3 -24 -28 c-33
            -39 -33 -99 1 -132 l24 -25 846 0 846 0 24 25 25 24 0 826 0 826 -25 24 c-35
            36 -102 35 -136 -1z"/>
            <path d="M585 3773 c-66 -16 -89 -109 -40 -158 l24 -25 846 0 846 0 24 25 c36
            35 35 102 -1 136 l-26 24 -826 1 c-455 1 -836 0 -847 -3z"/>
            <path d="M3908 3704 c-15 -8 -32 -23 -38 -34 -6 -12 -10 -168 -10 -430 l0
            -412 29 -29 c38 -37 88 -39 128 -5 l28 24 3 408 c3 449 2 457 -54 480 -41 17
            -52 17 -86 -2z"/>
            <path d="M3443 3400 c-49 -20 -54 -50 -51 -326 l3 -256 28 -24 c40 -34 90 -32
            128 5 l29 29 0 262 0 262 -29 29 c-30 30 -65 36 -108 19z"/>
            <path d="M545 3355 c-19 -18 -25 -35 -25 -69 0 -37 5 -48 31 -70 l31 -26 833
            0 833 0 31 26 c26 22 31 33 31 70 0 34 -6 51 -25 69 l-24 25 -846 0 -846 0
            -24 -25z"/>
            <path d="M2990 3253 c-8 -3 -25 -15 -37 -26 -22 -20 -23 -26 -23 -222 0 -188
            1 -203 20 -223 45 -48 123 -39 153 18 16 31 17 58 15 217 -3 180 -3 183 -28
            208 -26 25 -73 39 -100 28z"/>
            <path d="M580 3003 c-63 -23 -83 -111 -35 -158 l24 -25 846 0 846 0 24 25 c36
            35 35 102 -1 136 l-26 24 -831 2 c-458 1 -839 -1 -847 -4z"/>
        </g>
    </symbol>

    <symbol id="item4" viewBox="0 0 512.000000 512.000000">
        <g transform="translate(0.000000,512.000000) scale(0.100000,-0.100000)">
            <path d="M2300 5105 c-628 -92 -1165 -487 -1435 -1057 -121 -255 -176 -510
            -176 -817 0 -268 45 -489 154 -741 94 -218 226 -410 492 -715 66 -76 250 -296
            408 -489 l288 -351 -38 -6 c-21 -4 -110 -12 -198 -19 -504 -37 -937 -128
            -1124 -237 -57 -33 -119 -89 -137 -124 -18 -36 -18 -122 1 -158 8 -16 36 -48
            62 -71 158 -139 536 -233 1178 -292 212 -20 303 -22 785 -22 560 -1 708 6
            1070 50 546 66 888 186 967 338 20 38 20 114 -1 153 -41 81 -187 167 -375 222
            -205 61 -558 117 -886 141 -88 7 -177 15 -197 19 l-37 6 266 325 c146 179 318
            385 382 459 314 362 445 550 546 786 215 505 198 1092 -47 1579 -279 555 -805
            934 -1419 1021 -126 18 -409 18 -529 0z m477 -175 c580 -77 1071 -433 1322
            -961 223 -467 220 -1007 -8 -1469 -93 -187 -212 -352 -477 -656 -66 -77 -315
            -377 -554 -669 -238 -291 -441 -535 -449 -542 -32 -25 -75 -15 -112 25 -20 20
            -220 262 -445 537 -225 275 -463 562 -529 639 -313 361 -428 526 -524 750
            -158 371 -176 795 -50 1186 114 354 349 665 664 879 210 143 446 235 704 276
            105 16 351 19 458 5z m-527 -4262 c156 -195 203 -229 317 -229 111 0 176 48
            323 240 l55 72 145 -6 c500 -20 1071 -119 1270 -220 90 -45 88 -66 -10 -115
            -273 -138 -985 -230 -1780 -230 -747 0 -1370 73 -1725 201 -90 33 -153 77
            -140 99 13 21 163 87 264 115 278 78 788 146 1136 153 l80 1 65 -81z"/>
            <path d="M2427 4770 c-680 -64 -1222 -548 -1369 -1221 -19 -89 -22 -133 -22
            -309 0 -176 3 -220 22 -310 89 -409 315 -744 656 -972 488 -326 1134 -342
            1641 -40 231 138 441 359 566 596 125 238 179 455 179 726 0 397 -130 736
            -398 1035 -311 349 -803 540 -1275 495z m398 -202 c561 -110 992 -558 1082
            -1122 19 -123 13 -372 -12 -486 -90 -408 -359 -753 -731 -937 -342 -170 -725
            -187 -1089 -48 -426 163 -743 542 -842 1005 -25 119 -25 401 0 520 158 742
            860 1213 1592 1068z"/>
            <path d="M2440 4439 c-150 -13 -288 -53 -430 -124 -126 -64 -263 -165 -289
            -213 -37 -69 26 -148 102 -128 12 3 56 33 97 67 140 113 355 201 525 215 103
            8 134 20 152 59 25 53 2 109 -52 123 -16 4 -64 5 -105 1z"/>
            <path d="M2826 4369 c-58 -45 -21 -139 55 -139 72 0 106 84 54 135 -30 31 -73
            32 -109 4z"/>
            <path d="M1565 3725 c-27 -26 -33 -72 -14 -107 17 -32 71 -48 159 -48 l80 0 0
            -295 0 -294 -34 -35 c-45 -45 -85 -53 -134 -29 -39 21 -63 58 -82 131 -9 35
            -18 46 -43 57 -42 17 -83 9 -108 -24 -18 -22 -20 -36 -16 -88 6 -81 47 -155
            113 -206 60 -46 109 -61 194 -60 117 1 211 61 262 168 l28 60 0 308 0 307 78
            0 c108 0 149 13 169 55 18 38 12 76 -17 105 -19 19 -35 20 -315 20 l-296 0
            -24 -25z"/>
            <path d="M2448 3735 c-88 -32 -158 -100 -201 -193 -21 -44 -22 -61 -22 -302
            l0 -255 33 -67 c38 -77 92 -130 170 -166 82 -37 194 -36 279 2 72 33 137 97
            173 171 25 49 25 54 25 310 l0 260 -28 60 c-36 76 -110 147 -183 175 -65 24
            -188 26 -246 5z m202 -187 c73 -50 75 -57 78 -281 2 -111 0 -217 -3 -235 -8
            -45 -57 -97 -109 -117 -53 -20 -108 -9 -157 32 -54 46 -59 72 -59 288 0 204 6
            242 48 289 44 49 147 61 202 24z"/>
            <path d="M3070 3728 c-18 -13 -43 -36 -54 -51 -20 -28 -21 -41 -24 -425 -2
            -282 1 -404 9 -424 6 -15 28 -43 49 -62 48 -43 87 -50 263 -44 115 3 139 7
            187 29 97 46 164 138 177 247 7 60 -18 153 -54 201 -25 33 -25 34 -9 60 45 69
            60 116 60 191 1 97 -28 164 -95 224 -74 66 -113 76 -309 76 -157 0 -169 -1
            -200 -22z m374 -179 c29 -23 56 -68 56 -94 0 -32 -34 -88 -64 -106 -26 -16
            -51 -19 -148 -19 l-118 0 0 120 0 120 124 0 c110 0 126 -2 150 -21z m-15 -417
            c36 -19 71 -72 71 -107 0 -31 -36 -83 -72 -105 -28 -17 -51 -20 -145 -20
            l-113 0 0 125 0 125 113 0 c90 0 119 -4 146 -18z"/>
            <path d="M3245 2434 c-174 -141 -354 -219 -564 -245 -127 -15 -156 -33 -156
            -98 0 -29 7 -47 23 -63 20 -20 32 -23 100 -21 244 6 555 136 730 303 35 34 42
            47 42 78 -1 41 -13 63 -47 80 -40 22 -70 13 -128 -34z"/>
        </g>
    </symbol>

    <symbol id="item3" viewBox="0 0 512.000000 512.000000">
        <g transform="translate(0.000000,512.000000) scale(0.100000,-0.100000)">
            <path d="M2260 5104 c-650 -100 -1199 -484 -1508 -1051 -302 -556 -331 -1224
            -78 -1808 167 -385 452 -713 816 -938 161 -99 410 -202 589 -242 38 -9 81 -25
            95 -36 23 -18 96 -137 96 -156 0 -4 -37 -18 -83 -31 -291 -81 -460 -279 -404
            -473 54 -183 263 -314 577 -360 108 -15 400 -6 500 16 167 37 338 127 408 214
            79 98 100 224 55 324 -30 64 -114 151 -193 197 -66 39 -226 100 -261 100 -10
            0 -19 4 -19 10 0 17 69 136 90 155 11 10 76 33 144 51 637 169 1147 622 1390
            1234 155 392 184 850 81 1261 -169 668 -676 1220 -1325 1442 -94 32 -210 62
            -320 83 -121 23 -522 28 -650 8z m450 -198 c317 -17 674 -152 958 -364 493
            -368 785 -1006 733 -1603 -50 -582 -335 -1076 -808 -1399 -184 -126 -356 -204
            -585 -266 -203 -54 -234 -82 -359 -322 -46 -89 -86 -162 -89 -162 -3 0 -43 73
            -89 162 -126 241 -159 271 -372 326 -947 248 -1543 1199 -1349 2154 148 724
            728 1300 1460 1448 98 20 314 40 370 34 14 -2 72 -5 130 -8z m-280 -4334 c53
            -103 75 -125 130 -125 55 0 77 22 131 125 l51 99 41 -6 c195 -34 376 -156 351
            -239 -20 -67 -150 -149 -295 -187 -224 -58 -531 -34 -707 55 -70 36 -135 95
            -146 133 -14 46 50 120 144 168 49 25 200 73 232 74 12 1 33 -30 68 -97z"/>
            <path d="M2050 4439 c-56 -22 -60 -38 -60 -241 l0 -188 -273 0 -274 0 -61 -30
            c-68 -35 -115 -82 -146 -149 -20 -44 -21 -60 -21 -461 0 -402 1 -417 22 -486
            24 -74 92 -166 133 -179 19 -6 20 -18 20 -325 0 -295 2 -323 20 -373 29 -76
            79 -130 158 -169 l67 -33 925 0 925 0 67 33 c79 39 129 93 158 169 18 50 20
            78 20 373 0 307 1 319 20 325 41 13 109 105 133 179 21 69 22 84 22 486 l0
            415 -28 57 c-30 61 -74 105 -140 140 -40 22 -54 23 -324 26 l-283 3 0 185 c0
            205 -5 223 -62 243 -40 14 -982 14 -1018 0z m870 -314 l0 -115 -360 0 -360 0
            0 115 0 115 360 0 360 0 0 -115z m731 -335 c46 -25 49 -47 49 -414 0 -380 -6
            -433 -50 -478 l-28 -28 -236 0 -236 0 0 70 c0 106 -31 150 -105 150 -72 0
            -105 -47 -105 -150 l0 -70 -380 0 -380 0 0 70 c0 38 -5 81 -12 95 -21 47 -85
            67 -142 45 -38 -14 -56 -59 -56 -140 l0 -70 -236 0 -236 0 -28 28 c-44 45 -50
            98 -50 478 0 364 3 387 47 413 25 14 2157 15 2184 1z m-1679 -1196 c4 -58 8
            -70 32 -90 19 -17 39 -24 69 -24 71 1 107 44 107 129 l0 51 380 0 380 0 0 -51
            c0 -85 36 -128 107 -129 30 0 50 7 69 24 24 20 28 32 32 90 l4 66 184 0 184 0
            0 -280 c0 -314 -3 -330 -65 -356 -51 -21 -1739 -21 -1790 0 -62 26 -65 42 -65
            356 l0 280 184 0 184 0 4 -66z"/>
        </g>
    </symbol>

    <symbol id="item2" viewBox="0 0 512.000000 512.000000">
        <g transform="translate(0.000000,512.000000) scale(0.100000,-0.100000)">
            <path d="M1020 5101 c-53 -14 -65 -21 -63 -37 1 -15 163 -662 167 -671 2 -2
            169 39 174 42 1 1 -37 156 -85 344 -98 386 -78 352 -193 322z"/>
            <path d="M3535 5078 c-24 -21 -28 -38 -54 -208 -28 -191 -40 -227 -78 -236
            -51 -13 -71 4 -184 154 -111 148 -135 171 -177 172 -32 0 -51 -11 -184 -112
            l-117 -88 -193 -3 c-151 -3 -216 -9 -298 -26 -353 -75 -663 -253 -891 -514
            -226 -258 -372 -593 -396 -909 l-6 -78 -32 0 c-54 0 -71 -29 -104 -189 -17
            -79 -31 -145 -31 -147 0 -2 -55 35 -122 81 -175 122 -163 125 -350 -63 -187
            -186 -184 -174 -68 -347 44 -65 78 -120 75 -123 -2 -3 -66 -18 -142 -34 -195
            -41 -183 -22 -183 -283 0 -261 -12 -242 183 -284 76 -16 141 -31 143 -34 3 -3
            -31 -58 -75 -123 -118 -171 -120 -159 67 -346 187 -187 175 -185 346 -67 65
            44 120 78 123 75 3 -3 19 -67 35 -143 23 -110 34 -143 54 -163 l24 -25 205 0
            205 0 24 25 c20 20 31 53 54 163 16 76 32 140 34 143 3 3 59 -31 124 -76 157
            -107 168 -107 269 -9 l73 71 4 -164 c3 -149 5 -167 27 -208 35 -66 60 -97 103
            -126 l38 -27 0 -268 c0 -321 6 -346 99 -440 92 -92 122 -99 411 -99 279 0 317
            8 403 89 100 93 117 163 117 489 l0 222 58 58 c95 93 104 124 112 427 8 279
            13 303 78 390 20 28 76 78 122 113 145 107 191 145 187 156 -5 14 -100 124
            -109 125 -16 2 -237 -168 -293 -224 -58 -59 -108 -139 -142 -227 -13 -34 -18
            -97 -22 -298 -7 -284 -10 -295 -78 -347 l-36 -28 -381 -3 c-379 -3 -381 -2
            -425 20 -84 43 -85 46 -92 326 -8 275 -16 323 -75 432 -46 83 -105 145 -224
            230 -132 96 -203 158 -283 248 -468 529 -483 1310 -36 1858 246 301 648 508
            1004 517 89 2 90 2 93 -23 2 -14 52 -90 112 -170 59 -80 111 -155 114 -167 10
            -31 -19 -81 -51 -89 -14 -4 -94 3 -177 15 -200 28 -236 28 -265 -3 -20 -21
            -28 -58 -62 -293 -21 -147 -39 -276 -39 -285 0 -9 10 -29 23 -43 21 -25 36
            -29 207 -54 102 -15 195 -33 206 -39 33 -18 49 -64 32 -95 -7 -14 -80 -76
            -162 -139 -166 -125 -181 -145 -152 -204 18 -39 303 -421 331 -444 9 -8 34
            -15 55 -15 31 0 59 17 188 113 138 103 154 113 188 110 30 -2 42 -9 56 -34 17
            -29 17 -36 -9 -221 -26 -183 -26 -191 -9 -217 9 -15 27 -31 39 -35 12 -5 142
            -26 290 -46 235 -34 270 -37 293 -25 14 8 30 22 35 32 5 9 21 97 35 195 30
            210 38 228 105 228 l44 0 113 -150 c116 -154 149 -183 196 -171 33 8 461 328
            469 351 10 25 8 64 -4 87 -6 12 -58 83 -115 160 -62 83 -104 148 -104 162 0
            13 9 35 21 50 26 33 45 33 254 5 171 -24 206 -22 230 14 16 24 85 475 85 554
            0 33 -6 50 -25 68 -13 14 -28 25 -34 25 -49 0 -360 54 -378 65 -30 20 -40 62
            -22 94 8 14 75 72 149 128 74 56 143 112 153 124 40 49 29 73 -150 311 -173
            229 -192 248 -246 234 -14 -3 -92 -56 -173 -116 -162 -120 -186 -129 -229 -85
            -31 30 -31 34 0 244 26 183 25 208 -17 235 -22 14 -484 86 -554 86 -20 0 -43
            -9 -59 -22z m324 -194 l133 -18 -5 -51 c-3 -27 -11 -94 -18 -148 -15 -113 -6
            -167 39 -232 44 -63 108 -97 196 -103 90 -6 127 11 270 119 53 39 98 70 100
            68 45 -56 186 -250 186 -256 -1 -4 -38 -35 -83 -68 -174 -127 -201 -166 -202
            -285 0 -93 29 -158 93 -207 51 -39 82 -48 237 -70 66 -9 122 -17 124 -19 3 -3
            -39 -316 -44 -322 -1 -1 -49 5 -105 13 -197 30 -270 20 -345 -47 -60 -52 -80
            -101 -80 -193 0 -94 4 -102 110 -244 41 -56 75 -103 75 -105 0 -6 -244 -187
            -254 -187 -5 -1 -48 50 -95 112 -73 96 -95 118 -142 142 -95 49 -210 37 -288
            -29 -60 -50 -80 -99 -103 -255 -11 -79 -21 -145 -22 -146 -2 -3 -316 43 -320
            48 -2 2 5 63 15 134 22 146 18 197 -17 267 -41 81 -126 129 -228 130 -79 0
            -111 -15 -241 -111 l-108 -80 -94 124 c-51 69 -93 129 -93 134 0 5 42 40 93
            78 119 91 141 111 168 164 51 95 19 250 -64 313 -53 40 -96 54 -232 73 -79 11
            -129 22 -132 30 -5 14 33 302 41 310 3 3 60 -3 126 -12 184 -26 257 -14 329
            57 55 54 76 104 75 183 0 86 -14 117 -119 255 l-74 98 130 98 131 98 19 -26
            c157 -215 204 -256 308 -265 84 -8 142 11 200 63 59 53 77 94 96 227 26 180
            23 170 53 164 15 -3 87 -13 161 -23z m-2846 -2176 c21 -71 21 -78 -1 -78 -35
            0 -137 -41 -189 -75 -102 -68 -174 -165 -214 -287 -27 -86 -24 -232 8 -319 26
            -72 90 -167 145 -214 50 -42 163 -99 228 -114 197 -45 427 46 538 214 l29 43
            84 -60 c110 -78 162 -130 196 -195 l28 -53 -85 -85 c-46 -47 -89 -85 -93 -85
            -5 0 -44 24 -86 53 -42 30 -90 61 -108 70 -69 36 -177 9 -220 -56 -13 -18 -31
            -74 -42 -129 -35 -166 -19 -148 -126 -148 -81 0 -94 2 -99 18 -2 9 -14 61 -26
            115 -11 55 -27 111 -34 125 -31 59 -87 92 -157 92 -48 0 -78 -15 -181 -86 -43
            -30 -81 -54 -85 -54 -11 0 -143 133 -143 143 0 5 25 44 55 87 84 119 101 176
            74 247 -25 67 -70 95 -201 123 -51 11 -103 22 -115 25 -22 5 -23 10 -23 100 0
            81 2 94 18 99 9 2 66 15 126 27 120 24 166 52 192 116 31 73 16 128 -70 251
            -31 44 -56 83 -56 88 0 10 131 144 141 144 4 0 51 -30 105 -67 83 -57 105 -67
            150 -71 79 -7 135 24 168 91 14 28 27 58 27 66 1 9 7 -11 14 -44 6 -33 19 -85
            28 -117z m124 -312 c48 -96 112 -191 198 -295 l77 -93 -17 -38 c-54 -119 -221
            -199 -353 -171 -145 32 -253 151 -268 297 -16 151 86 303 235 348 85 27 93 24
            128 -48z m1773 -1716 l0 -80 -335 0 -335 0 0 80 0 80 335 0 335 0 0 -80z m0
            -296 c0 -50 -18 -115 -39 -141 -10 -12 -33 -31 -52 -42 -32 -19 -49 -21 -250
            -21 -208 0 -217 1 -250 23 -57 38 -79 81 -79 153 l0 64 335 0 335 0 0 -36z"/>
            <path d="M3568 4310 c-152 -18 -279 -81 -394 -195 -131 -130 -191 -264 -201
            -450 -7 -130 13 -222 71 -340 112 -227 319 -360 577 -373 133 -6 228 14 337
            68 179 90 305 246 358 440 23 85 23 251 1 340 -87 334 -405 550 -749 510z
            m240 -202 c229 -73 381 -318 343 -550 -40 -243 -254 -427 -496 -428 -324 0
            -571 314 -490 625 23 87 62 152 136 228 139 140 320 185 507 125z"/>
            <path d="M270 4589 c-29 -39 -48 -74 -43 -78 6 -3 140 -99 300 -213 160 -115
            293 -208 296 -208 6 0 96 126 100 140 2 8 -562 416 -589 427 -6 2 -35 -28 -64
            -68z"/>
            <path d="M1870 4112 c-264 -195 -429 -469 -481 -795 -17 -108 -6 -348 20 -447
            64 -245 177 -440 346 -598 97 -91 185 -148 348 -227 180 -87 266 -163 325
            -287 25 -55 52 -155 52 -197 l0 -31 91 0 92 0 -7 68 c-11 103 -24 149 -73 249
            -31 65 -64 113 -110 163 -79 86 -146 132 -273 190 -175 80 -260 139 -368 255
            -128 137 -211 297 -254 489 -26 118 -21 330 10 448 61 227 194 426 374 560 37
            28 68 53 68 56 0 5 -90 152 -93 152 -1 0 -31 -22 -67 -48z"/>
            <path d="M425 3742 c-187 -47 -341 -85 -342 -86 0 -1 8 -40 19 -89 17 -71 24
            -87 37 -83 9 3 162 42 341 86 178 45 326 83 328 85 5 5 -28 144 -37 161 -4 7
            -119 -18 -346 -74z"/>
            <path d="M4180 1870 l0 -90 300 0 300 0 0 90 0 90 -300 0 -300 0 0 -90z"/>
            <path d="M4091 1444 c-29 -36 -52 -67 -50 -69 2 -1 119 -98 259 -215 l255
            -212 48 53 c26 30 52 62 58 71 8 15 -30 50 -243 228 -138 115 -257 210 -262
            210 -6 0 -35 -30 -65 -66z"/>
            <path d="M2480 1230 l0 -130 90 0 90 0 0 130 0 130 -90 0 -90 0 0 -130z"/>
            <path d="M3670 980 l0 -300 90 0 90 0 0 300 0 300 -90 0 -90 0 0 -300z"/>
        </g>
    </symbol>

    <symbol id="item1" viewBox="0 0 512.000000 512.000000">
        <g transform="translate(0.000000,512.000000) scale(0.100000,-0.100000)">
            <path d="M80 4320 l0 -720 245 0 245 0 -30 -59 c-78 -155 -153 -382 -185 -563
            l-17 -97 -44 -15 c-92 -31 -168 -105 -200 -193 -16 -45 -18 -163 -4 -214 23
            -82 114 -174 202 -204 l46 -16 12 -67 c6 -37 22 -111 35 -165 14 -54 25 -100
            25 -102 0 -3 -42 -26 -93 -51 -105 -52 -167 -107 -205 -179 -22 -43 -27 -65
            -30 -162 -7 -181 45 -382 154 -593 78 -154 162 -268 289 -395 127 -127 241
            -211 395 -289 211 -109 412 -161 593 -154 97 3 119 8 162 30 72 38 127 100
            179 206 25 50 49 92 52 92 3 0 49 -11 102 -24 53 -14 127 -30 164 -36 65 -12
            67 -13 78 -48 29 -92 110 -175 202 -208 52 -18 164 -18 216 0 92 33 173 116
            201 207 l12 36 107 21 c297 58 576 172 822 337 l110 73 0 -112 c0 -128 13
            -186 67 -288 82 -158 283 -288 445 -288 l48 0 0 84 0 83 -55 6 c-79 8 -157 47
            -221 111 -97 98 -124 190 -124 436 0 175 13 260 50 337 36 73 110 144 190 182
            48 23 68 26 160 26 99 0 110 -2 172 -33 77 -38 149 -111 184 -187 36 -78 44
            -164 44 -493 0 -241 -3 -310 -14 -337 -16 -37 -48 -52 -92 -41 -50 13 -54 42
            -54 423 0 388 -1 394 -71 460 -47 44 -98 63 -171 63 -74 0 -129 -23 -175 -71
            -59 -62 -63 -85 -63 -331 0 -254 5 -274 78 -340 50 -46 100 -61 180 -56 l62 3
            0 -75 c0 -87 20 -138 71 -187 47 -44 98 -63 171 -63 74 0 129 23 175 71 63 67
            63 67 63 509 l0 401 -25 76 c-59 175 -183 299 -358 358 -42 14 -83 25 -91 25
            -14 0 -12 9 10 52 78 154 157 394 190 575 l16 92 47 16 c87 29 165 107 196
            195 18 52 19 172 1 223 -31 86 -118 169 -207 196 -36 12 -37 12 -53 99 -8 48
            -18 102 -22 120 l-6 32 61 0 c102 0 182 49 222 135 18 38 19 81 19 825 0 744
            -1 787 -19 825 -10 22 -34 54 -52 72 -67 64 -61 63 -569 63 -508 0 -502 1
            -569 -63 -65 -62 -71 -88 -71 -315 l0 -203 -42 26 c-90 56 -328 165 -444 204
            -66 22 -183 53 -259 68 l-138 29 -12 42 c-26 87 -119 176 -210 202 -66 18
            -189 9 -244 -19 -66 -34 -127 -103 -152 -172 -14 -39 -27 -59 -38 -59 -9 0
            -62 -11 -118 -23 l-103 -24 0 154 0 153 -960 0 -960 0 0 -720z m1605 508 c-26
            -29 -156 -173 -288 -320 l-241 -268 -116 0 -115 0 -195 217 c-107 119 -237
            263 -288 320 l-94 103 692 0 692 0 -47 -52z m941 31 c57 -27 88 -77 88 -141 0
            -149 -206 -204 -284 -76 -49 81 -3 201 86 228 46 13 65 11 110 -11z m2198 7
            c36 -15 56 -54 56 -112 l0 -34 -480 0 -480 0 0 34 c0 56 20 97 54 112 46 20
            802 20 850 0z m-4302 -841 c-125 -83 -239 -160 -254 -169 l-28 -18 0 451 0
            452 254 -283 255 -282 -227 -151z m1316 40 l-3 -225 -252 168 -252 168 252
            280 252 279 3 -222 c1 -123 1 -324 0 -448z m431 510 c20 -55 101 -130 168
            -155 77 -29 196 -25 264 8 57 28 124 94 146 145 17 37 18 38 58 32 240 -37
            556 -161 773 -301 l82 -54 0 -475 c0 -524 -1 -516 63 -584 66 -69 76 -71 424
            -71 l311 0 21 -87 c11 -49 23 -106 26 -128 6 -39 5 -41 -32 -57 -51 -23 -117
            -90 -145 -147 -33 -67 -33 -215 0 -282 28 -57 94 -124 144 -147 37 -16 38 -18
            32 -57 -24 -165 -99 -396 -189 -579 -44 -89 -65 -121 -84 -128 -14 -6 -62 -28
            -106 -49 -153 -72 -270 -228 -298 -396 -12 -72 -12 -72 -77 -124 -156 -125
            -377 -250 -574 -323 -95 -36 -287 -88 -372 -101 -39 -6 -42 -5 -48 21 -4 15
            -35 55 -69 89 -78 78 -133 99 -245 93 -121 -5 -224 -70 -269 -169 -17 -38 -19
            -39 -58 -33 -60 8 -279 64 -286 72 -3 4 -14 31 -23 61 -23 70 -64 131 -118
            170 -23 17 -101 55 -172 83 l-131 53 -120 0 c-140 0 -195 -17 -294 -90 l-59
            -44 -56 40 c-30 22 -73 65 -95 96 l-40 55 34 40 c76 90 109 197 103 335 -4 87
            -10 111 -51 218 -26 65 -59 140 -75 164 -36 60 -112 116 -185 138 -41 12 -62
            24 -67 38 -11 30 -57 223 -64 270 -6 39 -5 41 32 57 51 23 116 90 144 147 16
            32 24 69 26 123 6 112 -15 167 -93 245 -34 34 -74 65 -89 69 -31 7 -31 1 -5
            127 36 179 94 341 192 535 l41 82 618 0 618 0 0 479 0 480 98 21 c53 12 102
            23 107 25 35 11 52 3 64 -30z m2611 -495 l0 -480 -480 0 -480 0 0 480 0 480
            480 0 480 0 0 -480z m-3475 -160 l240 -160 -605 0 -605 0 240 160 240 160 125
            0 125 0 240 -160z m3475 -514 c0 -58 -20 -97 -56 -112 -44 -18 -792 -21 -844
            -3 -37 13 -60 57 -60 114 l0 35 480 0 480 0 0 -34z m-4402 -716 c130 -79 74
            -280 -78 -280 -152 0 -208 201 -78 280 20 12 51 20 78 20 27 0 58 -8 78 -20z
            m4320 0 c96 -59 96 -201 0 -260 -43 -26 -113 -26 -156 0 -130 79 -74 280 78
            280 27 0 58 -8 78 -20z m-4180 -954 c50 -26 80 -70 127 -190 46 -114 47 -122
            43 -200 -6 -101 -28 -147 -110 -225 l-60 -58 25 -62 c71 -176 193 -297 365
            -361 l54 -21 73 69 c125 120 221 133 414 56 159 -63 201 -105 201 -202 0 -64
            -75 -219 -123 -256 -68 -52 -150 -54 -329 -10 -247 60 -458 180 -646 367 -216
            213 -347 462 -397 755 -30 171 0 233 146 307 99 49 164 58 217 31z m3902 -716
            c31 -16 40 -67 40 -222 0 -168 -11 -213 -54 -224 -44 -11 -76 4 -92 41 -17 41
            -20 318 -4 362 19 49 65 67 110 43z m-1882 -490 c130 -79 74 -280 -78 -280
            -85 0 -150 65 -150 150 0 116 129 190 228 130z"/>
            <path d="M2480 4000 l0 -240 80 0 80 0 0 240 0 240 -80 0 -80 0 0 -240z"/>
            <path d="M2345 3583 c-204 -43 -364 -132 -520 -288 -124 -124 -187 -219 -241
            -363 -48 -128 -64 -222 -64 -372 0 -285 91 -514 284 -717 136 -143 277 -230
            473 -290 83 -25 100 -27 283 -27 183 0 200 2 283 27 196 60 337 147 473 290
            193 203 284 432 284 717 0 206 -44 371 -146 542 -67 114 -238 285 -352 352
            -97 58 -227 108 -334 130 -99 20 -326 20 -423 -1z m291 -185 c21 -18 52 -56
            70 -84 30 -47 84 -166 84 -186 0 -4 -103 -8 -230 -8 -126 0 -230 4 -230 8 0
            20 54 139 84 186 49 77 98 116 146 116 30 0 48 -8 76 -32z m-396 -33 c0 -3
            -11 -27 -24 -53 -13 -26 -34 -80 -47 -119 l-23 -73 -130 0 -130 0 35 36 c57
            59 151 130 229 173 73 40 90 46 90 36z m730 -36 c78 -43 172 -114 229 -173
            l35 -36 -130 0 -130 0 -23 73 c-13 39 -34 93 -47 119 -37 73 -36 73 66 17z
            m-865 -391 c-9 -38 -25 -200 -25 -250 l0 -48 -195 0 c-170 0 -195 2 -195 16 0
            36 34 164 62 232 l30 72 164 0 164 0 -5 -22z m744 -55 c7 -43 15 -115 18 -160
            l6 -83 -313 0 -313 0 6 90 c4 49 12 121 18 160 l12 70 277 0 278 0 11 -77z
            m519 5 c28 -68 62 -196 62 -232 0 -14 -25 -16 -195 -16 l-195 0 0 48 c0 50
            -16 212 -25 250 l-5 22 164 0 164 0 30 -72z m-1288 -455 c0 -51 16 -213 25
            -250 l5 -23 -164 0 -164 0 -30 73 c-28 67 -62 195 -62 231 0 14 25 16 195 16
            l195 0 0 -47z m787 -35 c-3 -46 -11 -118 -18 -160 l-11 -78 -278 0 -277 0 -12
            70 c-6 39 -14 111 -18 160 l-6 90 313 0 313 0 -6 -82z m563 66 c0 -36 -34
            -164 -62 -231 l-30 -73 -164 0 -164 0 5 23 c9 37 25 199 25 250 l0 47 195 0
            c170 0 195 -2 195 -16z m-1261 -536 c13 -40 34 -95 48 -121 13 -27 22 -51 19
            -54 -3 -3 -40 13 -82 36 -81 44 -175 114 -233 175 l-35 36 130 0 130 0 23 -72z
            m621 64 c0 -20 -54 -139 -84 -186 -99 -154 -193 -154 -292 0 -30 47 -84 166
            -84 186 0 4 104 8 230 8 127 0 230 -4 230 -8z m409 -28 c-58 -61 -152 -131
            -233 -175 -42 -23 -79 -39 -82 -37 -2 3 9 34 25 69 16 35 37 90 47 122 l18 57
            130 0 130 0 -35 -36z"/>
            <path d="M880 2560 l0 -80 240 0 240 0 0 80 0 80 -240 0 -240 0 0 -80z"/>
            <path d="M3760 2560 l0 -80 240 0 240 0 0 80 0 80 -240 0 -240 0 0 -80z"/>
            <path d="M2480 1120 l0 -240 80 0 80 0 0 240 0 240 -80 0 -80 0 0 -240z"/>
        </g>
    </symbol>

    
</svg>