<?xml version="1.0" standalone="no"?>
<!DOCTYPE svg PUBLIC "-//W3C//DTD SVG 20010904//EN"
 "http://www.w3.org/TR/2001/REC-SVG-20010904/DTD/svg10.dtd">
<svg version="1.0" xmlns="http://www.w3.org/2000/svg"
 width="512.000000pt" height="512.000000pt" viewBox="0 0 512.000000 512.000000"
 preserveAspectRatio="xMidYMid meet">
<metadata>
Created by potrace 1.16, written by Peter Selinger 2001-2019
</metadata>
<g transform="translate(0.000000,512.000000) scale(0.100000,-0.100000)"
fill="#000000" stroke="none">
<path d="M4855 4415 c-22 -8 -42 -15 -45 -15 -2 0 -728 -723 -1612 -1607
l-1608 -1608 -637 637 c-444 443 -649 642 -675 653 -100 41 -231 -12 -267
-108 -16 -41 -13 -122 4 -165 19 -45 1408 -1440 1470 -1477 56 -32 97 -39 158
-25 52 12 62 22 1745 1704 969 968 1702 1707 1713 1728 12 24 19 57 19 93 0
94 -50 165 -134 190 -61 18 -80 18 -131 0z"/>
</g>
</svg>
