<?xml version="1.0" encoding="UTF-8"?>
<!DOCTYPE svg PUBLIC "-//W3C//DTD SVG 1.1//EN" "http://www.w3.org/Graphics/SVG/1.1/DTD/svg11.dtd">
<svg xmlns="http://www.w3.org/2000/svg" version="1.1" width="512px" height="512px" style="shape-rendering:geometricPrecision; text-rendering:geometricPrecision; image-rendering:optimizeQuality; fill-rule:evenodd; clip-rule:evenodd" xmlns:xlink="http://www.w3.org/1999/xlink">
<g><path style="opacity:0.986" fill="#ffffff" d="M 245.5,52.5 C 283.015,50.1713 311.515,64.8379 331,96.5C 347.699,131.274 344.365,163.941 321,194.5C 293.576,222.813 261.076,230.647 223.5,218C 189.661,202.698 171.661,176.365 169.5,139C 173.133,90.8783 198.467,62.045 245.5,52.5 Z"/></g>
<g><path style="opacity:0.992" fill="#ffffff" d="M 202.5,265.5 C 237.835,265.333 273.168,265.5 308.5,266C 367.374,270.507 402.54,301.674 414,359.5C 415.98,374.837 415.98,390.171 414,405.5C 406.915,437.91 386.748,455.41 353.5,458C 288.167,458.667 222.833,458.667 157.5,458C 121.695,454.527 101.195,435.027 96,399.5C 91.1068,358.179 102.94,322.679 131.5,293C 152.253,276.25 175.919,267.083 202.5,265.5 Z"/></g>
</svg>
