<?xml version="1.0" standalone="no"?>
<!DOCTYPE svg PUBLIC "-//W3C//DTD SVG 20010904//EN"
 "http://www.w3.org/TR/2001/REC-SVG-20010904/DTD/svg10.dtd">
<svg version="1.0" xmlns="http://www.w3.org/2000/svg"
 width="512.000000pt" height="512.000000pt" viewBox="0 0 512.000000 512.000000"
 preserveAspectRatio="xMidYMid meet">
<metadata>
Created by potrace 1.16, written by Peter Selinger 2001-2019
</metadata>
<g transform="translate(0.000000,512.000000) scale(0.100000,-0.100000)"
fill="#000000" stroke="none">
<path d="M1495 5021 c-22 -10 -54 -34 -72 -52 -64 -68 -63 -60 -63 -583 l0
-475 -102 -54 -103 -54 -92 48 c-50 27 -98 49 -105 49 -17 0 -538 -521 -538
-538 0 -7 22 -55 49 -105 l49 -92 -48 -84 c-53 -92 -137 -297 -165 -404 l-18
-68 -104 -31 -103 -32 0 -386 0 -386 103 -32 104 -31 18 -68 c28 -107 112
-312 165 -404 l48 -84 -49 -93 c-27 -51 -49 -98 -49 -105 0 -18 522 -537 540
-537 8 1 55 23 103 49 l89 49 86 -49 c101 -56 271 -125 390 -159 l83 -24 31
-103 32 -103 386 0 386 0 32 103 31 104 68 18 c107 28 312 112 404 165 l84 48
93 -49 c51 -27 98 -49 105 -49 16 0 537 522 537 538 0 7 -22 55 -49 105 l-49
92 48 83 c58 101 124 262 160 392 l27 95 79 57 79 57 335 1 c373 0 381 2 447
71 68 72 63 -40 63 1531 0 1365 -1 1425 -19 1463 -10 22 -34 54 -52 72 -72 68
65 63 -1771 63 -1599 0 -1665 -1 -1703 -19z m3329 -155 c50 -21 56 -51 56
-272 l0 -194 -1680 0 -1680 0 0 194 c0 218 7 251 54 272 47 20 3201 21 3250 0z
m56 -1700 c0 -775 -3 -1082 -11 -1106 -23 -64 80 -60 -1669 -60 -1749 0 -1646
-4 -1669 60 -8 24 -11 331 -11 1106 l0 1074 1680 0 1680 0 0 -1074z m-3520
472 l0 -83 -93 -62 c-350 -234 -584 -580 -679 -1005 -20 -91 -23 -129 -23
-328 0 -246 8 -303 67 -490 180 -566 669 -991 1259 -1091 106 -18 152 -20 314
-17 161 4 208 9 309 32 405 93 752 329 975 663 100 148 205 394 236 551 l7 32
78 0 78 0 -28 -110 c-49 -185 -110 -324 -236 -538 l-19 -32 45 -85 45 -85
-182 -182 -182 -182 -85 45 -86 44 -32 -19 c-216 -128 -361 -190 -543 -236
l-110 -28 -29 -96 -30 -96 -256 0 -256 0 -30 96 -29 96 -110 28 c-178 45 -319
104 -481 201 -45 27 -87 49 -94 49 -7 0 -48 -19 -91 -42 l-79 -43 -182 182
-182 182 45 85 44 86 -19 32 c-128 216 -190 361 -236 543 l-28 110 -96 29 -96
30 0 256 0 256 96 30 96 29 28 110 c46 182 108 326 236 543 l19 32 -45 85 -45
85 183 183 182 182 79 -42 c43 -24 85 -43 92 -43 8 1 55 25 104 55 50 30 91
54 93 55 1 0 2 -37 2 -82z m0 -483 l0 -195 -196 0 -195 0 60 78 c72 92 160
181 256 256 39 30 71 55 73 56 1 0 2 -88 2 -195z m0 -635 l0 -280 -315 0 -315
0 0 28 c0 98 52 310 108 444 l37 88 243 0 242 0 0 -280z m0 -472 c0 -18 9 -51
19 -74 19 -43 91 -111 126 -120 19 -5 22 -17 33 -122 7 -64 15 -138 19 -164
l6 -48 -341 0 -342 0 -19 38 c-53 104 -112 317 -126 455 l-7 67 316 0 316 0 0
-32z m1260 -227 c0 -25 -28 -248 -35 -278 l-5 -23 -420 0 -420 0 -5 23 c-7 30
-35 253 -35 278 0 19 11 19 460 19 449 0 460 0 460 -19z m918 -53 c-11 -40
-36 -112 -56 -160 l-35 -88 -345 0 -345 0 6 48 c3 26 11 98 18 160 l12 112
383 0 382 0 -20 -72z m-1928 -465 c34 -157 130 -402 194 -495 31 -46 25 -47
-80 -12 -116 37 -271 114 -376 186 -102 69 -258 218 -332 316 l-47 62 314 0
314 0 13 -57z m919 -13 c-34 -122 -59 -192 -109 -296 -113 -234 -235 -316
-348 -234 -106 77 -210 272 -281 530 l-20 70 389 0 389 0 -20 -70z m789 23
c-58 -83 -226 -249 -321 -317 -110 -78 -258 -153 -383 -195 -122 -41 -130 -41
-98 7 64 93 160 338 194 495 l13 57 314 0 314 0 -33 -47z"/>
<path d="M1680 4640 l0 -80 80 0 80 0 0 80 0 80 -80 0 -80 0 0 -80z"/>
<path d="M2000 4640 l0 -80 80 0 80 0 0 80 0 80 -80 0 -80 0 0 -80z"/>
<path d="M2320 4640 l0 -80 80 0 80 0 0 80 0 80 -80 0 -80 0 0 -80z"/>
<path d="M1680 3120 l0 -960 1520 0 1520 0 0 960 0 960 -1520 0 -1520 0 0
-960z m2880 0 l0 -800 -1360 0 -1360 0 0 800 0 800 1360 0 1360 0 0 -800z"/>
<path d="M2385 3470 l-350 -350 352 -352 353 -353 62 63 63 62 -290 290 -290
290 290 290 290 290 -60 60 c-33 33 -62 60 -65 60 -3 0 -163 -158 -355 -350z"/>
<path d="M3595 3760 l-60 -60 290 -290 290 -290 -290 -290 -290 -290 63 -62
62 -63 353 353 352 352 -350 350 c-192 192 -352 350 -355 350 -3 0 -32 -27
-65 -60z"/>
<path d="M3275 3768 c-8 -23 -315 -1257 -315 -1267 0 -9 115 -41 147 -41 16 0
40 88 176 633 87 347 157 637 157 643 0 6 -33 18 -72 27 -87 20 -87 20 -93 5z"/>
</g>
</svg>
